<?xml version="1.0" encoding="UTF-8"?><svg xmlns="http://www.w3.org/2000/svg" viewBox="0 0 517.9 314.85"><defs><style>.d{fill:#c0200d;opacity:.7;}</style></defs><g id="a"/><g id="b"><g id="c"><path class="d" d="M49.78,71.18c-4.66,2.04-11.14,3.57-19.43,4.58-8.3,1.02-13.76,1.68-16.38,1.97L0,35.81c0,.29,3.06-.5,9.17-2.4,6.11-1.89,12.81-5.17,20.09-9.83,7.27-4.65,14.12-11.06,20.52-19.21h48.03V310.04H49.34l.44-238.86Zm185.59-18.78H117.03V4.37h172.05V52.4l-127.51,257.64h-52.84L235.37,52.4Zm142.35,203.49c9.02,7.86,20.81,11.79,35.37,11.79,12.23,0,22.2-2.03,29.91-6.11,7.71-4.07,13.32-9.02,16.81-14.85,3.49-5.82,5.24-11.5,5.24-17.03,0-12.81-3.13-23.51-9.39-32.1-6.26-8.58-13.97-15.43-23.14-20.52-9.17-5.09-21.62-10.98-37.34-17.69-17.18-7.27-30.79-13.9-40.83-19.87-10.04-5.96-18.63-14.12-25.76-24.45-7.14-10.33-10.7-23.51-10.7-39.52,0-12.81,3.64-24.96,10.92-36.46,7.27-11.5,18.34-20.89,33.19-28.17,14.85-7.27,33.04-10.92,54.58-10.92,14.26,0,26.05,1.02,35.37,3.06,9.31,2.04,18.78,5.39,28.38,10.04l-15.28,45.42c-10.48-3.49-19-5.96-25.55-7.42-6.55-1.45-14.05-2.18-22.49-2.18-16.59,0-28.82,2.91-36.68,8.73-7.86,5.83-11.35,13.25-10.48,22.27,.87,7.28,5.31,13.54,13.32,18.78,8,5.24,20.45,11.65,37.34,19.21,19.79,8.73,36.24,17.03,49.34,24.89s24.38,18.63,33.84,32.31c9.46,13.69,14.19,30.42,14.19,50.22,0,25.91-8.59,47.31-25.76,64.19-17.18,16.89-43.38,25.33-78.6,25.33-21.55,0-39.96-4.01-55.24-12.01-15.28-8-26.93-18.34-34.93-31-8.01-12.66-12.3-25.83-12.88-39.52l51.53-7.42c1.45,12.81,6.69,23.14,15.72,31Z"/></g></g></svg>