<?xml version="1.0" encoding="utf-8"?>
<!-- Generator: Adobe Illustrator 26.2.1, SVG Export Plug-In . SVG Version: 6.00 Build 0)  -->
<svg version="1.1" id="Capa_1" xmlns="http://www.w3.org/2000/svg" xmlns:xlink="http://www.w3.org/1999/xlink" x="0px" y="0px"
	 viewBox="0 0 688.9 193.3" style="enable-background:new 0 0 688.9 193.3;" xml:space="preserve">
<style type="text/css">
	
		.st0{clip-path:url(#SVGID_00000013160935960258114530000006489309517984733313_);fill:url(#SVGID_00000141454529691468343140000009810017835841377169_);}
	
		.st1{clip-path:url(#SVGID_00000045577146551130047770000012258664479118417853_);fill:url(#SVGID_00000112590774469172844980000009855741890038906496_);}
	
		.st2{clip-path:url(#SVGID_00000057108800610192995060000006626612784876165506_);fill:url(#SVGID_00000150807442475264493880000016850698309444254646_);}
	.st3{fill:#571D00;}
	.st4{fill:#FFFFFF;}
	
		.st5{clip-path:url(#SVGID_00000067928905863840492650000015468596968326831498_);fill:url(#SVGID_00000013886708297158400530000009246782420968854915_);}
	.st6{enable-background:new    ;}
	.st7{fill:#C11E21;}
</style>
<g>
	<g>
		<g>
			<g>
				<defs>
					<rect id="SVGID_1_" y="3.7" width="158.9" height="180.1"/>
				</defs>
				<clipPath id="SVGID_00000005979701462606099700000006580111289203211413_">
					<use xlink:href="#SVGID_1_"  style="overflow:visible;"/>
				</clipPath>
				
					<linearGradient id="SVGID_00000127031877141520691960000013701705810403378842_" gradientUnits="userSpaceOnUse" x1="-3853.1462" y1="1668.0612" x2="-3852.2239" y2="1668.0612" gradientTransform="matrix(-83.8974 136.3733 -136.3733 -83.8974 -95662.3594 665427.75)">
					<stop  offset="0" style="stop-color:#E9AA00"/>
					<stop  offset="0.5169" style="stop-color:#FCEED4"/>
					<stop  offset="0.6406" style="stop-color:#F8DDA9"/>
					<stop  offset="0.9211" style="stop-color:#EDB52C"/>
					<stop  offset="1" style="stop-color:#E9AA00"/>
				</linearGradient>
				
					<polygon style="clip-path:url(#SVGID_00000005979701462606099700000006580111289203211413_);fill:url(#SVGID_00000127031877141520691960000013701705810403378842_);" points="
					239.3,53.1 115.3,254.7 -80.4,134.3 43.6,-67.3 				"/>
			</g>
		</g>
		<g>
			<g>
				<defs>
					<rect id="SVGID_00000183928122471358785150000011421856847517579941_" x="3.8" y="7.4" width="151.3" height="126.8"/>
				</defs>
				<clipPath id="SVGID_00000043436414931487760670000000473291418457866624_">
					<use xlink:href="#SVGID_00000183928122471358785150000011421856847517579941_"  style="overflow:visible;"/>
				</clipPath>
				
					<linearGradient id="SVGID_00000023967276747381181610000001849865545394191539_" gradientUnits="userSpaceOnUse" x1="-3843.9351" y1="1713.7363" x2="-3843.0125" y2="1713.7363" gradientTransform="matrix(162.8046 -125.8297 125.8297 162.8046 410176.7188 -762557.25)">
					<stop  offset="0" style="stop-color:#581000"/>
					<stop  offset="0.1348" style="stop-color:#621300"/>
					<stop  offset="0.5506" style="stop-color:#C1210D"/>
					<stop  offset="1" style="stop-color:#581000"/>
				</linearGradient>
				
					<polygon style="clip-path:url(#SVGID_00000043436414931487760670000000473291418457866624_);fill:url(#SVGID_00000023967276747381181610000001849865545394191539_);" points="
					-57.6,54.8 98.5,-65.8 216.5,86.8 60.4,207.4 				"/>
			</g>
		</g>
		<g>
			<g>
				<defs>
					<path id="SVGID_00000162327964404939753570000007088617354403866292_" d="M27.8,49c-6.3,3.2-17,11-17,25.7
						c0,15,12,25.7,26.9,25.7c5.8,0,11-1.3,15.4-3.2c4.7,2.9,10.7,5.3,18.3,6.7c-0.3,5-1.4,9-2.9,11.9c-23.8,1.5-48.4,7.4-65,17.8
						v2.1h151.7v-1.5c-20.4-12.4-43.4-18.3-70.8-18.8c-1.2-2.5-2.4-5.5-2.4-9.2c0-3,0.5-5.8,1.7-7.8c5,2.1,15,5.2,24.2,5.2
						c20.6,0,39.4-11.8,39.4-25.5c0-7-3.1-12.5-8-16.6c-2.4-14.8-14.5-24.7-28.3-27.7c-4.8-6.2-17.6-14.2-34.1-14.2
						C48.7,19.6,33.4,33.6,27.8,49"/>
				</defs>
				<clipPath id="SVGID_00000160156199229602484170000013611583382013387435_">
					<use xlink:href="#SVGID_00000162327964404939753570000007088617354403866292_"  style="overflow:visible;"/>
				</clipPath>
				
					<linearGradient id="SVGID_00000067920124071270074500000008111380522204939157_" gradientUnits="userSpaceOnUse" x1="-3853.697" y1="1656.5457" x2="-3852.7744" y2="1656.5457" gradientTransform="matrix(-58.3908 94.9129 -94.9129 -58.3908 -67697.4219 462544.125)">
					<stop  offset="0" style="stop-color:#E9AA00"/>
					<stop  offset="0.5169" style="stop-color:#FCEED4"/>
					<stop  offset="0.6406" style="stop-color:#F8DDA9"/>
					<stop  offset="0.9211" style="stop-color:#EDB52C"/>
					<stop  offset="1" style="stop-color:#E9AA00"/>
				</linearGradient>
				
					<polygon style="clip-path:url(#SVGID_00000160156199229602484170000013611583382013387435_);fill:url(#SVGID_00000067920124071270074500000008111380522204939157_);" points="
					207,51.5 113.6,203.4 -48.2,103.8 45.2,-48.1 				"/>
			</g>
		</g>
		<path class="st3" d="M3.8,180h151.3v-44.4c-7.7-5.1-35.7-16.5-74.5-16.5c-27.8,0-58.9,5-76.9,15.9L3.8,180L3.8,180z"/>
		<path class="st4" d="M31.3,157.8c-3.4-6.4-9.5-13.5-13.7-16.7c0,0,0,3.8,0,5.1c0,3.4,0.1,7.6,0.2,11.6h-3.5
			c0.2-4,0.2-8.2,0.2-11.6c0-3.1-0.1-7.5-0.2-11.3h3.5c4.2,3.2,10.3,9.6,13.7,15.1c0,0,0-2.6,0-3.8c0-3.1-0.1-7.5-0.2-11.3h3.5
			c-0.2,3.8-0.2,8.2-0.2,11.3c0,3.4,0.1,7.6,0.2,11.6L31.3,157.8L31.3,157.8z"/>
		<path class="st4" d="M52.3,157.8c-0.6-2-1.5-4.4-2.4-6.9c-4.4,0.1-8,1.6-9,4.1c-0.5,1.1-0.6,1.8-0.9,2.7h-3.2
			c2.7-6.2,7.5-17.8,9.4-22.9h2.6c2.5,7.2,5.7,15,9.2,22.9L52.3,157.8L52.3,157.8z M46.3,141.2c-0.9,2.2-2.4,6-3.8,9.6
			c1.3-1,4.1-1.8,6.7-1.8C48.1,145.9,47,143.1,46.3,141.2"/>
		<path class="st4" d="M66.4,157.8h-2.7c-2.6-7.1-5.7-15-9.1-22.9h5.7c1.5,4.8,4.5,12.7,6,16.6c1.5-3.8,4.7-11.8,6.2-16.6h3.2
			C73.1,141.1,68.3,152.7,66.4,157.8"/>
		<path class="st4" d="M77.9,157.8c0.2-4,0.2-8.2,0.2-11.6c0-3.1-0.1-7.5-0.2-11.3h5.4c-0.2,3.8-0.2,8.2-0.2,11.3
			c0,3.4,0.1,7.6,0.2,11.6H77.9z"/>
		<path class="st4" d="M96.8,157.8h-4h-0.6h-4.9c0.2-4,0.2-8.2,0.2-11.6c0-3.1-0.1-7.5-0.2-11.3h4.6h0.8h2.7
			c10.8,0,13.3,5.7,13.3,11.3C108.9,153.4,103.7,157.8,96.8,157.8 M95.2,136.8c-1.1,0-1.7,0-2.4,0.1c-0.1,3.3-0.1,6.8-0.1,9.3
			c0,2.8,0,6.3,0.1,9.7c0.9,0.1,1.4,0.1,2.3,0.1c6.2,0,8.6-4.3,8.6-9.7C103.7,140.4,101,136.8,95.2,136.8"/>
		<path class="st4" d="M123.2,158.1c-8.7,0-11.8-5.8-11.8-11c0-4.9,1.2-8.6,2.8-12.2h4.9c-1.4,4.1-2.2,8.4-2.2,11.7
			c0,7.5,4.3,9.4,7.4,9.4c1,0,1.6-0.1,2.9-0.2c0-6.8-0.1-14.1-0.4-20.9h5.3c-0.2,3.8-0.2,8.2-0.2,11.3c0,3.4,0.1,6.1,0.3,10.1
			C129.7,157.5,125.8,158.1,123.2,158.1"/>
		<path class="st4" d="M141.2,157.8h-1.3h-4.1c0.2-4,0.2-8.2,0.2-11.6c0-3.1-0.1-7.5-0.2-11.3h5.4c-0.2,3.8-0.2,8.2-0.2,11.3
			c0,2.7,0.1,5.9,0.1,9.1c2.2,0,6.1-0.1,8.2-0.3l-0.7,2.8H141.2z"/>
		<g>
			<g>
				<defs>
					<path id="SVGID_00000165212927062650123240000001743085576212914098_" d="M27.6,63.2c0,3.7,0.9,7.6,1.4,9.4
						c0.2,0.8-0.3,1.8-1,0.3c-1.2-2.5-2.3-6.6-2.3-10.4c0-3.3,0.4-6.7,1.3-10.1c-4.9,2.6-12.3,10.2-12.3,21
						c0,13.4,9.1,23.3,24.7,23.3c3.9,0,7.6-0.6,11-1.6c-9.4-7.3-11.8-16.9-11-23.6c0.1-0.9,1-1.7,1,0.2c0.1,15,16.1,25.1,29.3,27.2
						c3,0.5,4.3-0.8,1.1-2.8C61.6,90.1,56.6,81,59,72.6c0.3-1,1-0.8,0.8,0.4c-1,5.6,6.8,20.1,15.9,20.1c5,0,14.3-12.6,16.3-28
						c0.1-0.8,1-1,1.2,0.3c0.1,1.2-0.4,8.3-0.6,10.3c-0.3,2.7,0.1,2.4,2.6,1.4c3.9-1.5,10.7-1.5,13.4-0.6c0.8,0.2,0.8,0.7-0.1,0.8
						c-10.1,0.2-15.9,1.6-22.1,12.2c-1.5,2.5,2.8,3,4.6,3c8.2,0,12.5-4.5,14.1-7c0.3-0.5,0.8-0.3,0.5,0.4c-2.2,5.7-6.7,7.9-16.9,9.1
						c-1,0.1-1.8,0.4-2.6,0.9c6.5,2.6,14.4,4.6,21.5,4.6c19.5,0,36.1-8.8,36.1-22.5c0-17.3-25.5-22.3-36.4-22.3
						c-9.3,0-16.3,2-22.1,4.9c-0.9,0.4-1.6-0.3-0.7-1c4.9-3.4,13.6-6.8,25.2-6.8c9.1,0,18,1.8,24.8,5.5
						C131.2,45.7,119,36.2,103,36.2c-18.5,0-29.8,8.2-36.3,16.3c-0.7,0.9-1.2,0-0.5-1c5.9-8.7,17-18.6,36-18.6
						c1.5,0,2.9,0.1,4.4,0.2C101.5,28.5,90.9,23,76.9,23C44.3,23,27.6,43.3,27.6,63.2"/>
				</defs>
				<clipPath id="SVGID_00000168082590255918879270000013746768673559757706_">
					<use xlink:href="#SVGID_00000165212927062650123240000001743085576212914098_"  style="overflow:visible;"/>
				</clipPath>
				
					<linearGradient id="SVGID_00000018922039564562334470000002181313013901087125_" gradientUnits="userSpaceOnUse" x1="-3862.033" y1="1672.9138" x2="-3861.1106" y2="1672.9138" gradientTransform="matrix(-131.6167 100.265 -100.265 -131.6167 -340440.7188 607431.1875)">
					<stop  offset="0" style="stop-color:#581000"/>
					<stop  offset="0.1348" style="stop-color:#621300"/>
					<stop  offset="0.5506" style="stop-color:#C1210D"/>
					<stop  offset="1" style="stop-color:#581000"/>
				</linearGradient>
				
					<polygon style="clip-path:url(#SVGID_00000168082590255918879270000013746768673559757706_);fill:url(#SVGID_00000018922039564562334470000002181313013901087125_);" points="
					180.9,72.1 62,162.7 -22.7,51.5 96.2,-39.1 				"/>
			</g>
		</g>
		<g>
			<path class="st4" d="M70.2,166.3c0.2-1,0.3-1.3,0.5-2.1l-1.3,0.3v0.2c0.2,0,0.5,0,0.5,0.3c0,0.1-0.1,0.6-0.2,0.9
				c0,0,0,0.2-0.1,0.7c-0.7,0-1.1,0.2-1.5,0.6c-0.6,0.6-1,1.5-1,2.2c0,0.5,0.4,0.9,0.8,0.9c0.2,0,0.5-0.1,0.7-0.3
				c0.2-0.1,0.3-0.2,0.5-0.5l-0.2,0.8l1.2-0.2v-0.2c-0.4-0.1-0.5-0.1-0.5-0.3c0-0.1,0-0.2,0.2-1.1L70.2,166.3z M69,168.9
				c-0.3,0.4-0.7,0.7-1,0.7s-0.5-0.3-0.5-0.6c0-0.6,0.4-1.4,0.8-1.8c0.2-0.2,0.5-0.3,0.8-0.3c0.1,0,0.1,0,0.2,0L69,168.9z"/>
			<path class="st4" d="M72.5,168c0.4-0.2,0.7-0.6,0.7-1c0-0.3-0.3-0.6-0.7-0.6c-0.7,0-1.4,0.6-1.7,1.4c-0.1,0.3-0.2,0.7-0.2,1
				c0,0.8,0.4,1.3,1,1.3s1.1-0.4,1.5-1.1l-0.1-0.1c-0.4,0.5-0.7,0.7-1,0.7c-0.4,0-0.7-0.4-0.7-0.9c0-0.1,0-0.2,0-0.3
				C72,168.3,72.2,168.2,72.5,168z M71.8,167.2c0.2-0.2,0.4-0.3,0.5-0.3c0.2,0,0.3,0.1,0.3,0.3s-0.1,0.4-0.4,0.6
				c-0.2,0.2-0.4,0.2-0.9,0.3C71.5,167.7,71.6,167.5,71.8,167.2z"/>
			<path class="st4" d="M75.1,166.4c-0.2,0-0.5,0.1-0.7,0.3s-0.4,0.5-0.4,0.7c0,0.4,0.4,0.8,0.6,1.1c0.4,0.5,0.5,0.6,0.5,0.8
				c0,0.3-0.2,0.5-0.6,0.5c-0.5,0-0.7-0.4-0.7-0.8h-0.2l-0.2,1.1c0.1,0,0.2-0.1,0.3-0.1c0.3,0,0.5,0.2,0.9,0.2
				c0.6,0,1.1-0.5,1.1-1.1c0-0.4-0.1-0.6-0.6-1.1s-0.6-0.7-0.6-0.9s0.2-0.4,0.5-0.4s0.6,0.2,0.7,0.6h0.2l0.2-0.9c-0.1,0-0.2,0-0.3,0
				C75.7,166.5,75.4,166.4,75.1,166.4z"/>
			<path class="st4" d="M80,166.3c0.2-1,0.3-1.3,0.5-2.1l-1.3,0.3v0.2c0.2,0,0.5,0,0.5,0.3c0,0.1-0.1,0.6-0.2,0.9c0,0,0,0.2-0.1,0.7
				c-0.7,0-1.2,0.2-1.6,0.6c-0.6,0.6-1,1.5-1,2.2c0,0.5,0.4,0.9,0.8,0.9c0.2,0,0.5-0.1,0.7-0.3c0.2-0.1,0.2-0.2,0.5-0.5l-0.2,0.8
				l1.3-0.2v-0.2c-0.4-0.1-0.5-0.1-0.5-0.3c0-0.1,0-0.2,0.2-1.1L80,166.3z M78.8,168.9c-0.3,0.4-0.7,0.7-1,0.7s-0.5-0.3-0.5-0.6
				c0-0.6,0.4-1.4,0.8-1.8c0.2-0.2,0.5-0.3,0.8-0.3c0.1,0,0.2,0,0.3,0L78.8,168.9z"/>
			<path class="st4" d="M82.4,168c0.4-0.2,0.7-0.6,0.7-1c0-0.3-0.3-0.6-0.7-0.6c-0.7,0-1.4,0.6-1.8,1.4c-0.1,0.3-0.2,0.7-0.2,1
				c0,0.8,0.4,1.3,1,1.3s1.1-0.4,1.5-1.1l-0.1-0.1c-0.4,0.5-0.7,0.7-1,0.7c-0.4,0-0.7-0.4-0.7-0.9c0-0.1,0-0.2,0-0.3
				C81.8,168.3,82.1,168.2,82.4,168z M81.6,167.2c0.2-0.2,0.4-0.3,0.5-0.3c0.2,0,0.3,0.1,0.3,0.3s-0.1,0.4-0.4,0.6
				c-0.2,0.2-0.4,0.2-0.9,0.3C81.3,167.7,81.4,167.5,81.6,167.2z"/>
			<path class="st4" d="M86.8,169.5c0-0.1,0-0.1,0.1-0.3l0.6-2.7l-1.4,0.3v0.2c0.1,0,0.1,0,0.2,0c0.2,0,0.3,0.1,0.3,0.3
				c0,0.1-0.1,0.5-0.2,1c-0.1,0.3-0.3,1.3-0.4,1.5c-0.1,0.1-0.2,0.2-0.5,0.2v0.2l1.8-0.3v-0.2C86.9,169.7,86.8,169.6,86.8,169.5z"/>
			<path class="st4" d="M90.1,166.4c-1,0-1.9,0.9-1.9,1.9c0,0.8,0.5,1.4,1.2,1.4c0.3,0,0.6-0.1,1-0.4c-0.5,1.4-1.6,2.1-3.1,2.2
				l0.1,0.3c2.3-0.1,4-1.7,4-3.7C91.5,167,91,166.4,90.1,166.4z M90.7,168.8c-0.3,0.3-0.6,0.4-0.9,0.4c-0.5,0-0.8-0.4-0.8-1.1
				c0-0.7,0.4-1.2,1-1.2c0.5,0,0.8,0.4,0.8,1.2C90.8,168.3,90.7,168.5,90.7,168.8z"/>
			<path class="st4" d="M95.6,166.4h-0.4l-3.1,2.7l-0.1,0.4h2.2l-0.4,1.9h0.7l0.4-1.9h1l0.1-0.4h-1L95.6,166.4z M94.3,169.1h-1.7
				l2.1-1.8L94.3,169.1z"/>
			<path class="st4" d="M99.5,166.3c0.1-0.2,0.2-0.4,0.2-0.7c0-0.6-0.4-0.9-1-0.9c-0.9,0-1.6,0.6-1.6,1.4c0,0.4,0.2,0.8,0.7,1.3
				c0,0,0,0-0.5,0.4c-0.5,0.5-0.8,0.9-0.8,1.3c0,0.6,0.5,1.1,1.3,1.1c0.9,0,1.7-0.7,1.7-1.5c0-0.3-0.1-0.5-0.4-0.9
				c-0.2-0.2-0.3-0.4-0.5-0.6C98.9,167,99.2,166.7,99.5,166.3z M98.8,169.1c0,0.4-0.4,0.7-0.8,0.7c-0.5,0-0.8-0.3-0.8-0.7
				c0-0.6,0.4-1,0.8-1.4c0.2,0.2,0.2,0.3,0.4,0.5C98.7,168.7,98.8,168.9,98.8,169.1z M98.2,167c-0.2-0.3-0.5-0.7-0.5-1
				c0-0.4,0.3-0.8,0.8-0.8c0.4,0,0.6,0.2,0.6,0.5c0,0.1,0,0.3-0.1,0.5C98.8,166.5,98.6,166.7,98.2,167z"/>
		</g>
	</g>
	<g class="st6">
		<path d="M205.2,67.6H183l14.1-55.2h22.2L205.2,67.6z"/>
		<path d="M242.6,67.6c-3.2,0-5.5-0.8-7-2.4c-1.5-1.6-1.9-3.7-1.2-6.3l9.7-37.9c0.7-2.6,2.2-4.7,4.5-6.3c2.3-1.6,5-2.4,8.1-2.4h36.8
			l-1.7,6.9h-25l-11.2,41.5h25.6l-1.7,6.9H242.6z"/>
		<path d="M344.7,67.6h-22.2l4.4-17.3H313l-4.4,17.3h-22.2L298.2,21c0.7-2.6,2.2-4.7,4.5-6.3c2.3-1.6,5-2.4,8.1-2.4h37.5
			c3.2,0,5.5,0.8,7,2.4c1.5,1.6,1.9,3.7,1.2,6.3L344.7,67.6z M320.9,19.3l-6.2,24.2h13.9l6.2-24.2H320.9z"/>
		<path d="M411.4,67.6h-22.2L386,50.3h-6.3l-4.4,17.3H353l14.1-55.2h48c3.2,0,5.5,0.8,7,2.4c1.5,1.6,1.9,3.7,1.2,6.3L418,41.7
			c-0.6,2.2-1.8,4.1-3.5,5.6c-1.8,1.5-3.9,2.4-6.3,2.8L411.4,67.6z M387.7,19.3l-6.2,24.2h13.8l6.2-24.2H387.7z"/>
		<path d="M478.2,67.6h-22.2l-3.2-17.3h-6.3L442,67.6h-22.2l14.1-55.2h48c3.2,0,5.5,0.8,7,2.4c1.5,1.6,1.9,3.7,1.2,6.3l-5.2,20.6
			c-0.6,2.2-1.8,4.1-3.5,5.6c-1.8,1.5-3.9,2.4-6.3,2.8L478.2,67.6z M454.4,19.3l-6.2,24.2H462l6.2-24.2H454.4z"/>
		<path d="M496.9,67.6c-3.2,0-5.5-0.8-7-2.4c-1.5-1.6-1.9-3.7-1.2-6.3l9.7-37.9c0.7-2.6,2.2-4.7,4.5-6.3c2.3-1.6,5-2.4,8.1-2.4h36.8
			l-1.7,6.9h-25l-4.4,17.3h19.4l-1.7,6.9h-19.4l-4.4,17.3h25l-1.7,6.9H496.9z"/>
		<path d="M599,67.6h-22.2l-3.2-17.3h-6.3l-4.4,17.3h-22.2l14.1-55.2h48c3.2,0,5.5,0.8,7,2.4c1.5,1.6,1.9,3.7,1.2,6.3l-5.2,20.6
			c-0.6,2.2-1.8,4.1-3.5,5.6c-1.8,1.5-3.9,2.4-6.3,2.8L599,67.6z M575.2,19.3l-6.2,24.2h13.8l6.2-24.2H575.2z"/>
		<path d="M665.8,67.6h-22.2l4.4-17.3H634l-4.4,17.3h-22.2L619.2,21c0.7-2.6,2.2-4.7,4.5-6.3c2.3-1.6,5-2.4,8.1-2.4h37.5
			c3.2,0,5.5,0.8,7,2.4c1.5,1.6,1.9,3.7,1.2,6.3L665.8,67.6z M642,19.3l-6.2,24.2h13.9l6.2-24.2H642z"/>
	</g>
	<g class="st6">
		<path d="M219.2,176.3c-0.5,2-1.7,3.6-3.4,4.8s-3.8,1.8-6.2,1.8h-36.4l10.7-41.9h36.4c2.4,0,4.2,0.6,5.3,1.8
			c1.1,1.2,1.5,2.8,0.9,4.8L219.2,176.3z M199.5,146.2l-8.1,31.4H202l8.1-31.4H199.5z"/>
		<path d="M231.7,182.9c-2.4,0-4.2-0.6-5.3-1.8c-1.1-1.2-1.5-2.8-0.9-4.8l7.3-28.8c0.5-2,1.7-3.6,3.4-4.8c1.8-1.2,3.8-1.8,6.2-1.8
			h27.9l-1.3,5.2h-19l-3.4,13.1h14.7l-1.3,5.2h-14.7l-3.4,13.1h19l-1.3,5.2H231.7z"/>
		<path d="M329.7,158.1c-0.2,0.8-0.8,1.6-1.6,2.3c-0.8,0.7-1.7,1.3-2.7,1.6c0.8,0.4,1.4,0.9,1.9,1.6c0.5,0.7,0.6,1.5,0.3,2.3
			l-2.6,10.4c-0.5,2-1.7,3.6-3.4,4.8s-3.8,1.8-6.2,1.8H279l10.7-41.9h36.4c2.4,0,4.2,0.6,5.3,1.8c1.1,1.2,1.5,2.8,0.9,4.8
			L329.7,158.1z M300.6,164.6l-3.4,13.1h10.6l3.4-13.1H300.6z M305.3,146.2l-3.4,13.1h10.6l3.4-13.1H305.3z"/>
		<path d="M373.9,182.9H357l3.4-13.1h-10.6l-3.4,13.1h-16.9l9-35.3c0.5-2,1.7-3.6,3.4-4.8c1.8-1.2,3.8-1.8,6.2-1.8h28.4
			c2.4,0,4.2,0.6,5.3,1.8c1.1,1.2,1.5,2.8,0.9,4.8L373.9,182.9z M355.8,146.2l-4.7,18.3h10.6l4.7-18.3H355.8z"/>
		<path d="M424.4,182.9h-16.9l-2.4-13.1h-4.8l-3.4,13.1h-16.9l10.7-41.9h36.4c2.4,0,4.2,0.6,5.3,1.8c1.1,1.2,1.4,2.8,0.9,4.8
			l-4,15.7c-0.4,1.7-1.3,3.1-2.7,4.2c-1.3,1.1-2.9,1.8-4.8,2.2L424.4,182.9z M406.4,146.2l-4.7,18.3h10.5l4.7-18.3H406.4z"/>
		<path d="M438.7,182.9c-2.4,0-4.2-0.6-5.3-1.8c-1.1-1.2-1.5-2.8-0.9-4.8l7.3-28.8c0.5-2,1.7-3.6,3.4-4.8c1.8-1.2,3.8-1.8,6.2-1.8
			h27.9l-1.3,5.2h-19l-8.5,31.4h19.4l-1.3,5.2H438.7z"/>
		<path d="M488.6,182.9h-16.9l10.7-41.9h16.9L488.6,182.9z"/>
		<path d="M502.8,182.9c-2.4,0-4.2-0.6-5.3-1.8c-1.1-1.2-1.5-2.8-0.9-4.8l7.3-28.8c0.5-2,1.7-3.6,3.4-4.8c1.8-1.2,3.8-1.8,6.2-1.8
			h27.9l-1.3,5.2h-19l-3.4,13.1h14.7l-1.3,5.2h-14.7l-3.4,13.1h19l-1.3,5.2H502.8z"/>
		<path d="M581.3,182.9h-16.9l-4.8-26.3l-6.7,26.3H536l10.7-41.9h16.9l4.8,26.3l6.7-26.3H592L581.3,182.9z"/>
		<path d="M595.5,182.9c-2.4,0-4.2-0.6-5.3-1.8c-1.1-1.2-1.5-2.8-0.9-4.8l7.3-28.8c0.5-2,1.7-3.6,3.4-4.8c1.8-1.2,3.8-1.8,6.2-1.8
			h27.9l-1.3,5.2h-19l-8.5,31.4h19.4l-1.3,5.2H595.5z"/>
		<path d="M636.5,182.9c-2.4,0-4.2-0.6-5.3-1.8s-1.5-2.8-0.9-4.8l7.3-28.8c0.5-2,1.7-3.6,3.4-4.8c1.8-1.2,3.8-1.8,6.2-1.8h27.9
			l-1.3,5.2h-19l-3.4,13.1h14.7l-1.3,5.2h-14.7l-3.4,13.1h19l-1.3,5.2H636.5z"/>
	</g>
	<g>
		<path class="st4" d="M322.5,79.5c-0.2-2.1-2.3-3.6-4.9-3.6c-7.8,0-15.1,1.1-21.8,3.2h-0.1c-3.9,1.4-7.5,3.1-10.5,5.1
			c-2.6,1.7-4.8,3.9-6.7,6.5l-0.9-1.6c-1-1.9-2.7-4-5.2-6.4c-2.6-2.5-5.6-4.5-8.9-5.9c-1.3-0.5-2.7-0.6-4-0.2s-2.3,1.3-2.8,2.4
			l-1.3,3c-1.6-0.3-3.4-0.5-5.4-0.5c-4.8,0-9.7,1.5-14.5,4.4c-4.5,2.7-8.2,6.3-10.8,10.5c-1.9,3-3.5,6.1-4.7,9.3
			c-1.4-0.1-2.9,0.2-4,1.1l-1.4,1.1c-0.3,0.2-1.3,0.7-4.1,1.5c-0.6,0.2-1.2,0.3-1.8,0.4c5.1-18.3,10.2-33.4,15.2-45.2
			c0.6-1.3,0.3-2.8-0.8-3.9c-1-1.1-2.7-1.7-4.4-1.5c-7.6,0.7-14.6,2-20.9,3.9c-8.4,2.5-11,3.8-12.4,4.6c-1.8,1.1-3,1.9-3.9,2.6
			c-1.1,0.9-1.7,2.1-1.5,3.4l0.2,1.6c0.3,3.3,0.5,7.5,0.5,12.5c0,1.3-1.2,8.9-8.9,45.5c-0.2,1.1,0.1,2.3,1,3.2s2.2,1.5,3.5,1.5
			l5.9,0.3c10.9,0.5,21.3,1.9,31,4c0.4,0.1,0.8,0.1,1.2,0.1c1,0,1.9-0.2,2.7-0.7c1.2-0.6,1.9-1.7,2.1-2.8l1.2-6.9
			c0.5,0.8,1.1,1.6,1.7,2.4c4,5.1,8.9,7.7,14.4,7.7c3,0,6.1-1.3,9.7-4c0.6-0.5,1.2-1,1.8-1.5c2.6,4,6.3,5.8,9.4,6.7
			c0.5,0.1,1,0.2,1.5,0.2c0.9,0,1.8-0.2,2.6-0.6l10.5-5.6c1.2-0.7,2-1.8,2.2-2.9c1.2,2.8,2.6,5.5,4.1,8c0.8,1.4,2.5,2.2,4.3,2.2
			c0.2,0,0.5,0,0.7,0c13.3-1.6,23.1-4.7,29.8-9.3c7.1-4.9,10.7-10.8,10.7-17.4c0-4.2-1.8-7.7-5.2-10.2c0,0,0,0,0.1,0
			c1.6,0.5,3.4,0.3,4.7-0.6c1.3-0.8,2.1-2.2,1.9-3.6L322.5,79.5z M272,114.1c0-0.2,0-0.5,0-0.7v-1.3l0.9-1.7c0.5-1,1-2,1.5-3
			c0.5,2.9,1.6,5.1,3.5,6.8l-1.9-0.5C274.6,113.3,273.2,113.5,272,114.1z M245.7,112.7c-0.2,1.1-0.4,2.2-0.5,3.2
			c-0.3,0.4-0.6,0.7-0.9,1C244.6,115.6,245.1,114.2,245.7,112.7z"/>
		<path class="st4" d="M401.8,103.6l-3.8,0.6l1-4.8c1.9-8.8,3.1-17.7,3.7-26.5c0.1-1.3-0.6-2.5-1.7-3.3c-6.2-4.4-13.7-8-22.2-10.8
			c-1.5-0.5-3.2-0.3-4.6,0.4c-1.3,0.8-2.1,2-2.1,3.4l0.1,5.3c-0.1,0-0.2,0-0.3-0.1L347.4,64c-1.4-0.2-2.9,0.1-4.1,0.9
			c-1.1,0.8-1.8,2-1.7,3.2l0.2,8.5V78c0,5.3-0.7,12.7-2,21.9c-1.3,9.1-3.5,17.7-6.3,25.5c-0.5,1.3-0.2,2.6,0.8,3.7
			c1,1,2.6,1.6,4.1,1.5l26.6-1.5l-3.8,14.9c-0.4,1.4,0.2,2.8,1.4,3.8c0.9,0.7,2.1,1.1,3.3,1.1c0.4,0,0.9,0,1.3-0.1l20-4.6
			c1.8-0.4,3.2-1.7,3.5-3.3l2.4-13.5l5.4,0.5c2.5,0.2,4.8-1.2,5.3-3.3l3.5-16.1c0.3-1.3-0.2-2.6-1.4-3.6
			C405,103.8,403.3,103.4,401.8,103.6z M372,80.5c-0.3,8.7-1,17.6-2.1,26.8l-5.1-0.1c0.7-5,1.9-10.1,3.4-15.2
			C370.1,86.1,371.3,82.6,372,80.5z"/>
		<path class="st4" d="M679,107.1c1.3-0.8,2.1-2.2,1.9-3.6l-2.9-24c-0.2-2.1-2.3-3.6-4.9-3.6c-7.8,0-15.1,1.1-21.8,3.2h-0.1
			c-3.9,1.4-7.5,3.1-10.5,5.1c-2.6,1.7-4.8,3.9-6.7,6.5l-0.9-1.6c-1-1.9-2.7-4-5.2-6.4c-2.6-2.5-5.6-4.5-8.9-5.9
			c-1.3-0.5-2.7-0.6-4-0.2s-2.3,1.3-2.8,2.4l-1.3,3c-1.6-0.3-3.4-0.5-5.4-0.5c-4.8,0-9.7,1.5-14.5,4.4c-4.5,2.7-8.2,6.3-10.8,10.5
			c-0.4,0.7-0.9,1.4-1.3,2.1c0.8-4,1.8-8.2,3-12.8c2.2-8.5,4.9-16.7,7.9-24.4c0.5-1.4,0.2-2.8-1-3.9c-1.1-1.1-2.9-1.6-4.6-1.3
			l-3.6,0.6c-2.8,0.4-6.3,1.5-10.9,3.3c-3.1,1.2-6.1,2.7-8.9,4.4c0.4-1,0.8-2,1.2-3c0.5-1.4,0.2-2.8-1-3.9c-1.1-1.1-2.9-1.6-4.6-1.3
			l-3.6,0.6c-2.8,0.4-6.3,1.5-10.9,3.3c-3.4,1.3-6.7,3-9.8,4.8c0.1-0.8,0.2-1.5,0.3-2.1c0.2-1.4-0.5-2.8-1.9-3.7l-1.8-1.1h-0.1
			c-4-2.4-8.8-4.1-14.3-5.1c-2.2-0.4-4.4,0.5-5.4,2.1l-1.2,1.9c-0.5,0.7-1.4,1.9-3.4,3.9c-1.5,1.5-3,2.6-4.5,3.4
			c-0.9,0.4-1.5,1.1-1.9,1.8c-0.6-0.5-1.3-0.8-2.1-1c-7.8-1.8-14.9-4.9-21.1-9.1c-1.3-0.9-3-1.1-4.6-0.7c-1.6,0.4-2.8,1.5-3.2,2.8
			l-6.8,20.7c0.1-3.5,0.4-8.4,0.7-14.7c0.1-1.2-0.5-2.3-1.5-3.1s-2.4-1.2-3.9-1.1c-4.7,0.4-9.8,1.6-15.2,3.6
			c-5.4,1.9-9.9,4.1-13.4,6.3c-0.9,0.6-1.5,1.3-1.7,2.2l-1.9,6.3c-1.4,4.3-3,10.9-4.7,20.1c-1.7,9.1-2.9,18.8-3.7,28.7
			c0,0.5,0,0.9,0.2,1.4c1.2,3.5,3.6,7.1,7.1,10.6c3.3,3.3,5.8,5.6,7.7,6.8c1.7,1.1,3,1.9,4,2.5c0.8,0.5,1.8,0.7,2.8,0.7
			c0.8,0,1.5-0.2,2.2-0.5c1.6-0.7,2.6-2.1,2.6-3.6c0-6.8,0.3-13.2,1-19.3c0.9,4,2,7.4,3.2,10.1c0.6,1.4,2,2.4,3.7,2.6
			c1.7,0.3,3.5-0.3,4.6-1.4c2.3-2.3,4.8-5.6,7.5-10.1c-0.7,3.5-1.5,7-2.4,10.6c-0.3,1.3,0.2,2.7,1.3,3.7c1.2,1,2.8,1.4,4.4,1.1
			c10.5-1.8,18-4.5,23-8.3c0.7-0.6,1.3-1.3,1.5-2.1l1.5-5.9c0,0.9,0,1.9,0,2.9c0,0.8,0.3,1.5,0.8,2.2l1.3,1.7l0.1,0.1
			c1.2,1.4,3.2,3.2,6.2,5.4c2.9,2.2,6.4,4.4,10.3,6.4c0.8,0.4,1.7,0.6,2.6,0.6c0.8,0,1.6-0.2,2.3-0.5c1.6-0.7,2.5-2.1,2.5-3.5v-4.8
			c0-2.6,0.4-6.4,1.1-11.4c0.1-0.4,0.1-0.8,0.2-1.2c-0.2,2.1-0.4,4.1-0.5,6c-0.1,0.9,0.2,1.7,0.8,2.4c4.2,5.4,11.1,10.4,20.6,14.9
			c0.8,0.4,1.6,0.5,2.4,0.5c0.8,0,1.7-0.2,2.4-0.5c1.5-0.7,2.4-2.1,2.4-3.5v-4.5c0-1.9,0.1-4.1,0.2-6.6c4.2,5.3,11,10.2,20.3,14.6
			c0.8,0.4,1.6,0.5,2.4,0.5c0.8,0,1.7-0.2,2.4-0.5c1.5-0.7,2.4-2.1,2.4-3.5v-4.5c0-2.6,0.1-5.7,0.4-9.4c0.8,1.6,1.8,3.1,3.1,4.7
			c4,5.1,8.9,7.7,14.4,7.7c3,0,6.1-1.3,9.7-4c0.6-0.5,1.2-1,1.8-1.5c2.6,4,6.3,5.8,9.4,6.7c0.5,0.1,1,0.2,1.5,0.2
			c0.9,0,1.8-0.2,2.6-0.6l10.5-5.6c1.2-0.7,2-1.8,2.2-2.9c1.2,2.8,2.6,5.5,4.1,8c0.8,1.4,2.5,2.2,4.3,2.2c0.2,0,0.5,0,0.7,0
			c13.3-1.6,23.1-4.7,29.8-9.3c7.1-4.9,10.7-10.8,10.7-17.4c0-4.2-1.8-7.7-5.2-10.2c0,0,0,0,0.1,0C675.9,108.2,677.6,108,679,107.1z
			 M627.5,114.1c0-0.2,0-0.5,0-0.7v-1.3l0.9-1.7c0.5-1,1-2,1.5-3c0.5,2.9,1.6,5.1,3.5,6.8l-1.9-0.5
			C630.1,113.3,628.7,113.5,627.5,114.1z M601.2,112.7c-0.2,1.1-0.4,2.2-0.5,3.2c-0.3,0.4-0.6,0.7-0.9,1
			C600.1,115.6,600.6,114.2,601.2,112.7z M523.1,88.2c0.2-0.2,0.4-0.5,0.6-0.7c-0.1,0.3-0.1,0.6-0.2,0.9L523.1,88.2z M504.8,80.2
			c0.7,0.7,1.3,1.4,1.9,2c-1.5-0.4-3.1-0.8-4.7-1.1c-1.2-0.2-2.4-0.1-3.5,0.4c0.3-3.1,0.6-6.1,0.7-9
			C500.6,75.1,502.4,77.7,504.8,80.2z"/>
	</g>
	<g class="st6">
		<path class="st7" d="M176.1,134.1c5.9-28.3,8.9-43.7,8.9-46.2c0-5.2-0.2-9.5-0.5-12.9l-0.2-1.7c0.7-0.6,1.9-1.3,3.4-2.2
			c1.6-0.9,5.3-2.3,11.2-4.1c5.9-1.8,12.5-3,19.7-3.6c-5.6,13.1-11.3,30.1-16.9,51.1c3.6,0,6.8-0.4,9.6-1.2c2.8-0.8,4.7-1.6,5.8-2.3
			l1.6-1.3l-4.8,28.8c-10.1-2.2-20.7-3.5-32-4.1L176.1,134.1z"/>
		<path class="st7" d="M266.5,113.3c0,7.9,0.8,14.7,2.4,20.6l-10.5,5.6c-5.1-1.4-8.1-5.2-9.2-11.5c-2.1,2.8-4.4,5.2-6.9,7.2
			c-2.5,2-4.6,2.9-6.3,2.9c-3.8,0-7.2-2-10.3-5.9c-3.1-3.9-4.6-7.7-4.6-11.2c0-3.6,0.6-7.3,1.9-11.3c1.3-4,3.1-7.8,5.4-11.5
			c2.3-3.7,5.5-6.7,9.4-9.1c3.9-2.4,7.8-3.6,11.6-3.6c3.8,0,6.5,0.7,8.2,2.1l3.1-7.3c2.8,1.2,5.3,2.9,7.5,5c2.2,2.1,3.7,3.9,4.5,5.4
			l1.2,2.2c-1.2,5.3-3.2,10.6-6,15.7l-1.3,2.5C266.5,112,266.5,112.7,266.5,113.3z M238.6,124.3c3.4,0,7-2.3,10.7-6.9
			c1-7.6,3.1-15.7,6.3-24.3c-6.1,3.9-10.7,9-13.7,15.3c-2.5,5.1-3.7,9.6-3.7,13.3c0,0.8,0.1,1.7,0.2,2.5
			C238.4,124.3,238.5,124.3,238.6,124.3z"/>
		<path class="st7" d="M318.5,117.8c0,5.4-3,10.2-8.9,14.3c-6,4.1-15.1,6.9-27.4,8.4c-4-6.6-6.8-14.2-8.3-23l2.7,0.7
			c5.9,1.8,10.4,2.7,13.6,2.7c3.2,0,5.7-0.3,7.7-0.8c2-0.5,3.2-1.6,3.8-3.2c-9.5-1-15-1.9-16.5-2.7c-1.5-0.8-2.8-1.6-3.9-2.5
			c-1.9-1.4-2.8-3.9-2.8-7.4c0-3.6,0.9-6.8,2.6-9.8c1.7-3,3.9-5.4,6.6-7.2c2.7-1.8,5.8-3.3,9.3-4.5c6.1-2,12.8-2.9,20-2.9l2.9,24
			c-7.3-2.3-16.6-3.7-27.7-4.1c1.1,3.5,5.9,5.9,14.2,7.4c3.1,0.5,5.8,1.6,8.3,3.3C317.3,112.3,318.5,114.7,318.5,117.8z"/>
		<path class="st7" d="M373.7,111.5c1.8-14.4,2.8-28.2,2.8-41.3c0-0.4,0-0.7,0-1.1l-0.1-6.5c8,2.6,15,6,20.9,10.1
			c-0.6,8.6-1.8,17.3-3.6,26l-1.2,5.6c-0.6,2.6-0.9,4.3-1.1,4.9l10.7-1.7l-3.5,16.1l-10-0.8l-3.1,17.3l-20,4.6l5.2-20.1l-33,1.8
			c3-8,5.1-16.8,6.5-26.2c1.4-9.4,2-16.9,2-22.4c0-0.5,0-0.9,0-1.4l-0.2-8.6l24.5,3.9c-0.7,1.3-1.6,3.1-2.7,5.4
			c-1.1,2.3-2.7,6.9-4.7,13.8c-2.1,6.9-3.4,13.6-4,20.1L373.7,111.5z"/>
		<path class="st7" d="M455.4,63.8c-0.6,9.8-0.8,16.3-0.8,19.5c0,9.5,0.2,15.8,0.6,18.7l0.5,3.8L471,59c6.8,4.6,14.4,7.9,22.9,9.8
			c-0.3,8.3-1.3,17.7-3,28.1s-3.3,18.7-4.8,24.9l-2.3,9.3c-4.3,3.3-11.1,5.7-20.6,7.3c1.8-7.2,3.2-14.1,4.3-20.8
			c1.1-6.6,1.7-11.5,2-14.5l0.2-4.6c-0.8,2-1.9,4.5-3.2,7.6c-1.3,3.1-3.8,7.9-7.4,14.4c-3.6,6.5-6.8,11.2-9.6,14
			c-1.5-3.6-2.9-8.3-4-14.3c-1.1-6-1.9-11.1-2.3-15.3l-0.6-6.3c-0.5,1.1-1.1,2.8-1.9,4.9c-0.8,2.2-1.8,7.3-3,15.3
			c-1.2,8.1-1.9,16.8-1.9,26.3c-1-0.6-2.2-1.4-3.8-2.4c-1.6-1-3.9-3.1-6.9-6.2c-3.1-3.1-5.1-6.1-6.2-9.1c0.7-9.8,1.9-19.3,3.6-28.3
			c1.7-9,3.2-15.6,4.6-19.7l1.9-6.3c3.2-2.1,7.3-4,12.4-5.8C446.6,65.2,451.2,64.1,455.4,63.8z"/>
		<path class="st7" d="M519,100.3c-1.6,3.9-2.9,7.7-3.9,11.2c-1,3.5-1.8,7.9-2.6,13.1c-0.8,5.2-1.1,9.2-1.1,11.9s0,4.4,0,4.8
			c-3.7-2-6.9-4-9.6-6c-2.7-2.1-4.6-3.6-5.5-4.8l-1.3-1.7c0-8.5,0.4-16.4,1.3-23.7c0.9-7.3,1.8-12.4,2.7-15.4l1.3-4.6
			c7.2,1.5,13.7,3.6,19.4,6.5l2.9,1.4C521.8,93.9,520.6,96.3,519,100.3z M518.4,86c-1-0.5-2.2-1.2-3.7-2.1c-1.5-0.9-3.7-3-6.8-6.2
			c-3-3.2-5.1-6.5-6.2-10.1c2-1,3.9-2.5,5.7-4.3c1.8-1.8,3.1-3.3,3.9-4.6l1.2-2c4.9,0.9,9.1,2.4,12.5,4.5l1.8,1.1
			c-0.2,1.2-0.4,2.8-0.7,4.6c-0.3,1.9-1.2,4.9-2.7,9.2C522.2,80.5,520.4,83.7,518.4,86z"/>
		<path class="st7" d="M540.9,139.2v4.5c-8.8-4.2-15.2-8.8-18.9-13.6c0.6-8.2,1.8-17.4,3.4-27.4c1.6-10,3.1-18,4.4-23.9l1.9-8.8
			c3.6-2.5,7.5-4.6,11.7-6.2c4.2-1.6,7.4-2.6,9.8-3l3.6-0.6c-3.1,7.9-5.8,16.1-8.1,24.8c-2.3,8.7-3.9,16.3-4.8,23
			C541.9,121.8,540.9,132.2,540.9,139.2z"/>
		<path class="st7" d="M568.7,139.2v4.5c-8.8-4.2-15.2-8.8-18.9-13.6c0.6-8.2,1.8-17.4,3.4-27.4c1.6-10,3.1-18,4.4-23.9l1.9-8.8
			c3.6-2.5,7.5-4.6,11.7-6.2c4.2-1.6,7.4-2.6,9.8-3l3.6-0.6c-3.1,7.9-5.8,16.1-8.1,24.8c-2.3,8.7-3.9,16.3-4.8,23
			C569.7,121.8,568.7,132.2,568.7,139.2z"/>
		<path class="st7" d="M622,113.3c0,7.9,0.8,14.7,2.4,20.6l-10.5,5.6c-5.1-1.4-8.1-5.2-9.2-11.5c-2.1,2.8-4.4,5.2-6.9,7.2
			c-2.5,2-4.6,2.9-6.3,2.9c-3.8,0-7.2-2-10.3-5.9c-3.1-3.9-4.6-7.7-4.6-11.2c0-3.6,0.6-7.3,1.9-11.3c1.3-4,3.1-7.8,5.4-11.5
			c2.3-3.7,5.5-6.7,9.4-9.1c3.9-2.4,7.8-3.6,11.6-3.6c3.8,0,6.5,0.7,8.2,2.1l3.1-7.3c2.8,1.2,5.3,2.9,7.5,5c2.2,2.1,3.7,3.9,4.5,5.4
			l1.2,2.2c-1.2,5.3-3.2,10.6-6,15.7l-1.3,2.5C622,112,622,112.7,622,113.3z M594,124.3c3.4,0,7-2.3,10.7-6.9
			c1-7.6,3.1-15.7,6.3-24.3c-6.1,3.9-10.7,9-13.7,15.3c-2.5,5.1-3.7,9.6-3.7,13.3c0,0.8,0.1,1.7,0.2,2.5
			C593.9,124.3,594,124.3,594,124.3z"/>
		<path class="st7" d="M674,117.8c0,5.4-3,10.2-8.9,14.3c-5.9,4.1-15.1,6.9-27.4,8.4c-4-6.6-6.8-14.2-8.3-23l2.7,0.7
			c5.9,1.8,10.4,2.7,13.6,2.7s5.7-0.3,7.7-0.8c2-0.5,3.2-1.6,3.8-3.2c-9.5-1-15-1.9-16.5-2.7c-1.5-0.8-2.8-1.6-3.9-2.5
			c-1.9-1.4-2.8-3.9-2.8-7.4c0-3.6,0.9-6.8,2.6-9.8c1.7-3,3.9-5.4,6.6-7.2c2.7-1.8,5.8-3.3,9.3-4.5c6.1-2,12.8-2.9,20-2.9l2.9,24
			c-7.3-2.3-16.6-3.7-27.7-4.1c1.1,3.5,5.9,5.9,14.2,7.4c3.1,0.5,5.8,1.6,8.3,3.3C672.7,112.3,674,114.7,674,117.8z"/>
	</g>
</g>
</svg>
