<?xml version="1.0" encoding="utf-8"?>
<!-- Generator: Adobe Illustrator 26.2.1, SVG Export Plug-In . SVG Version: 6.00 Build 0)  -->
<svg version="1.1" id="Capa_1" xmlns="http://www.w3.org/2000/svg" xmlns:xlink="http://www.w3.org/1999/xlink" x="0px" y="0px"
	 viewBox="0 0 688.9 193.3" style="enable-background:new 0 0 688.9 193.3;" xml:space="preserve">
<style type="text/css">
	
		.st0{clip-path:url(#SVGID_00000076596606860328085670000014796346737954907800_);fill:url(#SVGID_00000018922529127722792340000009647269533577441669_);}
	
		.st1{clip-path:url(#SVGID_00000087375438162620727630000013993079181797555588_);fill:url(#SVGID_00000058570883208877413280000011711698204596618676_);}
	
		.st2{clip-path:url(#SVGID_00000063607819812412911420000012936719514302998167_);fill:url(#SVGID_00000016786979299365989720000003085553851494702474_);}
	.st3{fill:#571D00;}
	.st4{fill:#FFFFFF;}
	
		.st5{clip-path:url(#SVGID_00000084490358337472879740000013568504757930049691_);fill:url(#SVGID_00000065067403887714984060000016942674647672975281_);}
	.st6{font-family:'Aero';}
	.st7{font-size:80.0276px;}
	.st8{font-size:60.6709px;}
	.st9{fill:#C11E21;}
	.st10{font-family:'CevicheOne-Regular';}
	.st11{font-size:140.3937px;}
</style>
<g>
	<g>
		<g>
			<defs>
				<rect id="SVGID_1_" y="3.7" width="158.9" height="180.1"/>
			</defs>
			<clipPath id="SVGID_00000176764690507353276730000016035246632551483782_">
				<use xlink:href="#SVGID_1_"  style="overflow:visible;"/>
			</clipPath>
			
				<linearGradient id="SVGID_00000099658312791639076130000001955106853775823747_" gradientUnits="userSpaceOnUse" x1="55.0911" y1="668.484" x2="56.0135" y2="668.484" gradientTransform="matrix(-83.8974 136.3733 136.3733 83.8974 -86413.7734 -63581.5234)">
				<stop  offset="0" style="stop-color:#E9AA00"/>
				<stop  offset="0.5169" style="stop-color:#FCEED4"/>
				<stop  offset="0.6406" style="stop-color:#F8DDA9"/>
				<stop  offset="0.9211" style="stop-color:#EDB52C"/>
				<stop  offset="1" style="stop-color:#E9AA00"/>
			</linearGradient>
			
				<polygon style="clip-path:url(#SVGID_00000176764690507353276730000016035246632551483782_);fill:url(#SVGID_00000099658312791639076130000001955106853775823747_);" points="
				239.3,53.1 115.3,254.7 -80.4,134.3 43.6,-67.3 			"/>
		</g>
		<g>
			<defs>
				<rect id="SVGID_00000137841430276961941910000015574377471716038046_" x="3.8" y="7.4" width="151.3" height="126.8"/>
			</defs>
			<clipPath id="SVGID_00000183930069408184322630000003820239606854431626_">
				<use xlink:href="#SVGID_00000137841430276961941910000015574377471716038046_"  style="overflow:visible;"/>
			</clipPath>
			
				<linearGradient id="SVGID_00000168095510963738356960000009622367110413221050_" gradientUnits="userSpaceOnUse" x1="54.4935" y1="670.6562" x2="55.416" y2="670.6562" gradientTransform="matrix(162.8046 -125.8297 -125.8297 -162.8046 75522.0703 116170.9219)">
				<stop  offset="0" style="stop-color:#581000"/>
				<stop  offset="0.1348" style="stop-color:#621300"/>
				<stop  offset="0.5506" style="stop-color:#C1210D"/>
				<stop  offset="1" style="stop-color:#581000"/>
			</linearGradient>
			
				<polygon style="clip-path:url(#SVGID_00000183930069408184322630000003820239606854431626_);fill:url(#SVGID_00000168095510963738356960000009622367110413221050_);" points="
				-57.6,54.8 98.5,-65.8 216.5,86.8 60.4,207.4 			"/>
		</g>
		<g>
			<defs>
				<path id="SVGID_00000098223267988240893630000008041124079302186128_" d="M27.8,49c-6.3,3.2-17,11-17,25.7
					c0,15,12,25.7,26.9,25.7c5.8,0,11-1.3,15.4-3.2c4.7,2.9,10.7,5.3,18.3,6.7c-0.3,5-1.4,9-2.9,11.9c-23.8,1.5-48.4,7.4-65,17.8
					v2.1h151.7v-1.5c-20.4-12.4-43.4-18.3-70.8-18.8c-1.2-2.5-2.4-5.5-2.4-9.2c0-3,0.5-5.8,1.7-7.8c5,2.1,15,5.2,24.2,5.2
					c20.6,0,39.4-11.8,39.4-25.5c0-7-3.1-12.5-8-16.6c-2.4-14.8-14.5-24.7-28.3-27.7c-4.8-6.2-17.6-14.2-34.1-14.2
					C48.7,19.6,33.4,33.6,27.8,49"/>
			</defs>
			<clipPath id="SVGID_00000176032491706330199530000013486703736454137988_">
				<use xlink:href="#SVGID_00000098223267988240893630000008041124079302186128_"  style="overflow:visible;"/>
			</clipPath>
			
				<linearGradient id="SVGID_00000103247243650973492760000007063315612005961640_" gradientUnits="userSpaceOnUse" x1="55.0809" y1="667.817" x2="56.0034" y2="667.817" gradientTransform="matrix(-58.3908 94.9129 94.9129 58.3908 -60072.7734 -44170.7344)">
				<stop  offset="0" style="stop-color:#E9AA00"/>
				<stop  offset="0.5169" style="stop-color:#FCEED4"/>
				<stop  offset="0.6406" style="stop-color:#F8DDA9"/>
				<stop  offset="0.9211" style="stop-color:#EDB52C"/>
				<stop  offset="1" style="stop-color:#E9AA00"/>
			</linearGradient>
			
				<polygon style="clip-path:url(#SVGID_00000176032491706330199530000013486703736454137988_);fill:url(#SVGID_00000103247243650973492760000007063315612005961640_);" points="
				207,51.5 113.6,203.4 -48.2,103.8 45.2,-48.1 			"/>
		</g>
		<path class="st3" d="M3.8,180h151.3v-44.4c-7.7-5.1-35.7-16.5-74.5-16.5c-27.8,0-58.9,5-76.9,15.9V180z"/>
		<path class="st4" d="M31.3,157.8c-3.4-6.4-9.5-13.5-13.7-16.7c0,0,0,3.8,0,5.1c0,3.4,0.1,7.6,0.2,11.6h-3.5
			c0.2-4,0.2-8.2,0.2-11.6c0-3.1-0.1-7.5-0.2-11.3h3.5c4.2,3.2,10.3,9.6,13.7,15.1c0,0,0-2.6,0-3.8c0-3.1-0.1-7.5-0.2-11.3h3.5
			c-0.2,3.8-0.2,8.2-0.2,11.3c0,3.4,0.1,7.6,0.2,11.6H31.3z"/>
		<path class="st4" d="M52.3,157.8c-0.6-2-1.5-4.4-2.4-6.9c-4.4,0.1-8,1.6-9,4.1c-0.5,1.1-0.6,1.8-0.9,2.7h-3.2
			c2.7-6.2,7.5-17.8,9.4-22.9h2.6c2.5,7.2,5.7,15,9.2,22.9H52.3z M46.3,141.2c-0.9,2.2-2.4,6-3.8,9.6c1.3-1,4.1-1.8,6.7-1.8
			C48.1,145.9,47,143.1,46.3,141.2"/>
		<path class="st4" d="M66.4,157.8h-2.7c-2.6-7.1-5.7-15-9.1-22.9h5.7c1.5,4.8,4.5,12.7,6,16.6c1.5-3.8,4.7-11.8,6.2-16.6h3.2
			C73.1,141.1,68.3,152.7,66.4,157.8"/>
		<path class="st4" d="M77.9,157.8c0.2-4,0.2-8.2,0.2-11.6c0-3.1-0.1-7.5-0.2-11.3h5.4c-0.2,3.8-0.2,8.2-0.2,11.3
			c0,3.4,0.1,7.6,0.2,11.6H77.9z"/>
		<path class="st4" d="M96.8,157.8h-4h-0.6h-4.9c0.2-4,0.2-8.2,0.2-11.6c0-3.1-0.1-7.5-0.2-11.3h4.6h0.8h2.7
			c10.8,0,13.3,5.7,13.3,11.3C108.9,153.4,103.7,157.8,96.8,157.8 M95.2,136.8c-1.1,0-1.7,0-2.4,0.1c-0.1,3.3-0.1,6.8-0.1,9.3
			c0,2.8,0,6.3,0.1,9.7c0.9,0.1,1.4,0.1,2.3,0.1c6.2,0,8.6-4.3,8.6-9.7C103.7,140.4,101,136.8,95.2,136.8"/>
		<path class="st4" d="M123.2,158.1c-8.7,0-11.8-5.8-11.8-11c0-4.9,1.2-8.6,2.8-12.2h4.9c-1.4,4.1-2.2,8.4-2.2,11.7
			c0,7.5,4.3,9.4,7.4,9.4c1,0,1.6-0.1,2.9-0.2c0-6.8-0.1-14.1-0.4-20.9h5.3c-0.2,3.8-0.2,8.2-0.2,11.3c0,3.4,0.1,6.1,0.3,10.1
			C129.7,157.5,125.8,158.1,123.2,158.1"/>
		<path class="st4" d="M141.2,157.8h-1.3h-4.1c0.2-4,0.2-8.2,0.2-11.6c0-3.1-0.1-7.5-0.2-11.3h5.4c-0.2,3.8-0.2,8.2-0.2,11.3
			c0,2.7,0.1,5.9,0.1,9.1c2.2,0,6.1-0.1,8.2-0.3l-0.7,2.8H141.2z"/>
		<g>
			<defs>
				<path id="SVGID_00000144309690923066652280000001779335974201614736_" d="M27.6,63.2c0,3.7,0.9,7.6,1.4,9.4
					c0.2,0.8-0.3,1.8-1,0.3c-1.2-2.5-2.3-6.6-2.3-10.4c0-3.3,0.4-6.7,1.3-10.1C22.1,55,14.7,62.6,14.7,73.4
					c0,13.4,9.1,23.3,24.7,23.3c3.9,0,7.6-0.6,11-1.6c-9.4-7.3-11.8-16.9-11-23.6c0.1-0.9,1-1.7,1,0.2c0.1,15,16.1,25.1,29.3,27.2
					c3,0.5,4.3-0.8,1.1-2.8c-9.2-6-14.2-15.1-11.8-23.5c0.3-1,1-0.8,0.8,0.4c-1,5.6,6.8,20.1,15.9,20.1c5,0,14.3-12.6,16.3-28
					c0.1-0.8,1-1,1.2,0.3c0.1,1.2-0.4,8.3-0.6,10.3c-0.3,2.7,0.1,2.4,2.6,1.4c3.9-1.5,10.7-1.5,13.4-0.6c0.8,0.2,0.8,0.7-0.1,0.8
					c-10.1,0.2-15.9,1.6-22.1,12.2c-1.5,2.5,2.8,3,4.6,3c8.2,0,12.5-4.5,14.1-7c0.3-0.5,0.8-0.3,0.5,0.4c-2.2,5.7-6.7,7.9-16.9,9.1
					c-1,0.1-1.8,0.4-2.6,0.9c6.5,2.6,14.4,4.6,21.5,4.6c19.5,0,36.1-8.8,36.1-22.5c0-17.3-25.5-22.3-36.4-22.3
					c-9.3,0-16.3,2-22.1,4.9c-0.9,0.4-1.6-0.3-0.7-1c4.9-3.4,13.6-6.8,25.2-6.8c9.1,0,18,1.8,24.8,5.5C131.2,45.7,119,36.2,103,36.2
					c-18.5,0-29.8,8.2-36.3,16.3c-0.7,0.9-1.2,0-0.5-1c5.9-8.7,17-18.6,36-18.6c1.5,0,2.9,0.1,4.4,0.2C101.5,28.5,90.9,23,76.9,23
					C44.3,23,27.6,43.3,27.6,63.2"/>
			</defs>
			<clipPath id="SVGID_00000039101593413592907650000014904429175700371617_">
				<use xlink:href="#SVGID_00000144309690923066652280000001779335974201614736_"  style="overflow:visible;"/>
			</clipPath>
			
				<linearGradient id="SVGID_00000104668153140607630240000011304098851656606599_" gradientUnits="userSpaceOnUse" x1="55.7996" y1="666.7722" x2="56.722" y2="666.7722" gradientTransform="matrix(-131.6167 100.265 100.265 131.6167 -59377.168 -93332.0547)">
				<stop  offset="0" style="stop-color:#581000"/>
				<stop  offset="0.1348" style="stop-color:#621300"/>
				<stop  offset="0.5506" style="stop-color:#C1210D"/>
				<stop  offset="1" style="stop-color:#581000"/>
			</linearGradient>
			
				<polygon style="clip-path:url(#SVGID_00000039101593413592907650000014904429175700371617_);fill:url(#SVGID_00000104668153140607630240000011304098851656606599_);" points="
				180.9,72.1 62,162.7 -22.7,51.5 96.2,-39.1 			"/>
		</g>
		<g>
			<path class="st4" d="M70.2,166.3c0.2-1,0.3-1.3,0.5-2.1l-1.3,0.3l0,0.2c0.2,0,0.5,0,0.5,0.3c0,0.1-0.1,0.6-0.2,0.9
				c0,0,0,0.2-0.1,0.7c-0.7,0-1.1,0.2-1.5,0.6c-0.6,0.6-1,1.5-1,2.2c0,0.5,0.4,0.9,0.8,0.9c0.2,0,0.5-0.1,0.7-0.3
				c0.2-0.1,0.3-0.2,0.5-0.5l-0.2,0.8l1.2-0.2l0-0.2c-0.4-0.1-0.5-0.1-0.5-0.3c0-0.1,0-0.2,0.2-1.1L70.2,166.3z M69,168.9
				c-0.3,0.4-0.7,0.7-1,0.7c-0.3,0-0.5-0.3-0.5-0.6c0-0.6,0.4-1.4,0.8-1.8c0.2-0.2,0.5-0.3,0.8-0.3c0.1,0,0.1,0,0.2,0L69,168.9z"/>
			<path class="st4" d="M72.5,168c0.4-0.2,0.7-0.6,0.7-1c0-0.3-0.3-0.6-0.7-0.6c-0.7,0-1.4,0.6-1.7,1.4c-0.1,0.3-0.2,0.7-0.2,1
				c0,0.8,0.4,1.3,1,1.3c0.6,0,1.1-0.4,1.5-1.1l-0.1-0.1c-0.4,0.5-0.7,0.7-1,0.7c-0.4,0-0.7-0.4-0.7-0.9c0-0.1,0-0.2,0-0.3
				C72,168.3,72.2,168.2,72.5,168z M71.8,167.2c0.2-0.2,0.4-0.3,0.5-0.3c0.2,0,0.3,0.1,0.3,0.3c0,0.2-0.1,0.4-0.4,0.6
				c-0.2,0.2-0.4,0.2-0.9,0.3C71.5,167.7,71.6,167.5,71.8,167.2z"/>
			<path class="st4" d="M75.1,166.4c-0.2,0-0.5,0.1-0.7,0.3c-0.2,0.2-0.4,0.5-0.4,0.7c0,0.4,0.4,0.8,0.6,1.1
				c0.4,0.5,0.5,0.6,0.5,0.8c0,0.3-0.2,0.5-0.6,0.5c-0.5,0-0.7-0.4-0.7-0.8h-0.2l-0.2,1.1c0.1,0,0.2-0.1,0.3-0.1
				c0.3,0,0.5,0.2,0.9,0.2c0.6,0,1.1-0.5,1.1-1.1c0-0.4-0.1-0.6-0.6-1.1c-0.5-0.5-0.6-0.7-0.6-0.9c0-0.2,0.2-0.4,0.5-0.4
				c0.3,0,0.6,0.2,0.7,0.6h0.2l0.2-0.9c-0.1,0-0.2,0-0.3,0C75.7,166.5,75.4,166.4,75.1,166.4z"/>
			<path class="st4" d="M80,166.3c0.2-1,0.3-1.3,0.5-2.1l-1.3,0.3l0,0.2c0.2,0,0.5,0,0.5,0.3c0,0.1-0.1,0.6-0.2,0.9
				c0,0,0,0.2-0.1,0.7c-0.7,0-1.2,0.2-1.6,0.6c-0.6,0.6-1,1.5-1,2.2c0,0.5,0.4,0.9,0.8,0.9c0.2,0,0.5-0.1,0.7-0.3
				c0.2-0.1,0.2-0.2,0.5-0.5l-0.2,0.8l1.3-0.2l0-0.2c-0.4-0.1-0.5-0.1-0.5-0.3c0-0.1,0-0.2,0.2-1.1L80,166.3z M78.8,168.9
				c-0.3,0.4-0.7,0.7-1,0.7c-0.3,0-0.5-0.3-0.5-0.6c0-0.6,0.4-1.4,0.8-1.8c0.2-0.2,0.5-0.3,0.8-0.3c0.1,0,0.2,0,0.3,0L78.8,168.9z"
				/>
			<path class="st4" d="M82.4,168c0.4-0.2,0.7-0.6,0.7-1c0-0.3-0.3-0.6-0.7-0.6c-0.7,0-1.4,0.6-1.8,1.4c-0.1,0.3-0.2,0.7-0.2,1
				c0,0.8,0.4,1.3,1,1.3c0.6,0,1.1-0.4,1.5-1.1l-0.1-0.1c-0.4,0.5-0.7,0.7-1,0.7c-0.4,0-0.7-0.4-0.7-0.9c0-0.1,0-0.2,0-0.3
				C81.8,168.3,82.1,168.2,82.4,168z M81.6,167.2c0.2-0.2,0.4-0.3,0.5-0.3c0.2,0,0.3,0.1,0.3,0.3c0,0.2-0.1,0.4-0.4,0.6
				c-0.2,0.2-0.4,0.2-0.9,0.3C81.3,167.7,81.4,167.5,81.6,167.2z"/>
			<path class="st4" d="M86.8,169.5c0-0.1,0-0.1,0.1-0.3l0.6-2.7l-1.4,0.3l0,0.2c0.1,0,0.1,0,0.2,0c0.2,0,0.3,0.1,0.3,0.3
				c0,0.1-0.1,0.5-0.2,1c-0.1,0.3-0.3,1.3-0.4,1.5c-0.1,0.1-0.2,0.2-0.5,0.2l0,0.2l1.8-0.3l0-0.2C86.9,169.7,86.8,169.6,86.8,169.5z
				"/>
			<path class="st4" d="M90.1,166.4c-1,0-1.9,0.9-1.9,1.9c0,0.8,0.5,1.4,1.2,1.4c0.3,0,0.6-0.1,1-0.4c-0.5,1.4-1.6,2.1-3.1,2.2
				l0.1,0.3c2.3-0.1,4-1.7,4-3.7C91.5,167,91,166.4,90.1,166.4z M90.7,168.8c-0.3,0.3-0.6,0.4-0.9,0.4c-0.5,0-0.8-0.4-0.8-1.1
				c0-0.7,0.4-1.2,1-1.2c0.5,0,0.8,0.4,0.8,1.2C90.8,168.3,90.7,168.5,90.7,168.8z"/>
			<path class="st4" d="M95.6,166.4h-0.4l-3.1,2.7l-0.1,0.4h2.2l-0.4,1.9h0.7l0.4-1.9h1l0.1-0.4h-1L95.6,166.4z M94.3,169.1h-1.7
				l2.1-1.8L94.3,169.1z"/>
			<path class="st4" d="M99.5,166.3c0.1-0.2,0.2-0.4,0.2-0.7c0-0.6-0.4-0.9-1-0.9c-0.9,0-1.6,0.6-1.6,1.4c0,0.4,0.2,0.8,0.7,1.3
				c0,0,0,0-0.5,0.4c-0.5,0.5-0.8,0.9-0.8,1.3c0,0.6,0.5,1.1,1.3,1.1c0.9,0,1.7-0.7,1.7-1.5c0-0.3-0.1-0.5-0.4-0.9
				c-0.2-0.2-0.3-0.4-0.5-0.6C98.9,167,99.2,166.7,99.5,166.3z M98.8,169.1c0,0.4-0.4,0.7-0.8,0.7c-0.5,0-0.8-0.3-0.8-0.7
				c0-0.6,0.4-1,0.8-1.4c0.2,0.2,0.2,0.3,0.4,0.5C98.7,168.7,98.8,168.9,98.8,169.1z M98.2,167c-0.2-0.3-0.5-0.7-0.5-1
				c0-0.4,0.3-0.8,0.8-0.8c0.4,0,0.6,0.2,0.6,0.5c0,0.1,0,0.3-0.1,0.5C98.8,166.5,98.6,166.7,98.2,167z"/>
		</g>
	</g>
	<g>
		<g>
			<text transform="matrix(1.2083 0 0 1 185.949 67.6234)" class="st6 st7">I CARRERA</text>
		</g>
		<g>
			<text transform="matrix(1.2083 0 0 1 175.4236 182.8763)" class="st6 st8">DE BARCIENCE</text>
		</g>
		<g>
			<g>
				<path class="st4" d="M322.5,79.5c-0.2-2.1-2.3-3.6-4.9-3.6c-7.8,0-15.1,1.1-21.8,3.2c0,0-0.1,0-0.1,0c-3.9,1.4-7.5,3.1-10.5,5.1
					c-2.6,1.7-4.8,3.9-6.7,6.5l-0.9-1.6c-1-1.9-2.7-4-5.2-6.4c-2.6-2.5-5.6-4.5-8.9-5.9c-1.3-0.5-2.7-0.6-4-0.2
					c-1.3,0.4-2.3,1.3-2.8,2.4l-1.3,3c-1.6-0.3-3.4-0.5-5.4-0.5c-4.8,0-9.7,1.5-14.5,4.4c-4.5,2.7-8.2,6.3-10.8,10.5
					c-1.9,3-3.5,6.1-4.7,9.3c-1.4-0.1-2.9,0.2-4,1.1l-1.4,1.1c-0.3,0.2-1.3,0.7-4.1,1.5c-0.6,0.2-1.2,0.3-1.8,0.4
					c5.1-18.3,10.2-33.4,15.2-45.2c0.6-1.3,0.3-2.8-0.8-3.9c-1-1.1-2.7-1.7-4.4-1.5c-7.6,0.7-14.6,2-20.9,3.9
					c-8.4,2.5-11,3.8-12.4,4.6c-1.8,1.1-3,1.9-3.9,2.6c-1.1,0.9-1.7,2.1-1.5,3.4l0.2,1.6c0.3,3.3,0.5,7.5,0.5,12.5
					c0,1.3-1.2,8.9-8.9,45.5c-0.2,1.1,0.1,2.3,1,3.2s2.2,1.5,3.5,1.5l5.9,0.3c10.9,0.5,21.3,1.9,31,4c0.4,0.1,0.8,0.1,1.2,0.1
					c1,0,1.9-0.2,2.7-0.7c1.2-0.6,1.9-1.7,2.1-2.8l1.2-6.9c0.5,0.8,1.1,1.6,1.7,2.4c4,5.1,8.9,7.7,14.4,7.7c3,0,6.1-1.3,9.7-4
					c0.6-0.5,1.2-1,1.8-1.5c2.6,4,6.3,5.8,9.4,6.7c0.5,0.1,1,0.2,1.5,0.2c0.9,0,1.8-0.2,2.6-0.6l10.5-5.6c1.2-0.7,2-1.8,2.2-2.9
					c1.2,2.8,2.6,5.5,4.1,8c0.8,1.4,2.5,2.2,4.3,2.2c0.2,0,0.5,0,0.7,0c13.3-1.6,23.1-4.7,29.8-9.3c7.1-4.9,10.7-10.8,10.7-17.4
					c0-4.2-1.8-7.7-5.2-10.2c0,0,0,0,0.1,0c1.6,0.5,3.4,0.3,4.7-0.6c1.3-0.8,2.1-2.2,1.9-3.6L322.5,79.5z M272,114.1
					c0-0.2,0-0.5,0-0.7v-1.3l0.9-1.7c0.5-1,1-2,1.5-3c0.5,2.9,1.6,5.1,3.5,6.8l-1.9-0.5C274.6,113.3,273.2,113.5,272,114.1z
					 M245.7,112.7c-0.2,1.1-0.4,2.2-0.5,3.2c-0.3,0.4-0.6,0.7-0.9,1C244.6,115.6,245.1,114.2,245.7,112.7z"/>
				<path class="st4" d="M401.8,103.6l-3.8,0.6l1-4.8c1.9-8.8,3.1-17.7,3.7-26.5c0.1-1.3-0.6-2.5-1.7-3.3c-6.2-4.4-13.7-8-22.2-10.8
					c-1.5-0.5-3.2-0.3-4.6,0.4c-1.3,0.8-2.1,2-2.1,3.4l0.1,5.3c-0.1,0-0.2,0-0.3-0.1L347.4,64c-1.4-0.2-2.9,0.1-4.1,0.9
					c-1.1,0.8-1.8,2-1.7,3.2l0.2,8.5V78c0,5.3-0.7,12.7-2,21.9c-1.3,9.1-3.5,17.7-6.3,25.5c-0.5,1.3-0.2,2.6,0.8,3.7
					c1,1,2.6,1.6,4.1,1.5l26.6-1.5l-3.8,14.9c-0.4,1.4,0.2,2.8,1.4,3.8c0.9,0.7,2.1,1.1,3.3,1.1c0.4,0,0.9,0,1.3-0.1l20-4.6
					c1.8-0.4,3.2-1.7,3.5-3.3l2.4-13.5l5.4,0.5c2.5,0.2,4.8-1.2,5.3-3.3l3.5-16.1c0.3-1.3-0.2-2.6-1.4-3.6
					C405,103.8,403.3,103.4,401.8,103.6z M372,80.5c-0.3,8.7-1,17.6-2.1,26.8l-5.1-0.1c0.7-5,1.9-10.1,3.4-15.2
					C370.1,86.1,371.3,82.6,372,80.5z"/>
				<path class="st4" d="M679,107.1c1.3-0.8,2.1-2.2,1.9-3.6l-2.9-24c-0.2-2.1-2.3-3.6-4.9-3.6c-7.8,0-15.1,1.1-21.8,3.2
					c0,0-0.1,0-0.1,0c-3.9,1.4-7.5,3.1-10.5,5.1c-2.6,1.7-4.8,3.9-6.7,6.5l-0.9-1.6c-1-1.9-2.7-4-5.2-6.4c-2.6-2.5-5.6-4.5-8.9-5.9
					c-1.3-0.5-2.7-0.6-4-0.2c-1.3,0.4-2.3,1.3-2.8,2.4l-1.3,3c-1.6-0.3-3.4-0.5-5.4-0.5c-4.8,0-9.7,1.5-14.5,4.4
					c-4.5,2.7-8.2,6.3-10.8,10.5c-0.4,0.7-0.9,1.4-1.3,2.1c0.8-4,1.8-8.2,3-12.8c2.2-8.5,4.9-16.7,7.9-24.4c0.5-1.4,0.2-2.8-1-3.9
					c-1.1-1.1-2.9-1.6-4.6-1.3l-3.6,0.6c-2.8,0.4-6.3,1.5-10.9,3.3c-3.1,1.2-6.1,2.7-8.9,4.4c0.4-1,0.8-2,1.2-3
					c0.5-1.4,0.2-2.8-1-3.9c-1.1-1.1-2.9-1.6-4.6-1.3l-3.6,0.6c-2.8,0.4-6.3,1.5-10.9,3.3c-3.4,1.3-6.7,3-9.8,4.8
					c0.1-0.8,0.2-1.5,0.3-2.1c0.2-1.4-0.5-2.8-1.9-3.7l-1.8-1.1c0,0-0.1,0-0.1,0c-4-2.4-8.8-4.1-14.3-5.1c-2.2-0.4-4.4,0.5-5.4,2.1
					l-1.2,1.9c-0.5,0.7-1.4,1.9-3.4,3.9c-1.5,1.5-3,2.6-4.5,3.4c-0.9,0.4-1.5,1.1-1.9,1.8c-0.6-0.5-1.3-0.8-2.1-1
					c-7.8-1.8-14.9-4.9-21.1-9.1c-1.3-0.9-3-1.1-4.6-0.7c-1.6,0.4-2.8,1.5-3.2,2.8l-6.8,20.7c0.1-3.5,0.4-8.4,0.7-14.7
					c0.1-1.2-0.5-2.3-1.5-3.1c-1-0.8-2.4-1.2-3.9-1.1c-4.7,0.4-9.8,1.6-15.2,3.6c-5.4,1.9-9.9,4.1-13.4,6.3
					c-0.9,0.6-1.5,1.3-1.7,2.2l-1.9,6.3c-1.4,4.3-3,10.9-4.7,20.1c-1.7,9.1-2.9,18.8-3.7,28.7c0,0.5,0,0.9,0.2,1.4
					c1.2,3.5,3.6,7.1,7.1,10.6c3.3,3.3,5.8,5.6,7.7,6.8c1.7,1.1,3,1.9,4,2.5c0.8,0.5,1.8,0.7,2.8,0.7c0.8,0,1.5-0.2,2.2-0.5
					c1.6-0.7,2.6-2.1,2.6-3.6c0-6.8,0.3-13.2,1-19.3c0.9,4,2,7.4,3.2,10.1c0.6,1.4,2,2.4,3.7,2.6c1.7,0.3,3.5-0.3,4.6-1.4
					c2.3-2.3,4.8-5.6,7.5-10.1c-0.7,3.5-1.5,7-2.4,10.6c-0.3,1.3,0.2,2.7,1.3,3.7c1.2,1,2.8,1.4,4.4,1.1c10.5-1.8,18-4.5,23-8.3
					c0.7-0.6,1.3-1.3,1.5-2.1l1.5-5.9c0,0.9,0,1.9,0,2.9c0,0.8,0.3,1.5,0.8,2.2l1.3,1.7c0,0,0.1,0.1,0.1,0.1
					c1.2,1.4,3.2,3.2,6.2,5.4c2.9,2.2,6.4,4.4,10.3,6.4c0.8,0.4,1.7,0.6,2.6,0.6c0.8,0,1.6-0.2,2.3-0.5c1.6-0.7,2.5-2.1,2.5-3.5
					v-4.8c0-2.6,0.4-6.4,1.1-11.4c0.1-0.4,0.1-0.8,0.2-1.2c-0.2,2.1-0.4,4.1-0.5,6c-0.1,0.9,0.2,1.7,0.8,2.4
					c4.2,5.4,11.1,10.4,20.6,14.9c0.8,0.4,1.6,0.5,2.4,0.5c0.8,0,1.7-0.2,2.4-0.5c1.5-0.7,2.4-2.1,2.4-3.5v-4.5
					c0-1.9,0.1-4.1,0.2-6.6c4.2,5.3,11,10.2,20.3,14.6c0.8,0.4,1.6,0.5,2.4,0.5c0.8,0,1.7-0.2,2.4-0.5c1.5-0.7,2.4-2.1,2.4-3.5v-4.5
					c0-2.6,0.1-5.7,0.4-9.4c0.8,1.6,1.8,3.1,3.1,4.7c4,5.1,8.9,7.7,14.4,7.7c3,0,6.1-1.3,9.7-4c0.6-0.5,1.2-1,1.8-1.5
					c2.6,4,6.3,5.8,9.4,6.7c0.5,0.1,1,0.2,1.5,0.2c0.9,0,1.8-0.2,2.6-0.6l10.5-5.6c1.2-0.7,2-1.8,2.2-2.9c1.2,2.8,2.6,5.5,4.1,8
					c0.8,1.4,2.5,2.2,4.3,2.2c0.2,0,0.5,0,0.7,0c13.3-1.6,23.1-4.7,29.8-9.3c7.1-4.9,10.7-10.8,10.7-17.4c0-4.2-1.8-7.7-5.2-10.2
					c0,0,0,0,0.1,0C675.9,108.2,677.6,108,679,107.1z M627.5,114.1c0-0.2,0-0.5,0-0.7v-1.3l0.9-1.7c0.5-1,1-2,1.5-3
					c0.5,2.9,1.6,5.1,3.5,6.8l-1.9-0.5C630.1,113.3,628.7,113.5,627.5,114.1z M601.2,112.7c-0.2,1.1-0.4,2.2-0.5,3.2
					c-0.3,0.4-0.6,0.7-0.9,1C600.1,115.6,600.6,114.2,601.2,112.7z M523.1,88.2c0.2-0.2,0.4-0.5,0.6-0.7c-0.1,0.3-0.1,0.6-0.2,0.9
					L523.1,88.2z M504.8,80.2c0.7,0.7,1.3,1.4,1.9,2c-1.5-0.4-3.1-0.8-4.7-1.1c-1.2-0.2-2.4-0.1-3.5,0.4c0.3-3.1,0.6-6.1,0.7-9
					C500.6,75.1,502.4,77.7,504.8,80.2z"/>
			</g>
			<g>
				<text transform="matrix(0.8589 0 0 1 171.5159 136.7767)" class="st9 st10 st11">Las 4 Millas </text>
			</g>
		</g>
	</g>
</g>
</svg>
