<?xml version="1.0" encoding="utf-8"?>
<!-- Generator: Adobe Illustrator 26.2.1, SVG Export Plug-In . SVG Version: 6.00 Build 0)  -->
<svg version="1.1" id="Capa_1" xmlns="http://www.w3.org/2000/svg" xmlns:xlink="http://www.w3.org/1999/xlink" x="0px" y="0px"
	 viewBox="0 0 120.7 81.7" style="enable-background:new 0 0 120.7 81.7;" xml:space="preserve">
<style type="text/css">
	.st0{fill:#FFFFFF;}
</style>
<g>
	<path class="st0" d="M113.7,0H7C3.1,0,0,3.1,0,7s3.1,7,7,7h106.7c3.9,0,7-3.1,7-7S117.6,0,113.7,0z"/>
	<path class="st0" d="M82.4,36H7c-3.2,0-5.9,2.6-5.9,5.9s2.6,5.9,5.9,5.9h75.4c3.2,0,5.9-2.6,5.9-5.9S85.6,36,82.4,36z"/>
	<path class="st0" d="M60.4,71.8H7c-2.7,0-4.9,2.2-4.9,4.9s2.2,4.9,4.9,4.9h53.4c2.7,0,4.9-2.2,4.9-4.9S63.1,71.8,60.4,71.8z"/>
</g>
</svg>
