<?xml version="1.0" encoding="UTF-8"?><svg xmlns="http://www.w3.org/2000/svg" viewBox="0 0 186.68 77.8"><defs><style>.d{fill:#fff;}</style></defs><g id="a"/><g id="b"><g id="c"><g><path class="d" d="M154.47,59.22c.5,.13,.86,.41,1.07,.86,.21,.45,.16,.82-.15,1.1-.22,.2-.45,.27-.7,.21-.25-.05-.48-.23-.67-.54-.34-.52-.88-.78-1.61-.79-.73,0-1.87,.24-3.41,.74-.31,.11-.49,.18-.54,.23-.05,.05-.16,.22-.32,.52-.18,.32-.44,.74-.78,1.26-2.16,3.24-3.75,6.57-4.78,9.97-.09,.3-.16,.51-.22,.62-.09,.23-.15,.43-.19,.59,0,.05,.03,.09,.08,.09,.05,0,.1,.03,.13,.07,.11,.13,.13,.26,.05,.4-.07,.14-.22,.26-.43,.35-.22,.09-.41,.11-.59,.05-.58-.21-.78-.92-.62-2.12,.05-.36,.27-1.04,.65-2.06,.38-1.01,.78-2.01,1.21-3,.92-2.08,1.94-3.95,3.08-5.62,.09-.16,.13-.24,.11-.24s-.13,.04-.35,.13c-1.06,.43-1.84,.7-2.35,.81-.63,.13-1.14,.15-1.54,.08-.4-.07-.76-.25-1.08-.54-.31-.29-.48-.65-.51-1.08-.04-.43,.08-.78,.35-1.05,.2-.21,.39-.28,.57-.2,.18,.08,.29,.28,.32,.61,.02,.3,.06,.51,.14,.62,.07,.11,.23,.22,.49,.35,.38,.18,.76,.26,1.15,.24,.39-.02,1-.16,1.85-.43,1.15-.36,1.74-.56,1.78-.62,.45-.65,.94-1.02,1.48-1.13,.36-.05,.54,.08,.54,.4,0,.05,.04,.06,.11,.03,.02,0,.06,0,.14-.03,2.09-.65,3.73-.97,4.94-.97,.25,0,.46,.02,.62,.05"/><path class="d" d="M150.37,65.84c.32,.48,.49,1.12,.49,1.91v.4c.11,0,.32-.06,.65-.19,.54-.21,.95-.5,1.24-.86,.25-.34,.46-.49,.62-.46,.07,.02,.12,.05,.14,.08,.02,.04,0,.07-.03,.11-.04,.04-.08,.05-.13,.05-.09,0-.22,.1-.38,.3-.49,.65-1.13,1.11-1.94,1.4-.13,.04-.2,.06-.22,.08-.02,.02-.04,.07-.05,.16-.11,.56-.32,1.18-.62,1.88-.22,.52-.5,.99-.85,1.42-.35,.43-.71,.75-1.07,.97-.38,.22-.82,.29-1.32,.22-.56-.09-.95-.43-1.19-1.01-.23-.58-.26-1.29-.08-2.11,.18-.82,.55-1.6,1.11-2.34,.11-.16,.15-.28,.13-.35-.09-.32-.04-.69,.14-1.1,.18-.41,.42-.7,.73-.86,.04-.02,.09-.05,.18-.11,.08-.05,.16-.09,.23-.12,.07-.03,.15-.05,.24-.07,.23-.11,.47-.15,.7-.13,.54,0,.97,.24,1.3,.73m-2.21,2.93c-.65,.84-.96,1.65-.94,2.42,0,.47,.17,.68,.51,.65,.04,0,.07,0,.11-.03,.41-.11,.85-.43,1.3-.98,.45-.55,.79-1.16,1.03-1.84,.04-.11,.05-.17,.04-.17,0,0-.07,0-.18,.01-.11,.02-.33,.03-.67,.03s-.57,0-.67-.03l-.32-.05c-.07-.02-.12-.03-.13-.03s-.04,0-.05,.03m.24-2.85c-.22,.25-.32,.42-.32,.51,.36-.25,.7-.33,1.01-.23,.31,.1,.45,.32,.39,.66-.04,.18-.18,.46-.43,.83-.07,.09-.14,.17-.19,.24l-.08,.11c.34,.23,.8,.31,1.38,.24,.11,0,.18-.05,.2-.16,.03-.11,.04-.35,.04-.73,.02-.59-.08-1.06-.28-1.41-.21-.35-.47-.52-.8-.52-.31,0-.61,.15-.92,.46"/><path class="d" d="M155.73,65.26c.04,.19-.02,.43-.16,.74-.04,.09-.11,.26-.22,.51-.11,.25-.23,.53-.38,.83-.25,.56-.37,.82-.35,.78,.02-.02,.12-.13,.3-.35,.81-1.04,1.56-1.8,2.27-2.27,.7-.48,1.26-.61,1.67-.42,.25,.13,.42,.32,.51,.59,.09,.27,.09,.51-.01,.73-.1,.22-.28,.32-.55,.32-.36,0-.58-.24-.65-.73-.02-.18-.05-.28-.11-.3-.29-.11-.69,.03-1.21,.42-.52,.39-1.05,.93-1.59,1.63-.4,.52-.78,1.12-1.16,1.8-.14,.25-.41,.97-.81,2.15-.16,.5-.35,.86-.57,1.09-.22,.22-.45,.3-.7,.23-.4-.11-.56-.47-.5-1.08,.06-.61,.36-1.53,.88-2.77,.31-.72,.68-1.44,1.13-2.18,.45-.73,.84-1.28,1.16-1.64,.27-.25,.51-.38,.73-.38,.18,0,.29,.09,.32,.28"/><path class="d" d="M162.59,65.26c.04,.19-.02,.43-.16,.74-.04,.09-.11,.26-.22,.51-.11,.25-.23,.53-.38,.83-.25,.56-.37,.82-.35,.78,.02-.02,.12-.13,.3-.35,.81-1.04,1.56-1.8,2.27-2.27,.7-.48,1.26-.61,1.67-.42,.25,.13,.42,.32,.51,.59,.09,.27,.09,.51-.01,.73-.1,.22-.28,.32-.55,.32-.36,0-.58-.24-.65-.73-.02-.18-.05-.28-.11-.3-.29-.11-.69,.03-1.21,.42-.52,.39-1.05,.93-1.59,1.63-.4,.52-.78,1.12-1.16,1.8-.14,.25-.41,.97-.81,2.15-.16,.5-.35,.86-.57,1.09-.22,.22-.45,.3-.7,.23-.4-.11-.56-.47-.5-1.08,.06-.61,.36-1.53,.88-2.77,.31-.72,.68-1.44,1.13-2.18,.45-.73,.84-1.28,1.16-1.64,.27-.25,.51-.38,.73-.38,.18,0,.29,.09,.32,.28"/><path class="d" d="M169.2,66.35c.13,.23,.11,.55-.05,.94-.04,.09-.15,.3-.35,.65-.63,1.02-1.12,1.92-1.46,2.69-.34,.77-.57,1.43-.67,1.99v.03l.03,.05s.05-.02,.11-.05v-.03c.43-.27,.76-.53,.97-.78,.22-.25,.67-.9,1.35-1.94,.81-1.26,1.37-1.88,1.67-1.88,.16,0,.25,.07,.26,.21s-.08,.24-.26,.3c-.23,.09-.92,1-2.05,2.74-.11,.18-.22,.35-.35,.51-.13,.16-.22,.28-.27,.35-.32,.47-.58,.79-.78,.97-.61,.61-1.14,.82-1.59,.65-.22-.09-.4-.25-.54-.48-.14-.23-.22-.48-.22-.75,0-.52,.26-1.37,.78-2.55,.52-1.18,1.12-2.29,1.81-3.31,.29-.45,.63-.66,1.03-.65,.27,0,.47,.12,.59,.35m1-2.66c.14,.32,.1,.62-.12,.9-.22,.28-.54,.4-.93,.36-.32-.04-.54-.21-.66-.52-.12-.31-.06-.6,.18-.85,.22-.23,.48-.35,.78-.35,.36,0,.61,.15,.76,.46"/><path class="d" d="M173.24,65.08c.23,.02,.39,.09,.47,.23,.08,.13,.09,.38,.04,.74-.05,.36-.18,.82-.36,1.37-.19,.56-.46,1.31-.82,2.26l-.27,.65s.02,.01,.05-.01c.04-.03,.09-.06,.15-.11,.06-.05,.14-.09,.23-.15,.56-.41,1.11-.98,1.67-1.69,.22-.3,.35-.38,.4-.21,.04,.13-.22,.47-.77,1.05-.55,.57-1.11,1.08-1.69,1.53-.16,.11-.26,.19-.3,.26s-.11,.22-.22,.47c-1.04,2.49-1.91,4.2-2.59,5.14-.68,.93-1.37,1.33-2.05,1.18-1.04-.21-1.56-.95-1.56-2.2,0-.86,.29-1.6,.86-2.22,.58-.62,1.47-1.15,2.7-1.6,.41-.14,.65-.23,.7-.27,.05-.04,.11-.12,.16-.24,.36-.82,.76-1.79,1.19-2.9,.49-1.27,.86-2.13,1.13-2.57,.27-.44,.54-.67,.81-.69h.05Zm-4.18,7.26c-.79,.34-1.36,.65-1.7,.91-.34,.27-.62,.63-.84,1.08-.22,.45-.3,.91-.26,1.4,.04,.48,.19,.81,.44,.97,.07,.04,.14,.02,.19-.05l.32-.32c.38-.38,.73-.83,1.05-1.36,.32-.53,.71-1.29,1.16-2.3,.16-.36,.22-.54,.19-.54s-.22,.07-.57,.21m5.58-9.03c.13,.25,.11,.51-.05,.77-.16,.26-.41,.39-.76,.39-.14,.02-.24,.02-.3,0-.27-.11-.43-.29-.49-.54-.05-.25,0-.48,.18-.69,.17-.21,.4-.31,.69-.31,.36,0,.6,.13,.73,.38"/><path class="d" d="M179.15,65.84c.32,.48,.49,1.12,.49,1.91v.4c.11,0,.32-.06,.65-.19,.54-.21,.95-.5,1.24-.86,.25-.34,.46-.49,.62-.46,.07,.02,.12,.05,.14,.08,.02,.04,0,.07-.03,.11-.04,.04-.08,.05-.13,.05-.09,0-.22,.1-.38,.3-.49,.65-1.13,1.11-1.94,1.4-.13,.04-.2,.06-.22,.08-.02,.02-.04,.07-.05,.16-.11,.56-.32,1.18-.62,1.88-.22,.52-.5,.99-.85,1.42-.35,.43-.71,.75-1.07,.97-.38,.22-.82,.29-1.32,.22-.56-.09-.95-.43-1.19-1.01-.23-.58-.26-1.29-.08-2.11,.18-.82,.55-1.6,1.11-2.34,.11-.16,.15-.28,.13-.35-.09-.32-.04-.69,.14-1.1,.18-.41,.42-.7,.73-.86,.04-.02,.09-.05,.18-.11,.08-.05,.16-.09,.23-.12,.07-.03,.15-.05,.24-.07,.23-.11,.47-.15,.7-.13,.54,0,.97,.24,1.3,.73m-2.21,2.93c-.65,.84-.96,1.65-.94,2.42,0,.47,.17,.68,.51,.65,.04,0,.07,0,.11-.03,.41-.11,.85-.43,1.3-.98,.45-.55,.79-1.16,1.03-1.84,.04-.11,.05-.17,.04-.17,0,0-.07,0-.18,.01-.11,.02-.33,.03-.67,.03s-.57,0-.67-.03l-.32-.05c-.07-.02-.12-.03-.13-.03s-.04,0-.05,.03m.24-2.85c-.22,.25-.32,.42-.32,.51,.36-.25,.7-.33,1.01-.23,.31,.1,.45,.32,.39,.66-.04,.18-.18,.46-.43,.83-.07,.09-.14,.17-.19,.24l-.08,.11c.34,.23,.8,.31,1.38,.24,.11,0,.18-.05,.2-.16,.03-.11,.04-.35,.04-.73,.02-.59-.08-1.06-.28-1.41-.21-.35-.47-.52-.8-.52-.31,0-.61,.15-.92,.46"/><path class="d" d="M185.28,65.41c.02,.41-.06,.86-.24,1.34-.18,.48-.37,.76-.57,.83-.16,.04-.23,0-.22-.11,0-.09,.05-.21,.14-.35,.27-.36,.41-.72,.43-1.08,.02-.14,.01-.22-.01-.23-.03,0-.1,.04-.23,.15-.16,.14-.4,.41-.7,.81-.49,.65-.84,1.49-1.05,2.53-.13,.61-.17,.92-.13,.94,.02,.02,.46-.12,1.32-.4,.43-.16,.85-.38,1.24-.66,.4-.28,.68-.56,.86-.85,.14-.22,.26-.27,.35-.16,.07,.09,.05,.23-.05,.43-.2,.36-.59,.71-1.19,1.06-.59,.35-1.3,.66-2.1,.93-.32,.09-.49,.14-.5,.15,0,0-.04,.28-.09,.82-.13,1.24-.28,2.06-.46,2.47-.18,.41-.52,.72-1.03,.91-.2,.07-.45,.08-.76,.03-.18-.04-.31-.07-.38-.11-.04-.04-.11-.08-.22-.13-.72-.41-.98-1.01-.78-1.79,.2-.78,.76-1.41,1.7-1.9,.16-.09,.25-.14,.26-.15,0,0,.03-.17,.07-.47,.25-2.13,.82-3.75,1.7-4.84,.5-.63,1.09-.94,1.75-.94,.58,0,.87,.25,.89,.75m-4.67,6.13c-.52,.3-.88,.64-1.07,1.01-.19,.37-.19,.74-.01,1.12,.07,.14,.18,.26,.31,.36,.14,.1,.25,.13,.34,.09,.09-.04,.16-.13,.22-.3,.2-.68,.32-1.34,.38-1.96,.04-.2,.05-.3,.05-.32s0-.04-.03-.08c-.02,0-.08,.03-.19,.08"/><path class="d" d="M145.5,46.33c0,1.48-.25,2.84-.74,4.07-.49,1.23-1.17,2.28-2.02,3.15-.85,.88-1.85,1.56-2.99,2.04-1.14,.48-2.37,.72-3.68,.72s-2.52-.25-3.66-.74c-1.14-.49-2.14-1.18-3-2.07-.86-.88-1.53-1.94-2.03-3.16-.49-1.22-.74-4.02-.74-4.02h0V30.07c0-.31,.24-.56,.53-.56h3.67c.29,0,.53,.25,.53,.56v8.27h0s.56-.62,.92-.88c.36-.26,.75-.47,1.17-.64,.42-.16,.85-.29,1.3-.38,.45-.09,.88-.13,1.31-.13,1.31,0,2.54,.25,3.68,.75,1.14,.5,2.14,1.2,2.99,2.1,.85,.9,1.52,1.95,2.02,3.17,.49,1.22,.74,2.55,.74,4m-4.74,0c0-.73-.12-1.41-.37-2.04-.25-.63-.58-1.18-1.01-1.63-.43-.46-.92-.82-1.49-1.08-.57-.26-1.18-.39-1.82-.39s-1.25,.14-1.82,.43c-.57,.29-1.07,.67-1.49,1.15-.43,.48-.76,1.03-1,1.64-.24,.62-.36,1.26-.36,1.92,0,.73,.12,1.41,.36,2.03,.24,.62,.57,1.17,1,1.63,.42,.46,.92,.82,1.49,1.09,.57,.26,1.18,.4,1.82,.4s1.25-.13,1.82-.4c.57-.27,1.07-.63,1.49-1.09,.43-.46,.76-1,1.01-1.63,.25-.62,.37-1.3,.37-2.03"/><path class="d" d="M152.1,31.89c0,.45-.08,.87-.24,1.26-.16,.39-.38,.73-.65,1.02-.27,.29-.6,.52-.96,.69-.37,.17-.76,.26-1.18,.26s-.81-.09-1.18-.26c-.37-.17-.68-.4-.95-.69-.27-.29-.48-.63-.64-1.02-.16-.39-.24-.81-.24-1.26s.08-.85,.24-1.25c.16-.39,.37-.74,.64-1.02,.27-.29,.59-.52,.95-.69,.37-.17,.76-.26,1.18-.26s.81,.09,1.18,.26c.37,.17,.69,.4,.96,.69,.27,.29,.49,.63,.65,1.02,.16,.4,.24,.81,.24,1.25m-1.19,24.07h-3.68c-.29,0-.53-.25-.53-.56v-17.8c0-.31,.24-.56,.53-.56h3.68c.29,0,.53,.25,.53,.56v17.8c0,.31-.24,.56-.53,.56"/><path class="d" d="M157.82,55.97h-3.68c-.29,0-.53-.25-.53-.56V30.07c0-.31,.24-.56,.53-.56h3.68c.29,0,.53,.25,.53,.56v14.54c0,.53,.62,.77,.94,.36l5.92-7.7c.1-.13,.25-.21,.41-.21h4.04c.45,0,.69,.56,.41,.92l-5.17,6.65c-.14,.18-.16,.44-.05,.65l5.46,9.82c.21,.38-.05,.85-.45,.85h-4.18c-.19,0-.36-.11-.46-.28l-3.2-5.87c-.19-.34-.64-.38-.87-.06l-2.68,3.65c-.07,.1-.11,.22-.11,.35v1.66c0,.31-.24,.56-.53,.56"/><path class="d" d="M178,51.33h0s.37,.1,.55,.11c.18,.02,.37,.03,.55,.03,.46,0,.9-.06,1.33-.19,.42-.13,.82-.32,1.2-.56,.37-.24,.71-.54,1-.88,.14-.17,.27-.34,.39-.53,.19-.31,.59-.36,.84-.1l2.6,2.68c.19,.2,.22,.53,.05,.75-.37,.48-.77,.92-1.22,1.31-.57,.51-1.18,.94-1.84,1.29-.66,.35-1.36,.62-2.09,.8-.73,.18-1.48,.27-2.25,.27-1.3,0-2.52-.25-3.66-.74-1.14-.49-2.14-1.18-3-2.07-.86-.88-1.53-1.94-2.03-3.16-.49-1.22-.74-2.56-.74-4.02s.25-2.86,.74-4.1c.49-1.24,1.17-2.29,2.03-3.16,.86-.87,1.86-1.55,3-2.03,1.14-.48,2.36-.72,3.66-.72,.77,0,1.52,.09,2.26,.28,.74,.19,1.43,.46,2.09,.81,.66,.35,1.28,.79,1.85,1.3,.46,.41,.88,.86,1.25,1.36,.16,.21,.15,.51-.02,.72l-8.54,10.56Zm2.41-9.95h0s-.43-.14-.65-.16c-.21-.02-.43-.04-.66-.04-.64,0-1.25,.12-1.82,.36-.57,.24-1.06,.59-1.48,1.03-.42,.45-.75,.99-.99,1.62-.24,.63-.36,1.34-.36,2.13,0,.18,0,.38,.03,.6,.02,.22,.05,.45,.09,.68,.04,.23,.09,.45,.15,.66,.06,.21,.22,.56,.22,.56h0l5.48-7.46Z"/><path class="d" d="M77.55,61.22h0c-.27-.62-.51-1.21-.73-1.81-.15-.41-.31-.89-.5-1.52-.09-.27-.17-.57-.26-.92v-.02l-.25-1.06c-.02-.09-.04-.19-.06-.3-1.41,6.74-7.12,11.77-13.76,11.77s-12.01-4.75-13.61-11.19c-.27,1.88-.73,3.72-1.37,5.49l-.05,.14c-.03,.09-.07,.2-.13,.32-.76,2.01-1.75,3.91-2.96,5.65-.04,.06-.09,.12-.13,.19,4.35,5.82,10.99,9.33,18.26,9.33,7.64,0,14.7-4.02,19.03-10.46-.04-.06-.09-.11-.13-.17-1.34-1.68-2.46-3.52-3.33-5.45"/><path class="d" d="M24.17,37.32c6.68,0,12.31,4.83,13.89,11.36,.26-1.95,.73-3.84,1.39-5.65v-.03l.05-.1c.03-.11,.08-.23,.13-.35,.76-1.99,1.75-3.87,2.93-5.59,.04-.06,.09-.12,.13-.19-4.41-5.84-11.16-9.37-18.53-9.37-4.7,0-9.19,1.44-13,4.07v14.57c2.33-5.26,7.42-8.72,13-8.72"/><path class="d" d="M83.78,41.23c.96,2.13,1.51,4.05,1.82,5.54,1.42-6.69,7.04-11.7,13.74-11.7,7.77,0,14.09,6.74,14.09,15.02,0,.19-.04,.91-.06,1.33-.02,.35-.42,2.86-.83,3.9-.22,.56-.65,1.52-1.19,2.5,1.44-.85,3.2-1.28,5.23-1.28,.61,0,1.26,.04,1.93,.12,1.04,.12,2.11,.38,3.18,.78h.01c.3-1.02,.53-2.06,.69-3.1l.03-.19c.11-.72,.18-1.36,.22-1.95,.05-.5,.07-1.01,.09-1.61l-.11-2.97v-.06c-.15-1.5-.42-2.99-.8-4.4l-.05-.2c-2.94-10.48-12.15-17.8-22.42-17.8-7.61,0-14.69,4.03-19.02,10.46,.05,.06,.09,.11,.14,.17,1.35,1.71,2.47,3.54,3.32,5.46"/><path class="d" d="M24.47,77.56c-10.38,0-19.7-7.4-22.67-18h0c-.7-2.73-.97-5.55-.9-9.17V16.89C-.04,15.24-.25,13.24,.31,11.41l.05-.14c.03-.09,.06-.18,.08-.24,.01-.05,.03-.08,.04-.11v-.02l.03-.05,.05-.08c.04-.07,.08-.13,.13-.21h0l1.48-2.12L7.54,.8c.35-.5,.88-.8,1.42-.8,.17,0,.33,.03,.49,.09l1.55,.54c.68,.24,1.13,.93,1.15,1.76l.12,9.55v3c0,.06-.01,.11-.02,.15v.03h0v.03s-.02,.07-.03,.12c-.01,.04-.02,.09-.03,.12h0l-.05,.15c-.3,.97-.79,1.84-1.47,2.58V51.9c0,.17-.01,.31-.01,.45,0,.15,0,.31,.01,.47h0c.25,8.02,6.32,14.29,13.82,14.29s13.33-6.06,13.79-13.79c.02-.32,.03-.64,.03-.96h0l.15-2.52h0c.22-2.28,.72-4.5,1.48-6.6h0l.05-.14c.03-.09,.07-.21,.12-.31,.74-1.96,1.71-3.8,2.88-5.49,2.16-3.12,5.02-5.7,8.26-7.45,3.29-1.77,7-2.71,10.73-2.71,3.42,0,6.89,.83,10.02,2.4,3.08,1.55,5.87,3.83,8.07,6.6,1.32,1.67,2.42,3.47,3.25,5.34,2.08,4.63,2.19,8.17,2.2,8.56h0c0,8.17,6.2,14.81,13.83,14.81,3.75,0,7.27-1.59,9.9-4.47l.3-.33,.04-.05,.05-.05c.41-.45,.49-.54,.9-.89,1.53-1.3,3.56-1.97,6.04-1.97,.6,0,1.23,.04,1.87,.11,1,.11,2.03,.36,3.07,.75,2.82,1.05,5.57,3.1,8.19,6.09,2.14,2.44,3.63,4.86,4.43,6.16,.75,1.22,1.44,2.48,2.05,3.76,.26,.55,.51,1.09,.78,1.64l.63,1.32-1.03-.99c-2.99-2.86-6.34-5.07-9.96-6.56-2.7-1.11-5.17-1.67-7.34-1.67s-3.17,.55-3.21,.57c-.4,.21-.83,.47-.83,.47-1.51,.88-2.43,1.61-3.33,2.32l-.04,.03c-.97,.77-1.9,1.5-3.34,2.21-.77,.38-1.37,.61-1.88,.78-.14,.05-3.5,1.23-7.29,1.23-3.42,0-6.88-.83-10.01-2.4-3.08-1.55-5.87-3.83-8.06-6.6-1.31-1.65-2.4-3.44-3.26-5.33-.27-.61-.5-1.19-.72-1.78-.2-.52-.37-1.1-.49-1.49-.08-.26-.17-.56-.25-.89l-.25-1.05c-.17-.81-.37-2.79-.48-3.89-.06-.65-.1-1.15-.11-1.34-.38-3.56-1.98-6.84-4.52-9.23-2.54-2.4-5.81-3.72-9.21-3.72-7.63,0-13.83,6.61-13.83,14.75v.03l-.15,2.49h0c-.22,2.28-.72,4.5-1.49,6.61l-.04,.1v.03c-.04,.08-.08,.19-.13,.3-.74,1.97-1.72,3.83-2.91,5.54-2.16,3.11-5.01,5.67-8.25,7.42-3.28,1.77-6.99,2.7-10.72,2.7"/></g></g></g></svg>