<?xml version="1.0" encoding="UTF-8"?><svg xmlns="http://www.w3.org/2000/svg" viewBox="0 0 369.83 73.05"><defs><style>.d{fill:#fff;}</style></defs><g id="a"/><g id="b"><g id="c"><g><path class="d" d="M29.71,10.01c.26-.1,.52-.18,.78-.26,.54-.16,1.03-.48,1.61-.37,.29,.06,1.45,.48,.6,.68-.2,.05-.49-.06-.71-.05-.62,.02-1.24,.17-1.86,.15-.25,0-.94,.05-.41-.16m3.12,.78s.05-.01,.07-.02c-.12,.02-.23,.03-.35,.05-.08,.01-.28,.02-.48,.05,.18,.01,.35,.02,.53,.03,.07-.05,.15-.09,.22-.11m-10.21-6c-.07,.12,.11,.18,.2,.18,.1-.01,.26-.11,.15-.21-.05-.05-.14-.06-.21-.06-.05,0-.12,.03-.15,.08m11.89,3.23s.03,.02,.04,.03c-.03-.03-.05-.06-.08-.09h-.01s.02,.05,.05,.07m-.83,2.94c.53,.02,1.08,.04,1.63,.05-.04-.05-.11-.1-.21-.18-.1-.27-.26-.36-.5-.26-.52,.05-1.04,.12-1.55,.19,.23-.02,.49,.04,.63,.21m1.36,57.46s.04-.03,.08-.03c.38-.03,.81-.07,1.25-.12h0c.15-.03,.27-.04,.39-.05,.11-.02,.21-.03,.32-.05-1.49,.05-2.87,.07-4.04,.07,.64,.07,1.29,.13,1.93,.16,.03,0,.06,.01,.08,.03M23.13,3.44c-.05-.01-.1-.02-.15-.02-.07,0-.14,0-.2,0-.18,0-.38,.01-.55,.07-.12,.04-.3,.11-.04,.31,.14,.1,.39-.03,.53-.08,.12-.05,.39-.15,.46-.25,.05,0,.03,0-.05-.02M35.87,.71c-.07,0-.13,.02-.19,.03,.22-.02,.42-.02,.64,.01-.2-.04-.33-.05-.44-.04m12.23,3.99s0-.06,0-.09c0,.01-.02,.02-.03,.03,0,.01,.01,.03,.02,.04h0M15.58,20.12s.02-.05,.03-.06c.02-.06,.02-.08,.01-.17-.01,.07-.03,.14-.04,.23m.04-.6h0s0,.02,.01,.03c0,0,0-.02,0-.03M27.2,7.95c.1,.05,.25,.09,.28-.05,.01-.06,0-.14-.02-.2-.06-.23-.41-.76-.56-.32-.06,.24,.1,.47,.3,.57m7.73-6.8c-.21,.05-.42,.1-.62,.15,.45-.05,.89-.09,1.33,0,.58,.13,1.05,.25,1.63,.29,.16-.08,.31-.18,.43-.29-.97-.15-1.74-.4-2.77-.16m-1.5,3.08c-.2,0-.39,0-.55,.05-.06,.01-.13-.02-.15-.09,0,.03,0,.04,0,0h0c-.02-.06-.06-.24-.08-.41,0,0-.01,0-.02,0,.1,0-.41,.23-.42,.24-.44,.15-1.92,.18-2.53,.67-.02,.02-.04,.03-.06,.05-.12,.12-.2,.26-.21,.43,.01-.3,.79,.74,.55,.63,.31,.14,1,.06,1.38,.15,.62,.15,1.48,.13,2.14,.34-.09-.52-.12-1.2-.03-2.07m.48,19.43c.31,.02,.63,.03,.95,.04-.13-.07-.28-.12-.45-.12-.19,0-.35,.03-.5,.08M24.33,4.29c-.06,.12,.08,.18,.18,.21,.17,.05,.38-.02,.53-.1,.04-.02,.24-.14,.23-.2,0-.08-.1-.09-.16-.1-.21-.04-.44-.02-.63,.08-.04,.02-.13,.06-.15,.11m-2.26-1.64c.86-.16,1.71-.09,2.54,.04-.06-.09-.09-.18-.18-.21-.44-.13-.58,.42-.85-.19-.01-.03-.02-.07-.01-.1l-.23,.07c-.72,.23-1.48,.42-2.23,.58-.06,.02-.13,.02-.19,.03,.19-.01,.38-.03,.55-.07,.23-.06,.38-.13,.62-.17m15.95,44.59s.03-.03,.05-.05c-.1-.01-.16-.03-.05,.05m5.53-36.33s-.04,.02-.07,.03c.02,0,.05-.02,.07-.03h0M25.65,27.34c.16,0,.3,.03,.42,.07-.02-.02-.05-.04-.09-.06-.11-.06-.22-.05-.33-.01m14.75,30.37c.29-.42,.15-1.06,.23-1.54,.12-.81,.5-1.35,.88-2.06,.5-.91,.59-1.72,.62-2.74,0-.15,.02-.33,.03-.52-15.54,.67-28.79-1.91-34.37-5.05,0,0-3.7-2.35-4.53,.99-.83,3.33,3.16,6.63,3.16,6.63,0,0,12.74,7,32.76,5.7,.06-.21,.14-.41,.29-.62,.24-.32,.7-.46,.92-.79m1.81,4.93s-.06-.07-.09-.1c10.94-.38,20.59-5.16,20.59-5.16-6.28,6.96-11.05,8.28-11.05,8.28-2.82,1.36-7.18,2.01-11.29,2.32,.92-.38,1.81-.8,2.75-1.14,.21-.08,.5-.1,.66-.27,.05-.06,.04-.16-.02-.2-.59-.33-1.64,.02-2.23,.18-.98,.37-1.93,.82-2.9,1.21-.44,.18-.99,.3-1.55,.39-1.49,.05-2.87,.07-4.04,.07-1.37-.15-2.75-.33-4.11-.3-.09,0-.13,.1-.11,.17-1.19-.16-3.94-.75-3.64-2.92,.39-2.76,4.17-2.51,4.17-2.51l8.36-.06c-.15,.08-.32,.13-.45,.25-.1,.09-.15,.2-.03,.3,.12,.1,.3,.05,.42,0,.16-.06,.32-.16,.46-.27-.19,.28-.36,.57-.46,.89-.66,2.13,3,1.84,4.06,1.53,.13-.04,.11-.25-.03-.25-.47,.02-.34,.11-.64-.48-.48-.96-.32-.22,.06-.67,.39-.47,1.1-.55,1.59-.86,.08-.05,.08-.21-.03-.23-.15-.02-.33-.04-.44-.17m1.91,1.86c.22-.03,1.37-.24,1.3-.65-.04-.24-.56-.18-.7-.18-.54-.03-1.01-.08-1.34,.44-.23,.48,.47,.42,.74,.39m-6-18.12s0,.06-.01,.08c-1.53,.07-2.45,.07-2.45,.07C10.72,46.1,.53,37.01,.53,37.01c0,0-1.36-3.34,.29-6.34,1.65-3,3.84-1.23,3.93-1.17,7.62,5.67,19.73,7.53,31.94,7.38-.69,.66-1.74,1.57-1.57,2.5,.04,.21,.33,.43,.35,.53,.13,.79-.4,.33-.57,.81-.25,.65-.08,1.28,.29,1.75,.32,.41,.84,.71,1.19,1.17,.3,.41,.6,.83,.89,1.24,.28,.4,.79,1.01,.86,1.5m-9.4-7.94c.05-.18-.17-.32-.29-.4-.28-.19-.78-.41-1.06-.13-.02,0-.04,.02-.05,.05-.02,.03-.02,.05-.02,.08,0,.07,.02,.15,.03,.22,.05,.22,.1,.44,.19,.65,.07,.16,.17,.34,.37,.3,.17-.03,.31-.19,.41-.33,.09-.14,.1-.2,.27-.29,.07-.04,.14-.06,.16-.14m12.18-7.87c-.17,.05-.34,.12-.52,.21,.23-.06,.39-.14,.45-.18,.02-.01,.04-.02,.06-.03m-9.19,1.17c-.05-.02-.08-.06-.09-.12-.14-1.35-1.11-1.76-2.14-2.16-.03,0-.07-.02-.1-.03-.17-.04-.28-.1-.39-.17-.25-.11-.5-.22-.73-.36-.24-.14-.74-.44-1.28-.71-.22-.08-.34-.12-.5-.24-.46-.22-.89-.38-1.11-.36-.25,.02-.47,.05-.68,.08-.04,0-.07,.01-.11,.02-.02,0-.03,0-.05,0-.5,.06-.97,.08-1.59-.15-.29-.11-.6-.24-.91-.38-.33,1.71,0,2.71,0,2.71,0,0,.22,.88,3.01,1.83,0,0,3.3,.47,7.79,.73,0-.01-.01-.02-.03-.03-.53-.43-.54-.43-1.1-.65m4.3,.81h.2c-.07-.01-.13-.01-.2,0m-1.53-24.61s-.02-.02-.03-.04c0,.01,.01,.02,.02,.03h.01m2.79,3.45c-.25,.02-.52,.17-.76,.22-.13,.02-.27,.04-.4,.05,.04,.02,.08,.03,.12,.05,.24,.07,.47,0,.72,.01,.14,0,.39,.1,.47-.07,.03-.05,.03-.25-.03-.28-.03-.02-.08,.02-.11,.02M46.84,2c.14,.04,.3,.1,.47,.16-.13-.53-.45-.94-.87-1.13-1.18-.54-3.7-.85-5.67-1.02,1.16,.25,2.3,.58,3.38,1.05,.9,.39,1.75,.67,2.68,.95m-4.69,50.91c-.1,.31-.22,.62-.36,.94,.11-.21,.2-.41,.26-.57,.04-.1,.07-.23,.1-.38M33.75,11.04c.05,.12-.05,.49-.03,.6,.04-.08,.39-.2,.39-.2,.46,.06,.16,.85,.54,.09,.09-.17,.1-.25,.27-.35,.06-.03,.16-.02,.21-.05,.22,.03,.28-.02,.18-.13-.55,0-1.1-.02-1.63-.05,.02,.03,.05,.05,.07,.08m7.37-8.43c-.05-.06-.11-.1-.16-.15,.04,.04,.08,.08,.16,.15m-5.9,9.74c-.22,.02-.38,.15-.59,.22-.17,.06-.33,.06-.49,.09-.49,.1-.34,.31,0,.34,.23,.02,.46-.02,.68-.06,.31-.06,.62-.14,.91-.28,.13-.06,.46-.21,.61-.37-.14,.01-.36,.06-.41,.06-.24,.01-.48-.02-.72,0m-2.91-.16c-.04-.24-.21-.25-.18-.55,.03-.27,.24-.57,.49-.74-.18-.01-.36-.02-.53-.03-.23,.03-.47,.08-.53,.18,.03-.05-.11,1.04-.13,.94,.2,.22,.39,.44,.59,.66,.06-.05,.12-.1,.18-.15,.29-.24,.15-.08,.11-.31m26.68,35.78c-.23,.32-.47,.64-.67,.97-.22,.37-.36,.83-.62,1.18-.9,1.24-2.76,.89-3.54,2.22-.24,.41-.38,.74-.52,1.04-.04,.13-.08,.23-.17,.35h0c-.2,.38-.46,.73-1.02,1.15-.56,.42-.89,.56-1.29,1.17-.32,.5-.54,1-1.11,1.27-.39,.19-1.44,.03-1.82,.02,.08,.09,.13,.37,.15,.59,13.37-2.65,18.43-8.24,18.43-8.24,0,0,2.03-2.57,2.45-8.98,0,0-2.43,4.28-10.27,7.26M44.74,4.28c-.24-.14-1.04-.45-1.28-.72-.05-.05-.07-.15-.09-.25-.02,0-.04,.01-.06,.02-.04,0-.08-.03-.1-.06-.05-.07-.03-.17,.02-.26-.02-.02-.03-.03-.05-.05-.05,0-.12-.02-.22-.05-.36-.11-.56,.02-.78-.34-.02-.04-.02-.09,0-.13,.06-.1,.1-.17,.13-.2,0,0-.01,0-.02,0-.09-.06-.85-.1-1.04-.17-.38-.15-.74-.4-1.13-.52-.76-.24-1.52-.11-2.3-.22-.04,0-.07-.01-.11-.02-.12,.11-.27,.2-.43,.29,.09,0,.17,.01,.26,.01,.68,0,1.39-.06,2.06,.06,.59,.11,1.94,.69,2.22,1.27,.31,.65-.14,1.05-.76,1.2-.09,.02-.48,.01-.8-.01,.24,.1,.49,.24,.56,.33,.04,.06,.05,.16-.02,.2-.72,.33-2.11-.17-2.77-.46-.21-.09-.36-.25-.57-.34-.49-.22-.87-.04-1.33-.08-.27-.02-.67-.05-1.02-.11,.04,.07,.04,.07,0,.25-.02,.15-.31,.21-.4,.23-.33,.11-.83,.06-1.29,.06-.09,.87-.06,1.54,.03,2.07,.15,.05,.3,.11,.42,.18,.3,.19,.24,.21,.39,.46,0,.27,.08,.53,.23,.78,.14,.37,.49,.3,1.05-.2-.07-.12,0-.85,0-.83,0-.04,.05-.08,.08-.09,.43-.08,.5-.78,.07-.86-.07-.01-.09-.09-.08-.15l.03-.19s.05-.07,.08-.09c.47-.19,.26-.6,.14-1-.01-.05,0-.12,.06-.14,.62-.32,1.84,.11,2.48,.39,.14,.06,1.62,1.15,1.71,1.15,.8-.05,.4-.79,.89-.88,.41-.07,.46-.02,.81,.24,.89,.66,1.13,1.27,2.16,1.65,1.09-.49,1.88-1.07,2.42-1.68-.19-.1-.38-.22-.59-.3-.38-.15-.71-.24-1.06-.45m-.65,6.23s.54-.04,.48-.03c.17-.04,.35-.13,.53-.21,0,0,.02,0,.03-.01,.38-.17,.76-.26,1.06,.39,.02,.05,.02,.12-.02,.15-.65,.54-1.76,.25-2.45,.62-.28,.15-.73,.9-1.01,.16-.13-.33,.08-.46,.34-.54-1,.23-2.72,.52-1.6,1.55,.09,.08,0,.2-.09,.21-.3,.04-.61-.02-.92,0-.85,.06-.95,.26-1.6,.88-.05,.04-.13,.09-.22,.14-.04,.03-.08,.05-.13,.06-.1,.05-.19,.08-.2,.1,0,0-.19-.19-.18-.21-.02,.04,.33,.42,.33,.47,0,.1,.11,.18,.06,.29-.18,.36-.37,.13-.63,.14-.09,0-.14-.27-.19-.29-.04-.08-.08-.16-.12-.24,.12,.29,.25,.58,.37,.87,.01,.04,.13,.09,.15,.15,.1,.51-.1,.78-.5,1.09-.56,.44-1.27,.49-1.82,.99-.66,.6-.76,1.32-.54,2.07,2.09,.05,4.21-.03,6.25-.3,8.59-1.14,12.73-3.45,12.73-3.45,0,0,6.3-2.92,3.27-8.21l-.03-.06s-1.36-2.35-7.1-4.99c0,0,.44,.66,.62,1.62,.02,0,.04,0,.06,0,.2,.12,.4,.24,.6,.36,.13,.08,.4,.18,.49,.31,.11,.16,.06,.49,0,.68-.12,.43-.55,.28-.84,.09-.1-.06-.19-.14-.27-.23-.14,1.29-.96,2.77-3.47,3.95,.31,.3,.24,.82,.76,.89,.27,.04,.62,.08,.61,.49,0,.21-.09,.24-.27,.25-.38,.01-.88-.16-1.18-.39-.36-.28-.64-.26-1.09-.28-.18,0-.45,.04-.62-.04-.1-.04-.16-.1-.21-.17-.02,0-.04,.01-.06,.02-.67,.2-1.36,.36-2.06,.5v.02c.12,.03,.32,.07,.65,.12m11.1,26.52c-.03,.06-.31,.29-.43,.39,.02,.02,.05,.05,.08,.08,.32,.01,1.05-.05,1.29,.03,.07,.02,.09,.08,.08,.15,0,0-.14,.65-.24,.67,.06,.02,.21-.06,.35-.15,.03-.15,.19-.35,.3-.38,.08-.02,.15,.04,.15,.12,0,0,0,.02,0,.03,.26-.11,.53-.21,.81-.17,.74,.11,.33,.42,.74,.77,.08,.07,.17,.11,.26,.14,.05-.03,.11-.05,.15-.06,.08-.01,.13,.04,.15,.1,.43,0,.92-.2,1.35-.02-.03-.01,.17,.12,.2,.13,.13,.17,.25,.33,.38,.5,.23,.24,.5,.37,.8,.4,.24,.19,.08-.11,.32,.26,0,0,.01,.01,.02,.02h0s0,.01,0,.02h0v.02s0,.02,0,.03c.12,.6,.11,1,0,1.35,2.08-1.02,3.93-2.24,5.36-3.72,0,0,3.73-3.14,.78-13.18,0,0-1.85,7.52-13.33,10.54,.33,.55,.62,1.43,.4,1.93m-31.04-13.42c0-.07,.01-.18,.03-.3,1.27-.74,2.68-.37,2.76-.4,0,0,2.23,.43,5.64,.67-.01,.02-.03,.04-.05,.08-.04,.08,0,.15,.07,.18,.53,.21,.88-.04,1.31-.18,.31,.02,.63,.03,.95,.04,.3,.15,.54,.41,.88,.5,.46,.12,.71,.08,1.13,.39,.16,.12,.81,.27,.44,.57-.09,.07-.01,.21,.09,.21,.68,0,1.91,.02,2.45-.5,.06-.06,.04-.15-.02-.2-.82-.58-2.1-.66-3.09-.95,5.05,.03,11.31-.56,16.93-2.89,11.92-4.94,6.61-11.25,6.61-11.25,4.65,5.13,5.61,9.35,5.61,9.35,.11,4.14-2.62,6.54-2.62,6.54,0,0-2.4,2.4-11.81,5.51-.69,.23-1.43,.43-2.2,.6-.44-.48-.96-.7-1.51-.65-.06,0-.12,0-.17,0-.05,0-.09,.02-.12,.05-.18,.04-.36,.11-.54,.2-1.02,.53-.83,0-1.57-.19-.35-.09-1.59,.64-1.36-.23,.01-.05,0-.12-.06-.14-.23-.12-.51,.02-.67-.05-.23-.1-.27-.29-.51-.52-.07-.07-.22-.03-.21,.09,.01,.13-.64,.88-.82,1.09h0c.05-.4,.14-.73,.36-1.07,.05-.08-.02-.18-.1-.19-.48-.03-.78,.35-1.19,.52-.46,.19-1.35,0-1.71,.46-.18,.23-.09,.49-.2,.67-.2,.31-.2,.18-.49,.4-.09,.12-.16,.25-.21,.4-.46,.05-.83-.09-1.08-.41-.31-.12-.5-.31-.89-.26-.88,.12-.98,.66-1.92,.23-1.35-.62-1.22-1.63-.79-2.77,.08-.22,.25-.53,.14-.78-.02-.04-.07-.07-.1-.06-.59,.05-.25-.5-.5-.73-.48-.44-1.36-.12-1.92-.08-.36,.02-1.5,.17-1.54-.11-.04-.25,.29-.53,.4-.76,.25-.5,.44-.99,.75-1.47,.25-.38,.45-.59,.5-1.04,0-.05-.04-.11-.09-.12-.63-.09-1.94-.03-2.46,.48-.09,.08-.16,.21-.24,.29-.02,.16-.05,.32-.07,.48-.41,.56-.89,.76-1.44,.6-.78,.03-1.58-.25-2.05-.85-.36-.47-.72-.84-.68-1.47m20.22,2.84c.2,.1,.43,.15,.64,.22,.13,.04,.28,.11,.42,.12,.32,.02,.28-.37,.15-.57,0,0,0,0-.01-.01h0c-.23-.29-.75-.31-1.07-.2-.24,.08-.43,.3-.13,.45m-4.2-1.78c.13,.18,.39,.27,.59,.19,.22-.09,.35-.35,.22-.57-.12-.21-.39-.32-.61-.24h-.01s-.01,0-.02,.01c-.22,.12-.33,.39-.18,.61m-.39,1.56c.17,.16,.41,.18,.64,.2,.2,.02,.47-.06,.66,0,.08,.03,.32,.34,.43,.37,.18,.05,.11,.04,.29-.01,.43-.12-.42-.4,.63-.39,.13,0,.21,.11,.34,.1,.05,0,.11-.04,.12-.09,.04-.31,.39-.34,.66-.3,.1,.01,.2-.08,.14-.18-.33-.56-1.18-.45-1.69-.61-.48-.15-1.38-.54-1.85-.17,0,0-.01,.01-.02,.02-.04,.04-.05,.09-.02,.15,.11,.21,.93,.45,.91,.63,0-.04-.99-.04-1.21,.09-.07,.04-.08,.14-.02,.2m-3.07,.13c.09,.15,.29,.17,.44,.19,.26,.03,.49,.01,.74,.09,.2,.06,.79,.04,.6-.33-.09-.18-.34-.28-.52-.32-.27-.05-.49,.14-.75,.1-.14-.05-.32-.24-.47-.13-.12,.08-.11,.28-.04,.4m-3.2-2.17c0,.21,.24,.38,.42,.42,.21,.04,.53-.08,.53-.35,0-.46-.8-.53-.95-.14,0,.03,0,.05,0,.07m-3.21-5.28s-.06,.04-.09,.06c.63,.07,1.27,.13,1.92,.19-.08-.03-.15-.07-.25-.11-.6-.24-.9-.46-1.59-.14m8.97,51.73s-2.68,.2-3.69,1.28c-1.01,1.09,1.05,1.13,1.05,1.13,0,0,8.23-.1,14.36-4.14,0,0,1.05-.84,2.3-1.68,1.24-.84-4.5,2.32-14.03,3.4m-3.38-30.65c.03,.06,.05,.1,.06,.14,0-.01,0-.03,0-.04-.01-.04-.03-.07-.06-.09m.99-18.54s-.06-.01-.1,.01c-.25,.16-.13,.67-.05,.9,.11,.3,.43,.67,.78,.61,.39-.07,.06-.59-.04-.77-.1-.19-.32-.73-.59-.75M48.72,3.49h0m-16,.69h0s0,.03,0,0m13.04,5.83c.17,.07,.44,.03,.62,.04,.45,.02,.73,0,1.09,.28,.3,.23,.8,.4,1.18,.39,.18,0,.26-.04,.27-.25,.01-.41-.34-.45-.61-.49-.52-.07-.45-.59-.76-.89-.04-.04-.08-.07-.13-.1-.2-.12-.43-.08-.65-.12-.33-.06-.4-.18-.59-.4-.03-.04-.08,.01-.11,.01h0c-.45,.34-.76,1-.51,1.36,.05,.07,.11,.13,.21,.17m6.37-4.74c.05-.19,.1-.52,0-.68-.09-.13-.36-.23-.49-.31-.2-.12-.4-.24-.6-.36-.02-.01-.04,0-.06,0,0,0-.02,0-.03,0h0c-.14,.02-1.18,0-.98,.4,.08,.16,.39,.24,.53,.34,.2,.14,.36,.33,.54,.49,.08,.08,.17,.16,.27,.23,.28,.19,.72,.34,.84-.09"/><g><path class="d" d="M85.01,59.48l-1.28,8.29c-.25,1.65-.72,2.85-1.42,3.6-.69,.75-1.65,1.12-2.86,1.12-.69,0-1.31-.12-1.87-.37-.55-.25-1.02-.6-1.4-1.05l.59-.97c.3,.39,.69,.7,1.17,.92,.48,.22,1.01,.33,1.59,.33,.92,0,1.64-.28,2.15-.83,.51-.55,.86-1.4,1.03-2.55l.17-1.04c-.35,.51-.78,.91-1.28,1.19-.5,.28-1.05,.42-1.66,.42-.98,0-1.76-.34-2.35-1.02-.59-.68-.89-1.61-.89-2.78,0-1,.18-1.91,.54-2.73s.86-1.45,1.49-1.92c.64-.47,1.36-.7,2.16-.7,.7,0,1.3,.18,1.8,.55,.5,.36,.86,.9,1.06,1.61l.31-2.08h.95Zm-3.23,7.41c.49-.36,.87-.85,1.15-1.49,.27-.63,.41-1.35,.41-2.13,0-.86-.21-1.53-.64-2.02-.43-.48-1.02-.73-1.79-.73-.61,0-1.16,.18-1.65,.54-.48,.36-.86,.86-1.14,1.49-.27,.63-.41,1.35-.41,2.13,0,.86,.21,1.53,.64,2.02,.43,.48,1.02,.73,1.79,.73,.61,0,1.15-.18,1.64-.54"/><polygon class="d" points="88.95 55.6 89.94 55.6 87.87 68.92 86.88 68.92 88.95 55.6"/><path class="d" d="M92.7,68.51c-.5-.33-.89-.8-1.17-1.4-.27-.6-.41-1.31-.41-2.11,0-1.06,.18-2.02,.54-2.87,.36-.85,.87-1.52,1.52-2,.65-.48,1.38-.73,2.19-.73,1.02,0,1.84,.36,2.44,1.08,.6,.72,.9,1.69,.9,2.91,0,1.06-.18,2.02-.54,2.88-.36,.86-.87,1.53-1.52,2.01-.65,.48-1.38,.73-2.19,.73-.67,0-1.26-.16-1.76-.49m3.46-1.2c.48-.38,.86-.9,1.14-1.58,.27-.68,.41-1.43,.41-2.27,0-.92-.21-1.64-.64-2.16-.42-.52-1.02-.78-1.78-.78-.61,0-1.15,.19-1.63,.57-.48,.38-.86,.91-1.14,1.59-.27,.68-.41,1.43-.41,2.27,0,.92,.21,1.64,.64,2.15,.42,.51,1.02,.77,1.78,.77,.61,0,1.15-.19,1.63-.57"/><path class="d" d="M107.21,59.89c.49,.32,.87,.78,1.14,1.38,.27,.6,.4,1.3,.4,2.12,0,1.06-.18,2.02-.54,2.88-.36,.86-.85,1.53-1.49,2.01-.63,.48-1.35,.73-2.14,.73-.71,0-1.3-.19-1.78-.56-.48-.37-.82-.9-1.03-1.6l-.32,2.06h-.95l2.07-13.31h.99l-.82,5.29c.35-.48,.77-.85,1.24-1.1,.47-.26,.99-.39,1.56-.39,.62,0,1.18,.16,1.67,.49m-1.01,7.42c.48-.38,.86-.9,1.13-1.57,.27-.67,.41-1.43,.41-2.28,0-.92-.21-1.64-.64-2.16-.42-.52-1.02-.78-1.78-.78-.61,0-1.15,.19-1.63,.57-.48,.38-.86,.9-1.13,1.58-.27,.68-.41,1.44-.41,2.29,0,.92,.21,1.64,.64,2.15,.42,.51,1.02,.77,1.78,.77,.6,0,1.15-.19,1.63-.57"/><path class="d" d="M118.71,59.48l-1.47,9.44h-.95l.24-1.49c-.35,.5-.77,.89-1.26,1.17-.48,.27-1.02,.41-1.61,.41-.62,0-1.18-.16-1.66-.48-.48-.32-.86-.79-1.13-1.39-.27-.6-.4-1.31-.4-2.13,0-1.06,.18-2.02,.54-2.87,.36-.85,.85-1.52,1.49-2,.63-.48,1.34-.73,2.12-.73,.7,0,1.28,.18,1.76,.53,.47,.35,.82,.86,1.03,1.52l.31-1.97h.99Zm-3.2,7.83c.48-.38,.86-.9,1.14-1.58,.27-.68,.41-1.43,.41-2.27,0-.92-.21-1.64-.64-2.16-.42-.52-1.02-.78-1.78-.78-.61,0-1.15,.19-1.63,.57-.48,.38-.86,.91-1.14,1.59-.27,.68-.41,1.43-.41,2.27,0,.92,.21,1.64,.64,2.15,.42,.51,1.02,.77,1.78,.77,.61,0,1.15-.19,1.63-.57"/><polygon class="d" points="122.64 55.6 123.63 55.6 121.56 68.92 120.57 68.92 122.64 55.6"/><polygon class="d" points="131.17 55.6 132.17 55.6 130.1 68.92 129.11 68.92 131.17 55.6"/><path class="d" d="M134.93,68.51c-.5-.33-.89-.8-1.17-1.4-.27-.6-.41-1.31-.41-2.11,0-1.06,.18-2.02,.54-2.87,.36-.85,.87-1.52,1.52-2,.65-.48,1.38-.73,2.19-.73,1.02,0,1.84,.36,2.44,1.08,.6,.72,.9,1.69,.9,2.91,0,1.06-.18,2.02-.54,2.88-.36,.86-.87,1.53-1.52,2.01-.65,.48-1.38,.73-2.19,.73-.67,0-1.26-.16-1.76-.49m3.46-1.2c.48-.38,.86-.9,1.14-1.58,.27-.68,.41-1.43,.41-2.27,0-.92-.21-1.64-.64-2.16-.42-.52-1.02-.78-1.78-.78-.61,0-1.15,.19-1.63,.57-.48,.38-.86,.91-1.14,1.59-.27,.68-.41,1.43-.41,2.27,0,.92,.21,1.64,.64,2.15,.42,.51,1.02,.77,1.78,.77,.61,0,1.15-.19,1.63-.57"/><path class="d" d="M151.01,59.48l-1.28,8.29c-.25,1.65-.72,2.85-1.42,3.6-.69,.75-1.65,1.12-2.86,1.12-.69,0-1.31-.12-1.87-.37-.55-.25-1.02-.6-1.4-1.05l.59-.97c.3,.39,.69,.7,1.17,.92,.48,.22,1.01,.33,1.59,.33,.92,0,1.64-.28,2.15-.83,.51-.55,.86-1.4,1.03-2.55l.17-1.04c-.35,.51-.78,.91-1.28,1.19-.5,.28-1.05,.42-1.66,.42-.98,0-1.76-.34-2.35-1.02-.59-.68-.89-1.61-.89-2.78,0-1,.18-1.91,.54-2.73s.86-1.45,1.49-1.92c.64-.47,1.36-.7,2.16-.7,.7,0,1.3,.18,1.8,.55,.5,.36,.86,.9,1.06,1.61l.31-2.08h.95Zm-3.23,7.41c.49-.36,.87-.85,1.15-1.49,.27-.63,.41-1.35,.41-2.13,0-.86-.21-1.53-.64-2.02-.43-.48-1.02-.73-1.79-.73-.61,0-1.16,.18-1.65,.54-.48,.36-.86,.86-1.14,1.49-.27,.63-.41,1.35-.41,2.13,0,.86,.21,1.53,.64,2.02,.43,.48,1.02,.73,1.79,.73,.61,0,1.15-.18,1.64-.54"/><path class="d" d="M154.33,59.48h.99l-1.45,9.44h-.99l1.45-9.44Zm.44-2.31c-.13-.17-.19-.36-.19-.59,0-.27,.07-.5,.22-.69,.14-.19,.33-.28,.55-.28,.2,0,.36,.08,.49,.24,.13,.16,.2,.35,.2,.57,0,.29-.07,.53-.22,.72-.15,.19-.34,.29-.56,.29-.2,0-.36-.08-.48-.25"/><path class="d" d="M157.65,68.68c-.54-.22-.95-.49-1.24-.83l.48-1c.28,.31,.65,.56,1.1,.75,.46,.19,.94,.29,1.44,.29,.7,0,1.24-.15,1.61-.44,.38-.29,.57-.71,.57-1.25,0-.3-.08-.54-.23-.72-.15-.18-.34-.32-.57-.41-.22-.1-.55-.2-.98-.32-.51-.14-.93-.29-1.24-.43-.32-.14-.59-.37-.81-.68-.22-.31-.34-.74-.34-1.29,0-.9,.29-1.61,.87-2.14,.58-.53,1.35-.8,2.32-.8,.47,0,.94,.08,1.39,.24,.45,.16,.82,.37,1.1,.64l-.42,1.02c-.28-.26-.61-.46-.98-.6-.38-.14-.77-.21-1.17-.21-.67,0-1.19,.16-1.57,.47-.37,.31-.56,.73-.56,1.26,0,.31,.08,.56,.24,.75,.16,.19,.36,.33,.59,.43,.24,.1,.56,.2,.97,.3,.5,.14,.91,.28,1.22,.42,.31,.14,.58,.36,.8,.67,.22,.31,.34,.73,.34,1.26,0,.92-.3,1.64-.89,2.16-.59,.52-1.38,.78-2.37,.78-.59,0-1.15-.11-1.68-.32"/><path class="d" d="M166.18,66.06c-.04,.29-.06,.49-.06,.59,0,.84,.35,1.26,1.06,1.26,.42,0,.8-.16,1.13-.48l.24,.97c-.42,.41-.96,.61-1.63,.61-.55,0-.98-.19-1.31-.57-.32-.38-.48-.91-.48-1.58,0-.26,.02-.51,.06-.74l.85-5.56h-1.3l.15-1.08h1.31l.32-2.06h.99l-.32,2.06h2.24l-.17,1.08h-2.24l-.85,5.51Z"/><path class="d" d="M172.27,59.48h.99l-1.45,9.44h-.99l1.45-9.44Zm.44-2.31c-.13-.17-.19-.36-.19-.59,0-.27,.07-.5,.22-.69,.14-.19,.33-.28,.55-.28,.2,0,.36,.08,.49,.24,.13,.16,.2,.35,.2,.57,0,.29-.07,.53-.22,.72-.15,.19-.34,.29-.56,.29-.2,0-.36-.08-.48-.25"/><path class="d" d="M176.66,68.51c-.51-.33-.91-.8-1.18-1.4-.27-.6-.41-1.31-.41-2.11,0-1.06,.18-2.02,.54-2.87,.36-.85,.87-1.52,1.52-2,.65-.48,1.39-.73,2.21-.73,.68,0,1.26,.16,1.75,.48,.49,.32,.87,.79,1.14,1.41l-.84,.63c-.42-.93-1.13-1.4-2.14-1.4-.61,0-1.15,.19-1.64,.57-.49,.38-.87,.91-1.15,1.58-.27,.67-.41,1.43-.41,2.28,0,.92,.21,1.64,.64,2.15,.42,.51,1.03,.77,1.81,.77,.48,0,.92-.12,1.32-.35,.41-.23,.74-.57,1-1.01l.71,.7c-.33,.56-.76,1-1.31,1.32-.54,.32-1.13,.48-1.77,.48-.69,0-1.29-.16-1.8-.49"/><path class="d" d="M184.01,68.68c-.54-.22-.95-.49-1.24-.83l.47-1c.28,.31,.65,.56,1.1,.75,.46,.19,.94,.29,1.44,.29,.7,0,1.24-.15,1.61-.44,.38-.29,.57-.71,.57-1.25,0-.3-.08-.54-.23-.72-.15-.18-.34-.32-.57-.41-.22-.1-.55-.2-.98-.32-.51-.14-.93-.29-1.24-.43-.32-.14-.59-.37-.81-.68-.22-.31-.34-.74-.34-1.29,0-.9,.29-1.61,.87-2.14,.58-.53,1.35-.8,2.32-.8,.47,0,.94,.08,1.39,.24,.45,.16,.82,.37,1.1,.64l-.42,1.02c-.28-.26-.61-.46-.98-.6-.38-.14-.77-.21-1.17-.21-.67,0-1.19,.16-1.56,.47-.37,.31-.56,.73-.56,1.26,0,.31,.08,.56,.24,.75,.16,.19,.36,.33,.59,.43,.24,.1,.56,.2,.97,.3,.5,.14,.91,.28,1.22,.42,.31,.14,.58,.36,.8,.67,.22,.31,.34,.73,.34,1.26,0,.92-.3,1.64-.89,2.16-.59,.52-1.38,.78-2.37,.78-.59,0-1.15-.11-1.68-.32"/><path class="d" d="M99.97,34.94c.57,1.06,.85,2.35,.85,3.87,0,3.25-1,5.71-2.99,7.37-2,1.67-4.65,2.5-7.97,2.5h-12.77l4.87-31.28h11.76c2.62,0,4.64,.62,6.06,1.85,1.41,1.24,2.12,3,2.12,5.3,0,1.91-.39,3.54-1.17,4.89-.78,1.36-1.84,2.39-3.18,3.11,1.04,.54,1.85,1.33,2.42,2.39m-6.07,7.13c.88-.77,1.32-1.89,1.32-3.35,0-2.15-1.22-3.22-3.65-3.22h-6.82l-1.18,7.73h6.65c1.58,0,2.81-.39,3.69-1.16m-7.2-19.22l-1.15,7.37h5.74c1.48,0,2.64-.38,3.46-1.14,.82-.76,1.24-1.85,1.24-3.29,0-1.97-1.19-2.95-3.58-2.95h-5.71Z"/><polygon class="d" points="108.51 15.52 113.94 15.52 108.79 48.69 103.36 48.69 108.51 15.52"/><path class="d" d="M136.42,24.64l-3.72,24.04h-5.15l.38-2.59c-.81,.98-1.74,1.72-2.78,2.21-1.04,.49-2.15,.74-3.31,.74-2.04,0-3.67-.72-4.89-2.15-1.22-1.43-1.83-3.44-1.83-6.03,0-.98,.08-1.95,.24-2.9l2.05-13.32h5.43l-1.98,12.87c-.09,.57-.14,1.15-.14,1.74,0,2.5,1.04,3.76,3.13,3.76,1.37,0,2.5-.51,3.39-1.54,.89-1.03,1.5-2.57,1.83-4.63l1.91-12.2h5.43Z"/><path class="d" d="M157.75,38.54h-14.34c.19,3.28,1.8,4.92,4.84,4.92,.95,0,1.86-.19,2.73-.58,.87-.39,1.63-.94,2.28-1.65l2.26,4.6c-1.04,1.07-2.24,1.88-3.58,2.41-1.35,.54-2.76,.8-4.25,.8-1.93,0-3.61-.44-5.06-1.32-1.45-.88-2.56-2.14-3.34-3.78-.78-1.64-1.17-3.53-1.17-5.68,0-2.65,.47-5.04,1.41-7.17,.94-2.13,2.24-3.8,3.91-5.01,1.67-1.21,3.57-1.81,5.71-1.81,1.81,0,3.38,.43,4.72,1.3,1.33,.86,2.37,2.1,3.1,3.71,.73,1.61,1.1,3.47,1.1,5.59,0,1.1-.1,2.32-.31,3.66m-12.07-7.71c-.88,.88-1.51,2.09-1.88,3.64h9.29c0-1.55-.38-2.76-1.13-3.64-.75-.88-1.77-1.32-3.04-1.32s-2.35,.44-3.24,1.32"/><polygon class="d" points="170.51 23.22 169.22 31.48 180.53 31.48 179.59 37.29 168.35 37.29 166.58 48.69 160.9 48.69 165.78 17.41 184.18 17.41 183.24 23.22 170.51 23.22"/><path class="d" d="M187.12,47.71c-1.43-.89-2.53-2.15-3.31-3.78-.78-1.62-1.17-3.51-1.17-5.65,0-2.65,.49-5.04,1.46-7.15,.97-2.12,2.32-3.78,4.04-5.01,1.72-1.22,3.65-1.83,5.81-1.83,1.9,0,3.56,.45,4.98,1.34,1.41,.89,2.51,2.15,3.29,3.78,.78,1.62,1.17,3.51,1.17,5.65,0,2.65-.48,5.04-1.44,7.15-.96,2.12-2.31,3.78-4.04,5.01-1.73,1.22-3.67,1.83-5.83,1.83-1.88,0-3.53-.45-4.96-1.34m8.13-5.43c.83-.67,1.48-1.6,1.95-2.79,.46-1.19,.7-2.56,.7-4.11,0-1.64-.37-2.93-1.11-3.89-.74-.95-1.79-1.43-3.13-1.43-1.07,0-2.02,.33-2.85,1.01-.83,.67-1.48,1.6-1.95,2.79-.46,1.19-.7,2.56-.7,4.11,0,1.64,.38,2.93,1.13,3.89,.75,.95,1.8,1.43,3.15,1.43,1.04,0,1.98-.33,2.82-1.01"/><path class="d" d="M216.42,25.05c1.15-.51,2.5-.76,4.05-.76l-.97,6.44c-.65-.06-1.07-.09-1.25-.09-1.65,0-2.96,.52-3.95,1.56-.99,1.04-1.65,2.67-2,4.87l-1.81,11.62h-5.43l3.72-24.04h5.15l-.45,2.86c.81-1.13,1.79-1.95,2.94-2.46"/><polygon class="d" points="254.61 24.65 244.28 48.69 238.92 48.69 236.76 33.72 230.32 48.69 225.04 48.69 221.73 24.65 226.67 24.65 228.72 40.82 235.75 24.65 240.42 24.65 242.54 40.82 249.5 24.65 254.61 24.65"/><path class="d" d="M275.53,24.65l-3.72,24.04h-5.15l.35-2.37c-1.55,1.82-3.47,2.73-5.74,2.73-1.46,0-2.81-.43-4.04-1.3-1.23-.86-2.21-2.11-2.94-3.73-.73-1.62-1.1-3.54-1.1-5.74,0-2.65,.46-5.04,1.38-7.17,.92-2.13,2.16-3.8,3.74-5.01,1.58-1.21,3.32-1.81,5.22-1.81,2.88,0,4.91,1.21,6.09,3.62l.49-3.26h5.43Zm-9.74,17.63c.83-.67,1.48-1.6,1.95-2.79,.46-1.19,.7-2.56,.7-4.11,0-1.64-.38-2.93-1.13-3.89-.75-.95-1.8-1.43-3.15-1.43-1.07,0-2.02,.33-2.85,1.01-.84,.67-1.48,1.6-1.95,2.79-.46,1.19-.7,2.56-.7,4.11,0,1.64,.38,2.93,1.13,3.89,.75,.95,1.8,1.43,3.15,1.43,1.07,0,2.02-.33,2.85-1.01"/><path class="d" d="M288.17,25.05c1.15-.51,2.5-.76,4.05-.76l-.97,6.44c-.65-.06-1.07-.09-1.25-.09-1.65,0-2.96,.52-3.95,1.56-.99,1.04-1.65,2.67-2,4.87l-1.81,11.62h-5.43l3.72-24.04h5.15l-.45,2.86c.81-1.13,1.79-1.95,2.94-2.46"/><path class="d" d="M315.68,15.53l-5.15,33.16h-5.15l.38-2.41c-1.58,1.85-3.49,2.77-5.74,2.77-1.46,0-2.81-.43-4.04-1.3-1.23-.86-2.21-2.11-2.94-3.73-.73-1.62-1.1-3.54-1.1-5.74,0-2.65,.46-5.04,1.37-7.17,.92-2.13,2.16-3.8,3.74-5.01,1.58-1.21,3.32-1.81,5.22-1.81,1.37,0,2.57,.3,3.6,.89,1.03,.6,1.85,1.47,2.45,2.64l1.91-12.29h5.43Zm-11.14,26.75c.84-.67,1.48-1.6,1.95-2.79,.46-1.19,.7-2.56,.7-4.11,0-1.64-.38-2.93-1.13-3.89-.75-.95-1.8-1.43-3.15-1.43-1.07,0-2.02,.33-2.85,1.01-.83,.67-1.48,1.6-1.95,2.79-.46,1.19-.7,2.56-.7,4.11,0,1.64,.38,2.93,1.13,3.89,.75,.95,1.8,1.43,3.15,1.43,1.07,0,2.02-.33,2.85-1.01"/><path class="d" d="M335.59,38.54h-14.34c.19,3.28,1.8,4.92,4.84,4.92,.95,0,1.86-.19,2.73-.58,.87-.39,1.63-.94,2.28-1.65l2.26,4.6c-1.04,1.07-2.24,1.88-3.58,2.41-1.35,.54-2.76,.8-4.25,.8-1.93,0-3.61-.44-5.06-1.32-1.45-.88-2.56-2.14-3.34-3.78-.78-1.64-1.17-3.53-1.17-5.68,0-2.65,.47-5.04,1.41-7.17,.94-2.13,2.24-3.8,3.91-5.01,1.67-1.21,3.57-1.81,5.71-1.81,1.81,0,3.38,.43,4.72,1.3,1.33,.86,2.37,2.1,3.1,3.71,.73,1.61,1.1,3.47,1.1,5.59,0,1.1-.1,2.32-.31,3.66m-12.07-7.71c-.88,.88-1.51,2.09-1.88,3.64h9.29c0-1.55-.38-2.76-1.13-3.64-.75-.88-1.77-1.32-3.05-1.32-1.28,0-2.35,.44-3.24,1.32"/><path class="d" d="M348.79,25.05c1.15-.51,2.5-.76,4.05-.76l-.97,6.44c-.65-.06-1.07-.09-1.25-.09-1.65,0-2.96,.52-3.95,1.56-.99,1.04-1.65,2.67-2,4.87l-1.81,11.62h-5.43l3.72-24.04h5.15l-.45,2.86c.81-1.13,1.79-1.95,2.94-2.46"/><path class="d" d="M354.57,48.35c-1.45-.46-2.58-1.06-3.39-1.81l2.09-5.05c.81,.69,1.8,1.24,2.98,1.65,1.17,.42,2.35,.63,3.53,.63,1.23,0,2.15-.2,2.75-.6,.6-.4,.9-.98,.9-1.72,0-.6-.27-1.03-.8-1.3-.53-.27-1.39-.55-2.57-.85-1.35-.33-2.45-.69-3.32-1.07-.87-.39-1.62-1.02-2.26-1.9-.64-.88-.96-2.08-.96-3.6,0-2.65,.86-4.72,2.59-6.21,1.73-1.49,4-2.23,6.8-2.23,1.3,0,2.56,.18,3.79,.54,1.23,.36,2.27,.85,3.13,1.47l-1.95,5.09c-1.53-1.22-3.38-1.83-5.53-1.83-1.18,0-2.08,.22-2.7,.67-.62,.45-.92,1.01-.92,1.7,0,.63,.27,1.08,.8,1.36,.53,.28,1.43,.59,2.68,.92,1.32,.33,2.41,.68,3.25,1.05,.85,.37,1.58,.99,2.21,1.85,.63,.87,.94,2.04,.94,3.53,0,2.68-.88,4.75-2.63,6.21-1.75,1.46-4.02,2.19-6.8,2.19-1.62,0-3.16-.23-4.61-.69"/></g></g></g></g></svg>