<?xml version="1.0" encoding="UTF-8"?><svg xmlns="http://www.w3.org/2000/svg" viewBox="0 0 128.42 116.73"><defs><style>.d{fill:#fff;fill-rule:evenodd;}</style></defs><g id="a"/><g id="b"><g id="c"><g><path class="d" d="M9.58,98.9l.72-2.5H4.22l4.07-15.52h-3.56c-.55,1.09-1.34,1.63-2.38,1.63h-.6l-.6,2.26c.26,.03,.5,.05,.74,.05,.74,0,1.38-.16,1.92-.48L.02,98.9H9.58Z"/><path class="d" d="M17.97,87.42c-.99,0-1.97,.35-2.93,1.04-.96,.7-1.72,1.63-2.28,2.8-.53,1.07-.79,2.17-.79,3.29,0,2.08,.75,3.49,2.26,4.23,.5,.24,1.03,.36,1.61,.36,.99,0,1.97-.35,2.93-1.04,.96-.7,1.72-1.63,2.28-2.8,.53-1.07,.79-2.17,.79-3.29,0-2.08-.75-3.48-2.26-4.2-.5-.26-1.03-.38-1.61-.38Zm.44,6.5c-.33,.79-.72,1.41-1.17,1.86-.45,.45-.86,.67-1.23,.67-.61,0-.91-.53-.91-1.59,0-.74,.17-1.51,.5-2.33,.32-.77,.7-1.38,1.15-1.84,.45-.46,.86-.68,1.23-.68,.61,0,.91,.54,.91,1.61,0,.74-.16,1.5-.49,2.29Z"/><path class="d" d="M26.16,100.29c-.51,.68-1.07,1.02-1.67,1.02-.08,0-.76-.46-2.03-1.39l-.6,2.27c.16,.24,.34,.49,.53,.75,.19,.26,.39,.44,.6,.56,.46,.23,.98,.34,1.56,.34,.99,0,1.98-.34,2.96-1.01,.98-.68,1.74-1.57,2.29-2.68,.11-.24,.25-.65,.41-1.23l3-11.39h-3.33l-.25,.96c-.54-.7-1.26-1.06-2.14-1.06s-1.82,.39-2.74,1.18c-.91,.78-1.63,1.81-2.16,3.07-.48,1.12-.72,2.23-.72,3.32,0,1.97,.65,3.23,1.95,3.77,.32,.14,.66,.22,1.03,.22,.72,0,1.46-.26,2.21-.77l-.19,.7c-.11,.45-.34,.91-.69,1.38Zm-.25-3.96c-.57,0-.86-.52-.86-1.57,0-.63,.14-1.31,.41-2.05,.3-.8,.72-1.46,1.25-1.95,.46-.42,.9-.63,1.32-.63s.62,.46,.62,1.37c0,.29-.03,.59-.08,.91l-.33,1.15-.05,.12c-.29,.78-.65,1.41-1.08,1.91-.44,.49-.84,.74-1.2,.74Z"/><polygon class="d" points="38.29 87.57 34.96 87.57 31.98 98.95 35.31 98.95 38.29 87.57"/><polygon class="d" points="40.19 82.71 35.41 84.18 34.78 86.03 39.44 85.45 40.19 82.71"/><path class="d" d="M42.64,90.04c.27-.18,.54-.26,.82-.26,1.23,0,2.31,.33,3.22,.99l.67-2.69c-.86-.59-2.01-.89-3.44-.89-1.25,0-2.33,.39-3.24,1.18-.96,.83-1.44,1.87-1.44,3.1,0,.75,.33,1.38,.98,1.87,.62,.34,1.25,.68,1.89,1.03,.63,.35,.95,.75,.95,1.2,0,.59-.53,.89-1.59,.89-1.23,0-2.29-.26-3.17-.77l-.67,2.67c.27,.21,.87,.41,1.8,.6,.85,.19,1.51,.29,1.97,.29,1.38,0,2.52-.41,3.44-1.24,.91-.82,1.37-1.92,1.37-3.28,0-.78-.34-1.46-1.01-2.02-.32-.26-.96-.62-1.92-1.1-.69-.35-1.03-.66-1.03-.91s.14-.47,.41-.65Z"/><polygon class="d" points="52.69 90.02 54.76 90.02 55.44 87.54 53.34 87.54 54.61 82.62 51.31 82.62 50.02 87.54 48.5 87.54 47.85 90.02 49.38 90.02 47.06 98.9 50.36 98.9 52.69 90.02"/><path class="d" d="M59.04,85.67c.54-.02,1.01-.17,1.39-.47,.38-.3,.58-.64,.58-1.05s-.19-.73-.58-1c-.38-.26-.85-.39-1.39-.37-.54,.02-1.01,.17-1.39,.47-.38,.3-.58,.64-.58,1.04s.19,.73,.58,1c.38,.26,.85,.39,1.39,.37Z"/><polygon class="d" points="59.81 87.52 56.49 87.52 53.51 98.93 56.83 98.93 59.81 87.52"/><path class="d" d="M64.38,90.71c.48-.43,.91-.65,1.3-.65,.08,0,.16,.02,.24,.05,.72,.13,1.31,.69,1.78,1.68l.74-2.83c-.75-1.02-1.74-1.54-2.95-1.54-.99,0-1.97,.35-2.92,1.04-.95,.7-1.71,1.61-2.27,2.75-.51,1.07-.77,2.16-.77,3.27,0,2.07,.75,3.46,2.26,4.18,.48,.24,1,.36,1.56,.36,.9,0,1.79-.28,2.69-.84l.89-3.46c-1.1,1.12-2.14,1.67-3.1,1.66-.37,0-.65-.25-.84-.74-.13-.37-.19-.77-.19-1.2,0-.61,.12-1.22,.36-1.85,.29-.77,.7-1.39,1.23-1.87Z"/><path class="d" d="M79.03,87.52h-3.25l-.28,.98c-.53-.75-1.24-1.12-2.13-1.12s-1.82,.4-2.73,1.19c-.91,.79-1.63,1.82-2.16,3.07-.48,1.12-.72,2.25-.72,3.37,0,2.02,.65,3.31,1.95,3.88,.32,.13,.66,.19,1.03,.19,.82,0,1.64-.32,2.47-.96,.54,.72,1.22,1.08,2.02,1.08,.7,0,1.47-.28,2.31-.83l.6-2.08c-.26,.06-.49,.1-.7,.1-.37,0-.55-.16-.55-.48,0-.1,.02-.2,.05-.31l2.09-8.07Zm-4.88,6.02c-.29,.8-.66,1.46-1.1,1.98-.45,.51-.86,.77-1.22,.77-.56,0-.84-.54-.84-1.62,0-.68,.14-1.37,.41-2.1,.29-.79,.65-1.42,1.09-1.9,.44-.48,.85-.72,1.24-.72,.58,0,.86,.51,.86,1.54,0,.64-.14,1.33-.43,2.05Z"/><path class="d" d="M84.41,11.43c.79,.26,1.61,.47,2.45,.68-.25,.15-.51,.29-.79,.41-2.61,1.2-4.81,1.02-7.09,.62,1.65,1.86,3.97,2.75,6.52,2.61,2.13-.12,4.5-1.04,6.57-2.24,.02,0,.04,.01,.07,.02,2.6,.92,5.78,2.63,7.22,4.88,.24,.04,.02-.34-.01-.44-.61-2.2-2.2-4.5-4.44-6.42,1.62-1.29,3.22-2.79,5.09-4.04,2.29-1.54,5.56-3.08,8.22-2.9,.18-.16-.26-.21-.36-.25-2.8-1.08-6.75-.91-10.5,.58-2.56,1.02-4.7,2.46-6.55,3.95-2.66-1.31-5.36-2.01-7.79-2.5-1.1-.22-2.14-.49-3.21-1.07-2.51-1.38-3.68-3.25-4.72-5.32-.51,2.44,.16,4.83,1.79,6.79,1.74,2.1,4.76,3.72,7.52,4.63Z"/><path class="d" d="M104.2,22.26s-7-8.25,3.5,15.49c15.99,36.16-24.74,69.46-61.22,72.71-36.48,3.25-56.97-3.5-40.98,1.75,15.99,5.25,52.22,8.25,89.7-4.5,69.08-23.49,9-85.46,9-85.46Z"/><path class="d" d="M22.26,76.47l8.64-33.38c.49,.05,.97,.1,1.45,.13,3.67,.23,7.7-.18,11.8-.34l-8.78,33.6h2.49c3.26-12.87,11.04-23.63,20.09-31.99,1.79,.6,3.51,1.4,5.06,2.4l-.34,1.31c.3-.32,.61-.62,.92-.93,.6,.42,1.16,.88,1.69,1.37-.09,.11-.18,.22-.27,.34-1.26,1.49-2.55,3-3.64,4.67-.06,.1-.12,.2-.18,.29l-5.86,22.5h11.22l5.56-21.04c1.83,2.96,4.39,4.43,7.67,4.43,3.01,0,6.04-1.31,9.08-3.93,3.04-2.62,5.45-6.04,7.23-10.25,1.62-3.73,2.42-7.43,2.42-11.1,0-6.53-2.13-10.72-6.4-12.56-1.08-.43-2.24-.65-3.48-.65-2.86,0-5.75,1.19-8.67,3.56l.93-3.56h-11.22l-5.31,20.4c-1.13-1.81-2.48-3.49-4.02-5L69.25,2.58h-14.58l-7.08,27.15c-4.32-1.11-8.71-1.32-12.9-1.14L41.47,2.58h-14.58l-3.74,14.19-2.87,11c-4.8-2.32-7.14-6.64-9.21-11.56-1.49,7.92-.13,14.68,3.59,19.3,.83,1.03,1.81,1.94,2.88,2.75L7.58,76.47h14.68Zm54.69-38.57c.97-2.56,2.21-4.68,3.73-6.36,1.51-1.67,2.92-2.51,4.21-2.51,2.11,0,3.16,1.81,3.16,5.43,0,2.16-.46,4.48-1.38,6.97-1.03,2.65-2.3,4.81-3.81,6.48-1.51,1.67-2.92,2.51-4.21,2.51-2.11,0-3.16-1.81-3.16-5.43,0-2.16,.49-4.52,1.46-7.09Zm-7.05,3.54c-.64,1.98-1.79,3.7-3.11,5.37-.23-.65-.49-1.3-.77-1.93,1.27-1.19,2.57-2.34,3.89-3.44Z"/><path class="d" d="M57.43,47.83c-.31,.37-.62,.75-.92,1.14-1.26,1.49-2.55,3-3.64,4.67-2.94,4.53-5.33,9.38-7.29,14.63-.16,.31-1.7,5.48-2.84,8.2h7.21l7.49-28.64Z"/></g></g></g></svg>