<?xml version="1.0" encoding="utf-8"?>
<!-- Generator: Adobe Illustrator 26.2.1, SVG Export Plug-In . SVG Version: 6.00 Build 0)  -->
<svg version="1.1" id="Capa_1" xmlns="http://www.w3.org/2000/svg" xmlns:xlink="http://www.w3.org/1999/xlink" x="0px" y="0px"
	 viewBox="0 0 737 235.3" style="enable-background:new 0 0 737 235.3;" xml:space="preserve">
<style type="text/css">
	.st0{fill:#FFFFFF;}
</style>
<g id="a">
</g>
<path class="st0" d="M455.8,97.3h-20.5V79.7h20.5V97.3z M245.8,136.5c4,3.9,6,9.8,6,17.8c0,5.6-1.2,10.5-3.7,14.8
	c-2.5,4.3-5.9,7.5-10.2,9.6c-3.1,1.4-6.6,2.5-10.3,3.1c-3.8,0.7-9.7,1-17.8,1h-37.9v-103h40.8c12.3,0,21.3,2,27.1,6.2
	c5.8,4.1,8.7,10.5,8.7,19.2c0,7.4-1.9,13.2-5.7,17.3c-3.8,4.2-9.3,6.5-16.4,6.9C235.3,130.2,241.8,132.6,245.8,136.5z M195,120.1
	h12.8c7.2,0,12.1-0.8,14.7-2.4c2.6-1.6,3.8-4.4,3.8-8.5c0-4.1-1.3-6.9-3.8-8.5c-2.5-1.6-7.5-2.4-14.7-2.4H195V120.1z M229.1,151.5
	c0-4.7-1.4-8-4.1-9.9c-2.7-1.8-8.2-2.8-16.3-2.8h-14.2v25.3h14.2c8.1,0,13.5-0.9,16.3-2.8C227.7,159.5,229.1,156.2,229.1,151.5z
	 M318.1,178c0.3,2.1,0.9,3.6,1.6,4.7h-19.5c-0.3-1.1-0.6-2.3-0.8-3.5c-0.2-1.2-0.2-2.5-0.2-3.8v-1.2c-2.7,3.7-5.9,6.4-9.5,8.3
	c-3.6,1.8-7.7,2.7-12.4,2.7c-7,0-12.7-2.1-16.9-6.3c-4.2-4.2-6.3-9.7-6.3-16.5c0-5.3,1.3-9.9,3.9-13.9c2.6-4,6.3-7,11.1-9
	c3.4-1.4,9.6-3.1,18.6-5.1c4.3-0.9,7.6-1.7,9.9-2.3v-3.4c0-3.8-0.8-6.5-2.3-8.1c-1.6-1.6-4.1-2.5-7.6-2.5c-3.6,0-6.2,0.8-7.9,2.4
	c-1.7,1.6-2.6,4-2.7,7.4h-20.1v-0.3c0-7.6,2.7-13.6,8.1-17.8c5.4-4.2,13-6.3,22.8-6.3c10.8,0,18.5,2,23.2,6.1c4.7,4.1,7,10.8,7,20.3
	v0.9l-0.4,34.8v3.4C317.6,173,317.8,175.9,318.1,178z M297.5,146.1c-1,0.3-2.4,0.7-4.2,1.1c-13.4,3.6-20.1,8-20.1,13.5
	c0,2.7,0.8,4.8,2.5,6.3c1.6,1.5,3.9,2.3,6.7,2.3c4.7,0,8.5-1.7,11.1-5c2.7-3.3,4.1-8,4.1-13.9V146.1z M347.7,140.1
	c0-5.1,1.2-8.8,3.6-11c2.4-2.2,6.5-3.3,12.2-3.3c1,0,1.8,0,2.3,0c0.6,0,1.1,0,1.6,0.1v-20.5c-3.5,0.2-7,1-10.4,2.5
	c-3.5,1.5-6.8,3.5-10.1,6.1v-7.8h-19.7v76.6h20.5V140.1z M417.6,155.7c-1.5,3.9-3.6,6.9-6,8.8c-2.5,1.9-5.5,2.9-9,2.9
	c-4.7,0-8.5-2.1-11.4-6.2c-2.8-4.1-4.3-9.7-4.3-16.7c0-7.1,1.5-12.7,4.4-16.8c2.9-4.1,7-6.1,12.1-6.1c3.1,0,5.7,0.8,8,2.5
	c2.3,1.7,4.1,4.2,5.6,7.5l15.3-9.6c-3.2-6.2-7.2-10.8-12-13.8c-4.8-3-10.6-4.5-17.3-4.5c-11.3,0-20.3,3.7-27,11.3
	c-6.7,7.5-10,17.7-10,30.6c0,12.2,3.2,21.9,9.5,29.1c6.3,7.2,14.8,10.7,25.6,10.7c6.9,0,13.1-1.8,18.6-5.3
	c5.5-3.5,9.9-8.6,13.3-15.3L417.6,155.7z M455.8,106.2h-20.5v76.6h20.5V106.2z M494.9,185.4c-10.3,0-18.4-3.5-24.5-10.6
	c-6-7.1-9-16.7-9-28.7c0-12.7,3.2-22.9,9.6-30.6c6.4-7.7,14.8-11.6,25.2-11.6c10.3,0,18.5,3.7,24.6,11.2c6.1,7.5,9.1,17.7,9.1,30.6
	c0,0.4,0,1-0.1,1.8c-0.1,0.9-0.1,1.5-0.1,1.9H482c0.2,6.5,1.6,11.4,4.3,14.9c2.7,3.4,6.4,5.2,11.2,5.2c3.6,0,6.9-1.2,9.6-3.5
	c2.8-2.3,5.1-5.8,7-10.4l15.2,8.2c-3.2,7.1-7.7,12.5-13.6,16.2C510,183.5,503,185.4,494.9,185.4z M482.1,135.8h27.5
	c-0.5-5-2-8.9-4.3-11.6c-2.4-2.7-5.5-4.1-9.4-4.1c-3.9,0-7,1.3-9.3,4C484.2,126.8,482.7,130.7,482.1,135.8z M575.4,126.2
	c1.6,2.4,2.4,6.2,2.4,11.4v45.1h20.5v-46.2c0-10.9-1.8-18.9-5.4-24.2c-3.6-5.3-9.1-7.9-16.5-7.9c-4.1,0-7.9,0.7-11.2,2.2
	c-3.3,1.5-6.3,3.7-8.9,6.7v-7.1h-20.5v76.6h20.5v-45.1c0-5.5,0.9-9.4,2.6-11.6c1.8-2.3,4.7-3.4,8.8-3.4
	C571.2,122.6,573.8,123.8,575.4,126.2z M638.4,185.4c6.9,0,13.1-1.8,18.6-5.3c5.5-3.5,9.9-8.6,13.3-15.3l-15.2-9
	c-1.5,3.9-3.6,6.9-6,8.8c-2.5,1.9-5.5,2.9-9,2.9c-4.7,0-8.5-2.1-11.4-6.2c-2.8-4.1-4.3-9.7-4.3-16.7c0-7.1,1.5-12.7,4.4-16.8
	c2.9-4.1,7-6.1,12.1-6.1c3.1,0,5.7,0.8,8,2.5c2.3,1.7,4.1,4.2,5.6,7.5l15.3-9.6c-3.2-6.2-7.2-10.8-12-13.8c-4.8-3-10.6-4.5-17.3-4.5
	c-11.3,0-20.3,3.7-27,11.3c-6.7,7.5-10,17.7-10,30.6c0,12.2,3.2,21.9,9.5,29.1C619.2,181.8,627.7,185.4,638.4,185.4z M677.6,174.7
	c-6-7.1-9-16.7-9-28.7c0-12.7,3.2-22.9,9.6-30.6c6.4-7.7,14.8-11.6,25.2-11.6c10.3,0,18.5,3.7,24.6,11.2c6.1,7.5,9.1,17.7,9.1,30.6
	c0,0.4,0,1-0.1,1.8c-0.1,0.9-0.1,1.5-0.1,1.9h-47.6c0.2,6.5,1.6,11.4,4.3,14.9c2.7,3.4,6.4,5.2,11.2,5.2c3.6,0,6.9-1.2,9.6-3.5
	c2.8-2.3,5.1-5.8,7-10.4l15.2,8.2c-3.2,7.1-7.7,12.5-13.6,16.2c-5.8,3.7-12.8,5.5-20.9,5.5C691.8,185.4,683.6,181.8,677.6,174.7z
	 M689.3,135.8h27.5c-0.5-5-2-8.9-4.3-11.6c-2.4-2.7-5.5-4.1-9.4-4.1c-3.9,0-7,1.3-9.3,4C691.3,126.8,689.8,130.7,689.3,135.8z
	 M650.8,201.2v-5.3h-6.2v5.3H650.8z M334,213.6h12.7v-5.8H334V202h14.1v-6.1h-21v31.2h22.2v-6.1H334V213.6z M369.8,203.9h-6.6
	l-3,6.4l-2.9-6.4h-7l6.3,10.9l-7,12.3h6.5l3.8-7.6l3.6,7.6h6.9l-7-12.2L369.8,203.9z M384.5,221.6c-0.7,0.6-1.7,0.9-2.7,0.9
	c-1.4,0-2.6-0.6-3.4-1.9c-0.9-1.3-1.3-2.9-1.3-5.1c0-2.2,0.4-3.9,1.3-5.1c0.9-1.2,2.1-1.9,3.7-1.9c0.9,0,1.7,0.3,2.4,0.8
	c0.7,0.5,1.2,1.3,1.7,2.3l4.6-2.9c-1-1.9-2.2-3.3-3.7-4.2c-1.5-0.9-3.2-1.4-5.2-1.4c-3.4,0-6.2,1.1-8.2,3.4c-2,2.3-3,5.4-3,9.3
	c0,3.7,1,6.6,2.9,8.8c1.9,2.2,4.5,3.3,7.8,3.3c2.1,0,4-0.5,5.6-1.6c1.7-1.1,3-2.6,4-4.6l-4.6-2.7C385.8,220.2,385.2,221,384.5,221.6
	z M417.7,203.4c-1.3,0-2.4,0.3-3.5,0.9c-1.1,0.6-2.1,1.5-3.1,2.8c-0.6-1.2-1.4-2.2-2.3-2.8c-1-0.6-2.1-0.9-3.4-0.9
	c-1.1,0-2.1,0.2-3.1,0.7c-1,0.5-1.9,1.1-2.6,2v-2.2h-6.2v23.2h6.2v-13.7c0-1.6,0.2-2.7,0.7-3.5c0.5-0.7,1.3-1.1,2.3-1.1
	c1.1,0,1.8,0.4,2.3,1.1c0.5,0.7,0.7,1.9,0.7,3.5v13.7h6.2v-13.7c0-1.6,0.2-2.7,0.7-3.5c0.5-0.7,1.3-1.1,2.3-1.1
	c1.1,0,1.9,0.4,2.3,1.1c0.5,0.7,0.7,1.9,0.7,3.5v13.7h6.2v-14c0-3.3-0.5-5.8-1.6-7.3C421.6,204.2,419.9,203.4,417.7,203.4z
	 M446.8,206.6c2,2.3,3,5.3,3,9c0,3.7-1,6.7-3.1,9c-2,2.3-4.7,3.4-8.1,3.4c-3.3,0-6-1.1-8-3.4c-2-2.3-3-5.2-3-9c0-3.7,1-6.7,3.1-9
	c2-2.3,4.7-3.4,8-3.4C442,203.2,444.7,204.3,446.8,206.6z M443.4,215.6c0-2.1-0.4-3.8-1.3-5.1c-0.9-1.3-2-1.9-3.5-1.9
	c-1.4,0-2.6,0.6-3.4,1.9c-0.9,1.3-1.3,2.9-1.3,5c0,2.1,0.4,3.8,1.3,5c0.9,1.2,2,1.9,3.4,1.9c1.4,0,2.6-0.6,3.5-1.9
	C443,219.3,443.4,217.7,443.4,215.6z M454,227.1h6.5v-7.7H454V227.1z M493.1,195.9l10.5,31.2h-7.4l-1.5-4.9h-10.5l-1.6,4.9h-7.4
	l10.5-31.2H493.1z M493.1,216.5l-3.6-12.4l-3.6,12.4H493.1z M512.8,220.7l-3.6-16.8h-6.7l6.3,20.7c0.3,0.9,0.5,1.6,0.6,2.1
	c0.1,0.5,0.2,0.8,0.2,1.1c0,0.7-0.2,1.2-0.7,1.5c-0.5,0.3-1.2,0.4-2.3,0.4c-0.2,0-0.5,0-0.9,0c-0.3,0-0.7-0.1-1.1-0.1l0,5.5
	c0.6,0.1,1.1,0.1,1.7,0.2c0.6,0,1.2,0.1,1.7,0.1c2.1,0,3.7-0.5,4.8-1.5c1.1-1,2.1-3,3-5.9l7.1-24h-6.6L512.8,220.7z M537.7,217.6
	c0,1.7-0.3,2.8-0.8,3.5c-0.5,0.7-1.4,1-2.7,1c-1.1,0-1.8-0.4-2.3-1.1c-0.5-0.7-0.7-1.9-0.7-3.4v-13.7H525v14c0,3.3,0.5,5.7,1.6,7.3
	c1.1,1.6,2.8,2.4,5,2.4c1.2,0,2.4-0.2,3.4-0.7c1-0.4,1.9-1.1,2.7-2v2.2h6.2v-23.2h-6.2V217.6z M561,203.4c-1.2,0-2.4,0.2-3.4,0.7
	c-1,0.4-1.9,1.1-2.7,2v-2.2h-6.2v23.2h6.2v-13.7c0-1.7,0.3-2.8,0.8-3.5c0.5-0.7,1.4-1,2.7-1c1.1,0,1.8,0.4,2.3,1.1
	c0.5,0.7,0.7,1.9,0.7,3.5v13.7h6.2v-14c0-3.3-0.5-5.7-1.6-7.3C564.9,204.2,563.2,203.4,561,203.4z M579.3,197.3H573v7.2h-3.1v4.3
	h3.1v10c0,3.6,0.4,6,1.3,7.1c0.9,1.1,2.5,1.7,4.8,1.7c0.6,0,1.3,0,1.9-0.1c0.6-0.1,1.3-0.2,1.9-0.3v-5.3c-0.4,0-0.7,0.1-1,0.1
	c-0.3,0-0.5,0-0.7,0c-0.8,0-1.3-0.2-1.6-0.6c-0.3-0.4-0.4-1.2-0.4-2.4v-10.3h3.7v-4.3h-3.7V197.3z M604.6,225.7
	c0.1,0.6,0.3,1.1,0.5,1.4h-5.9c-0.1-0.3-0.2-0.7-0.2-1.1c0-0.4-0.1-0.8-0.1-1.1v-0.4c-0.8,1.1-1.8,2-2.9,2.5
	c-1.1,0.5-2.3,0.8-3.8,0.8c-2.1,0-3.8-0.6-5.1-1.9c-1.3-1.3-1.9-2.9-1.9-5c0-1.6,0.4-3,1.2-4.2c0.8-1.2,1.9-2.1,3.4-2.7
	c1-0.4,2.9-0.9,5.6-1.5c1.3-0.3,2.3-0.5,3-0.7v-1c0-1.2-0.2-2-0.7-2.5c-0.5-0.5-1.2-0.7-2.3-0.7c-1.1,0-1.9,0.2-2.4,0.7
	c-0.5,0.5-0.8,1.2-0.8,2.2h-6.1v-0.1c0-2.3,0.8-4.1,2.4-5.4c1.6-1.3,3.9-1.9,6.9-1.9c3.3,0,5.6,0.6,7,1.8c1.4,1.2,2.1,3.3,2.1,6.2
	v0.3l-0.1,10.6v1C604.5,224.2,604.5,225.1,604.6,225.7z M598.4,216c-0.3,0.1-0.7,0.2-1.3,0.3c-4.1,1.1-6.1,2.4-6.1,4.1
	c0,0.8,0.2,1.4,0.7,1.9c0.5,0.5,1.2,0.7,2,0.7c1.4,0,2.6-0.5,3.4-1.5c0.8-1,1.2-2.4,1.2-4.2V216z M633.4,203.4
	c-1.3,0-2.4,0.3-3.5,0.9c-1.1,0.6-2.1,1.5-3.1,2.8c-0.6-1.2-1.4-2.2-2.3-2.8c-1-0.6-2.1-0.9-3.4-0.9c-1.1,0-2.1,0.2-3.1,0.7
	c-1,0.5-1.9,1.1-2.6,2v-2.2h-6.2v23.2h6.2v-13.7c0-1.6,0.2-2.7,0.7-3.5c0.5-0.7,1.3-1.1,2.3-1.1c1.1,0,1.8,0.4,2.3,1.1
	c0.5,0.7,0.7,1.9,0.7,3.5v13.7h6.2v-13.7c0-1.6,0.2-2.7,0.7-3.5c0.5-0.7,1.3-1.1,2.3-1.1c1.1,0,1.9,0.4,2.3,1.1
	c0.5,0.7,0.7,1.9,0.7,3.5v13.7h6.2v-14c0-3.3-0.5-5.8-1.6-7.3C637.3,204.2,635.6,203.4,633.4,203.4z M644.6,227.1h6.2v-23.2h-6.2
	V227.1z M672.2,206.6c1.8,2.3,2.8,5.4,2.8,9.3c0,0.1,0,0.3,0,0.6c0,0.3,0,0.5,0,0.6h-14.4c0.1,2,0.5,3.5,1.3,4.5
	c0.8,1,1.9,1.6,3.4,1.6c1.1,0,2.1-0.4,2.9-1.1c0.8-0.7,1.5-1.8,2.1-3.2l4.6,2.5c-1,2.2-2.3,3.8-4.1,4.9c-1.8,1.1-3.9,1.7-6.3,1.7
	c-3.1,0-5.6-1.1-7.4-3.2c-1.8-2.2-2.7-5.1-2.7-8.7c0-3.8,1-6.9,2.9-9.3c1.9-2.3,4.5-3.5,7.6-3.5
	C667.9,203.2,670.4,204.3,672.2,206.6z M668.8,212.9c-0.2-1.5-0.6-2.7-1.3-3.5c-0.7-0.8-1.7-1.2-2.9-1.2c-1.2,0-2.1,0.4-2.8,1.2
	c-0.7,0.8-1.2,2-1.3,3.5H668.8z M690.8,203.4c-1.2,0-2.4,0.2-3.4,0.7c-1,0.4-1.9,1.1-2.7,2v-2.2h-6.2v23.2h6.2v-13.7
	c0-1.7,0.3-2.8,0.8-3.5c0.5-0.7,1.4-1,2.7-1c1.1,0,1.8,0.4,2.3,1.1c0.5,0.7,0.7,1.9,0.7,3.5v13.7h6.2v-14c0-3.3-0.5-5.7-1.6-7.3
	C694.7,204.2,693.1,203.4,690.8,203.4z M709.1,197.3h-6.2v7.2h-3.1v4.3h3.1v10c0,3.6,0.4,6,1.3,7.1c0.9,1.1,2.5,1.7,4.8,1.7
	c0.6,0,1.3,0,1.9-0.1c0.6-0.1,1.3-0.2,1.9-0.3v-5.3c-0.4,0-0.7,0.1-1,0.1c-0.3,0-0.5,0-0.7,0c-0.8,0-1.3-0.2-1.6-0.6
	c-0.3-0.4-0.4-1.2-0.4-2.4v-10.3h3.7v-4.3h-3.7V197.3z M737,215.6c0,3.7-1,6.7-3.1,9c-2,2.3-4.7,3.4-8.1,3.4c-3.3,0-6-1.1-8-3.4
	c-2-2.3-3.1-5.2-3.1-9c0-3.7,1-6.7,3.1-9c2-2.3,4.7-3.4,8-3.4c3.4,0,6.1,1.1,8.1,3.4C736,208.8,737,211.8,737,215.6z M730.6,215.6
	c0-2.1-0.4-3.8-1.3-5.1c-0.9-1.3-2-1.9-3.5-1.9c-1.4,0-2.6,0.6-3.4,1.9c-0.9,1.3-1.3,2.9-1.3,5c0,2.1,0.4,3.8,1.3,5
	c0.9,1.2,2,1.9,3.4,1.9c1.4,0,2.6-0.6,3.5-1.9C730.2,219.3,730.6,217.7,730.6,215.6z M143.6,48.8c-0.6,1.3-1.2,2.7-1.9,4.4
	c0.6,0,0.6,0.7,0.6,1.3c0,1.3-0.6,2.7-1.9,2.7c-0.6,2-0.6,3.7-0.6,5.7c-2.8-2-7.2-3.7-16.2-5c-10.6-1.3-24.3-2-38.6-2
	c-14,0-27.7,0.7-37.7,2c-9.7,1.3-14,3-16.2,5c-0.6-2-0.6-3.7-1.2-5.7c-1.2,0-1.9-1.3-1.9-2.7c0-0.7,0-1.3,0.6-1.3
	c-0.6-1.7-1.3-3-1.9-4.4c1.9-2.7,7.2-4.7,18.1-7.1c11.2-1.3,25.2-2.7,40.2-2.7c15,0,29.9,1.4,40.5,2.7
	C136.5,44.1,142.4,46.2,143.6,48.8z M39,52.6c0-1.7-1.3-3-2.5-3c-1.2,0-2.5,1.4-2.5,3c0,1.3,1.2,2.7,2.5,2.7
	C37.7,55.2,39,53.9,39,52.6z M58.6,48.8c0-2-3.4-4-7.2-3.4c-3.1,0-6.5,2.7-6.5,4.7c0,2.4,3.4,3.7,6.5,3.7
	C55.2,53.2,58.6,50.9,58.6,48.8z M71,48.2c0-1.3-1.6-2.7-2.8-2.7c-1.2,0-2.5,1.3-2.5,2.7c0,1.3,1.2,2.7,2.5,2.7
	C69.5,50.9,71,49.5,71,48.2z M91.6,47.5c0-2-2.5-4-6.5-4c-3.7,0-6.2,2-6.2,4c0,2,2.5,4,6.2,4C89.1,51.5,91.6,49.5,91.6,47.5z
	 M104.7,48.2c0-1.3-1.3-2.7-2.5-2.7c-1.2,0-2.8,1.3-2.8,2.7c0,1.3,1.6,2.7,2.8,2.7C103.5,50.9,104.7,49.5,104.7,48.2z M125.6,50.2
	c0-2-2.8-4.7-6.5-4.7c-4-0.7-7.2,1.3-7.2,3.4c0,2,3.1,4.4,7.2,5C122.8,53.9,125.6,52.6,125.6,50.2z M136.5,52.6c0-1.7-0.6-3-2.5-3
	c-1.2,0-1.9,1.4-1.9,3c0,1.3,0.6,2.7,1.9,2.7C135.9,55.2,136.5,53.9,136.5,52.6z M171.1,28.6c-5.3-2.7-9,1.3-10.6,5.4
	c-2.9-3.2-6.6,3.2-4.4,5.7c-4.7,0-8.4,3.7-11.2,7.1c-1.9-3.4-7.8-5.7-18.7-7.8c-11.2-1.3-25.2-2.7-41.1-2.7
	c-15.6,0-29.9,1.3-40.2,2.7c-11.5,2-16.8,4.4-19.6,7.8c-1.9-3.4-6.2-7.1-10.9-7.1c0.6-0.7,0.6-1.4,0.6-2.7c0-3.2-3-4.7-5.3-3
	c-1.3-4-5-8.1-9.7-5.4c0-6.8,5.1-6.4,9-5c0.6-1.3,1.6-3.4,2.2-4c3.1,2,4.4,4.7,5,11.1c2.8-4,4-5.7,7.2-5.7c0,1.7,0,3-1.2,5.1
	c1.9-2,5.3-1.3,5.9-0.7c-1.2,2.7-1.9,4-4.7,4c1.9,0.7,2.8,2.4,1.9,3c-5.5-1.2-4.3,5.4,0,5.4c1.6,0.7,5.3,0,5.9-3.4
	c-4.1-4.4,3.4-7.3,3.4-2.7l0,1.3c1.2,0.7,3.1,1.3,5.6,0.7c2.6,0,5.9-2.7,5.9-5.7c-0.6-2-3.1-2.7-6.5,0.7c-0.6-2-0.6-3.4,0.6-4
	c-3.7,1.3-5.6-0.7-6.9-1.4c1.2-1.3,2.5-4.4,6.2-4.4c-1.9-1.3-1.9-3.4-1.9-4c1.2,0.7,4.1,2,5.9,0.7c-2.5-2-3.4-4.4-4.1-6.4
	c2,0,4.9-2.2,5.2-4.7c1.4,2,3.5,3.7,6.6,2c0,2,0,4.7-1.2,7.7c1.9,0.7,3.7-1.7,4.4-3.7c0.6,1.3,1.6,3,0,5.1c4-0.7,5.3,0.7,7.2,2
	c-0.6,1.3-2.5,3.4-6.5,3.4c1.6,1,2.2,2.4,2.2,4.4c-4.1-2.7-5.9,0-5.9,1.3c0,0.7,1.2,2.7,3.7,3.4c3.4,1,5.9-0.7,8.7-3.4
	c-0.6,0-1.6-0.7-1.6-2c0-3.3,5.3-3.6,5.3,0c0,0.7-0.6,1.3-0.6,2c2.5,2,6.5,2.7,8.4,2c6.5,0,8.4-4.7,6.5-7.7c-2.5-2-5.9,1-7.2,3
	c-0.6-0.7-1.2-3-0.6-4.4c-3.1,0-5.3-1.3-6.5-2.7c0.6-1.3,1.9-4.4,5.9-4.4c-0.6-1.4-0.6-2.7,0.6-4.7c0.6,3.4,5.3,5.7,7.2,3.4
	c0.6-0.7,0.6-2.7-0.6-4c-2.8-2-3.4-5.1-1.2-6.4c2.2-1.2,4.5-2.6,6-4.8c0.8,2.1,3.7,3.8,5.6,4.8c1.9,1.3,1.2,4.4-0.6,6.4
	c-1.9,1.3-1.2,3.4-0.6,4c1.2,2.4,5.9,0,6.5-3.4c1.2,2,1.2,3.4,0.6,4.7c4.1,0,5.3,3,6.5,4.4c-1.9,1.3-4,2.7-6.5,2.7
	c0,1.3,0,3.7-1.3,4.4c-0.6-2-4.7-5.1-6.5-3c-6.2,7.5,9.9,9.3,14.3,5.7c-2-1.7-1.9-4.8,1.9-4.7c2.5,0,3.5,4.7,1.2,4.7
	c2.8,2.7,5.3,4.4,9.4,3.4c2.5-0.7,3.1-2.7,3.1-3.4c0.6-1.3-1.9-4-5.9-1.3c0-2,0.6-3.4,1.9-4.4c-3.7,0-5.6-2-5.6-3.4
	c1.2-1.3,3.1-2.7,6.5-2c-0.9-2-0.9-3.7,0-5.1c0.6,2,2.5,4.4,5,3.7c-1.9-3-1.9-5.7-1.9-7.7c2.7,1.4,5.8-1.3,6.8-2.4
	c1,2.2,1.1,3.7,4.7,5.1c0,2-1.2,4.4-3.7,6.4c2.5,1.3,4.7,0,5.9-0.7c0,0.7,0,2.7-1.2,4c3.1,0,4.4,3,5.6,4.4c-1.2,0.7-3.1,2.7-7.2,1.4
	c1.6,0.7,1.6,2,0.6,4c-3.1-3.4-5.6-2.7-5.6-0.7c-0.6,0.7,0,3,1.9,4.4c1.2,0.7,1.9,1.3,3.1,1.3c2.8,0.7,4.7,0,5.9-0.7
	c0-1.4,0-3.7,1.9-3.7c3.2,0,3.4,3,1.6,5.1c1.3,3.4,4.4,4,5.6,3.4c3.4,0,4-2.7,4-3.4c0-1.3-0.6-2.7-4-2c0-0.7,0-2.4,2.2-3
	c-2.2,0-3.4-1.3-4.7-4c1.2-0.7,4-1.4,6.5,0.7c-1.9-2-1.9-3.4-1.3-5.1c2.5,0,4.4,1.7,6.6,5.7c0.6-6.4,1.9-9.1,5-11.1
	c0.6,0.7,2.2,2.7,2.2,4C165.8,21.2,169.6,24,171.1,28.6z M47.4,21.6c-4.5,0-3.8,7.7,0,7.7C51.6,29.3,52.2,21.6,47.4,21.6z
	 M85.1,24.9c2.2-0.7,4.1-2,4.1-4.7c0-2-1.9-4.4-4.1-4.4c-1.9,0-3.7,2.4-3.7,4.4C81.3,22.9,83.2,24.3,85.1,24.9z M126.2,24.9
	c0-4.4-6.6-4.5-6.6,0C119.7,30.7,126.2,30.6,126.2,24.9z M50.1,144.4l1.2,1.2c6.3-2.6,16-9.4,18.4-16.8l-0.2-4.8
	C67,131.8,58.2,140.5,50.1,144.4z M47,141.3l2.1,2.1c8-3.1,16.6-13.1,19.9-21.3l-1.5-2.2C65.2,127.9,55.6,138.1,47,141.3z
	 M44.6,138.5l1.5,1.9c8.3-3.1,18.6-13.4,20.3-22.4l-1.9-3.8C64.6,124.3,53.9,134.3,44.6,138.5z M82.1,127.5c0-1.1,0-2.2,0-2.2
	c2.9-6.7-0.2-8.2-0.2-8.2h-2.9C76.7,124.9,82.1,127.5,82.1,127.5z M41,148.2l1-2.3l3.7,0.8l-1.1,2.3h2.2h0.7c0-1.1,0.7-2.2,0.7-2.2
	c-1.5-1.1-6.6-7.9-6.6-7.9c-1.5,1.1-6.6,0-6.6,0c0.7-2.2,0.7-3.4,0.7-4.5c0-5.6-5.2-5.6-5.2-5.6v12.4l2.9,1.1l-0.7,3.4l1.5,1.1
	l0.7-2.2l3.7,1.1l-0.7,2.2L41,148.2z M55.2,158.9h1.5v-2.2h-0.7c-2.7,0-4.2-0.3-3.6-3l-2.6-1.9l-5.4,0.2c-1,1.3-0.7,5.1,2.8,4.8
	c0.7,0,1.5,0,1.5,0c4.4,9,0.7,10.1,0.7,10.1c-8.8-5.6-8.8,4.5-8.8,4.5h13.2l0.7-3.4c0.7,1.1,2.2,1.1,2.2,1.1v-2.3
	c-0.7,0-1.5,0-1.5,0v-2.2l2.2,1.1v-3.4c-0.7,0-2.2,0-2.2,0C55.2,161.2,55.2,158.9,55.2,158.9z M81.5,136.7l-0.5-1.2h-1.7
	c0,0.4-0.7,2.4-0.7,2.4c-2,4.7,7.2,19.4-5.9,15.7c-0.7-1.1-2.3-3.8-4.5-5c-2.8-2.2-8-2.9-4.3-8.5c-2.2,2.2-11.1,6.9-11.1,6.9
	c-0.7,5.1,3.5,4.6,6.2,8.2c2.6,3.4,0,6.6,7.8,7.4c0.7,0,1.5,0,1.5,0c4.4,9,0.7,10.1,0.7,10.1c-8.8-5.6-8.8,4.5-8.8,4.5h13.2l0.7-3.4
	c0.7,1.1,2.2,1.1,2.2,1.1v-2.2c-0.7,0-1.5,0-1.5,0v-2.2l2.2,1.1v-3.4c-0.7,0-2.2,0-2.2,0c0-1.1,0-3.4,0-3.4h1.5v-2.2h-0.7
	c-0.7,0-1.5,0-1.5,0c-2.2-2.2-1.5-5.6-1.5-5.6c12.7,1.7,9.2-9.2,6.6-14.6C79.3,138.9,81.5,136.7,81.5,136.7z M70.4,137.8l1.5,2.2
	c0-4.9,3.7-8.5,3.7-13.5c-0.4-2.7-4.7-10.8-2.9-13.5c1.5-2.2,4.4-2.2,6.6,2.2h2.2c-4.8-13.4-16.3-4.3-8.8,9
	C75,129.6,68.5,134.8,70.4,137.8z M62.4,105.2l-1.5,3.4l-1.5-3.4l-2.2,2.2l-1.5-1.1v3.4h7.4L62.4,105.2z M52.2,124.9
	c2.3-1.2,2.2-3.3,4.3-3.3c0,0-0.3-1.5-5.2,1.5c-3.5,2.1-4.2-5.7-9.3-3.1C47.2,120,45.9,128.4,52.2,124.9z M57.1,127.8l-2.8-0.1
	c-3.7,4.5-12.3,6.7-12.3,6.7l2.1,3.1C48.8,135,53,132.2,57.1,127.8z M35.3,126.1c-0.7,0-0.9,0.5-0.9,0.5l1.5,2.2
	c0-2.2,1.5-2.2,1.5-2.2c0.7,1.1,3.7,3.4,3.7,3.4c-1.5,1.1-1.5,2.2-1.5,2.2l1.1,0.9c4.1-1.5,7.4-2.2,10.5-5.4c-6-2.7-18.8-9-18.8-9
	c1.1-10.8-6.4-7.4-6.4-7.4l3,11.1L35.3,126.1z M55,124.3c0,0,2.2,3.4,4.4-1.1c0,0,3.7-7.9,2.9-11.2h-6.6c0,0-5.2,3.4-6.6,6.7
	l3.7,3.4C52.8,113.9,63.8,122.8,55,124.3z M77.1,127.7c0,4.4-4.3,10.2-3.5,14.2l2.2,2.1c-2.4-3.6,2.7-9.9,2.7-14L77.1,127.7z
	 M103.1,140.5l0,7.1c0,0.3,0.2,0.6,0.6,0.6h4.2c0.3,0,0.6-0.2,0.6-0.6v-7.1C108.4,136.7,103.1,136.7,103.1,140.5z M148.6,65.6h2.3
	v2.5v94.1v0h0c0,17.8-7.4,33.9-19.3,45.5c-11.8,11.6-28.1,18.8-46.1,18.8v0h0h0v0c-17.9,0-34.2-7.2-46.1-18.8
	c-11.9-11.7-19.3-27.8-19.3-45.5h0v0V68.1v-2.5h2.3H148.6z M84.6,70.7H24.9v91.6v0h0c0,16.3,6.8,31.1,17.7,41.8
	c10.8,10.6,25.6,17.3,42,17.5V70.7z M102.8,96.5l0.4,4.5l4.2-0.4l0.1,1.1l-0.1,1.6h0.5l0,1.1l-0.8,14.8c1.2-0.1,2.4-0.1,3.6-0.1
	l-1.3,0l2-0.1c0.3,0,0.6,0,1,0l0.5,0c-0.4-2.3,0-7.8,3.8-7.8c2.9,0.4,4.1,3.4,3.8,7.8l0.5,0c0.4,0,0.8,0,1.1,0l0.7,0
	c0,0,0.5,0,1.4,0l-1.1,0c1.1,0,2.2,0.1,3.3,0.1l-0.3-4.9l-0.5-11h0.4l-0.2-2.7l4.4,0.4c0,0,0.4-3.6,0.4-4.2c0.1-0.7-0.4-0.8-0.4-0.8
	l-2.2-0.2l-0.2,3l-2.4-0.2l0.2-3l-4.2-0.2l-0.1,3.1l-2.4-0.1l0.1-3.1l-4.2,0l0.1,3.1l-2.4,0.1l-0.1-3.1l-4.2,0.2l0.2,3l-2.4,0.2
	l-0.2-3.1c0,0-0.6,0-1.6,0.1C102.6,95.9,102.8,96.5,102.8,96.5z M136.8,162l-5.1-27.6c-10.6-1-20.6-1.1-30.1,0l-5,27l-0.2,14.2h14.3
	c-0.1-0.1-0.1-0.2-0.1-0.4v-10.5c0-11.6,12.8-11.3,12.8,0l0,10.5c0,0.1,0,0.3-0.1,0.4h13.5V162z M138.6,123.8l-2.8-0.4l-0.5,3
	l-2.7-0.4l0.2-3l-5.7-0.5l-0.4,3.1l-2.7-0.2l0-3l-5.8-0.1l-0.2,3l-2.9,0.1v-3.2l-5.8,0.1l0,3.1l-2.6,0.2l-0.4-3.1l-5.7,0.5l0.2,3
	l-2.8,0.4l-0.5-3l-3,0.4l1.2,8.4c14.1-2.2,28-2,41.6,0L138.6,123.8z M124.8,140.5v7.1c0,0.3,0.2,0.6,0.6,0.6h4.2
	c0.3,0,0.6-0.2,0.6-0.6v-7.1C130.1,136.7,124.8,136.7,124.8,140.5z"/>
</svg>
