<?xml version="1.0" encoding="UTF-8"?><svg xmlns="http://www.w3.org/2000/svg" viewBox="0 0 197.16 125.75"><defs><style>.d{fill:#fff;}</style></defs><g id="a"/><g id="b"><g id="c"><g><path class="d" d="M39.97,44.39c1.09,.41,1.24-.55,1.49-1.25,1.79-5.19,4.2-10.06,7.3-14.59,6.79-9.9,15.74-17.17,26.8-21.83,5.76-2.43,11.78-3.89,18.02-4.45,4.13-.37,8.25-.36,12.35,.11,5.68,.65,11.21,2.02,16.48,4.28,16.24,6.97,27.52,18.71,33.79,35.24,.25,.66,.41,1.36,.77,1.95,.2,.32,.78,.68,1.08,.6,.29-.07,.57-.66,.65-1.06,.07-.34-.13-.74-.25-1.1-3.57-10.17-9.29-18.9-17.34-26.09C129.14,5.54,115.11,.27,97.83,0c-1.76,.16-4.82,.38-7.86,.75-5.73,.71-11.24,2.3-16.47,4.72-16.42,7.61-27.81,19.87-33.87,36.98-.26,.74-.72,1.53,.34,1.93Z"/><path class="d" d="M158.18,81.4c-.8-.3-1.26,.18-1.45,.95-.03,.12-.09,.24-.13,.36-1.87,5.5-4.48,10.64-7.86,15.36-6.56,9.17-15,16.06-25.35,20.56-7.01,3.04-14.32,4.71-21.96,5-5.07,.19-10.09-.19-15.04-1.24-4.74-1-9.31-2.58-13.69-4.69-8.52-4.1-15.71-9.86-21.55-17.29-4.27-5.44-7.53-11.44-9.72-18.01-.23-.69-.57-1.31-1.42-1.02-.87,.29-.73,.98-.47,1.67,.44,1.13,.83,2.27,1.28,3.39,4.34,10.74,11.17,19.59,20.41,26.54,11.17,8.4,23.79,12.6,37.79,12.76,2.51-.19,5.03-.33,7.54-.57,5.62-.56,11.04-1.96,16.23-4.15,15.94-6.74,27.41-18.03,34.26-33.96,.58-1.34,1.04-2.73,1.54-4.11,.21-.6,.34-1.27-.41-1.55Z"/><path class="d" d="M169.04,73.99c-.38-3.17-.77-6.35-1.14-9.52-.51-4.28-1.02-8.57-1.5-12.85-.08-.7-.35-1.06-1.09-.98-.67,.08-1.33,.15-2,.18-.79,.04-1,.38-.93,1.18,.06,.76,.02,1.61-.27,2.3-1.8,4.27-3.68,8.5-5.53,12.75-.5,1.15-1.02,2.29-1.61,3.61-.21-.5-.33-.79-.44-1.08-2.09-5.49-4.16-11-6.28-16.48-1.13-2.93-.3-2.59-3.88-2.26-.77,.07-.98,.4-.72,1.16,.22,.65,.52,1.39,.41,2.02-1.07,6.1-2.23,12.19-3.35,18.29-.22,1.21-.42,2.42-.64,3.74,.69,0,1.19-.02,1.69,0,.86,.05,1.22-.28,1.32-1.19,.45-4.1,.99-8.18,1.49-12.27,.23-1.83,.45-3.66,.68-5.49l.23,.03c.07,.14,.15,.28,.2,.42,2.19,5.79,4.38,11.59,6.58,17.39,.22,.59,.34,1.22,1.25,1.16,.91-.06,1.67,.01,2.12-1.13,2.18-5.53,4.47-11.01,6.72-16.51,.16-.39,.34-.78,.57-1.31,.12,.26,.18,.34,.19,.42,.64,5.59,1.3,11.17,1.91,16.76,.2,1.81,.14,1.83,1.92,1.72,.45-.03,.89-.13,1.34-.13,.74,0,.95-.38,.86-1.04-.04-.28-.03-.58-.06-.86Z"/><path class="d" d="M16.74,64.03c-.82-.52-1.77-.83-2.75-1.27,.69-.42,1.3-.76,1.87-1.16,3.32-2.39,3.66-7.45-.1-9.4-.87-.45-1.84-.76-2.79-.96-2.94-.6-5.91-.46-8.87-.11-1.35,.16-2.7,.37-4.06,.56-.09,.79-.02,1.24,.9,1.23,1.3-.01,1.7,.45,1.71,1.76,.02,1.92,0,3.84,0,5.75,0,4.76,0,9.52,0,14.29,0,.54-.02,1.05,.74,1.07,2.59,.08,5.17,.25,7.76,.23,2.07-.02,4.05-.57,5.75-1.84,2.98-2.23,4.09-7.48-.13-10.14Zm-10.17-6.41h.01c0-1.24,.03-2.49-.01-3.73-.03-.91,.38-1.33,1.25-1.24,1.13,.12,2.3,.15,3.39,.47,2.11,.62,3.04,2.28,2.95,4.88-.07,2-1.24,3.49-3.27,3.94-1.14,.25-2.33,.29-3.5,.43-.62,.07-.85-.2-.83-.82,.03-1.31,.01-2.62,.01-3.93Zm8.45,12.39c-.24,2.28-1.64,3.8-3.98,4.07-1.25,.14-2.54,.03-3.8-.08-.24-.02-.62-.52-.63-.81-.07-1.43-.03-2.87-.03-4.31h0c0-1.37-.03-2.74,.02-4.11,0-.23,.35-.66,.51-.65,1.61,.14,3.27,.15,4.81,.59,2.24,.63,3.36,2.78,3.1,5.3Z"/><path class="d" d="M197.15,63.31c0-.43,0-.72,0-1-.17-5.57-3.13-9.65-8.05-10.97-2.97-.8-5.96-.65-8.88,.28-3.04,.97-5.32,2.85-6.67,5.78-1.38,2.98-1.52,6.11-1.06,9.29,.48,3.28,1.95,6.02,4.78,7.86,2.45,1.59,5.22,2.03,8.09,1.81,4.36-.34,7.99-1.98,10.2-5.97,1.24-2.23,1.68-4.67,1.6-7.07Zm-5.47,6.76c-2.29,5.38-9.06,6.09-12.62,1.43-2.77-3.62-3.17-11.1-1.02-15.12,2.6-4.85,9.67-4.74,12.52-.48,1.47,2.21,2.26,5,2.25,8.48,.09,.02,.19,.04,.28,.07-.46,1.88-.67,3.86-1.42,5.61Z"/><path class="d" d="M39.49,69.72c-.22-.05-.61,.19-.77,.42-.29,.41-.47,.9-.69,1.36-.76,1.62-2.02,2.4-3.8,2.39-1.76,0-3.52,0-5.27,.04-.86,.02-1.2-.31-1.18-1.19,.04-2.4,0-4.8,0-7.19,0-.4,0-.8,0-1.05,2.6,0,5.06,0,7.51,0,1.15,0,1.12-.02,1.18-1.48,.04-.94-.46-.95-1.14-.91-2.23,.12-4.47,.21-6.7,.32-.5,.03-.87,.03-.87-.65,.03-2.59,0-5.18,.05-7.77,0-.22,.38-.63,.58-.63,2.14-.02,4.28-.02,6.42,.06,1.02,.04,1.72,.65,2.09,1.59,.22,.56,.31,1.18,.57,1.72,.11,.23,.5,.4,.78,.46,.12,.02,.45-.34,.44-.53-.03-1.53-.1-3.07-.23-4.59-.02-.23-.43-.6-.65-.6-4.25,.03-8.5,.07-12.75,.21-1.32,.04-2.62,.37-3.99,.57,.08,.48,.14,.78,.21,1.16,.21,.02,.34,.03,.46,.03,1.72,.04,2.01,.33,2.02,2.03,0,2.33,0,4.67,0,7,0,4.03,0,8.06,0,12.09,0,1.18,.07,1.24,1.26,1.23,1.05,0,2.11-.02,3.17-.01,3.1,.02,6.2,.05,9.3,.06,.65,0,1.33,.02,1.51-.82,.33-1.53,.68-3.05,.95-4.59,.04-.22-.26-.67-.47-.71Z"/><path class="d" d="M118.92,52.88c1.94-.05,3.6,.56,4.62,2.33,.27,.46,.33,1.04,.61,1.49,.15,.25,.54,.41,.85,.47,.09,.02,.4-.43,.4-.66-.02-1.28-.12-2.56-.15-3.83-.02-.72-.3-1.13-1.04-1.23-1.46-.19-2.91-.4-4.47-.61-1.32,.19-2.73,.28-4.09,.61-4.44,1.08-6.63,5.72-4.6,9.67,.84,1.64,2.3,2.62,3.94,3.35,1.96,.86,3.96,1.64,5.88,2.57,1.29,.62,2.21,1.62,2.17,3.22-.04,2.03-1.25,3.49-3.36,3.98-1.83,.43-3.63,.39-5.33-.48-1.47-.75-2.24-2.03-2.55-3.63-.03-.16-.45-.4-.61-.36-.22,.07-.52,.38-.52,.58,.02,1.57,.06,3.14,.21,4.69,.03,.29,.55,.69,.9,.76,1.15,.25,2.33,.44,3.51,.53,2.77,.2,5.48-.05,8.04-1.31,4.32-2.12,4.86-8.7,.88-11.13-1.16-.71-2.43-1.26-3.67-1.83-1.59-.74-3.27-1.31-4.78-2.18-1.67-.96-2.08-2.88-1.23-4.62,.89-1.83,2.53-2.33,4.37-2.38Z"/><path class="d" d="M92.61,75.85c1.27,.15,2.53,.41,3.8,.49,2.68,.16,5.27-.15,7.74-1.36,3.86-1.9,4.99-8.17,.96-10.98-.78-.54-1.65-.98-2.52-1.37-1.92-.86-3.94-1.52-5.79-2.51-2.47-1.33-2.59-4.62-.36-6.32,2.69-2.05,7.08-.82,8.26,2.33,.13,.35,.22,.71,.32,1.05,1.1,0,1.11,0,1.09-.96-.01-.57-.04-1.15-.08-1.72-.22-2.96-.21-3.03-3.19-3.37-2.78-.32-5.55-.28-8.17,.97-4.36,2.08-4.74,8.47-1.36,10.84,1.44,1.02,3.11,1.72,4.7,2.51,1.34,.67,2.75,1.19,4.06,1.91,1.2,.66,1.81,1.74,1.7,3.19-.15,1.98-1.53,3.35-3.92,3.81-3.85,.73-6.34-.77-7.41-4.48-.01-.05-.09-.09-.19-.18-.25,.04-.56,.09-.72,.12,0,1.69,.02,3.28,0,4.87-.01,.77,.38,1.08,1.09,1.17Z"/><path class="d" d="M53.91,101.93c11.98,13.5,27.08,20.24,45.13,20.67,1.48-.1,3.01-.22,4.54-.29,5.3-.25,10.42-1.39,15.38-3.2,16.45-6.02,28.16-17.1,35.18-33.15,.47-1.08,.89-2.19,1.26-3.3,.08-.24-.16-.59-.26-.89-.24,.19-.52,.35-.72,.57-.14,.16-.17,.41-.25,.62-3.55,9.67-9.23,17.88-17.1,24.53-10.19,8.61-21.99,13.26-35.3,13.93-9.46,.48-18.55-1.27-27.14-5.29-14.03-6.57-24.04-17.02-29.97-31.35-.3-.73-.52-1.51-.88-2.21-.17-.33-.57-.53-.87-.79-.05,.37-.11,.73-.14,1.1,0,.08,.08,.17,.11,.26,2.5,6.95,6.13,13.26,11.03,18.78Z"/><path class="d" d="M153.42,40.83c.37,.91,.67,1.86,1.07,2.76,.09,.21,.47,.29,.72,.43,.09-.24,.22-.48,.25-.72,.02-.17-.1-.36-.17-.54-3.48-9.77-9.12-18.11-16.96-24.87-11.26-9.72-24.39-14.59-39.27-14.7-5.76-.07-11.38,.78-16.89,2.4-8.87,2.62-16.72,7.06-23.54,13.3-5.75,5.26-10.29,11.42-13.6,18.48-.88,1.87-1.6,3.82-2.34,5.75-.09,.23,.15,.58,.24,.88,.23-.16,.49-.29,.7-.48,.11-.1,.14-.28,.19-.43,3.18-8.87,8.2-16.56,15.1-22.97,9.51-8.83,20.71-14.02,33.63-15.5,5.66-.65,11.29-.46,16.9,.54,7.03,1.26,13.63,3.71,19.75,7.41,11.18,6.76,19.27,16.18,24.24,28.27Z"/><path class="d" d="M59.35,69.66c-.26-.03-.68,.1-.82,.31-.32,.47-.51,1.02-.77,1.54-.81,1.62-2.1,2.42-3.93,2.39-1.37-.02-2.75,.02-4.13,.02-1.54,0-1.56-.01-1.56-1.56,0-6.69,0-13.37,0-20.06,0-1.2-.15-1.36-1.34-1.24-1.43,.14-2.85,.39-4.28,.52-.91,.08-1.2,.44-.82,1.35,.25,.02,.53,.04,.81,.05,1.2,.06,1.57,.42,1.61,1.65,.02,.7,.02,1.41,.02,2.11,0,5.95,0,11.9,0,17.85,0,.74,.1,1.2,1.02,1.2,4.06,0,8.12,.03,12.19,.07,.77,0,1.31-.26,1.48-1.05,.32-1.5,.64-3,.91-4.51,.04-.2-.23-.63-.39-.65Z"/><path class="d" d="M89.46,28.55c-.23-.15-.78,.01-1.08,.2-.25,.16-.35,.56-.52,.86,.33,.15,.65,.31,.98,.45,.11,.05,.25,.06,.37,.08,.71,.15,.88,.46,.47,1.14-.59,.98-1.11,2.01-1.59,3.05-.66,1.46-1.3,2.98-.95,4.61,.37,1.74,.86,3.46,1.47,5.13,.88,2.41,4.52,4.85,7.3,4.89,.28-.07,.81-.18,1.33-.33,1.43-.4,2.01-1.11,1.63-2.52-.4-1.49-.88-3.04-1.72-4.3-2.46-3.71-4.61-7.55-6.09-11.77-.22-.62-.99-1.09-1.6-1.49Z"/><path class="d" d="M66.18,51.05c-1.49,.2-2.98,.36-4.47,.56-.45,.06-1,0-.96,.76,.05,.76,.58,.61,1.04,.62,1.04,.03,1.44,.39,1.55,1.42,.04,.41,.05,.83,.05,1.24,0,6.33,.02,12.67,0,19,0,.79,.2,1.17,1.06,1.16,4.06-.01,8.12,.01,12.18,.04,.8,0,1.28-.33,1.44-1.1,.31-1.47,.62-2.94,.88-4.41,.04-.22-.21-.7-.31-.7-.31,.02-.73,.12-.91,.35-.31,.39-.46,.91-.68,1.37-.79,1.66-2.09,2.53-3.95,2.52-1.44,0-2.88,.02-4.32,.02-1.36,0-1.43-.06-1.43-1.39,0-3.36,0-6.72,0-10.08,0-3.42-.01-6.84,0-10.27,0-.86-.29-1.25-1.19-1.13Z"/><path class="d" d="M110.14,100.28c.21-.21,.28-.76,.16-1.04-.14-.34-.54-.6-.87-.82-1.98-1.29-4.01-2.5-5.94-3.84-4.04-2.81-7.38-6.24-9.58-10.74-2.6-5.3-4.34-10.84-4.82-16.71-.49-6.05,.9-11.78,3.58-17.21,.1-.21,.16-.44,.27-.73-.46-.06-.8-.11-1.17-.16-1.75,3.78-3.1,7.64-3.73,11.73-.62,4.05-.53,8.08,.21,12.11,.65,3.59,1.56,7.11,3.11,10.41,3.2,6.84,8.34,11.93,14.67,15.89,.94,.59,1.99,1.01,3.03,1.39,.3,.11,.86-.04,1.1-.28Z"/><path class="d" d="M114.78,36.76c-.11-.88-.39-1.04-1.21-.71-1.03,.42-2.07,.83-3.1,1.25-.49,.2-.84,.21-1.2-.33-.22-.33-.75-.6-1.16-.64-1.18-.11-1.67,.33-2.21,1.67-.82,2.04-1.65,4.07-2.51,6.09-1.01,2.37-2.87,3.85-5.28,4.8,.64,.63,1.38,.95,2.24,.85,1.35-.16,2.74-.24,4.04-.63,1.16-.35,2.45-.83,3.26-1.65,2.12-2.15,4.06-4.49,5.97-6.83,.88-1.08,1.33-2.4,1.15-3.85Z"/><path class="d" d="M80.09,51.68q-.14,1.25,.89,1.3c1.14,.06,1.55,.44,1.63,1.57,.04,.67,.02,1.34,.02,2.01,0,6.14,.01,12.27-.02,18.41,0,.84,.27,1.19,1.1,1.09,.51-.06,1.02-.09,1.52-.15,1.33-.16,1.33-.17,1.33-1.53,0-2.43,0-4.86,0-7.29,0-4.95,0-9.91,.01-14.86,0-.6,.02-1.25-.84-1.17-1.9,.18-3.79,.42-5.64,.63Z"/><path class="d" d="M135.74,63.54c0-3.74,0-7.48,0-11.22,0-1.23-.12-1.37-1.31-1.25-1.49,.15-2.98,.36-4.47,.56-.39,.05-.88,.03-.82,.68,.05,.58,.38,.7,.91,.69,1.31,0,1.72,.41,1.74,1.71,.02,1.66,.01,3.32,.01,4.99,0,5.05,0,10.1,0,15.15,0,1.16,.09,1.25,1.27,1.2,.54-.02,1.08-.14,1.62-.15,.83-.02,1.06-.44,1.06-1.23-.03-3.71-.01-7.42-.01-11.12h0Z"/><path class="d" d="M106.38,32.83c-.86-.43-1.39-.05-1.71,.89-.51,1.49-1,1.89-2.68,1.91-1.53,.02-3.07-.15-4.6-.12-.95,.02-1.9,.27-3.03,.44,2.04,3.75,5.29,6.63,5.43,11.28,1.41-1.26,2.26-2.57,2.89-4,.79-1.77,1.49-3.59,2.23-5.38,.54-1.32,1.21-2.48,2.9-2.49,.62,0,.83-.47,.44-.91-.55-.62-1.15-1.27-1.87-1.63Z"/><path class="d" d="M89.97,26.63c-1.29-.62-2.57-1.28-3.88-1.84-1.08-.46-1.5-.15-1.69,.99-.42,2.55-.82,5.1-1.3,7.63-.48,2.48-.6,4.86,1.02,7.05,.83,1.13,1.47,2.4,2.35,3.49,1.04,1.28,2.21,2.46,3.38,3.63,.32,.32,.82,.46,1.23,.68-5.2-5.26-6.34-10.92-2.09-17.39-.64-.15-1.16-.28-1.67-.4-.62-.15-.81-.53-.47-1.06,.98-1.54,1.55-2.16,3.57-1.18,.39-.74,.29-1.26-.44-1.61Z"/><path class="d" d="M96.53,85.58c.24,.25,.4,.35,.57,.42,3.04,1.21,6.95,.74,8.92-3.51,.7-1.5,1.72-2.85,2.59-4.27-5.55-1.54-11.15,1.18-11.88,6.41,3.16-.17,5.07-2.68,7.58-4.08-2.26,2.17-4.25,4.75-7.79,5.03Z"/><path class="d" d="M94.48,89.99c-.41-.33-.74-.51-1.09-.62-3-.9-6.39-.23-8.16,3.45-.78,1.62-1.44,3.35-3.11,4.39,4.63,2.32,11.89-1.37,12.27-6.21-3.12,.09-5.01,2.52-7.43,3.92,2.15-2.16,4.1-4.61,7.52-4.93Z"/><path class="d" d="M115.33,18.74c-.74,1.54-1.46,3.09-2.18,4.61,1.52,.97,1.69,.92,2.37-.5,1.23-2.59,2.47-5.19,3.73-7.77,.12-.25,.4-.58,.62-.59,1.19-.02,2.4,1.62,2.16,2.79-.31,1.48-1.69,2.56-3.43,1.88-.21-.08-.5,.04-.75,.07,.14,.21,.24,.51,.44,.61,1.06,.57,1.38,1.39,1.13,2.56-.21,.96-.37,1.95-.41,2.93-.06,1.21,1.33,2.07,2.25,1.68-.09-.81-.3-1.57-.24-2.3,.12-1.5,.74-3.01-.46-4.43,.24-.06,.35-.1,.47-.11,1.74-.17,2.67-.87,3.03-2.28,.3-1.18-.16-2.3-1.66-3.13-1.55-.86-3.24-1.46-4.88-2.16-.19-.08-.44-.01-.66-.01-.11,.06-.23,.12-.34,.18,1.84,.79,.81,1.74,.44,2.59-.49,1.14-1.08,2.24-1.62,3.36Z"/><path class="d" d="M92.02,117.82c.92,.16,1.09-.36,1.22-1.04,.6-3.17,1.2-6.33,1.83-9.5,.1-.5,.19-.92-.49-.95-.55-.02-1.23-.37-1.4,.62-.22,1.31-.53,2.61-.82,4.03-1.85-.36-3.62-.71-5.46-1.07,.03-.41,.03-.75,.1-1.09,.2-1.03,.46-2.06,.62-3.1,.05-.28-.1-.84-.23-.87-.81-.14-1.64-.18-2.47-.22-.11,0-.29,.16-.31,.27-.02,.1,.12,.32,.22,.34,.96,.19,.77,.87,.65,1.5-.56,2.85-1.11,5.7-1.71,8.54-.15,.71,.01,.97,.74,1.06,.74,.09,1.1-.07,1.23-.88,.23-1.53,.58-3.05,.89-4.62,1.91,.36,3.69,.69,5.57,1.04-.33,1.71-.59,3.28-.96,4.83-.19,.77,.03,.99,.77,1.12Z"/><path class="d" d="M80.65,31.25c-.99,.99-2.07,1.9-3.06,2.88-.97,.96-.9,1.68,.16,2.56,.17,.14,.37,.25,.55,.38,1.12,.87,1.89,1.85,1.91,3.43,.02,2.5,3.25,4.82,5.83,4.34-1.07-1.61-2.19-3.19-3.2-4.83-.72-1.17-1.32-2.42-1.04-3.88,.2-1.03,.42-2.06,.64-3.08,.34-1.54,.7-3.08,1.05-4.63l-.19-.04c-.88,.96-1.73,1.95-2.65,2.87Z"/><path class="d" d="M142.29,91.23c-1.23-.75-2.4-.39-3.54,.22-.87,.47-1.71,.99-2.59,1.45-.7,.36-1.39,.22-1.94-.32-.55-.54-.66-1.2-.42-1.94,.45-1.36,1.54-2.02,2.97-1.8,.28,.04,.58-.02,1.03-.04-1.82-1.92-2.45-1.91-3.9-.14-.24,.3-.48,.6-.69,.92-1.17,1.84-1.07,3.58,.26,4.78,1.14,1.03,2.35,1.11,3.99,.27,1.02-.52,2.01-1.13,3.06-1.56,.94-.38,1.98,.27,2.01,1.28,.02,.68-.18,1.48-.55,2.05-.85,1.31-2.12,1.66-3.63,.92l-.19,.38c.54,.42,1.09,.82,1.62,1.26,.45,.37,.88,.42,1.24-.06,.89-1.19,1.93-2.31,2.57-3.62,.78-1.58,.13-3.18-1.31-4.06Z"/><path class="d" d="M101.16,11.41c.12,.26,.31,.49,.47,.74l.27-.11c0-.72,.05-1.44-.03-2.15-.02-.21-.4-.53-.63-.55-1.17-.1-2.36-.27-3.51-.13-1.75,.21-2.85,1.41-2.96,2.9-.11,1.54,.53,2.59,2.06,3.33,1,.49,2.07,.86,3.01,1.44,1.29,.79,1.1,2.39-.27,3.03-1.69,.78-3.39,.13-4.09-1.55-.07-.16-.18-.31-.27-.46-.14,.01-.28,.02-.42,.03,.05,.88,.09,1.77,.18,2.65,.01,.11,.28,.25,.45,.29,1.67,.36,3.35,.52,4.99-.14,1.29-.52,2.08-1.43,2.1-2.89,.02-1.51-.55-2.41-1.98-3.06-1.01-.46-2.06-.85-3.03-1.4-1.12-.62-1.2-2-.26-2.82,1.16-1.01,3.29-.53,3.92,.87Z"/><path class="d" d="M72.08,100.71c.09,.02,.19,.04,.28,.06,.42-.55,.88-1.08,1.23-1.68,.12-.2,.07-.7-.09-.84-1.09-.91-2.14-1.95-3.39-2.57-1.72-.86-3.71,.22-4.25,2.07-.31,1.06,.09,2.01,.55,2.93,.46,.91,1,1.79,1.34,2.75,.37,1.03-.37,2.01-1.45,2.12-1.8,.19-3.53-1.87-3.03-3.6,.07-.26,.05-.54,.08-.81l-.3-.12c-.48,.66-.98,1.3-1.4,1.99-.1,.16,.03,.6,.2,.74,1.06,.91,2.08,1.91,3.26,2.62,1.33,.81,2.86,.54,3.84-.36,1.23-1.14,1.41-2.41,.55-4.09-.48-.94-1.01-1.85-1.46-2.8-.33-.7-.23-1.52,.4-1.91,.53-.33,1.35-.5,1.94-.34,1.42,.38,2.02,1.65,1.71,3.08-.05,.24,0,.5,0,.75Z"/><path class="d" d="M104.46,20.17c-.17,.71-.06,1.05,.73,1.19,1.38,.25,2.74,.61,4.11,.92,2.13,.48,2.16,.47,2.9-1.56,.09-.23,.02-.52,.02-.78-.25,.13-.59,.2-.73,.4-.64,.94-1.5,1.11-2.53,.88-.62-.14-1.27-.22-1.87-.43-.25-.09-.61-.48-.57-.68,.21-1.28,.52-2.54,.81-3.9,1.09,.27,2.04,.52,3,.75,.44,.1,.99,.37,1.13-.39,.14-.72-.45-.63-.86-.71-.99-.19-1.98-.36-3.06-.55,.31-1.45,.59-2.75,.9-4.18,1.22,.32,2.41,.44,3.38,.96,.52,.28,.66,1.24,.98,1.9l.25,.06c.15-.69,.28-1.38,.44-2.07,.12-.5-.09-.68-.56-.77-1.6-.33-3.18-.72-4.78-1.03-.72-.14-1.46-.17-2.19-.22-.16,0-.32,.13-.49,.2,.07,.15,.12,.39,.23,.42,.85,.24,.72,.83,.58,1.45-.61,2.71-1.19,5.42-1.83,8.12Z"/><path class="d" d="M54.46,95.44c.86,.99,1.64,2.04,2.44,3.07,1.55,2.03,1.13,1.72,3.26,.71,.23-.11,.36-.43,.53-.65-.26-.03-.52-.06-.78-.1-.64-.08-1.45,.05-1.87-.3-.86-.72-1.52-1.69-2.34-2.66,1.24-.99,2.37-1.89,3.56-2.84,.84,1.11,1.62,2.14,2.39,3.15,1.04-.52,1.07-.62,.4-1.38-.65-.74-1.31-1.47-2.09-2.34,.65-.51,1.2-.94,1.74-1.37,1.63-1.3,1.6-1.28,2.89,.3,.74,.9,1.31,1.76,.38,2.86-.09,.1-.03,.33-.04,.5,.19-.04,.42-.02,.57-.13,.39-.28,.73-.62,1.11-.91,.51-.38,.48-.72,.08-1.18-.63-.72-1.17-1.52-1.8-2.24-.9-1.03-1.85-2.02-2.8-3.01-.1-.11-.32-.11-.49-.16-.03,.16-.15,.39-.08,.47,.55,.72,.05,1.1-.45,1.49-2.15,1.7-4.28,3.44-6.47,5.09-.76,.57-.71,.95-.15,1.59Z"/><path class="d" d="M93.83,35.03c.08,.17,.53,.26,.8,.24,.79-.07,1.57-.29,2.36-.31,1.72-.04,3.45,.05,5.17,0,1.26-.04,1.75-.5,2.07-1.72,.49-1.85,.06-2.3-1.79-1.91-2.66,.55-5.22,.27-7.58-1.12-1.17-.69-2.27-1.51-3.52-2.35,.21,2.69,1.4,4.92,2.49,7.17Zm8.04-2.46c-3.24,2.15-7.42,2.03-7.95-1.02,2.5,1.58,5.16,1.52,7.95,1.02Z"/><path class="d" d="M98.61,109.92c.14,2.43,.29,4.85,.39,7.28,.03,.7,.27,.93,.99,.87,1.81-.15,3.64-.21,5.45-.34,.28-.02,.75-.18,.79-.36,.21-.83,.3-1.7,.46-2.77-.98,.89-1.61,1.83-2.48,2.17-.95,.37-2.11,.19-3.25,.25-.09-1.58-.17-3-.26-4.58,1.18,0,2.2,.01,3.21,0,.39,0,.88,.09,.88-.58,0-.73-.51-.61-.95-.57-1.04,.1-2.07,.22-3.2,.34-.04-.64-.09-1.17-.1-1.71-.02-.82-.34-1.99,.06-2.37,.5-.47,1.61-.28,2.46-.35,.86-.08,1.5,.19,1.77,1.1,.07,.24,.26,.45,.4,.67l.37-.11c-.05-.68-.11-1.36-.15-2.04-.03-.53-.31-.69-.83-.65-1.69,.14-3.38,.21-5.07,.38-.81,.08-1.6,.32-2.4,.49l-.12,.31c1.86,.15,1.5,1.47,1.56,2.56Z"/><path class="d" d="M84.26,17.85c-.3,1.78-.59,3.56-.88,5.36,.94,.13,1.32-.21,1.39-1,.1-1.02,.23-2.03,.41-3.03,.05-.25,.26-.6,.49-.68,3.39-1.33,3.51-1.29,5.5,1.73,.89,1.35,1.08,1.39,2.59,.46-.13-.24-.22-.44-.34-.62-2.01-2.95-4.03-5.91-6.04-8.86-.78-1.14-1.18-1.19-2.23-.39,0,.65,.07,1.22-.01,1.76-.26,1.76-.59,3.52-.88,5.28Zm1.74-5.27c1,1.48,1.85,2.74,2.81,4.16-1.25,.29-2.28,.54-3.46,.81,.21-1.66,.41-3.15,.64-4.97Z"/><path class="d" d="M124.67,99.71c-.69,2.96,1.48,6.26,4.54,7.03,2.97,.74,7.12-1.58,7.86-4.42,.04-.16-.06-.4-.18-.53-.05-.06-.36,.02-.46,.13-.22,.23-.36,.52-.55,.78-1.54,2.08-3.89,2.95-5.94,2.2-2.23-.82-4-3.33-3.87-5.52,.14-2.49,2.86-4.19,5.15-3.24,.15,.06,.35,0,.81,0-.63-.73-1.11-1.3-1.62-1.83-.12-.13-.44-.22-.58-.15-2.4,1.22-4.49,2.75-5.15,5.56Z"/><path class="d" d="M74.01,112.14c.52,.18,1.09,.72,1.52-.19,.47-1.01,.99-2,1.49-3,.97-1.93,1.95-3.86,2.97-5.89,.81,.45,1.73,.7,2.18,1.3,.43,.57,.36,1.52,.51,2.3,.08,.02,.15,.05,.23,.07,.39-.84,.78-1.67,1.14-2.47-.12-.14-.15-.2-.21-.23-2.78-1.42-5.57-2.85-8.37-4.23-.18-.09-.63,.06-.76,.24-.39,.54-.7,1.14-1.01,1.73-.06,.11,.05,.32,.11,.62,.32-.26,.55-.41,.73-.62,.62-.72,1.32-.81,2.13-.34,.25,.14,.5,.29,.77,.37,.73,.23,.71,.62,.4,1.23-1.37,2.67-2.7,5.36-4.05,8.04-.22,.43-.45,.85,.21,1.07Z"/><path class="d" d="M116.66,105.74c.09,.11,.24,.18,.36,.27,.12-.05,.24-.09,.36-.14-.28-.81-.54-1.63-.86-2.42-.05-.11-.45-.16-.65-.1-.96,.26-1.9,.56-2.85,.85-2.07,.62-4.14,1.24-6.28,1.88,.25,1,.16,2.01,.82,2.76,.35-.82,.49-1.74,1.02-2.21,.56-.5,1.49-.57,2.32-.86,.96,3.21,1.87,6.26,2.78,9.32,.15,.52,.2,1.11,1.05,.79,.72-.27,1.11-.51,.81-1.43-.92-2.82-1.74-5.67-2.57-8.52-.07-.23,0-.68,.16-.78,1.33-.85,2.55-.61,3.54,.6Z"/><path class="d" d="M82.03,20.71c-.05,.34-.13,.68-.13,1.03,0,.8-.3,1.44-.99,1.85-.52,.31-1.08,.55-1.61,.86-.7,.4-1.08,.29-1.46-.5-1.27-2.68-2.62-5.33-3.97-7.98-.12-.24-.54-.59-.62-.54-.83,.46-1.62,.99-2.53,1.57,.32,.22,.42,.33,.46,.31,1.09-.48,1.35,.3,1.72,1.05,1.22,2.5,2.49,4.97,3.71,7.46,.27,.56,.55,.77,1.18,.44,1.53-.8,3.09-1.53,4.63-2.31,.26-.13,.65-.44,.62-.61-.14-.9-.38-1.79-.59-2.68l-.42,.06Z"/><path class="d" d="M120.3,101.76c-.14-.27-.64-.63-.78-.56-.7,.36-1.35,.84-2,1.3-.1,.07-.18,.29-.14,.4,.04,.1,.28,.23,.36,.2,1.05-.48,1.26,.36,1.59,.99,1.33,2.54,2.65,5.09,3.99,7.63,.12,.23,.3,.42,.4,.55,1.01-.07,1.53-.94,1.16-1.68-.28-.57-.58-1.13-.88-1.7-1.23-2.38-2.45-4.76-3.71-7.12Z"/><path class="d" d="M98.38,29.73c-.67,.08-.73,.55-.41,.95,.65,.79,1.62,.78,2.48,.58,.42-.1,.91-.62,1.04-1.05,.26-.85-.26-1.52-1.01-1.84-1.13-.48-2.3-.91-3.49-1.21-1.19-.3-1.94,.22-2.19,1.4-.07,.35,.03,.94,.26,1.1,.51,.34,1.16,.46,1.75,.67,.1-.37,.2-.75,.31-1.12,.02-.06,.07-.1,.21-.3,.55,.16,1.15,.33,1.75,.5l-.05,.31c-.22,0-.44-.02-.66,0Z"/><path class="d" d="M92.74,28.23c1.07,1.01,1.4,.93,1.89-.47,.43-1.22,.7-1.37,1.99-1.21,.64,.08,1.29,.11,1.94,.16,.07-.13,.14-.26,.2-.38-.42-.36-.78-.84-1.26-1.06-1.37-.62-2.79-.56-4.18,0-1.9,.78-2.05,1.56-.57,2.94Z"/><path class="d" d="M100.15,27.41c.94,1.04,2.91,1.6,1.69,3.61,1.27,.32,2.66-.41,3.7,.79-.08-1.94-1.58-2.84-2.86-3.86-1.28-1.01-1.81-1.08-2.53-.55Z"/><path class="d" d="M87.12,7.05l-.24-.33c-.43,.21-1.16,.35-1.22,.64-.17,.8-.06,1.66-.06,2.49,.09,.03,.17,.06,.26,.1,.82-.77,.8-1.95,1.26-2.89Z"/></g></g></g></svg>