<?xml version="1.0" encoding="UTF-8"?><svg xmlns="http://www.w3.org/2000/svg" viewBox="0 0 107.13 121.51"><defs><style>.d{fill:#fff;}</style></defs><g id="a"/><g id="b"><g id="c"><path class="d" d="M0,0V121.51H107.13V0H0ZM105.08,2.05V88.97c-13.76-8.35-29.42-12.4-48.11-12.73-.8-1.71-1.61-3.76-1.61-6.28,0-2.06,.37-3.94,1.15-5.32,3.41,1.43,10.25,3.57,16.6,3.57,14.08,0,26.86-8.06,26.86-17.44,0-4.79-2.1-8.56-5.48-11.33-1.65-10.13-9.9-16.91-19.27-18.96-3.35-4.2-12.06-9.75-23.36-9.75-19.29,0-29.78,9.59-33.56,20.06-4.32,2.17-11.63,7.52-11.63,17.55,0,10.28,8.2,17.58,18.37,17.58,3.97,0,7.53-.86,10.55-2.17,3.18,1.99,7.29,3.62,12.53,4.59-.21,3.39-.94,6.18-1.96,8.14-16.17,1.05-32.9,5.09-44.11,12.06V2.05H105.08ZM39.53,47.02c-1.66,5.82,1.73,12.01,8.1,16.12,2.14,1.38,1.26,2.22-.78,1.89-9.07-1.46-20.01-8.31-20.1-18.61-.01-1.34-.64-.79-.72-.17-.58,4.58,1.1,11.16,7.55,16.13-2.28,.65-4.83,1.09-7.51,1.09-10.72,0-16.93-6.76-16.93-15.94,0-7.36,5.09-12.54,8.44-14.42-.62,2.32-.91,4.67-.91,6.93,0,2.62,.75,5.42,1.6,7.13,.51,1.03,.86,.31,.71-.21-.36-1.21-.95-3.86-.95-6.39,0-13.63,11.46-27.51,33.8-27.51,9.62,0,16.84,3.82,20.39,6.95-1-.11-2.01-.17-3.01-.17-13.03,0-20.64,6.75-24.67,12.7-.47,.7-.14,1.32,.37,.69,4.46-5.52,12.17-11.14,24.84-11.14,10.98,0,19.33,6.5,21.52,15.21-4.65-2.52-10.71-3.75-16.96-3.75-8.05,0-13.98,2.36-17.33,4.67-.66,.46-.15,.97,.45,.67,3.98-1.98,8.76-3.37,15.21-3.37,7.5,0,24.93,3.41,24.93,15.23,0,9.34-11.34,15.37-24.69,15.37-5,0-10.41-1.34-14.83-3.14,.52-.34,1.1-.56,1.78-.63,7-.78,10.08-2.27,11.59-6.19,.19-.5-.16-.59-.36-.28-1.06,1.7-4.02,4.75-9.63,4.75-1.23,0-4.15-.33-3.15-2.04,4.27-7.29,8.22-8.23,15.23-8.39,.64-.01,.64-.36,.1-.51-1.93-.55-6.6-.6-9.28,.44-1.67,.65-1.93,.84-1.74-.97,.14-1.38,.46-6.19,.38-7.04-.08-.85-.71-.75-.79-.17-1.37,10.51-7.75,19.14-11.18,19.14-6.2,0-11.57-9.92-10.89-13.75,.15-.86-.35-.97-.54-.29ZM2.05,119.46v-29.83c12.63-7.52,33.83-10.89,52.35-10.89,17.24,0,38.65,4.06,50.68,11.31v29.41H2.05Zm43.01-9.49c.13-.63,.18-.81,.3-1.33l-.84,.16-.03,.13c.14,.02,.31,.02,.31,.17,0,.07-.05,.36-.1,.56,0,0-.03,.13-.09,.45-.47,.02-.75,.12-1.02,.38-.41,.38-.66,.93-.66,1.4,0,.32,.24,.59,.51,.59,.14,0,.33-.07,.46-.19,.13-.09,.16-.14,.31-.32l-.1,.49,.81-.13,.03-.13c-.24-.04-.31-.08-.31-.16,0-.07,0-.14,.12-.68l.29-1.38Zm-.77,1.7c-.18,.24-.44,.42-.62,.42s-.31-.16-.31-.39c0-.4,.22-.9,.51-1.13,.13-.1,.31-.17,.49-.17,.07,0,.11,0,.19,.02l-.26,1.25Zm2.31-.58c.29-.15,.46-.39,.46-.63,0-.22-.19-.38-.45-.38-.44,0-.89,.37-1.12,.92-.09,.2-.13,.42-.13,.62,0,.52,.25,.85,.66,.85,.36,0,.73-.27,.97-.72l-.09-.08c-.26,.29-.47,.42-.66,.42-.26,0-.47-.25-.47-.57,0-.04,0-.1,.02-.18,.44-.09,.59-.14,.82-.26Zm-.49-.51c.11-.14,.23-.21,.34-.21s.19,.08,.19,.18c0,.14-.08,.28-.24,.39-.16,.11-.28,.15-.58,.21,.09-.3,.15-.42,.29-.58Zm2.69-.44c.06,0,.1,0,.18-.01l-.12,.55h-.12c-.06-.24-.21-.37-.42-.37-.17,0-.32,.13-.32,.28,0,.13,.06,.23,.38,.55,.28,.28,.37,.45,.37,.68,0,.38-.32,.68-.73,.68-.26,0-.38-.1-.58-.1-.07,0-.14,.01-.2,.04l.15-.68h.12c0,.28,.15,.5,.45,.5,.2,0,.36-.13,.36-.31,0-.13-.06-.23-.33-.54-.15-.18-.41-.42-.41-.68,0-.16,.09-.34,.23-.48,.13-.12,.3-.2,.45-.2,.17,0,.35,.07,.53,.07Zm2.59-.17c.13-.63,.18-.81,.3-1.33l-.84,.16-.03,.13c.14,.02,.3,.02,.3,.17,0,.07-.05,.36-.1,.56,0,0-.03,.13-.1,.45-.47,.02-.75,.12-1.02,.38-.41,.38-.66,.93-.66,1.4,0,.32,.24,.59,.51,.59,.14,0,.33-.07,.46-.19,.13-.09,.16-.14,.31-.32l-.1,.49,.82-.13,.02-.13c-.24-.04-.31-.08-.31-.16,0-.07,0-.14,.12-.68l.3-1.38Zm-.78,1.7c-.18,.24-.43,.42-.62,.42s-.31-.16-.31-.39c0-.4,.22-.9,.51-1.13,.13-.1,.31-.17,.49-.17,.08,0,.11,0,.19,.02l-.26,1.25Zm2.32-.58c.28-.15,.45-.39,.45-.63,0-.22-.19-.38-.44-.38-.44,0-.89,.37-1.13,.92-.08,.2-.13,.42-.13,.62,0,.52,.26,.85,.66,.85,.36,0,.73-.27,.97-.72l-.09-.08c-.26,.29-.47,.42-.66,.42-.26,0-.47-.25-.47-.57,0-.04,0-.1,.02-.18,.44-.09,.59-.14,.82-.26Zm-.5-.51c.12-.14,.23-.21,.34-.21,.11,0,.19,.08,.19,.18,0,.14-.08,.28-.24,.39-.16,.11-.28,.15-.58,.21,.09-.3,.15-.42,.29-.58Zm3.61,1.61l-.03,.13-1.16,.21,.03-.14c.15-.03,.24-.09,.29-.16,.08-.13,.21-.76,.25-.96,.07-.29,.11-.55,.11-.63,0-.15-.07-.22-.2-.22-.02,0-.05,0-.1,0l.03-.14,.9-.21-.4,1.72c-.03,.11-.03,.17-.03,.21,0,.12,.1,.18,.31,.18Zm1.84-2.13c-.65,0-1.21,.55-1.21,1.19,0,.5,.34,.9,.78,.9,.19,0,.39-.07,.65-.23-.35,.88-1.04,1.33-1.97,1.41l.04,.19c1.48-.04,2.58-1.06,2.58-2.36,0-.68-.33-1.09-.88-1.09Zm.34,1.51c-.21,.17-.4,.26-.55,.26-.31,0-.54-.28-.54-.68,0-.46,.26-.78,.63-.78,.33,0,.53,.28,.53,.74,0,.18-.01,.26-.07,.46Zm3.14-1.51h-.24l-1.98,1.72-.06,.28h1.44l-.26,1.21h.42l.25-1.21h.64l.06-.28h-.63l.36-1.72Zm-.78,1.72h-1.08l1.33-1.15-.24,1.15Zm2.79-2.81c-.57,0-1.04,.41-1.04,.93,0,.23,.14,.5,.42,.84-.03,.03,.03-.02-.3,.27-.35,.31-.52,.59-.52,.86,0,.41,.34,.7,.81,.7,.6,0,1.12-.45,1.12-.96,0-.17-.08-.34-.28-.6-.11-.14-.21-.27-.32-.4,.24-.18,.49-.38,.66-.63,.08-.12,.12-.26,.12-.42,0-.36-.25-.58-.66-.58Zm.07,2.83c0,.25-.25,.48-.54,.48-.3,0-.5-.19-.5-.48,0-.36,.25-.64,.5-.88,.1,.14,.14,.19,.27,.35,.21,.25,.27,.38,.27,.53Zm.15-1.91c-.12,.24-.28,.37-.49,.54-.13-.2-.31-.42-.31-.66,0-.29,.22-.51,.51-.51,.23,0,.37,.13,.37,.34,0,.09-.02,.2-.07,.29Zm-40.65-20.14c-.11,2.6-.15,5.62-.15,7.71,0,2.3,.04,5.18,.15,7.92h-2.39c-2.36-4.35-6.47-9.21-9.4-11.37,0,0-.02,2.6-.02,3.46,0,2.3,.04,5.18,.15,7.92h-2.38c.11-2.73,.15-5.61,.15-7.92,0-2.09-.04-5.11-.15-7.71h2.38c2.87,2.15,7.06,6.56,9.41,10.29,0,0,.02-1.76,.02-2.58,0-2.09-.04-5.11-.15-7.71h2.38Zm7.94,0c-1.3,3.45-4.63,11.37-6.5,15.62h2.21c.21-.66,.32-1.09,.64-1.86,.7-1.76,3.12-2.79,6.14-2.83,.62,1.7,1.19,3.35,1.63,4.69h3.93c-2.36-5.37-4.55-10.72-6.29-15.62h-1.76Zm-2.59,10.84c.93-2.47,1.95-5.03,2.57-6.56,.51,1.3,1.27,3.26,2.02,5.3-1.78,.04-3.72,.56-4.59,1.26Zm16.39,4.79h-1.87c-1.79-4.86-3.87-10.25-6.24-15.62h3.93c1.06,3.3,3.08,8.67,4.14,11.35,1.05-2.6,3.21-8.08,4.27-11.35h2.21c-1.87,4.26-5.14,12.18-6.44,15.62Zm7.84,0c.12-2.73,.15-5.61,.15-7.92,0-2.09-.04-5.11-.15-7.71h3.72c-.12,2.6-.15,5.62-.15,7.71,0,2.3,.04,5.18,.15,7.92h-3.72Zm12.1-15.62h-5.54c.11,2.6,.15,5.62,.15,7.71,0,2.3-.03,5.18-.15,7.92h6.43c4.67,0,8.32-3.02,8.32-7.89,0-3.81-1.82-7.73-9.21-7.73Zm-.26,14.4c-.62,0-1.02,0-1.61-.05-.07-2.34-.09-4.7-.09-6.64,0-1.73,.02-4.11,.09-6.35,.53-.06,.93-.08,1.66-.08,3.95,0,5.8,2.49,5.8,6.49,0,3.69-1.64,6.63-5.86,6.63Zm25.16-6.69c0,2.3,.08,4.15,.19,6.88-1.59,.83-4.29,1.26-6.09,1.26-5.97,0-8.08-3.98-8.08-7.52,0-3.34,.81-5.86,1.91-8.33h3.33c-.95,2.83-1.53,5.73-1.53,7.95,0,5.11,2.93,6.44,5.08,6.44,.7,0,1.08-.04,1.98-.15,0-4.64-.08-9.65-.28-14.25h3.65c-.11,2.6-.15,5.62-.15,7.71Zm6.41,6.18c1.51,0,4.21-.06,5.63-.21l-.47,1.94h-8.83c.11-2.73,.15-5.61,.15-7.92,0-2.09-.04-5.11-.15-7.71h3.73c-.12,2.6-.16,5.62-.16,7.71,0,1.81,.04,3.99,.1,6.18Z"/></g></g></svg>