<?xml version="1.0" encoding="UTF-8"?><svg xmlns="http://www.w3.org/2000/svg" viewBox="0 0 738.32 207.75"><defs><style>.d,.e{fill:#fff;}.f{fill:#3c2415;}.f,.e{fill-rule:evenodd;}</style></defs><g id="a"/><g id="b"><g id="c"><g><g><rect class="d" x="427.84" y="61" width="21.1" height="18.04"/><rect class="d" x="688.02" y="180.58" width="3.38" height="2.89"/><path class="e" d="M212.83,112.02c7.32-.43,12.95-2.8,16.89-7.08,3.94-4.25,5.91-10.21,5.91-17.84,0-8.93-2.96-15.54-8.92-19.77-5.95-4.23-15.27-6.33-27.91-6.33h-42.02v105.99h38.96c8.32,0,14.41-.33,18.28-1,3.87-.65,7.41-1.7,10.63-3.18,4.47-2.15,7.99-5.43,10.52-9.86,2.52-4.43,3.8-9.48,3.8-15.21,0-8.16-2.06-14.24-6.18-18.29-4.1-4.03-10.75-6.51-19.94-7.43Zm-32.25-31.95h13.18c7.51,0,12.56,.83,15.17,2.5,2.59,1.65,3.89,4.58,3.89,8.78s-1.32,7.06-3.96,8.71c-2.66,1.68-7.69,2.5-15.1,2.5h-13.18v-22.49Zm30.74,64.96c-2.85,1.93-8.43,2.9-16.75,2.9h-14.59v-26.07h14.59c8.36,0,13.97,.95,16.79,2.85,2.83,1.9,4.24,5.3,4.24,10.18s-1.44,8.21-4.29,10.13Z"/><path class="e" d="M306.7,153.08v-3.53l.39-35.86v-.88c0-9.78-2.41-16.74-7.2-20.92-4.8-4.18-12.74-6.28-23.88-6.28-10.12,0-17.98,2.15-23.51,6.48-5.54,4.33-8.32,10.43-8.32,18.29v.3h20.64c.14-3.48,1.09-6.01,2.83-7.61,1.76-1.63,4.45-2.43,8.11-2.43s6.25,.85,7.85,2.53c1.6,1.68,2.39,4.48,2.39,8.38v3.45c-2.36,.58-5.74,1.38-10.15,2.35-9.27,2-15.64,3.73-19.13,5.2-4.98,2.1-8.8,5.18-11.47,9.26-2.66,4.1-3.98,8.86-3.98,14.26,0,7.06,2.18,12.71,6.53,17.01,4.35,4.3,10.17,6.46,17.42,6.46,4.77,0,9.01-.93,12.74-2.78,3.71-1.88,6.95-4.7,9.73-8.51v1.25c0,1.3,.09,2.6,.25,3.88,.19,1.25,.46,2.45,.81,3.58h20.04c-.72-1.13-1.25-2.75-1.6-4.88-.32-2.1-.49-5.13-.49-9.03Zm-20.71-19.29c0,6.11-1.39,10.88-4.17,14.31-2.76,3.43-6.58,5.13-11.47,5.13-2.9,0-5.19-.8-6.88-2.38-1.69-1.6-2.53-3.75-2.53-6.51,0-5.58,6.9-10.18,20.73-13.86,1.88-.5,3.31-.88,4.31-1.18v4.48Z"/><path class="e" d="M357.93,87.45c-3.61,.2-7.2,1.05-10.75,2.53-3.57,1.5-7.02,3.6-10.35,6.28v-8.06h-20.29v78.79h21.1v-43.84c0-5.28,1.25-9.06,3.73-11.34,2.5-2.25,6.67-3.4,12.56-3.4,1.04,0,1.85,.02,2.41,.05,.58,.02,1.11,.05,1.6,.1v-21.12Z"/><path class="e" d="M403.37,148.26c-2.55,1.98-5.65,2.98-9.27,2.98-4.89,0-8.78-2.13-11.7-6.38-2.92-4.25-4.38-9.98-4.38-17.21s1.51-13.09,4.52-17.27c3.01-4.18,7.16-6.28,12.44-6.28,3.17,0,5.91,.85,8.22,2.58,2.32,1.7,4.24,4.28,5.77,7.76l15.75-9.91c-3.31-6.41-7.44-11.14-12.39-14.24-4.96-3.1-10.89-4.65-17.81-4.65-11.68,0-20.94,3.85-27.8,11.58-6.86,7.71-10.28,18.22-10.28,31.5,0,12.56,3.24,22.54,9.73,29.93,6.51,7.38,15.27,11.06,26.32,11.06,7.09,0,13.46-1.83,19.11-5.45,5.63-3.63,10.19-8.88,13.67-15.71l-15.68-9.31c-1.57,4.05-3.66,7.06-6.21,9.03Z"/><rect class="d" x="427.84" y="88.2" width="21.1" height="78.79"/><path class="e" d="M524.61,147.35l-15.68-8.43c-1.95,4.73-4.33,8.31-7.18,10.71-2.85,2.38-6.16,3.58-9.92,3.58-4.98,0-8.83-1.78-11.56-5.3-2.73-3.55-4.19-8.63-4.38-15.29h48.99c0-.45,.02-1.1,.09-1.98,.07-.88,.12-1.53,.12-1.9,0-13.29-3.1-23.77-9.34-31.45-6.23-7.68-14.64-11.51-25.27-11.51s-19.32,3.98-25.9,11.91c-6.58,7.93-9.87,18.44-9.87,31.48s3.1,22.27,9.29,29.58c6.21,7.31,14.59,10.96,25.18,10.96,8.32,0,15.47-1.9,21.47-5.68,6-3.78,10.63-9.33,13.95-16.66Zm-44.06-40.66c2.41-2.75,5.61-4.13,9.59-4.13s7.25,1.4,9.71,4.18c2.43,2.78,3.94,6.76,4.47,11.94h-28.28c.58-5.23,2.08-9.21,4.52-11.99Z"/><path class="e" d="M573.08,86.35c-4.24,0-8.08,.75-11.49,2.28-3.43,1.53-6.49,3.8-9.2,6.91v-7.33h-21.1v78.79h21.1v-46.42c0-5.65,.9-9.66,2.69-11.99,1.81-2.33,4.82-3.48,9.06-3.48,3.59,0,6.23,1.25,7.88,3.73,1.67,2.5,2.5,6.41,2.5,11.74v46.42h21.1v-47.59c0-11.18-1.85-19.49-5.56-24.92-3.71-5.43-9.36-8.13-16.98-8.13Z"/><path class="e" d="M636.89,169.7c7.09,0,13.46-1.83,19.11-5.45,5.63-3.63,10.19-8.88,13.67-15.71l-15.68-9.31c-1.58,4.05-3.66,7.06-6.21,9.03-2.55,1.98-5.65,2.98-9.27,2.98-4.89,0-8.78-2.13-11.7-6.38-2.92-4.25-4.38-9.98-4.38-17.21s1.51-13.09,4.52-17.27c3.01-4.18,7.16-6.28,12.44-6.28,3.17,0,5.91,.85,8.22,2.58,2.32,1.7,4.24,4.28,5.77,7.76l15.75-9.91c-3.31-6.41-7.44-11.14-12.39-14.24-4.96-3.1-10.89-4.65-17.81-4.65-11.68,0-20.94,3.85-27.8,11.58-6.86,7.71-10.29,18.22-10.29,31.5,0,12.56,3.24,22.54,9.73,29.93,6.51,7.38,15.27,11.06,26.32,11.06Z"/><path class="e" d="M677.18,158.74c6.21,7.31,14.59,10.96,25.18,10.96,8.32,0,15.47-1.9,21.47-5.68,6-3.78,10.63-9.33,13.95-16.66l-15.68-8.43c-1.95,4.73-4.33,8.31-7.18,10.71-2.85,2.38-6.16,3.58-9.92,3.58-4.98,0-8.83-1.78-11.56-5.3-2.73-3.55-4.19-8.63-4.38-15.29h48.99c0-.45,.02-1.1,.09-1.98,.07-.88,.12-1.53,.12-1.9,0-13.29-3.1-23.77-9.34-31.45-6.23-7.68-14.64-11.51-25.27-11.51s-19.32,3.98-25.9,11.91c-6.58,7.93-9.87,18.44-9.87,31.48s3.1,22.27,9.29,29.58Zm16.54-52.05c2.41-2.75,5.61-4.13,9.59-4.13s7.25,1.4,9.71,4.18c2.43,2.78,3.94,6.76,4.47,11.94h-28.28c.58-5.23,2.09-9.21,4.52-11.99Z"/><polygon class="e" points="519.02 190.2 525.93 190.2 525.93 187.03 519.02 187.03 519.02 183.88 526.71 183.88 526.71 180.58 515.3 180.58 515.3 197.57 527.4 197.57 527.4 194.27 519.02 194.27 519.02 190.2"/><polygon class="e" points="538.52 184.94 534.91 184.94 533.26 188.43 531.7 184.94 527.92 184.94 531.34 190.88 527.51 197.57 531.04 197.57 533.08 193.41 535.02 197.57 538.78 197.57 535 190.96 538.52 184.94"/><path class="e" d="M546.48,194.57c-.41,.32-.91,.48-1.48,.48-.78,0-1.41-.34-1.88-1.02-.47-.68-.7-1.6-.7-2.76s.24-2.1,.72-2.77c.48-.67,1.15-1.01,1.99-1.01,.51,0,.95,.14,1.32,.41,.37,.27,.68,.69,.92,1.24l2.52-1.59c-.53-1.03-1.19-1.78-1.99-2.28-.79-.5-1.75-.75-2.86-.75-1.87,0-3.36,.62-4.46,1.86-1.1,1.24-1.65,2.92-1.65,5.05,0,2.01,.52,3.61,1.56,4.8,1.04,1.18,2.45,1.77,4.22,1.77,1.14,0,2.16-.29,3.06-.87,.9-.58,1.63-1.42,2.19-2.52l-2.51-1.49c-.25,.65-.59,1.13-1,1.45Z"/><path class="e" d="M564.55,184.64c-.68,0-1.32,.17-1.92,.5-.59,.34-1.15,.84-1.67,1.52-.33-.67-.76-1.18-1.28-1.52-.52-.34-1.13-.5-1.83-.5-.59,0-1.15,.12-1.68,.38-.53,.25-1.01,.61-1.44,1.1v-1.18h-3.38v12.63h3.38v-7.44c0-.86,.13-1.49,.4-1.88,.26-.4,.68-.59,1.26-.59s1,.2,1.27,.59c.26,.39,.4,1.02,.4,1.89v7.44h3.38v-7.44c0-.86,.13-1.49,.4-1.88,.26-.4,.68-.59,1.26-.59s1.01,.2,1.28,.59c.26,.39,.4,1.02,.4,1.89v7.44h3.38v-7.63c0-1.8-.29-3.13-.88-4-.59-.87-1.49-1.3-2.71-1.3Z"/><path class="e" d="M575.98,184.53c-1.8,0-3.26,.62-4.37,1.86-1.11,1.24-1.66,2.86-1.66,4.88s.55,3.65,1.66,4.88c1.11,1.23,2.57,1.84,4.38,1.84s3.27-.62,4.39-1.85c1.11-1.23,1.67-2.86,1.67-4.87s-.55-3.65-1.66-4.88c-1.11-1.23-2.57-1.85-4.4-1.85Zm1.88,9.47c-.47,.68-1.1,1.02-1.88,1.02s-1.41-.34-1.87-1.02c-.47-.68-.7-1.59-.7-2.74s.23-2.05,.71-2.74c.47-.69,1.09-1.03,1.87-1.03s1.42,.34,1.89,1.02c.47,.68,.7,1.6,.7,2.75s-.23,2.06-.7,2.74Z"/><rect class="d" x="584.33" y="193.39" width="3.51" height="4.18"/><path class="e" d="M601.61,180.58l-5.72,16.99h4.02l.85-2.67h5.73l.79,2.67h4.04l-5.72-16.99h-3.99Zm.04,11.19l1.96-6.73,1.97,6.73h-3.93Z"/><path class="e" d="M616.31,194.08l-1.96-9.14h-3.63l3.43,11.25c.16,.51,.27,.89,.33,1.14,.06,.25,.09,.45,.09,.6,0,.37-.12,.63-.36,.79-.25,.16-.66,.24-1.24,.24-.12,0-.28,0-.47-.02-.19-.01-.39-.03-.62-.06v2.99c.29,.05,.6,.08,.91,.1,.31,.02,.63,.04,.95,.04,1.15,0,2.02-.28,2.63-.83,.61-.55,1.14-1.62,1.62-3.21l3.87-13.04h-3.57l-1.98,9.14Z"/><path class="e" d="M629.89,192.38c0,.9-.14,1.54-.43,1.9-.29,.37-.78,.55-1.47,.55-.57,0-.99-.2-1.25-.59-.26-.39-.39-1.01-.39-1.87v-7.44h-3.38v7.62c0,1.79,.3,3.12,.89,3.99,.59,.87,1.5,1.3,2.73,1.3,.68,0,1.29-.12,1.83-.36,.54-.24,1.03-.61,1.48-1.11v1.18h3.38v-12.63h-3.38v7.44Z"/><path class="e" d="M642.54,184.64c-.68,0-1.3,.12-1.84,.36-.55,.24-1.04,.61-1.47,1.11v-1.18h-3.38v12.63h3.38v-7.44c0-.91,.15-1.55,.43-1.92,.29-.37,.77-.56,1.45-.56,.58,0,1,.2,1.26,.6,.27,.4,.4,1.03,.4,1.88v7.44h3.38v-7.63c0-1.79-.3-3.12-.89-3.99-.59-.87-1.5-1.3-2.72-1.3Z"/><path class="e" d="M652.48,181.31h-3.38v3.93h-1.7v2.31h1.7v5.45c0,1.97,.23,3.26,.71,3.87,.47,.62,1.34,.93,2.62,.93,.34,0,.68-.02,1.03-.06,.35-.04,.7-.1,1.05-.18v-2.87c-.2,.02-.38,.04-.53,.06-.15,.01-.28,.02-.38,.02-.43,0-.72-.1-.88-.32-.16-.21-.23-.65-.23-1.31v-5.59h2.02v-2.31h-2.02v-3.93Z"/><path class="e" d="M666.2,195.34v-.57l.06-5.75v-.14c0-1.57-.39-2.68-1.15-3.35-.77-.67-2.04-1.01-3.83-1.01-1.62,0-2.88,.34-3.77,1.04-.89,.69-1.33,1.67-1.33,2.93v.05h3.31c.02-.56,.17-.96,.45-1.22,.28-.26,.71-.39,1.3-.39s1,.14,1.26,.41c.26,.27,.38,.72,.38,1.34v.55c-.38,.09-.92,.22-1.63,.38-1.48,.32-2.51,.6-3.07,.83-.8,.34-1.41,.83-1.84,1.48-.43,.66-.64,1.42-.64,2.29,0,1.13,.35,2.04,1.05,2.73,.7,.69,1.63,1.03,2.79,1.03,.76,0,1.44-.15,2.04-.45,.59-.3,1.11-.75,1.56-1.36v.2c0,.21,.01,.42,.04,.62,.03,.2,.07,.39,.13,.57h3.21c-.11-.18-.2-.44-.26-.78-.05-.34-.08-.82-.08-1.45Zm-3.32-3.09c0,.98-.22,1.74-.67,2.29-.44,.55-1.05,.82-1.84,.82-.46,0-.83-.13-1.1-.38-.27-.26-.4-.6-.4-1.04,0-.89,1.11-1.63,3.32-2.22,.3-.08,.53-.14,.69-.19v.72Z"/><path class="e" d="M681.93,184.64c-.68,0-1.32,.17-1.92,.5-.59,.34-1.15,.84-1.67,1.52-.33-.67-.76-1.18-1.28-1.52-.52-.34-1.13-.5-1.83-.5-.59,0-1.15,.12-1.68,.38-.53,.25-1.01,.61-1.44,1.1v-1.18h-3.38v12.63h3.38v-7.44c0-.86,.13-1.49,.4-1.88,.26-.4,.68-.59,1.26-.59s1,.2,1.27,.59c.26,.39,.4,1.02,.4,1.89v7.44h3.38v-7.44c0-.86,.13-1.49,.4-1.88,.26-.4,.68-.59,1.26-.59s1.01,.2,1.28,.59c.26,.39,.4,1.02,.4,1.89v7.44h3.38v-7.63c0-1.8-.29-3.13-.88-4-.59-.87-1.49-1.3-2.71-1.3Z"/><rect class="d" x="688.02" y="184.94" width="3.38" height="12.63"/><path class="e" d="M699.01,184.55c-1.71,0-3.1,.64-4.15,1.91-1.05,1.27-1.58,2.96-1.58,5.05s.5,3.57,1.49,4.74c.99,1.17,2.34,1.76,4.04,1.76,1.33,0,2.48-.3,3.44-.91,.96-.61,1.7-1.5,2.24-2.67l-2.51-1.35c-.31,.76-.69,1.33-1.15,1.72-.46,.38-.99,.57-1.59,.57-.8,0-1.42-.28-1.85-.85-.44-.57-.67-1.38-.7-2.45h7.85c0-.07,0-.18,.02-.32,.01-.14,.02-.24,.02-.3,0-2.13-.5-3.81-1.5-5.04-1-1.23-2.35-1.84-4.05-1.84Zm-2.32,5.27c.09-.84,.33-1.48,.72-1.92,.39-.44,.9-.66,1.54-.66s1.16,.22,1.56,.67c.39,.45,.63,1.08,.72,1.91h-4.53Z"/><path class="e" d="M713.19,184.64c-.68,0-1.3,.12-1.84,.36-.55,.24-1.04,.61-1.47,1.11v-1.18h-3.38v12.63h3.38v-7.44c0-.91,.15-1.55,.43-1.92,.29-.37,.77-.56,1.45-.56,.58,0,1,.2,1.26,.6,.27,.4,.4,1.03,.4,1.88v7.44h3.38v-7.63c0-1.79-.3-3.12-.89-3.99-.59-.87-1.5-1.3-2.72-1.3Z"/><path class="e" d="M723.13,181.31h-3.38v3.93h-1.7v2.31h1.7v5.45c0,1.97,.23,3.26,.71,3.87,.47,.62,1.34,.93,2.62,.93,.34,0,.68-.02,1.03-.06,.35-.04,.7-.1,1.05-.18v-2.87c-.2,.02-.38,.04-.53,.06-.15,.01-.28,.02-.38,.02-.43,0-.72-.1-.88-.32-.16-.21-.23-.65-.23-1.31v-5.59h2.02v-2.31h-2.02v-3.93Z"/><path class="e" d="M736.66,186.38c-1.11-1.23-2.57-1.85-4.4-1.85s-3.26,.62-4.37,1.86c-1.11,1.24-1.66,2.86-1.66,4.88s.55,3.65,1.66,4.88c1.11,1.23,2.57,1.84,4.38,1.84s3.28-.62,4.39-1.85c1.11-1.23,1.67-2.86,1.67-4.87s-.55-3.65-1.66-4.88Zm-2.52,7.62c-.47,.68-1.1,1.02-1.88,1.02s-1.41-.34-1.87-1.02c-.47-.68-.7-1.59-.7-2.74s.23-2.05,.71-2.74c.47-.69,1.1-1.03,1.87-1.03s1.42,.34,1.89,1.02c.47,.68,.7,1.6,.7,2.75s-.23,2.06-.71,2.74Z"/></g><path class="f" d="M146.52,31.87c.06,1.06-.39,2.13-1.26,2.78-.87,.65-1.96,.71-2.85,.27,.03,.05,.05,.09,.08,.14,.78,1.23,2.33,1.54,3.47,.7,1.14-.84,1.43-2.52,.65-3.75-.03-.05-.06-.09-.09-.13Z"/><g><path class="e" d="M114.45,38.07c-9.65-1.22-23.28-2.45-36.92-2.45s-26.41,1.24-36.64,2.45c-9.94,2.15-14.77,3.99-16.47,6.45,.57,1.23,1.14,2.46,1.71,4-.57,0-.57,.61-.57,1.22,0,1.23,.57,2.45,1.71,2.45,.56,1.85,.57,3.38,1.13,5.22,1.99-1.84,5.97-3.37,14.77-4.6,9.08-1.23,21.58-1.85,34.36-1.85,13.06,0,25.56,.62,35.21,1.85,8.24,1.23,12.22,2.76,14.78,4.6,0-1.84,0-3.37,.57-5.22,1.14,0,1.7-1.23,1.7-2.45,0-.61,0-1.22-.56-1.22,.56-1.54,1.13-2.77,1.7-4-1.14-2.46-6.53-4.3-16.47-6.45Zm-81.22,12.28c-1.14,0-2.27-1.23-2.27-2.45,0-1.54,1.14-2.77,2.27-2.77s2.28,1.23,2.28,2.77c0,1.22-1.14,2.45-2.28,2.45Zm13.63-1.23c-2.84,0-5.96-1.22-5.96-3.37,0-1.85,3.12-4.29,5.96-4.29,3.41-.62,6.53,1.23,6.53,3.06s-3.12,4-6.53,4.6Zm15.34-2.76c-1.14,0-2.27-1.23-2.27-2.46,0-1.22,1.13-2.44,2.27-2.44s2.56,1.23,2.56,2.44c0,1.23-1.42,2.46-2.56,2.46Zm15.33,.61c-3.41,0-5.68-1.84-5.68-3.68,0-1.84,2.27-3.69,5.68-3.69,3.7,0,5.96,1.85,5.96,3.69,0,1.84-2.26,3.68-5.96,3.68Zm15.62-.61c-1.14,0-2.56-1.23-2.56-2.46,0-1.22,1.42-2.44,2.56-2.44s2.27,1.23,2.27,2.44-1.14,2.46-2.27,2.46Zm15.33,2.76c-3.69-.61-6.53-2.76-6.53-4.6,0-1.84,2.83-3.68,6.53-3.06,3.41,0,5.96,2.44,5.96,4.29,0,2.15-2.55,3.37-5.96,3.37Zm13.63,1.23c-1.13,0-1.7-1.23-1.7-2.45,0-1.54,.57-2.77,1.7-2.77,1.71,0,2.28,1.23,2.28,2.77,0,1.22-.57,2.45-2.28,2.45Z"/><path class="e" d="M147.11,21.51c0-1.23-1.43-3.07-1.99-3.68-2.85,1.84-3.98,4.29-4.54,10.12-1.99-3.68-3.69-5.22-5.97-5.22-.56,1.54-.56,2.77,1.14,4.6-2.28-1.84-4.83-1.22-5.97-.61,1.13,2.45,2.28,3.68,4.26,3.68-1.99,.62-1.99,2.15-1.99,2.77,3.12-.62,3.69,.61,3.69,1.84,0,.61-.57,3.06-3.69,3.06-1.14,.62-3.98,0-5.12-3.06,1.73-1.86,1.51-4.61-1.42-4.61-1.69,0-1.7,2.08-1.7,3.38-1.14,.61-2.84,1.23-5.4,.61-1.14,0-1.71-.61-2.84-1.23-1.7-1.23-2.26-3.38-1.7-4,0-1.84,2.27-2.45,5.12,.62,.85-1.84,.85-3.07-.57-3.68,3.69,1.22,5.4-.61,6.53-1.23-1.14-1.23-2.27-3.98-5.11-3.98,1.13-1.23,1.13-3.06,1.13-3.68-1.14,.61-3.12,1.84-5.4,.61,2.28-1.84,3.41-3.99,3.41-5.83-3.26-1.23-3.43-2.66-4.3-4.62-.95,1-3.75,3.49-6.21,2.17,0,1.84,0,4.29,1.7,7.05-2.26,.62-3.97-1.53-4.53-3.38-.86,1.23-.86,2.77,0,4.61-3.14-.61-4.83,.61-5.97,1.84,0,1.23,1.7,3.06,5.11,3.06-1.14,.92-1.7,2.14-1.7,4,3.7-2.46,5.96,0,5.4,1.23,0,.61-.56,2.45-2.83,3.07-3.69,.92-5.97-.62-8.53-3.07,2.02,0,1.13-4.3-1.13-4.3-3.43-.09-3.57,2.77-1.71,4.3-4.06,3.28-18.68,1.61-13.06-5.22,1.7-1.84,5.39,.92,5.95,2.77,1.14-.62,1.14-2.77,1.14-3.98,2.27,0,4.25-1.23,5.96-2.46-1.13-1.22-2.27-3.98-5.96-3.98,.56-1.23,.57-2.46-.57-4.3-.57,3.07-4.83,5.22-5.96,3.07-.56-.61-1.14-2.45,.57-3.67,1.7-1.84,2.26-4.61,.56-5.84-1.65-.88-4.31-2.42-5.06-4.33-1.33,1.94-3.46,3.26-5.45,4.33-1.99,1.23-1.42,3.99,1.14,5.84,1.14,1.22,1.14,3.06,.57,3.67-1.71,2.15-5.97,0-6.53-3.07-1.14,1.84-1.14,3.07-.57,4.3-3.69,0-4.83,2.76-5.4,3.98,1.13,1.23,3.13,2.46,5.96,2.46-.57,1.22,0,3.36,.57,3.98,1.14-1.85,4.26-4.6,6.54-2.77,1.7,2.77,0,7.06-5.96,7.06-1.71,.61-5.4,0-7.67-1.84,0-.62,.57-1.23,.57-1.84,0-3.3-4.83-3-4.83,0,0,1.22,.85,1.84,1.42,1.84-2.56,2.45-4.83,3.99-7.95,3.07-2.28-.62-3.41-2.46-3.41-3.07,0-1.23,1.7-3.68,5.4-1.23,0-1.85-.57-3.08-1.98-4,3.68,0,5.39-1.84,5.96-3.06-1.7-1.23-2.84-2.45-6.53-1.84,1.42-1.84,.57-3.38,0-4.61-.57,1.85-2.27,3.99-3.97,3.38,1.13-2.76,1.13-5.21,1.13-7.05-2.81,1.51-4.79-.04-6.03-1.84-.28,2.31-2.97,4.29-4.77,4.29,.58,1.84,1.43,3.99,3.7,5.83-1.7,1.22-4.26,0-5.39-.61,0,.61,0,2.45,1.69,3.68-3.41,0-4.54,2.76-5.67,3.98,1.13,.62,2.83,2.46,6.24,1.23-1.14,.62-1.13,1.84-.58,3.68,3.13-3.07,5.4-2.46,5.97-.62,0,2.74-3.01,5.22-5.39,5.22-2.27,.61-3.98,0-5.11-.61v-1.23c0-4.17-6.88-1.6-3.13,2.45-.57,3.06-3.97,3.68-5.4,3.06-3.91,0-5.01-5.99,0-4.9,.85-.62,0-2.15-1.7-2.77,2.56,0,3.13-1.23,4.26-3.68-.57-.62-3.69-1.23-5.4,.61,1.13-1.84,1.13-3.06,1.13-4.6-2.84,0-3.97,1.54-6.53,5.22-.57-5.84-1.71-8.29-4.55-10.12-.57,.61-1.41,2.45-1.99,3.68C4.65,20.29-.03,19.94,0,26.11c4.26-2.46,7.67,1.22,8.81,4.91,2.07-1.5,4.82-.13,4.82,2.76,0,1.23,0,1.83-.57,2.46,4.26,0,8.24,3.36,9.94,6.44,2.56-3.07,7.39-5.21,17.89-7.07,9.38-1.22,22.44-2.44,36.64-2.44s27.27,1.23,37.49,2.44c9.94,1.85,15.33,3.99,17.04,7.07,2.55-3.07,5.96-6.44,10.22-6.44-2.08-2.26,1.32-8.11,3.98-5.22,1.42-3.69,4.83-7.38,9.65-4.91-1.31-4.27-4.83-6.76-8.8-4.6Zm-103.94,5.21c-3.49,0-4.07-7.06,0-7.06,4.45,0,3.86,7.06,0,7.06Zm30.96-8.29c0-1.84,1.7-3.99,3.41-3.99,1.99,0,3.7,2.15,3.7,3.99,0,2.45-1.71,3.67-3.7,4.29-1.7-.61-3.41-1.84-3.41-4.29Zm34.93,4.29c0-4.14,5.97-4.03,5.97,0,0,5.12-5.97,5.24-5.97,0Z"/><path class="e" d="M20.52,61h-2.14v88.08h0c0,16.18,6.73,30.88,17.57,41.51,10.78,10.58,25.65,17.15,42,17.15h0c16.35,0,31.21-6.57,42-17.15,10.84-10.64,17.57-25.33,17.57-41.51h0V61H20.52Zm56.6,142.14c-14.91-.22-28.44-6.29-38.29-15.95-9.98-9.8-16.18-23.28-16.18-38.1h0V65.62h54.46V203.13Zm18.33-113.84l.05,.6,.02,.34,.15,1.99,2.32-.17-.03-.45-.1-1.55c-.02-.31-.04-.62-.06-.92,1.35-.07,2.7-.13,4.06-.17l.03,.93,.06,1.99,2.33-.05-.04-2v-.93c1.34-.01,2.7-.01,4.05,0,0,.31-.01,.62-.02,.93l-.04,2,2.33,.05,.06-1.99c0-.31,.02-.62,.03-.93,1.35,.04,2.71,.1,4.06,.17l-.06,.92-.13,2,2.32,.17,.15-1.99,.07-.94c.86,.07,1.71,.15,2.56,.24l-.1,.93-.15,1.47-.15,1.46-.1,.95c-4.29-.39-8.56-.65-12.87-.65-2.73,0-5.45,.1-8.17,.28-1.57,.05-3.13,.23-4.7,.37l-.1-.95-.15-1.46c-.29-2.83-.31-2.41,2.32-2.64Zm18.56,22.93v-.02c0-.28-.19-.52-.45-.53-.49-.02-.98-.04-1.48-.05v-.61h.88c.18,0,.33-.16,.33-.36v-2.57h1.97l.2,3.69h-.07c-.26-.03-.48,.18-.5,.46-.01,.17-.03,.36-.04,.56-.29-.01-.58-.03-.86-.04,0-.17,.02-.35,.03-.55h0Zm-8.07-.19h0c0-.28-.21-.51-.47-.51-.96,0-1.9,.02-2.84,.04v-2.62c0-2.45,1.64-4.45,3.63-4.45,2,0,3.63,2,3.63,4.45v2.62c-.86-.02-1.73-.03-2.59-.04h0c-.26,0-.47,.22-.47,.5,0,.19,0,.39,0,.59h-.87v-.47h0v-.12h0Zm-3.49-7.55c-.36-.39-.36-1.01,0-1.4,.36-.39,.94-.39,1.3,0,.36,.39,.36,1.02,0,1.4-.36,.39-.94,.39-1.3,0Zm6.31,0c-.36-.39-.36-1.01,0-1.4,.36-.39,.94-.39,1.3,0,.36,.39,.36,1.02,0,1.4-.36,.39-.94,.39-1.3,0Zm.88-2.97c-.13-.14-.34-.14-.47,0l-.91,.98c-.63-.23-1.3-.36-2.01-.36h0c-.71,0-1.38,.13-2.01,.36l-.91-.98c-.13-.14-.34-.14-.47,0l-1.87,2.02c-.13,.14-.13,.37,0,.51l.53,.57c-.51,.72-.86,1.56-1.01,2.46h-3.22l.52-9.48h16.87l.51,9.48h-3.22c-.15-.91-.51-1.75-1.01-2.47l.52-.57c.13-.14,.13-.37,0-.51l-1.87-2.02Zm-10.87,11.24h-.23v-4.66h.67v2.57c0,.2,.15,.36,.33,.36h.88v.61c-.41,.01-.81,.03-1.22,.04h-.01c-.26,.01-.46,.25-.45,.53,0,.19,.02,.37,.02,.56Zm1.17-3.52c0-.55,.41-.99,.92-.99s.92,.44,.92,.99-.41,.99-.92,.99-.92-.44-.92-.99Zm-2.34-1.14v3.71c-.07-.04-.15-.05-.23-.05l-.33,.02,.2-3.69h.36Zm-.2-11.53l.08-1.5c.71-.05,1.42-.09,2.12-.13h0c1.9-.1,3.81-.17,5.7-.19v1.83h-7.91Zm9.76,0v-1.83c1.93,.02,3.84,.09,5.73,.19h0c.69,.04,1.39,.08,2.09,.13l.08,1.51h-7.91Zm4.48,11.69c.51,0,.92,.44,.92,.99s-.41,.99-.92,.99-.92-.44-.92-.99,.41-.99,.92-.99Zm-16.03,52.05h-8.17v-9.16h8.17v9.16Zm-8.17-10.19v-1.99h10.26v1.99h-10.26Zm7.76-25.55v.63l-.04,.02c-.83,.47-1.58,1.66-1.83,3.62l-.35,2.72h-1.65c.22-1.21,.42-2.41,.57-3.57,.16-1.18,.27-2.33,.33-3.42h2.98Zm-2.96-2.59c.9-.1,1.83-.18,2.8-.27h.15v1.85h-2.94c0-.43,0-.85-.01-1.25,0-.11,0-.22-.01-.32Zm.6,10.61l-.2,1.59c-.04,.28,.15,.54,.4,.57l2.17,.33v6.75h-6.24c.35-1.34,.72-2.79,1.08-4.31,.39-1.62,.76-3.28,1.08-4.94h1.71Zm2.36,10.26h2.49v4.26h-10.12c.2-.8,.45-1.74,.73-2.79,.11-.41,.22-.83,.39-1.47h6.51Zm5.22,17.47h-3.87v-9.17h1.62s.05,0,.08,0h.96v1.29c0,.2,.15,.36,.33,.36h.88v1.97h-.88c-.18,0-.33,.16-.33,.36v2.86c0,.2,.15,.36,.33,.36h.88v1.99Zm-1.78-10.18v-2h2.04c-.11,.35-.18,.72-.22,1.09h-.92c-.18,0-.33,.16-.33,.36v.55h-.57Zm2.22,7.4c-.5,0-.92-.44-.92-.99s.41-.99,.92-.99,.92,.44,.92,.99-.41,.99-.92,.99Zm0-5.53c-.5,0-.92-.44-.92-.99s.41-.99,.92-.99,.92,.44,.92,.99-.41,.99-.92,.99Zm2.89-5.74c-.36,.38-.94,.38-1.3,0-.36-.39-.36-1.02,0-1.4,.36-.39,.94-.39,1.3,0,.36,.39,.36,1.01,0,1.4Zm2.03-2.34c-.54,.04-1.06,.16-1.54,.35l-.91-.98c-.13-.14-.34-.14-.47,0l-1.87,2.02c-.13,.14-.13,.36,0,.5l.53,.58c-.16,.23-.31,.47-.44,.72h-2.45v-4.25h7.14v1.07Zm-7.61-2.1h-2.02v-6.61l.77,.12c.26,.04,.49-.16,.53-.43l.3-2.31h17.02l.3,2.31c.04,.28,.27,.47,.53,.43l.77-.12v6.61h-18.19Zm16.21-12.26l.26,2h-7.91v-6.99h9.64v.41s-.09,0-.13,.01c-.37,.06-.72,.24-1.01,.54-.68,.7-1.1,2.07-.84,4.02Zm1.98-6.01h-20.21v-1.94c.61-.05,1.21-.1,1.81-.14h0c.3-.02,.58-.04,.84-.05,.29-.01,.58-.03,.85-.04,1.4-.05,2.79-.09,4.17-.12,.28,0,.55-.01,.82-.01,.28,0,.55,0,.82-.01h.05c.28,0,.57,0,.85,0s.57,0,.85,0c.97,.01,1.95,.03,2.93,.06,.96,.03,1.94,.06,2.92,.1h.01c.52,.02,1.07,.06,1.63,.09h.07c.52,.04,1.05,.08,1.58,.13v1.94Zm-10.57,1.02v6.99h-7.91l.26-2c.25-1.96-.17-3.32-.84-4.02-.3-.31-.65-.49-1.01-.54-.04,0-.08-.01-.12-.01v-.41h9.63Zm.94,19.35v-1.08h17.08c.26,.98,.49,1.88,.66,2.54,.16,.62,.31,1.19,.44,1.73h-13.49c-.13-.26-.28-.5-.44-.73l.53-.57c.13-.14,.13-.36,0-.5l-1.87-2.02c-.13-.14-.34-.14-.47,0l-.91,.98c-.48-.18-1-.3-1.54-.34Zm13.55-19.35c.06,1.09,.17,2.24,.33,3.42,.15,1.16,.35,2.36,.57,3.57h-1.65l-.35-2.72c-.25-1.96-1.01-3.15-1.83-3.62l-.04-.02v-.63h2.98Zm-2.97-1.02v-1.86l.37,.03c.9,.08,1.76,.16,2.59,.25,0,.11-.01,.21-.01,.32-.01,.4-.02,.82-.01,1.25h-2.94Zm2.16,11.19c.26-.04,.44-.3,.4-.57l-.21-1.59h1.71c.32,1.65,.7,3.32,1.09,4.94,.36,1.52,.73,2.96,1.08,4.31h-6.24v-6.75l2.17-.33Zm-7.83,15.27c.51,0,.92,.44,.92,.99s-.41,.99-.92,.99-.92-.44-.92-.99,.41-.99,.92-.99Zm-1.59-3.76c-.36,.38-.94,.38-1.3,0-.36-.39-.36-1.02,0-1.4,.36-.39,.94-.39,1.3,0,.36,.39,.36,1.01,0,1.4Zm.67,10.28c0-.55,.41-.99,.92-.99s.92,.44,.92,.99-.41,.99-.92,.99-.92-.44-.92-.99Zm5.23,3.77h-3.88v-1.99h.88c.18,0,.33-.16,.33-.36v-2.86c0-.19-.15-.36-.33-.36h-.88v-1.97h.88c.18,0,.33-.16,.33-.36v-1.29h2.66v9.17Zm-2.66-10.19v-.54c0-.2-.15-.36-.33-.36h-.92c-.04-.37-.11-.74-.22-1.09h13.23v1.99h-11.76Zm11.76,10.19h-8.15v-9.17h8.15v9.17Zm1.03-44.67c-.11,.73-.21,1.45-.31,2.17h0s0,.03,0,.04c-.25,1.73-.33,2.3-.41,2.84l-.14,.95c-.26-.04-.53-.09-.84-.14-.39-.06-.82-.13-1.3-.2h-.03l-.7-.1h0c-.25-.04-.53-.07-.84-.11-.23-.03-.52-.07-.84-.11h-.03c-1.01-.11-1.97-.21-2.89-.29-.95-.09-1.92-.16-2.92-.24,0,0-.02,0-.02,0h-.06c-.54-.03-1.07-.06-1.63-.09h-.01c-.97-.04-1.95-.07-2.94-.1-.97-.03-1.96-.05-2.95-.06h0c-.29,0-.57,0-.86,0-.29,0-.57,0-.86,0h-.05c-.27,0-.55,0-.82,.01-.28,0-.55,.01-.82,.01-1.41,.03-2.81,.07-4.2,.12h0c-.3,.02-.58,.03-.85,.04-.3,.02-.59,.03-.85,.05h0c-1,.07-1.98,.15-2.93,.23-.93,.08-1.91,.18-2.92,.29h0c-.32,.04-.62,.07-.88,.11-.34,.04-.64,.08-.87,.11h0s-.02,0-.03,0h-.02l-.86,.12h0c-.49,.08-.92,.14-1.29,.2-.29,.05-.56,.09-.82,.13l-.3-2.08-.25-1.76-.05-.35c-.11-.76-.22-1.53-.5-3.49,.48-.07,.93-.14,1.36-.2,.41-.06,.87-.12,1.37-.19l.03,.23c.04,.37,.06,.56,.08,.73h0c.02,.13,.06,.48,.1,.83,.03,.23,.06,.47,.08,.64,.03,.28,.26,.47,.52,.44h.02l.25-.03h.02l.24-.03c.46-.06,.9-.11,1.3-.16,.26-.03,.44-.28,.42-.56h0c-.03-.29-.05-.51-.07-.72-.03-.27-.06-.54-.08-.74l-.1-.95c.83-.08,1.7-.16,2.61-.24,.89-.07,1.77-.14,2.63-.2l.03,.37h0c.01,.2,.02,.4,.03,.59h0c.02,.42,.05,.79,.07,1.16l.02,.32c.02,.28,.24,.49,.5,.47h.02c.3-.02,.59-.03,.86-.05,.31-.02,.6-.03,.88-.04,.26,0,.46-.25,.45-.53h0v-.02l-.03-.49c-.02-.34-.04-.68-.05-.96h0v-.02h0l-.04-.94c.89-.03,1.77-.06,2.64-.08,.88-.02,1.77-.04,2.65-.05v1.08c0,.3,0,.6,0,.9v.45c0,.28,.22,.51,.48,.5,.3,0,.59,0,.89,0s.59,0,.89,0c.26,0,.47-.23,.47-.51h0c0-.46,0-.92,0-1.39v-.08c0-.24,0-.49,0-.73v-.23c1.76,.02,3.52,.07,5.3,.13v.22c-.02,.2-.04,.47-.05,.73h0l-.02,.48c-.02,.32-.03,.63-.05,.99-.01,.28,.19,.52,.45,.53h0c.27,.01,.57,.03,.88,.04,.27,.01,.57,.03,.89,.05,.26,.01,.48-.2,.49-.48h0c.02-.38,.05-.8,.07-1.22l.02-.25c.01-.22,.03-.45,.05-.73l.02-.23c.86,.06,1.74,.13,2.63,.2h.01c.89,.08,1.76,.15,2.59,.24-.02,.18-.04,.32-.05,.47l-.05,.48c-.02,.2-.05,.41-.08,.74-.02,.21-.05,.44-.08,.74-.03,.28,.16,.53,.42,.56h0c.29,.04,.58,.07,.87,.11,.23,.03,.52,.06,.87,.11,.26,.03,.49-.17,.52-.45,.04-.35,.06-.57,.08-.73,.02-.18,.05-.45,.09-.73l.09-.74,.03-.23h.04s.02,.01,.04,.01l.46,.06c.66,.1,1.35,.19,2.06,.3-.08,.52-.16,1.08-.24,1.66Z"/><path class="e" d="M44.71,132.95l1.04,1.07c5.52-2.3,13.92-8.23,16.03-14.68l-.14-4.18c-2.23,6.77-9.86,14.34-16.92,17.78Z"/><path class="e" d="M41.97,130.24l1.86,1.82c6.97-2.66,14.47-11.37,17.31-18.6l-1.28-1.96c-1.97,7.02-10.33,15.96-17.88,18.73Z"/><path class="e" d="M39.94,127.79l1.33,1.64c7.27-2.68,16.19-11.7,17.65-19.51l-1.63-3.31c0,8.79-9.31,17.51-17.35,21.18Z"/><path class="e" d="M72.59,118.2v-1.96c2.57-5.87-.21-7.17-.21-7.17h-2.56c-1.92,6.85,2.77,9.13,2.77,9.13Z"/><path class="e" d="M36.79,136.26l.85-1.98,3.25,.66-.92,2.01h2.56c0-.98,.64-1.96,.64-1.96-1.28-.98-5.77-6.85-5.77-6.85-1.28,.98-5.77,0-5.77,0,.64-1.96,.64-2.94,.64-3.92,0-4.89-4.49-4.89-4.49-4.89v10.77l2.56,.98-.64,2.94,1.28,.98,.64-1.96,3.21,.98-.64,1.96,2.58,.29Z"/><path class="e" d="M49.1,145.56h1.28v-1.96h-.64c-2.39,0-3.68-.29-3.16-2.66l-2.26-1.7-4.69,.19c-.84,1.15-.64,4.4,2.41,4.17h1.28c3.84,7.83,.64,8.81,.64,8.81-7.69-4.89-7.69,3.92-7.69,3.92h11.54l.64-2.94c.64,.98,1.92,.98,1.92,.98v-1.96h-1.28v-1.96l1.92,.98v-2.93h-1.92v-2.94Z"/><path class="e" d="M72.04,126.19l-.41-1.07h-1.51c.04,.37-.65,2.05-.65,2.05-1.78,4.07,6.29,16.87-5.13,13.7-.64-.98-1.99-3.34-3.91-4.31-2.48-1.89-6.96-2.56-3.78-7.43-1.92,1.96-9.67,6.05-9.67,6.05-.59,4.48,3.06,4,5.43,7.1,2.3,3,.02,5.76,6.8,6.42h1.28c3.85,7.83,.64,8.81,.64,8.81-7.69-4.89-7.69,3.92-7.69,3.92h11.54l.64-2.94c.64,.98,1.92,.98,1.92,.98v-1.96h-1.28v-1.96l1.92,.98v-2.94h-1.92v-2.94h1.28v-1.96h-1.92c-1.92-1.96-1.28-4.89-1.28-4.89,11.03,1.45,8.01-7.98,5.77-12.72,0-2.94,1.92-4.9,1.92-4.9Z"/><path class="e" d="M62.42,127.17l1.28,1.96c0-4.29,3.2-7.36,3.2-11.74-.39-2.39-4.09-9.41-2.57-11.74,1.28-1.96,3.85-1.96,5.77,1.96h1.92c-4.18-11.63-14.19-3.72-7.69,7.83,2.01,4.61-3.64,9.13-1.92,11.74Z"/><polygon class="e" points="55.37 98.79 54.08 101.72 52.8 98.79 50.88 100.75 49.6 99.77 49.6 102.7 56.01 102.7 55.37 98.79"/><path class="e" d="M47.14,116.03c1.67-.84,1.61-2.34,3.1-2.34,0,0-.24-1.1-3.77,1.06-2.52,1.54-3.01-4.07-6.68-2.2,3.8,0,2.83,6.02,7.36,3.48Z"/><path class="e" d="M50.79,118.44l-2.48-.08c-3.2,3.91-10.75,5.87-10.75,5.87l1.8,2.73c4.14-2.26,7.82-4.66,11.42-8.52Z"/><path class="e" d="M31.82,116.95c-.64,0-.81,.43-.81,.43l1.28,1.96c0-1.96,1.28-1.96,1.28-1.96,.64,.98,3.21,2.94,3.21,2.94-1.28,.98-1.28,1.96-1.28,1.96l.94,.77c3.55-1.3,6.45-1.92,9.16-4.68-5.24-2.35-16.36-7.86-16.36-7.86,.95-9.41-5.62-6.46-5.62-6.46l2.6,9.68,5.59,3.23Z"/><path class="e" d="M48.96,115.42s1.92,2.94,3.84-.98c0,0,3.21-6.85,2.57-9.79h-5.77s-4.49,2.94-5.77,5.87l3.21,2.94c0-7.14,9.63,.65,1.92,1.96Z"/><path class="e" d="M68.19,118.36c0,3.84-3.78,8.86-3.01,12.36l1.94,1.81c-2.06-3.14,2.35-8.58,2.35-12.22l-1.28-1.96Z"/></g></g></g></g></svg>