<?xml version="1.0" encoding="UTF-8"?><svg xmlns="http://www.w3.org/2000/svg" xmlns:xlink="http://www.w3.org/1999/xlink" viewBox="0 0 1277.72 131.05"><defs><style>.e{fill:url(#d);}.f{fill:none;}</style><linearGradient id="d" x1="0" y1="65.52" x2="1277.72" y2="65.52" gradientTransform="matrix(1, 0, 0, 1, 0, 0)" gradientUnits="userSpaceOnUse"><stop offset="0" stop-color="#b57a1a"/><stop offset=".2" stop-color="#ffe55b"/><stop offset=".4" stop-color="#ffed89"/><stop offset=".6" stop-color="#ffed89"/><stop offset=".8" stop-color="#ffe55b"/><stop offset="1" stop-color="#b57a1a"/></linearGradient></defs><g id="a"/><g id="b"><g id="c"><g><path class="f" d="M705.69,94.83c-.34-2.25-.67-4.39-1.01-6.41-.34-2.02-.65-3.77-.93-5.23-.28-1.46-.48-2.42-.59-2.87-1.8,.67-3.83,1.46-6.07,2.36-2.25,.9-4.5,1.89-6.75,2.95-2.25,1.07-4.39,2.14-6.41,3.21-2.02,1.07-3.71,2.05-5.06,2.95-2.59,1.69-4.56,3.37-5.91,5.06s-2.02,3.71-2.02,6.07c0,3.26,.95,6.13,2.87,8.61,1.91,2.48,4.89,3.71,8.94,3.71,2.14,0,4.36-.39,6.67-1.18,2.3-.79,4.44-1.69,6.41-2.7,1.97-1.01,3.68-2.02,5.15-3.04,1.46-1.01,2.47-1.8,3.04-2.36,.9-.9,1.6-1.66,2.11-2.28,.51-.62,.7-1.49,.59-2.62-.34-1.91-.67-3.99-1.01-6.24Z"/><path class="f" d="M66.15,42.04c-.79-4.33-1.55-8.41-2.28-12.23-.73-3.82-1.32-6.75-1.77-8.77-.67-3.04-1.27-4.95-1.77-5.74-.51-.79-1.04-1.18-1.6-1.18-1.13,0-2.31,.93-3.54,2.78-1.24,1.86-2.56,4.33-3.97,7.42-1.41,3.1-2.78,6.64-4.13,10.63-1.35,3.99-2.67,8.1-3.97,12.32-1.29,4.22-2.48,8.41-3.54,12.57-1.07,4.16-1.94,7.93-2.62,11.31,1.8-.45,4.08-.93,6.83-1.43,2.76-.51,5.68-1.04,8.77-1.6,3.09-.56,6.19-1.1,9.28-1.6,3.09-.51,5.93-.93,8.52-1.27-.56-2.81-1.21-6.3-1.94-10.46-.73-4.16-1.49-8.41-2.28-12.74Z"/><path class="f" d="M604.78,31.05c0-4.05-.56-7.62-1.69-10.72-1.13-3.09-2.59-5.68-4.39-7.76-1.8-2.08-3.85-3.63-6.16-4.64-2.31-1.01-4.7-1.52-7.17-1.52-1.24,0-2.76,.17-4.56,.51-1.8,.34-3.54,.87-5.23,1.6-1.69,.73-3.23,1.75-4.64,3.04-1.41,1.29-2.34,2.84-2.78,4.64-.23,1.46-.45,3.49-.67,6.07-.23,2.59-.45,5.6-.67,9.03-.23,3.43-.42,7.15-.59,11.14-.17,3.99-.31,8.13-.42,12.4,.11,.34,.73,.59,1.86,.76,1.12,.17,2.45,.31,3.97,.42,1.52,.11,3.12,.2,4.81,.25,1.69,.06,3.21,.08,4.56,.08,2.14,0,3.99-.08,5.57-.25,1.57-.17,2.95-.45,4.13-.84,1.18-.39,2.28-.87,3.29-1.43,1.01-.56,2.02-1.29,3.04-2.19,1.91-1.46,3.68-3.82,5.32-7.09,1.63-3.26,2.45-7.76,2.45-13.5Z"/><path class="f" d="M482.18,62.88c-2.53-3.26-5.48-5.82-8.86-7.68s-7.03-2.78-10.97-2.78c-2.81,0-5.48,.73-8.02,2.19-2.53,1.46-4.75,3.57-6.67,6.33-1.91,2.76-3.43,6.1-4.56,10.04-1.13,3.94-1.69,8.38-1.69,13.33,0,5.29,.81,10.01,2.45,14.17,1.63,4.16,3.8,7.68,6.5,10.55,2.7,2.87,5.76,5.06,9.2,6.58,3.43,1.52,7,2.28,10.72,2.28,6.41,0,11.33-2.42,14.77-7.26,3.43-4.84,5.15-12.26,5.15-22.27,0-5.06-.7-9.76-2.11-14.09-1.41-4.33-3.37-8.13-5.91-11.39Z"/><path class="f" d="M531.05,87.9c.59-.59,1.04-1.08,1.37-1.48,.33-.4,.46-.97,.38-1.7-.22-1.24-.44-2.6-.66-4.07-.22-1.46-.44-2.86-.66-4.18-.22-1.32-.42-2.45-.6-3.41-.18-.95-.31-1.57-.38-1.87-1.17,.44-2.49,.95-3.96,1.54-1.47,.59-2.93,1.23-4.4,1.92-1.47,.7-2.86,1.39-4.18,2.09-1.32,.7-2.42,1.34-3.3,1.92-1.69,1.1-2.97,2.2-3.85,3.3-.88,1.1-1.32,2.42-1.32,3.96,0,2.13,.62,3.99,1.87,5.61,1.25,1.61,3.19,2.42,5.83,2.42,1.39,0,2.84-.26,4.34-.77,1.5-.51,2.89-1.1,4.18-1.76,1.28-.66,2.4-1.32,3.35-1.98,.95-.66,1.61-1.17,1.98-1.54Z"/><path class="f" d="M230.25,77.56c2.3-1.12,4.41-2.19,6.33-3.21,1.91-1.01,3.37-1.91,4.39-2.7,2.02-1.46,3.04-3.94,3.04-7.42,0-1.35-.25-2.76-.76-4.22-.51-1.46-1.27-2.78-2.28-3.97-1.01-1.18-2.25-2.14-3.71-2.87-1.46-.73-3.09-1.1-4.89-1.1-1.58,0-3.26,.54-5.06,1.6-1.8,1.07-3.49,2.81-5.06,5.23-1.58,2.42-2.9,5.63-3.97,9.62-1.07,3.99-1.6,8.86-1.6,14.6,1.91-.67,4.08-1.49,6.5-2.45,2.42-.95,4.78-2,7.09-3.12Z"/><path class="f" d="M979.89,54.76c-1.01-1.18-2.25-2.14-3.71-2.87-1.46-.73-3.09-1.1-4.89-1.1-1.58,0-3.26,.54-5.06,1.6-1.8,1.07-3.49,2.81-5.06,5.23-1.58,2.42-2.9,5.63-3.97,9.62-1.07,3.99-1.6,8.86-1.6,14.6,1.91-.67,4.08-1.49,6.5-2.45,2.42-.95,4.78-2,7.09-3.12,2.3-1.12,4.41-2.19,6.33-3.21,1.91-1.01,3.37-1.91,4.39-2.7,2.02-1.46,3.04-3.94,3.04-7.42,0-1.35-.25-2.76-.76-4.22-.51-1.46-1.27-2.78-2.28-3.97Z"/><path class="f" d="M341.19,66.42c-.23-1.91-1.01-3.71-2.36-5.4-1.35-1.69-3.09-3.15-5.23-4.39-2.14-1.24-4.64-2.22-7.51-2.95-2.87-.73-5.88-1.1-9.03-1.1s-5.91,.51-8.61,1.52-5.04,2.64-7,4.89c-1.97,2.25-3.52,5.15-4.64,8.69-1.13,3.54-1.69,7.9-1.69,13.08s.73,10.1,2.19,14.43c1.46,4.33,3.49,8.07,6.07,11.22,2.59,3.15,5.68,5.6,9.28,7.34,3.6,1.75,7.54,2.62,11.81,2.62,1.69,0,3.26-.25,4.72-.76,1.46-.51,2.78-1.12,3.97-1.86,1.18-.73,2.22-1.49,3.12-2.28,.9-.79,1.52-1.46,1.86-2.02,.9-1.24,1.57-2.67,2.02-4.3,.45-1.63,.79-3.85,1.01-6.67,.22-2.36,.34-5.26,.34-8.69v-9.03c0-2.59-.03-5.34-.08-8.27-.06-2.92-.14-4.95-.25-6.07Z"/><path class="e" d="M896.95,24.21c-1.07-1.29-1.6-2.16-1.6-2.62,0-.56,.73-1.43,2.19-2.62,1.46-1.18,3.06-2.42,4.81-3.71,1.74-1.29,3.43-2.42,5.06-3.37,1.63-.95,2.62-1.49,2.95-1.6,.56,.11,1.49,.73,2.78,1.86,1.29,1.13,2.62,2.42,3.97,3.88,1.35,1.46,2.53,2.87,3.54,4.22,1.01,1.35,1.52,2.25,1.52,2.7,0,.56-.67,1.41-2.02,2.53-1.35,1.13-2.9,2.28-4.64,3.46-1.75,1.18-3.43,2.22-5.06,3.12-1.63,.9-2.78,1.35-3.46,1.35-.34,0-1.15-.53-2.45-1.6-1.29-1.07-2.62-2.28-3.97-3.63s-2.56-2.67-3.63-3.97Zm-511.05,5.25c1.35,1.35,2.67,2.56,3.97,3.63,1.29,1.07,2.11,1.6,2.45,1.6,.67,0,1.83-.45,3.46-1.35,1.63-.9,3.32-1.94,5.06-3.12,1.74-1.18,3.29-2.33,4.64-3.46,1.35-1.12,2.02-1.97,2.02-2.53,0-.45-.51-1.35-1.52-2.7-1.01-1.35-2.19-2.76-3.54-4.22-1.35-1.46-2.67-2.76-3.97-3.88-1.29-1.12-2.22-1.74-2.78-1.86-.34,.11-1.32,.65-2.95,1.6-1.63,.96-3.32,2.08-5.06,3.37-1.75,1.29-3.35,2.53-4.81,3.71-1.46,1.18-2.19,2.05-2.19,2.62,0,.45,.53,1.32,1.6,2.62,1.07,1.29,2.28,2.62,3.63,3.97Zm-110.52,78.21c.45,.4,.67,.82,.67,1.27-1.24,1.35-3.15,3.21-5.74,5.57-2.59,2.36-5.71,4.72-9.37,7.09-3.66,2.36-7.74,4.39-12.23,6.07-4.5,1.69-9.28,2.53-14.34,2.53-4.61,0-9.11-.7-13.5-2.11-4.39-1.41-8.33-3.54-11.81-6.41-3.49-2.87-6.27-6.52-8.35-10.97-2.08-4.44-3.12-9.76-3.12-15.95,0-5.06,.34-9.42,1.01-13.08,.67-3.65,1.57-6.86,2.7-9.62,1.12-2.76,2.39-5.12,3.8-7.09,1.41-1.97,2.84-3.74,4.3-5.32,1.8-2.02,3.99-3.94,6.58-5.74,2.59-1.8,5.37-3.43,8.35-4.89,2.98-1.46,6.13-2.62,9.45-3.46,3.32-.84,6.67-1.27,10.04-1.27,6.07,0,10.83,1.01,14.26,3.04,3.43,2.02,5.15,4.84,5.15,8.44,0,2.25-.67,4.33-2.02,6.24,1.12-.34,2.56-.9,4.3-1.69,1.74-.79,3.51-1.6,5.32-2.45,1.8-.84,3.4-1.6,4.81-2.28,1.41-.67,2.33-1.18,2.78-1.52,.22-.22,.48-.31,.76-.25,.28,.06,.42,.25,.42,.59,0,1.46-.28,2.67-.84,3.63-.56,.96-1.24,1.72-2.02,2.28-1.8,1.13-4.39,2.53-7.76,4.22s-7.12,3.46-11.22,5.32c-4.11,1.86-8.35,3.71-12.74,5.57-4.39,1.86-8.52,3.63-12.4,5.32-3.88,1.69-7.26,3.18-10.12,4.47-2.87,1.29-4.81,2.22-5.82,2.78,0,3.83,.76,7.4,2.28,10.72,1.52,3.32,3.63,6.22,6.33,8.69,2.7,2.48,5.93,4.42,9.7,5.82,3.77,1.41,7.9,2.11,12.4,2.11,4.05,0,7.7-.42,10.97-1.27,3.26-.84,6.02-1.8,8.27-2.87,2.25-1.07,4.02-2.02,5.32-2.87,1.29-.84,2-1.27,2.11-1.27,.45,0,.9,.2,1.35,.59Zm-58.72-24.55c1.91-.67,4.08-1.49,6.5-2.45,2.42-.95,4.78-2,7.09-3.12,2.3-1.12,4.41-2.19,6.33-3.21,1.91-1.01,3.37-1.91,4.39-2.7,2.02-1.46,3.04-3.94,3.04-7.42,0-1.35-.25-2.76-.76-4.22-.51-1.46-1.27-2.78-2.28-3.97-1.01-1.18-2.25-2.14-3.71-2.87-1.46-.73-3.09-1.1-4.89-1.1-1.58,0-3.26,.54-5.06,1.6-1.8,1.07-3.49,2.81-5.06,5.23-1.58,2.42-2.9,5.63-3.97,9.62-1.07,3.99-1.6,8.86-1.6,14.6Zm-32.4,5.4c2.47,2.36,3.71,5.91,3.71,10.63,0,2.14-.45,4.22-1.35,6.24-.9,2.02-2.08,3.94-3.54,5.74-1.46,1.8-3.1,3.46-4.89,4.98-1.8,1.52-3.6,2.84-5.4,3.97-1.69,1.13-3.6,2.28-5.74,3.46-2.14,1.18-4.44,2.28-6.92,3.29-2.48,1.01-5.01,1.83-7.59,2.45-2.59,.62-5.18,.93-7.76,.93-1.24,0-3.21-.25-5.91-.76s-5.43-1.1-8.18-1.77c-2.76-.67-5.2-1.32-7.34-1.94-2.14-.62-3.26-1.04-3.37-1.27-.9,.56-1.75,1.49-2.53,2.78-.44,.72-.78,1.34-1.05,1.87,.02,.16,.04,.3,.04,.41,0,.79-.4,1.18-1.18,1.18h-.03c-.07,.03-.14,.06-.22,.08-.51,.17-.87,.25-1.1,.25-.6,0-1.01-.18-1.26-.53-.99-.1-2.31-.18-3.97-.23-1.8-.06-4.13-.14-7-.25-2.87-.11-6.5-.17-10.88-.17-1.46,0-3.07,.06-4.81,.17-1.75,.11-3.4,.22-4.98,.34-1.58,.11-2.98,.22-4.22,.34-1.24,.11-2.08,.17-2.53,.17-.34,0-.62-.23-.84-.67-.23-.45-.34-.96-.34-1.52s.08-1.04,.25-1.43c.17-.39,.48-.59,.93-.59,1.01-.11,2.36-.2,4.05-.25,1.69-.06,2.53-.48,2.53-1.27,0-.67-.28-2.7-.84-6.07-.56-3.37-1.27-7.42-2.11-12.15-.84-4.72-1.75-9.76-2.7-15.1-.96-5.34-1.89-10.32-2.78-14.93-2.02-.34-4.59-.62-7.68-.84-3.1-.22-6.33-.34-9.7-.34-3.94,0-7.68,.17-11.22,.51s-6.33,.96-8.35,1.86c-.56,2.48-1.18,5.09-1.86,7.85-.67,2.76-1.32,5.54-1.94,8.35-.62,2.81-1.15,5.6-1.6,8.35-.45,2.76-.67,5.32-.67,7.68,0,4.61,.98,7.93,2.95,9.96,1.97,2.02,4.41,3.04,7.34,3.04s4.75-.08,5.48-.25c.73-.17,1.38-.25,1.94-.25,.9,0,1.35,.23,1.35,.67,0,.23-.25,.59-.76,1.1-.51,.51-1.15,1.04-1.94,1.6-1.01,.79-2.34,1.77-3.97,2.95-1.63,1.18-3.74,1.77-6.33,1.77-.34,0-1.21-.06-2.62-.17-1.41-.11-3.12-.25-5.15-.42-2.02-.17-4.16-.31-6.41-.42-2.25-.11-4.39-.17-6.41-.17-2.81,0-5.09,.06-6.83,.17-1.74,.11-3.12,.22-4.13,.34-1.01,.11-1.71,.22-2.11,.34-.39,.11-.7,.17-.93,.17s-.42-.2-.59-.59c-.17-.4-.25-.82-.25-1.27,0-.67,.28-1.07,.84-1.18,1.13-.45,2.76-1.29,4.89-2.53,2.25-1.35,4.24-3.63,5.99-6.83,1.74-3.21,3.74-7.56,5.99-13.08,1.57-3.71,3.32-8.77,5.23-15.19,1.91-6.41,3.82-13.44,5.74-21.09,1.91-7.65,3.71-15.66,5.4-24.05,1.69-8.38,3.09-16.45,4.22-24.21l14.85-7.93c-1.8,0-4.42-.06-7.85-.17-3.43-.11-7.06-.28-10.88-.51-3.83-.22-7.57-.51-11.22-.84-3.66-.34-6.61-.73-8.86-1.18-.45-.22-.87-.81-1.27-1.77-.4-.95-.59-1.88-.59-2.78,0-1.01,.45-1.8,1.35-2.36,4.5,1.24,9.39,2.22,14.68,2.95,5.29,.73,10.35,1.32,15.19,1.77,4.84,.45,9.2,.73,13.08,.84,3.88,.11,6.72,.17,8.52,.17,4.39,0,8.89-.11,13.5-.34,4.61-.22,8.89-.51,12.82-.84,3.94-.34,7.23-.67,9.87-1.01,2.64-.34,4.19-.67,4.64-1.01,.22,0,.56,.23,1.01,.67,.45,.45,.67,.96,.67,1.52,0,1.24-.56,2.17-1.69,2.78-1.13,.62-2.7,1.07-4.72,1.35-2.02,.28-4.5,.48-7.42,.59-2.93,.11-6.19,.28-9.79,.51-.56,.11-.84,.73-.84,1.86,0,2.59,.42,6.86,1.27,12.82,.84,5.96,1.91,12.71,3.21,20.25,1.29,7.54,2.76,15.47,4.39,23.79,1.63,8.33,3.26,16.17,4.89,23.54,1.63,7.37,3.15,13.84,4.56,19.41,1.41,5.57,2.62,9.37,3.63,11.39,.56,.23,1.04,.37,1.43,.42,.39,.06,1.1,.08,2.11,.08,1.46,0,2.73-.06,3.8-.17,.52-.05,.97-.09,1.37-.12,.68-1.12,1.65-2.74,2.93-4.86,1.46-2.42,2.95-4.89,4.47-7.42,1.52-2.53,2.92-4.84,4.22-6.92,1.29-2.08,2.22-3.46,2.78-4.13,.56-.56,1.24-.65,2.02-.25,.79,.4,1.01,.87,.67,1.43-.23,.23-.4,.51-.51,.84-.11,.34-.17,.9-.17,1.69,0,1.01,.87,2.28,2.62,3.8,1.74,1.52,3.97,2.98,6.67,4.39,2.7,1.41,5.68,2.62,8.94,3.63,3.26,1.01,6.47,1.52,9.62,1.52,3.71,0,6.67-1.07,8.86-3.21,2.19-2.14,3.29-4.95,3.29-8.44,0-3.94-1.24-6.86-3.71-8.77-2.48-1.91-5.54-3.37-9.2-4.39-3.66-1.01-7.65-1.83-11.98-2.45-4.33-.62-8.33-1.55-11.98-2.78-3.66-1.24-6.72-3.04-9.2-5.4-2.48-2.36-3.71-5.79-3.71-10.29,0-3.49,1.21-7.03,3.63-10.63,2.42-3.6,5.62-6.81,9.62-9.62,3.99-2.81,8.58-5.12,13.75-6.92,5.17-1.8,10.57-2.7,16.2-2.7,1.69,0,3.65,.17,5.91,.51,2.25,.34,4.47,.76,6.67,1.27,2.19,.51,4.22,1.01,6.07,1.52,1.86,.51,3.23,.93,4.13,1.27,.22,0,.17,.45-.17,1.35-.34,1.01-1.18,2.56-2.53,4.64-1.35,2.08-2.84,4.13-4.47,6.16-1.63,2.02-3.15,3.83-4.56,5.4-1.41,1.58-2.39,2.36-2.95,2.36h-1.01c-.56,0-.96-.11-1.18-.34,.11-.56,.17-1.29,.17-2.19,0-3.94-1.77-7.03-5.32-9.28-3.54-2.25-8.69-3.37-15.44-3.37-3.26,0-5.93,.96-8.02,2.87-2.08,1.91-3.12,4.22-3.12,6.92,0,4.39,1.24,7.65,3.71,9.79,2.47,2.14,5.57,3.74,9.28,4.81,3.71,1.07,7.7,1.89,11.98,2.45,4.27,.56,8.27,1.43,11.98,2.62,3.71,1.18,6.81,2.95,9.28,5.32Zm-113.9-23.29c-.56-2.81-1.21-6.3-1.94-10.46-.73-4.16-1.49-8.41-2.28-12.74-.79-4.33-1.55-8.41-2.28-12.23-.73-3.82-1.32-6.75-1.77-8.77-.67-3.04-1.27-4.95-1.77-5.74-.51-.79-1.04-1.18-1.6-1.18-1.13,0-2.31,.93-3.54,2.78-1.24,1.86-2.56,4.33-3.97,7.42-1.41,3.1-2.78,6.64-4.13,10.63-1.35,3.99-2.67,8.1-3.97,12.32-1.29,4.22-2.48,8.41-3.54,12.57-1.07,4.16-1.94,7.93-2.62,11.31,1.8-.45,4.08-.93,6.83-1.43,2.76-.51,5.68-1.04,8.77-1.6,3.09-.56,6.19-1.1,9.28-1.6,3.09-.51,5.93-.93,8.52-1.27Zm458.05,27.99c-2.05,1.5-4.29,2.91-6.7,4.23-2.42,1.32-4.89,2.44-7.42,3.35-2.53,.92-4.96,1.37-7.31,1.37-1.98,0-3.7-.31-5.17-.93-1.47-.62-2.69-1.45-3.68-2.47-.99-1.03-1.72-2.22-2.2-3.57-.48-1.35-.71-2.76-.71-4.23,0-2.34,.71-4.27,2.14-5.77,1.43-1.5,3.64-3.06,6.65-4.67,1.39-.73,3.33-1.7,5.83-2.91,2.49-1.21,5.04-2.44,7.64-3.68,2.6-1.24,5.02-2.44,7.25-3.57,2.23-1.13,3.86-2.03,4.89-2.69-.44-2.27-.95-4.3-1.54-6.1-.59-1.79-1.32-3.3-2.2-4.51-.88-1.21-1.94-2.12-3.19-2.75-1.25-.62-2.78-.93-4.62-.93-1.61,0-3.1,.29-4.45,.88-1.36,.59-2.53,1.28-3.52,2.09-.99,.81-1.76,1.61-2.31,2.42-.55,.81-.86,1.43-.93,1.87-.07,.59-.4,.88-.99,.88-1.03,0-1.98-.37-2.86-1.1-.88-.73-1.32-1.61-1.32-2.64,0-.59,.07-1.03,.22-1.32,1.69-.95,3.74-1.98,6.15-3.08,2.42-1.1,4.93-2.12,7.53-3.08,2.6-.95,5.18-1.74,7.75-2.36,2.56-.62,4.87-.93,6.92-.93,3.08,0,5.44,.44,7.09,1.32,1.65,.88,2.88,2.13,3.68,3.74,.81,1.61,1.3,3.5,1.48,5.66,.18,2.16,.35,4.49,.49,6.98,.22,3.74,.51,7.35,.88,10.83,.37,3.48,.92,6.56,1.65,9.23,.73,2.68,1.67,4.84,2.8,6.48,1.14,1.65,2.55,2.47,4.23,2.47,.81,0,1.68-.15,2.64-.44,.95-.29,1.87-.64,2.75-1.04,.88-.4,1.67-.81,2.36-1.21,.7-.4,1.15-.68,1.37-.82,.66,0,1.06,.33,1.21,.99,0,.37-.07,.7-.22,.99-.15,.15-.7,.51-1.65,1.1-.95,.59-2.13,1.28-3.52,2.09-1.39,.81-2.93,1.67-4.62,2.58-1.69,.92-3.35,1.78-5,2.58-1.65,.81-3.17,1.46-4.56,1.98-1.39,.51-2.49,.77-3.3,.77-.95,0-1.78-.38-2.47-1.15-.7-.77-1.3-1.79-1.81-3.08-.51-1.28-.95-2.76-1.32-4.45-.37-1.68-.7-3.44-.99-5.28-1.32,1.1-3.01,2.4-5.06,3.9Zm-2.69-1.81c1.28-.66,2.4-1.32,3.35-1.98,.95-.66,1.61-1.17,1.98-1.54,.59-.59,1.04-1.08,1.37-1.48,.33-.4,.46-.97,.38-1.7-.22-1.24-.44-2.6-.66-4.07-.22-1.46-.44-2.86-.66-4.18-.22-1.32-.42-2.45-.6-3.41-.18-.95-.31-1.57-.38-1.87-1.17,.44-2.49,.95-3.96,1.54-1.47,.59-2.93,1.23-4.4,1.92-1.47,.7-2.86,1.39-4.18,2.09-1.32,.7-2.42,1.34-3.3,1.92-1.69,1.1-2.97,2.2-3.85,3.3-.88,1.1-1.32,2.42-1.32,3.96,0,2.13,.62,3.99,1.87,5.61,1.25,1.61,3.19,2.42,5.83,2.42,1.39,0,2.84-.26,4.34-.77,1.5-.51,2.89-1.1,4.18-1.76Zm366.43,14.39c-.11,0-.2,.06-.25,.17-.06,.11-.14,.17-.25,.17-2.48,2.14-5.63,4.02-9.45,5.65-3.83,1.63-8.94,2.45-15.36,2.45-4.72,0-9.11-.76-13.16-2.28s-7.51-3.71-10.38-6.58c-2.87-2.87-5.12-6.41-6.75-10.63-1.63-4.22-2.45-8.97-2.45-14.26,0-8.66,1.52-15.61,4.56-20.84,3.04-5.23,6.97-7.85,11.81-7.85,2.81,0,5.4,.45,7.76,1.35,2.36,.9,4.41,2,6.16,3.29,1.74,1.29,3.09,2.62,4.05,3.97,.95,1.35,1.43,2.48,1.43,3.37,0,.56,.08,1.13,.25,1.69,.17,.56,.65,.67,1.43,.34,1.24-.67,2.67-1.71,4.3-3.12,1.63-1.41,3.18-2.87,4.64-4.39,1.46-1.52,2.73-2.98,3.8-4.39,1.07-1.41,1.71-2.45,1.94-3.12,0-.56-.53-1.24-1.6-2.02-1.07-.79-2.59-1.54-4.56-2.28-1.97-.73-4.33-1.35-7.09-1.86-2.76-.51-5.88-.76-9.37-.76-4.28,0-9.23,.79-14.85,2.36-5.63,1.58-10.94,4.19-15.95,7.85-5.01,3.66-9.23,8.52-12.66,14.6-3.43,6.07-5.15,13.56-5.15,22.44,0,11.7,3.23,20.92,9.7,27.67,6.47,6.75,15.5,10.12,27.08,10.12,4.05,0,8.16-.79,12.32-2.36,4.16-1.57,8.16-3.46,11.98-5.65,3.82-2.19,7.23-4.41,10.21-6.67,2.98-2.25,5.32-4.05,7-5.4,.22-.22,.34-.56,.34-1.01,0-.56-.11-1.04-.34-1.43-.23-.39-.62-.59-1.18-.59Zm-396.85-3.53c1.04,1.08,2.25,1.99,3.63,2.75-1.55,1.94-3.08,3.67-4.6,5.19-2.31,2.31-3.97,3.97-4.98,4.98-1.24,1.01-2.93,2.36-5.06,4.05-2.14,1.69-4.61,3.37-7.42,5.06-2.81,1.69-5.91,3.12-9.28,4.3-3.37,1.18-6.92,1.77-10.63,1.77-5.63,0-10.63-.99-15.02-2.95-4.39-1.97-8.07-4.61-11.05-7.93-1.24-1.38-2.34-2.86-3.33-4.44-.07,.3-.17,.6-.3,.9-.23,.51-.51,.87-.84,1.1-1.13,.56-3.1,1.58-5.91,3.04-2.81,1.46-6.13,2.98-9.96,4.56-3.6,1.58-7.12,2.9-10.55,3.97-3.43,1.07-6.27,1.6-8.52,1.6-2.59,0-4.61-.79-6.07-2.36-1.46-1.57-2.19-3.54-2.19-5.91,0-.79,.03-1.46,.08-2.02,.06-.56,.14-1.29,.25-2.19,.06-.63,.15-1.55,.27-2.76-1.31,.73-3.05,1.68-5.24,2.84-2.87,1.52-6.05,3.12-9.53,4.81-4.28,2.14-8.61,4.05-12.99,5.74-4.39,1.69-7.93,2.53-10.63,2.53-2.02,0-3.4-.34-4.13-1.01-.73-.67-1.1-1.74-1.1-3.21v-2.28c0-1.07,.03-2.19,.08-3.37,.06-1.18,.08-2.3,.08-3.37v-2.45c-1.01,1.01-2.64,2.36-4.89,4.05-2.25,1.69-4.89,3.35-7.93,4.98-3.04,1.63-6.33,3.04-9.87,4.22-3.54,1.18-7.12,1.77-10.72,1.77s-7.42-.84-11.14-2.53c-3.71-1.69-7.06-4.13-10.04-7.34-2.98-3.21-5.37-7.06-7.17-11.56-1.8-4.5-2.7-9.56-2.7-15.19,0-7.31,1.27-13.95,3.8-19.91,2.53-5.96,6.24-11.02,11.14-15.19,4.89-4.16,10.86-7.37,17.89-9.62,7.03-2.25,15.1-3.37,24.21-3.37h4.56c1.46,0,2.81,.06,4.05,.17v-5.48c0-2.64-.03-5.37-.08-8.18-.06-2.81-.11-5.4-.17-7.76-.06-2.36-.08-3.82-.08-4.39-.45-4.5-1.21-7.65-2.28-9.45-1.07-1.8-3.24-2.7-6.5-2.7-.45,0-.7-.51-.76-1.52-.06-1.01,.31-1.8,1.1-2.36,.9-.56,1.91-.98,3.04-1.27,1.12-.28,2.81-.42,5.06-.42,4.27,0,7.85-.03,10.72-.08,2.87-.06,5.23-.17,7.09-.34,1.86-.17,3.35-.39,4.47-.67,1.12-.28,2.08-.59,2.87-.93,.56-.11,1.04,.03,1.43,.42,.39,.4,.67,.9,.84,1.52,.17,.62,.2,1.21,.08,1.77-.11,.56-.45,.9-1.01,1.01-1.24,.23-2.17,.48-2.78,.76-.62,.28-1.21,.82-1.77,1.6-.56,.79-1.07,2.87-1.52,6.24-.45,3.37-.9,7.54-1.35,12.49-.45,4.95-.84,10.44-1.18,16.45-.34,6.02-.62,12.07-.84,18.14-.23,6.07-.42,11.98-.59,17.72-.17,5.74-.25,10.74-.25,15.02,0,8.21,.9,14.26,2.7,18.14,1.8,3.88,4.56,5.82,8.27,5.82,1.35,0,2.84-.22,4.47-.67,1.63-.45,3.15-.98,4.56-1.6,1.41-.62,2.7-1.24,3.88-1.86,1.18-.62,2.05-1.15,2.62-1.6,.21-.17,.42-.23,.62-.19,.27-2.91,.54-6.16,.82-9.76,.28-3.71,.53-7.45,.76-11.22,.22-3.77,.34-7,.34-9.7v-5.91c0-2.92-.17-5.51-.51-7.76-.34-2.25-.9-3.99-1.69-5.23-.56-.79-1.27-1.43-2.11-1.94-.84-.51-1.88-.76-3.12-.76-.67,0-1.35,.14-2.02,.42-.67,.28-1.18,.42-1.52,.42-.23,0-.59-.34-1.1-1.01-.51-.67-.48-1.18,.08-1.52,.79-.56,2.42-1.46,4.89-2.7,2.47-1.24,5.17-2.59,8.1-4.05,3.15-1.57,6.19-2.95,9.11-4.13,2.92-1.18,5-1.77,6.24-1.77s2.08,.37,2.53,1.1c.45,.73,.67,1.55,.67,2.45v.67c0,1.13-.17,2.93-.51,5.4-.34,2.48-.7,5.51-1.1,9.11-.4,3.6-.76,7.76-1.1,12.49-.34,4.72-.51,9.85-.51,15.36v8.1c0,2.36,.06,4.64,.17,6.83,.11,2.19,.51,4.08,1.18,5.65,.67,1.58,1.69,2.84,3.04,3.8,1.35,.96,3.26,1.43,5.74,1.43,1.24,0,2.64-.14,4.22-.42,1.57-.28,3.06-.65,4.47-1.1,1.41-.45,2.64-.9,3.71-1.35,.75-.31,1.28-.57,1.62-.78-.96-1.76-1.79-3.64-2.46-5.64-1.52-4.5-2.28-9.28-2.28-14.34,0-5.96,.9-11.25,2.7-15.86,1.8-4.61,4.02-8.63,6.67-12.07,2.64-3.43,5.48-6.3,8.52-8.61,3.04-2.3,5.79-4.13,8.27-5.48,1.12-.67,2.56-1.41,4.3-2.19,1.74-.79,3.65-1.52,5.74-2.19,2.08-.67,4.33-1.27,6.75-1.77,2.42-.51,4.92-.76,7.51-.76,4.84,0,9.53,.62,14.09,1.86,4.56,1.24,8.58,3.18,12.07,5.82,.26,.2,.51,.41,.77,.62l-.25,.14-.62,1.23c-.48,.95-.71,2.05-.71,3.38,0,2.38,1.06,4.57,2.97,6.17,1.7,1.42,3.71,2.17,5.8,2.17,.65,0,1.27-.1,1.84-.3,.79,2.23,1.32,4.67,1.6,7.31-.48,.23-.96,.46-1.41,.69-2.54,1.23-4.57,2.25-6.04,3.02h-.02l-.02,.02c-3.51,1.88-6.09,3.72-7.89,5.61-2.24,2.36-3.43,5.46-3.43,8.98,0,2,.33,3.95,.98,5.8,.7,1.98,1.79,3.76,3.25,5.27Zm-153.77-21.51c0-2.59-.03-5.34-.08-8.27-.06-2.92-.14-4.95-.25-6.07-.23-1.91-1.01-3.71-2.36-5.4-1.35-1.69-3.09-3.15-5.23-4.39-2.14-1.24-4.64-2.22-7.51-2.95-2.87-.73-5.88-1.1-9.03-1.1s-5.91,.51-8.61,1.52-5.04,2.64-7,4.89c-1.97,2.25-3.52,5.15-4.64,8.69-1.13,3.54-1.69,7.9-1.69,13.08s.73,10.1,2.19,14.43c1.46,4.33,3.49,8.07,6.07,11.22,2.59,3.15,5.68,5.6,9.28,7.34,3.6,1.75,7.54,2.62,11.81,2.62,1.69,0,3.26-.25,4.72-.76,1.46-.51,2.78-1.12,3.97-1.86,1.18-.73,2.22-1.49,3.12-2.28,.9-.79,1.52-1.46,1.86-2.02,.9-1.24,1.57-2.67,2.02-4.3,.45-1.63,.79-3.85,1.01-6.67,.22-2.36,.34-5.26,.34-8.69v-9.03Zm148.66,7.59c0-5.06-.7-9.76-2.11-14.09-1.41-4.33-3.37-8.13-5.91-11.39-2.53-3.26-5.48-5.82-8.86-7.68s-7.03-2.78-10.97-2.78c-2.81,0-5.48,.73-8.02,2.19-2.53,1.46-4.75,3.57-6.67,6.33-1.91,2.76-3.43,6.1-4.56,10.04-1.13,3.94-1.69,8.38-1.69,13.33,0,5.29,.81,10.01,2.45,14.17,1.63,4.16,3.8,7.68,6.5,10.55,2.7,2.87,5.76,5.06,9.2,6.58,3.43,1.52,7,2.28,10.72,2.28,6.41,0,11.33-2.42,14.77-7.26,3.43-4.84,5.15-12.26,5.15-22.27Zm787.53-35.2c0,1.46-.28,2.67-.84,3.63-.56,.96-1.24,1.72-2.02,2.28-1.8,1.13-4.39,2.53-7.76,4.22-3.37,1.69-7.12,3.46-11.22,5.32-4.11,1.86-8.35,3.71-12.74,5.57-4.39,1.86-8.52,3.63-12.4,5.32-3.88,1.69-7.26,3.18-10.12,4.47-2.87,1.29-4.81,2.22-5.82,2.78,0,3.83,.76,7.4,2.28,10.72,1.52,3.32,3.63,6.22,6.33,8.69,2.7,2.48,5.93,4.42,9.7,5.82,3.77,1.41,7.9,2.11,12.4,2.11,4.05,0,7.7-.42,10.97-1.27,3.26-.84,6.02-1.8,8.27-2.87,2.25-1.07,4.02-2.02,5.32-2.87,1.29-.84,2-1.27,2.11-1.27,.45,0,.9,.2,1.35,.59,.45,.4,.67,.82,.67,1.27-1.24,1.35-3.15,3.21-5.74,5.57-2.59,2.36-5.71,4.72-9.37,7.09-3.66,2.36-7.74,4.39-12.23,6.07-4.5,1.69-9.28,2.53-14.34,2.53-4.61,0-9.11-.7-13.5-2.11-4.39-1.41-8.33-3.54-11.81-6.41-3.49-2.87-6.27-6.52-8.35-10.97-.09-.19-.17-.39-.25-.59-1.69,1.35-4.02,3.15-7,5.4-2.98,2.25-6.39,4.47-10.21,6.67-3.83,2.19-7.82,4.08-11.98,5.65-4.16,1.57-8.27,2.36-12.32,2.36-11.59,0-20.62-3.37-27.08-10.12-6.47-6.75-9.7-15.97-9.7-27.67,0-8.89,1.71-16.37,5.15-22.44,3.43-6.07,7.65-10.94,12.66-14.6,5-3.65,10.32-6.27,15.95-7.85,5.62-1.57,10.57-2.36,14.85-2.36,3.49,0,6.61,.25,9.37,.76,2.76,.51,5.12,1.13,7.09,1.86,1.97,.73,3.49,1.49,4.56,2.28,1.07,.79,1.6,1.46,1.6,2.02-.23,.67-.87,1.72-1.94,3.12-1.07,1.41-2.34,2.87-3.8,4.39-1.46,1.52-3.01,2.98-4.64,4.39-1.63,1.41-3.07,2.45-4.3,3.12-.79,.34-1.27,.23-1.43-.34-.17-.56-.25-1.12-.25-1.69,0-.9-.48-2.02-1.43-3.37-.96-1.35-2.31-2.67-4.05-3.97-1.75-1.29-3.8-2.39-6.16-3.29-2.36-.9-4.95-1.35-7.76-1.35-4.84,0-8.77,2.62-11.81,7.85-3.04,5.23-4.56,12.18-4.56,20.84,0,5.29,.82,10.04,2.45,14.26,1.63,4.22,3.88,7.76,6.75,10.63,2.87,2.87,6.33,5.06,10.38,6.58s8.44,2.28,13.16,2.28c6.41,0,11.53-.81,15.36-2.45,3.82-1.63,6.97-3.51,9.45-5.65,.11,0,.2-.06,.25-.17,.06-.11,.14-.17,.25-.17,.01,0,.02,0,.03,0-1.14-3.63-1.72-7.73-1.72-12.32,0-5.06,.34-9.42,1.01-13.08,.67-3.65,1.57-6.86,2.7-9.62,1.12-2.76,2.39-5.12,3.8-7.09,1.41-1.97,2.84-3.74,4.3-5.32,1.8-2.02,3.99-3.94,6.58-5.74,2.59-1.8,5.37-3.43,8.35-4.89,2.98-1.46,6.13-2.62,9.45-3.46,3.32-.84,6.67-1.27,10.04-1.27,6.07,0,10.83,1.01,14.26,3.04,3.43,2.02,5.15,4.84,5.15,8.44,0,2.25-.67,4.33-2.02,6.24,1.12-.34,2.56-.9,4.3-1.69,1.74-.79,3.51-1.6,5.32-2.45,1.8-.84,3.4-1.6,4.81-2.28,1.41-.67,2.33-1.18,2.78-1.52,.22-.22,.48-.31,.76-.25,.28,.06,.42,.25,.42,.59Zm-35.61,9.79c0-1.35-.25-2.76-.76-4.22-.51-1.46-1.27-2.78-2.28-3.97-1.01-1.18-2.25-2.14-3.71-2.87-1.46-.73-3.09-1.1-4.89-1.1-1.58,0-3.26,.54-5.06,1.6-1.8,1.07-3.49,2.81-5.06,5.23-1.58,2.42-2.9,5.63-3.97,9.62-1.07,3.99-1.6,8.86-1.6,14.6,1.91-.67,4.08-1.49,6.5-2.45,2.42-.95,4.78-2,7.09-3.12,2.3-1.12,4.41-2.19,6.33-3.21,1.91-1.01,3.37-1.91,4.39-2.7,2.02-1.46,3.04-3.94,3.04-7.42Zm-118.62,50.29c.11,.45,.14,.84,.08,1.18-.06,.34-.14,.56-.25,.67-.9,.56-2.84,1.63-5.82,3.21-2.98,1.58-6.3,3.18-9.96,4.81-3.66,1.63-7.28,3.1-10.88,4.39-3.6,1.29-6.47,1.94-8.61,1.94-2.59,0-4.36-.62-5.32-1.86-.96-1.24-1.43-2.53-1.43-3.88,0-.9,.14-2.02,.42-3.37,.28-1.35,.65-3.54,1.1-6.58,.45-3.26,.87-7.09,1.27-11.47,.39-4.39,.59-9.11,.59-14.17,0-9.9-1.83-17.41-5.48-22.53-3.66-5.12-8.24-7.68-13.75-7.68-3.49,0-6.58,.67-9.28,2.02s-5.01,3.18-6.92,5.48c-1.91,2.31-3.43,4.95-4.56,7.93-1.13,2.98-1.86,6.16-2.19,9.53-.11,1.01-.23,1.91-.34,2.7-.11,.79-.2,1.69-.25,2.7-.06,1.01-.11,2.28-.17,3.8-.06,1.52-.08,3.52-.08,5.99,0,4.05,.14,7.37,.42,9.96,.28,2.59,.7,4.64,1.27,6.16,.56,1.52,1.27,2.56,2.11,3.12,.84,.56,1.88,.84,3.12,.84,.79,0,1.63-.11,2.53-.34,.22,0,.42,.31,.59,.93,.17,.62,.14,1.04-.08,1.27-.67,.56-2,1.38-3.97,2.45-1.97,1.07-4.19,2.11-6.67,3.12-2.48,1.01-5.04,1.91-7.68,2.7-2.64,.79-4.87,1.18-6.67,1.18-1.58,0-2.81-.2-3.71-.59-.9-.4-1.35-.87-1.35-1.43s.06-.9,.17-1.01c.11-.11,.28-.39,.51-.84,.22-.56,.39-1.27,.51-2.11,.11-.84,.28-1.83,.51-2.95,.22-1.57,.45-3.57,.67-5.99,.22-2.42,.45-5.06,.67-7.93,.22-2.87,.42-5.85,.59-8.94,.17-3.09,.25-6.1,.25-9.03,0-1.24-.03-2.78-.08-4.64-.06-1.86-.14-4.24-.25-7.17-.11-3.26-.48-6.05-1.1-8.35-.62-2.3-1.41-4.16-2.36-5.57-.96-1.41-2.02-2.45-3.21-3.12-.84-.48-1.67-.78-2.48-.92-.1,.08-.2,.17-.3,.24-1.8,1.13-4.39,2.53-7.76,4.22-3.37,1.69-7.12,3.46-11.22,5.32-4.11,1.86-8.35,3.71-12.74,5.57-4.39,1.86-8.52,3.63-12.4,5.32-3.88,1.69-7.26,3.18-10.12,4.47-2.87,1.29-4.81,2.22-5.82,2.78,0,3.83,.76,7.4,2.28,10.72,1.52,3.32,3.63,6.22,6.33,8.69,2.7,2.48,5.93,4.42,9.7,5.82,3.77,1.41,7.9,2.11,12.4,2.11,4.05,0,7.7-.42,10.97-1.27,3.26-.84,6.02-1.8,8.27-2.87,2.25-1.07,4.02-2.02,5.32-2.87,1.29-.84,2-1.27,2.11-1.27,.45,0,.9,.2,1.35,.59,.45,.4,.67,.82,.67,1.27-1.24,1.35-3.15,3.21-5.74,5.57-2.59,2.36-5.71,4.72-9.37,7.09-3.66,2.36-7.74,4.39-12.23,6.07-4.5,1.69-9.28,2.53-14.34,2.53-4.61,0-9.11-.7-13.5-2.11-4.39-1.41-8.33-3.54-11.81-6.41-2.23-1.83-4.16-3.98-5.81-6.46-.07,.24-.15,.48-.26,.72-.23,.51-.51,.87-.84,1.1-1.13,.56-3.1,1.58-5.91,3.04-2.81,1.46-6.13,2.98-9.96,4.56-3.6,1.58-7.12,2.9-10.55,3.97-3.43,1.07-6.27,1.6-8.52,1.6-2.59,0-4.61-.79-6.07-2.36-1.46-1.57-2.19-3.54-2.19-5.91,0-.79,.03-1.46,.08-2.02,.06-.56,.14-1.29,.25-2.19,.11-1.12,.31-3.18,.59-6.16,.28-2.98,.56-6.33,.84-10.04,.28-3.71,.53-7.45,.76-11.22,.22-3.77,.34-7,.34-9.7v-5.91c0-2.92-.17-5.51-.51-7.76-.34-2.25-.9-3.99-1.69-5.23-.56-.79-1.27-1.43-2.11-1.94-.84-.51-1.88-.76-3.12-.76-.67,0-1.35,.14-2.02,.42-.67,.28-1.18,.42-1.52,.42-.23,0-.59-.34-1.1-1.01-.51-.67-.48-1.18,.08-1.52,.79-.56,2.42-1.46,4.89-2.7,2.47-1.24,5.17-2.59,8.1-4.05,3.15-1.57,6.19-2.95,9.11-4.13,2.92-1.18,5-1.77,6.24-1.77s2.08,.37,2.53,1.1c.45,.73,.67,1.55,.67,2.45v.67c0,1.13-.17,2.93-.51,5.4-.34,2.48-.7,5.51-1.1,9.11-.4,3.6-.76,7.76-1.1,12.49-.34,4.72-.51,9.85-.51,15.36v8.1c0,2.36,.06,4.64,.17,6.83,.11,2.19,.51,4.08,1.18,5.65,.67,1.58,1.69,2.84,3.04,3.8,1.35,.96,3.26,1.43,5.74,1.43,1.24,0,2.64-.14,4.22-.42,1.57-.28,3.06-.65,4.47-1.1,1.41-.45,2.64-.9,3.71-1.35,.64-.27,1.12-.5,1.46-.68-.52-.89-1.01-1.81-1.46-2.78-2.08-4.44-3.12-9.76-3.12-15.95,0-5.06,.34-9.42,1.01-13.08,.67-3.65,1.57-6.86,2.7-9.62,1.12-2.76,2.39-5.12,3.8-7.09,1.41-1.97,2.84-3.74,4.3-5.32,1.8-2.02,3.99-3.94,6.58-5.74,2.59-1.8,5.37-3.43,8.35-4.89,2.98-1.46,6.13-2.62,9.45-3.46,3.32-.84,6.67-1.27,10.04-1.27,6.07,0,10.83,1.01,14.26,3.04,3.43,2.02,5.15,4.84,5.15,8.44,0,2.25-.67,4.33-2.02,6.24,1.12-.34,2.56-.9,4.3-1.69,1.74-.79,3.51-1.6,5.32-2.45,1.8-.84,3.4-1.6,4.81-2.28,.48-.23,.91-.44,1.28-.64,.86-.54,1.81-1.11,2.85-1.73,2.47-1.46,5-2.81,7.59-4.05,2.59-1.24,5.03-2.3,7.34-3.21,2.3-.9,4.08-1.35,5.32-1.35,3.26,0,4.89,1.86,4.89,5.57,0,.56-.06,1.58-.17,3.04-.11,1.46-.2,2.95-.25,4.47-.06,1.52-.14,2.95-.25,4.3-.11,1.35-.17,2.25-.17,2.7,2.36-2.25,4.89-4.56,7.59-6.92,2.7-2.36,5.62-4.53,8.77-6.5,3.15-1.97,6.47-3.57,9.96-4.81,3.49-1.24,7.09-1.86,10.8-1.86,6.75,0,12.29,1.94,16.62,5.82,4.33,3.88,6.5,10.04,6.5,18.48,0,2.25-.14,4.89-.42,7.93-.28,3.04-.59,6.19-.93,9.45-.34,3.26-.65,6.47-.93,9.62-.28,3.15-.42,5.96-.42,8.44,0,9,2.92,13.5,8.77,13.5,1.12,0,2.39-.19,3.8-.59,1.41-.39,2.76-.84,4.05-1.35,1.29-.51,2.45-1.01,3.46-1.52,1.01-.51,1.69-.93,2.02-1.27,.11-.11,.25-.03,.42,.25,.17,.28,.31,.65,.42,1.1Zm-140.56-50.29c0-1.35-.25-2.76-.76-4.22-.51-1.46-1.27-2.78-2.28-3.97-1.01-1.18-2.25-2.14-3.71-2.87-1.46-.73-3.09-1.1-4.89-1.1-1.58,0-3.26,.54-5.06,1.6-1.8,1.07-3.49,2.81-5.06,5.23-1.58,2.42-2.9,5.63-3.97,9.62-1.07,3.99-1.6,8.86-1.6,14.6,1.91-.67,4.08-1.49,6.5-2.45,2.42-.95,4.78-2,7.09-3.12,2.3-1.12,4.41-2.19,6.33-3.21,1.91-1.01,3.37-1.91,4.39-2.7,2.02-1.46,3.04-3.94,3.04-7.42Zm-344.48,9.28c2.87,3.6,4.3,8.1,4.3,13.5,0,4.28-.87,8.35-2.62,12.23-1.75,3.88-4.08,7.48-7,10.8-2.93,3.32-6.27,6.36-10.04,9.11-3.77,2.76-7.71,5.09-11.81,7-4.11,1.91-8.27,3.4-12.49,4.47-4.22,1.07-8.13,1.6-11.73,1.6-2.14,0-4.81-.2-8.02-.59-3.21-.4-6.5-.93-9.87-1.6s-6.67-1.43-9.87-2.28c-3.21-.84-5.88-1.71-8.02-2.62-2.59,1.46-5.85,2.98-9.79,4.56-3.94,1.57-8.04,2.36-12.32,2.36-2.59,0-4.45-.23-5.57-.67-1.13-.45-1.69-1.35-1.69-2.7,0-.45,.08-.95,.25-1.52,.17-.56,.36-1.04,.59-1.43,.22-.39,.51-.67,.84-.84,.34-.17,.67-.03,1.01,.42,.67,.9,1.69,1.41,3.04,1.52,1.35,.11,2.81,.17,4.39,.17,2.36-.11,4.5-.93,6.41-2.45,1.91-1.52,3.32-3.57,4.22-6.16,.45-1.57,.9-4.05,1.35-7.42,.08-.63,.16-1.28,.24-1.95,.54-.15,1.11-.34,1.73-.56,1.58-.58,3.28-1.32,5.06-2.19,1.72-.84,3.48-1.75,5.25-2.71,1.75-.95,3.36-1.85,4.79-2.68,1.49-.86,2.69-1.58,3.67-2.18,.51-.31,.9-.56,1.23-.78,.09,2.27,.19,4.1,.31,5.46,.22,2.59,.45,4.56,.67,5.91,.34,1.91,1.15,3.8,2.45,5.65,1.29,1.86,2.98,3.57,5.06,5.15,2.08,1.58,4.5,2.84,7.26,3.8,2.76,.96,5.82,1.43,9.2,1.43,3.6,0,6.97-.62,10.12-1.86,3.15-1.24,5.88-3.18,8.18-5.82,2.3-2.64,4.13-6.05,5.48-10.21,1.35-4.16,2.02-9.17,2.02-15.02,0-5.29-.84-9.79-2.53-13.5-1.69-3.71-4.08-6.72-7.17-9.03-3.1-2.3-6.83-3.97-11.22-4.98-4.39-1.01-9.28-1.52-14.68-1.52-3.15,0-6.13,.03-8.94,.08-2.81,.06-4.89,.14-6.24,.25-.11,1.24-.17,2.53-.17,3.88v20.23c-.82-.43-1.75-.67-2.75-.67h-1.39l-1.15,.77s-.26,.17-1.13,.67c-.59,.34-1.27,.69-2.01,1.03-.71,.33-1.46,.61-2.23,.85-.66,.2-1.09,.25-1.34,.25-.04,0-.06,0-.06,0,0,0-.18-.1-.49-.54-.86-1.25-1.6-2.99-2.2-5.2-.68-2.47-1.19-5.37-1.54-8.64-.36-3.43-.66-7.05-.87-10.77-.15-2.56-.32-4.98-.51-7.19-.24-2.76-.9-5.25-1.97-7.39-.08-.15-.17-.3-.25-.45-.18-8.02-.52-14.68-1.03-19.98-.79-8.16-1.8-12.85-3.04-14.09-.9-.67-2.02-1.21-3.37-1.6-1.35-.39-2.73-.65-4.13-.76-1.41-.11-2.78-.17-4.13-.17s-2.42,.06-3.21,.17c-.79,.11-1.41-.11-1.86-.67-.45-.56-.67-1.12-.67-1.69,0-2.02,.73-3.04,2.19-3.04,.79,0,2.19,.08,4.22,.25,2.02,.17,4.36,.34,7,.51,2.64,.17,5.43,.31,8.35,.42,2.92,.11,5.57,.17,7.93,.17,2.92,0,5.65-.45,8.18-1.35,2.53-.9,5.15-1.91,7.85-3.04,2.7-1.12,5.65-2.14,8.86-3.04,3.21-.9,6.94-1.35,11.22-1.35,5.29,0,10.24,.45,14.85,1.35,4.61,.9,8.61,2.28,11.98,4.13s6.05,4.25,8.02,7.17c1.97,2.93,2.95,6.36,2.95,10.29,0,4.5-.96,8.58-2.87,12.23-1.91,3.66-4.3,6.89-7.17,9.7-2.87,2.81-5.91,5.2-9.11,7.17-3.21,1.97-6.1,3.46-8.69,4.47,4.16,.34,8.72,1.04,13.67,2.11,4.95,1.07,9.56,2.7,13.84,4.89,4.27,2.19,7.85,5.09,10.72,8.69Zm-36.11-27.67c1.63-3.26,2.45-7.76,2.45-13.5,0-4.05-.56-7.62-1.69-10.72-1.13-3.09-2.59-5.68-4.39-7.76-1.8-2.08-3.85-3.63-6.16-4.64-2.31-1.01-4.7-1.52-7.17-1.52-1.24,0-2.76,.17-4.56,.51-1.8,.34-3.54,.87-5.23,1.6-1.69,.73-3.23,1.75-4.64,3.04-1.41,1.29-2.34,2.84-2.78,4.64-.23,1.46-.45,3.49-.67,6.07-.23,2.59-.45,5.6-.67,9.03-.23,3.43-.42,7.15-.59,11.14-.17,3.99-.31,8.13-.42,12.4,.11,.34,.73,.59,1.86,.76,1.12,.17,2.45,.31,3.97,.42,1.52,.11,3.12,.2,4.81,.25,1.69,.06,3.21,.08,4.56,.08,2.14,0,3.99-.08,5.57-.25,1.57-.17,2.95-.45,4.13-.84,1.18-.39,2.28-.87,3.29-1.43,1.01-.56,2.02-1.29,3.04-2.19,1.91-1.46,3.68-3.82,5.32-7.09Zm150.26,68c-.23,.23-1.07,.79-2.53,1.69-1.46,.9-3.26,1.97-5.4,3.21-2.14,1.24-4.5,2.56-7.09,3.97-2.59,1.41-5.15,2.73-7.68,3.97-2.53,1.24-4.87,2.25-7,3.04-2.14,.79-3.83,1.18-5.06,1.18-1.46,0-2.73-.59-3.8-1.77-1.07-1.18-2-2.76-2.78-4.72-.79-1.97-1.46-4.24-2.02-6.83-.56-2.59-1.07-5.29-1.52-8.1-2.02,1.69-4.61,3.69-7.76,5.99-3.15,2.31-6.58,4.47-10.29,6.5-3.71,2.02-7.51,3.74-11.39,5.15-3.88,1.41-7.62,2.11-11.22,2.11-3.04,0-5.68-.48-7.93-1.43-2.25-.95-4.13-2.22-5.65-3.8-1.52-1.57-2.64-3.4-3.37-5.48-.73-2.08-1.1-4.24-1.1-6.5,0-3.6,1.1-6.55,3.29-8.86,2.19-2.3,5.59-4.7,10.21-7.17,2.14-1.12,5.12-2.62,8.94-4.47,3.82-1.86,7.73-3.74,11.73-5.65,3.99-1.91,7.7-3.74,11.14-5.48,3.43-1.74,5.93-3.12,7.51-4.13-.67-3.49-1.46-6.61-2.36-9.37-.9-2.76-2.02-5.06-3.37-6.92-1.35-1.86-2.98-3.26-4.89-4.22-1.91-.95-4.28-1.43-7.09-1.43-2.48,0-4.75,.45-6.83,1.35-2.08,.9-3.88,1.97-5.4,3.21-1.52,1.24-2.7,2.48-3.54,3.71-.84,1.24-1.32,2.19-1.43,2.87-.11,.9-.62,1.35-1.52,1.35-1.58,0-3.04-.56-4.39-1.69-1.35-1.12-2.02-2.47-2.02-4.05,0-.9,.11-1.57,.34-2.02,2.59-1.46,5.74-3.04,9.45-4.72,3.71-1.69,7.56-3.26,11.56-4.72,3.99-1.46,7.96-2.67,11.9-3.63,3.94-.95,7.48-1.43,10.63-1.43,4.72,0,8.35,.67,10.88,2.02,2.53,1.35,4.41,3.26,5.65,5.74,1.24,2.48,2,5.37,2.28,8.69,.28,3.32,.53,6.89,.76,10.72,.34,5.74,.79,11.28,1.35,16.62,.56,5.34,1.41,10.07,2.53,14.17,1.12,4.11,2.56,7.42,4.3,9.96,1.74,2.53,3.91,3.8,6.5,3.8,1.24,0,2.59-.22,4.05-.67,1.46-.45,2.87-.98,4.22-1.6,1.35-.62,2.56-1.24,3.63-1.86,1.07-.62,1.77-1.04,2.11-1.27,1.01,0,1.63,.51,1.86,1.52,0,.56-.11,1.07-.34,1.52Zm-45.9-11.47c-.34-1.91-.67-3.99-1.01-6.24-.34-2.25-.67-4.39-1.01-6.41-.34-2.02-.65-3.77-.93-5.23-.28-1.46-.48-2.42-.59-2.87-1.8,.67-3.83,1.46-6.07,2.36-2.25,.9-4.5,1.89-6.75,2.95-2.25,1.07-4.39,2.14-6.41,3.21-2.02,1.07-3.71,2.05-5.06,2.95-2.59,1.69-4.56,3.37-5.91,5.06s-2.02,3.71-2.02,6.07c0,3.26,.95,6.13,2.87,8.61,1.91,2.48,4.89,3.71,8.94,3.71,2.14,0,4.36-.39,6.67-1.18,2.3-.79,4.44-1.69,6.41-2.7,1.97-1.01,3.68-2.02,5.15-3.04,1.46-1.01,2.47-1.8,3.04-2.36,.9-.9,1.6-1.66,2.11-2.28,.51-.62,.7-1.49,.59-2.62Zm115.59-45.39v-.17c0-1.24-.45-1.86-1.35-1.86-.45,.23-1.01,.51-1.69,.84s-1.75,.51-3.21,.51c-1.69,0-3.32-.56-4.89-1.69-1.58-1.12-3.1-2.39-4.56-3.8-1.46-1.41-2.84-2.67-4.13-3.8-1.29-1.12-2.62-1.69-3.97-1.69-3.6,0-7.42,2.05-11.47,6.16-4.05,4.11-8.61,9.87-13.67,17.3,0-1.69,.03-3.26,.08-4.72,.06-1.46,.08-2.87,.08-4.22,0-1.8-.11-3.63-.34-5.48-.23-1.86-.59-3.51-1.1-4.98-.51-1.46-1.27-2.67-2.28-3.63-1.01-.95-2.25-1.43-3.71-1.43-1.24,0-3.15,.56-5.74,1.69-2.59,1.13-5.26,2.39-8.02,3.8-2.76,1.41-5.43,2.87-8.02,4.39-2.59,1.52-4.5,2.67-5.74,3.46-.67,.34-1.01,.84-1.01,1.52s.34,1.01,1.01,1.01c.45-.11,.9-.17,1.35-.17h1.52c2.7,0,4.92,.59,6.67,1.77,1.74,1.18,3.12,3.12,4.13,5.82,1.01,2.7,1.71,6.24,2.11,10.63,.39,4.39,.59,9.73,.59,16.03,0,2.81-.08,5.65-.25,8.52-.17,2.87-.4,5.65-.67,8.35-.28,2.7-.56,5.2-.84,7.51-.28,2.31-.53,4.3-.76,5.99-.23,1.24-.48,2.08-.76,2.53-.28,.45-.42,.96-.42,1.52s.59,1.12,1.77,1.69c1.18,.56,2.67,.84,4.47,.84,1.57,0,3.46-.4,5.65-1.18,2.19-.79,4.08-1.52,5.65-2.19,1.69-.79,3.82-1.77,6.41-2.95,2.59-1.18,5.12-2.28,7.59-3.29,.11,0,.34-.14,.67-.42,.34-.28,.51-.53,.51-.76,0-.34-.08-.79-.25-1.35-.17-.56-.42-.79-.76-.67-1.69,.45-3.26,.67-4.72,.67-1.35,0-2.5-.22-3.46-.67-.96-.45-1.72-1.32-2.28-2.62-.56-1.29-.99-3.04-1.27-5.23-.28-2.19-.42-5.03-.42-8.52,0-4.16,.31-8.49,.93-12.99,.62-4.5,1.57-8.66,2.87-12.49,1.29-3.82,2.98-6.97,5.06-9.45,2.08-2.47,4.64-3.71,7.68-3.71,1.12,0,2.19,.37,3.21,1.1,1.01,.73,2.05,1.52,3.12,2.36,1.07,.84,2.22,1.63,3.46,2.36,1.24,.73,2.64,1.1,4.22,1.1,1.8,0,3.65-.51,5.57-1.52,1.91-1.01,3.8-2.22,5.65-3.63,1.86-1.41,3.63-2.87,5.32-4.39,1.69-1.52,3.15-2.78,4.39-3.8Z"/></g></g></g></svg>