<?xml version="1.0" encoding="UTF-8"?><svg xmlns="http://www.w3.org/2000/svg" xmlns:xlink="http://www.w3.org/1999/xlink" viewBox="0 0 750.89 383.2"><defs><style>.e{fill:url(#d);}</style><linearGradient id="d" x1="0" y1="191.6" x2="750.89" y2="191.6" gradientTransform="matrix(1, 0, 0, 1, 0, 0)" gradientUnits="userSpaceOnUse"><stop offset="0" stop-color="#b47a1a"/><stop offset=".2" stop-color="#ffe55a"/><stop offset=".4" stop-color="#ffec88"/><stop offset=".6" stop-color="#ffec88"/><stop offset=".8" stop-color="#ffe55a"/><stop offset="1" stop-color="#b47a1a"/></linearGradient></defs><g id="a"/><g id="b"><g id="c"><path class="e" d="M34.47,44.41L23.37,0h7.87l7.3,30.71L45.64,0h8.06l-11.04,44.41h-8.18Zm29.5,0h6.98V0h-10.91V6.73l3.93,.13V44.41Zm41.62-23.41l7.3,23.41h5.33l7.42-23.48v23.48h6.98V0h-6.98l-10.09,29.38L105.59,0h-6.98V44.41h6.98V21Zm34.45,12.69v-5.27c0-4.19,1.46-7,4.38-8.44,1.4-.68,2.98-1.02,4.76-1.02,1.56,0,3.11,.21,4.63,.63,1.52,.42,2.75,.89,3.68,1.4,0-1.56-.64-2.63-1.9-3.2-1.27-.57-2.9-.86-4.89-.86l.57-4.82c4.06,0,7.05,.65,8.98,1.93,1.92,1.29,3.11,2.82,3.55,4.6,.44,1.78,.67,4.06,.67,6.85v18.91c-4.57,.46-7.87,.7-9.9,.7-4.44,0-7.97-.82-10.6-2.47-2.62-1.65-3.93-4.63-3.93-8.95Zm7.04-.89c0,3.85,2.26,5.77,6.79,5.77,1.31,0,2.52-.11,3.62-.32v-9.83c-.76-.55-1.83-1.07-3.2-1.55-1.38-.49-2.63-.73-3.77-.73-1.02,0-1.84,.25-2.48,.76-.63,.51-.95,1.31-.95,2.41v3.49Zm30.52-8.82c0-1.56,.55-2.82,1.65-3.78,1.1-.95,2.43-1.43,4-1.43,1.14,0,2.3,.3,3.49,.89l1.65-6.79-1.27-.25c-2.03-.42-3.58-.63-4.63-.63-1.52,0-3.15,.3-4.89,.89l-.51-.25h-6.47v31.79h6.98V23.98Zm19.22,20.3c1.52,.51,3.43,.76,5.71,.76,2.45,0,4.99-.34,7.61-1.02l-1.9-6.85c-.59,.21-1.4,.42-2.41,.63-1.01,.21-2.03,.32-3.05,.32-1.78,0-3.24-.34-4.38-1.02-1.14-.68-1.71-1.82-1.71-3.43v-9.2c0-1.61,.52-2.94,1.55-4,1.04-1.06,2.51-1.59,4.41-1.59,1.61,0,3.43,.4,5.46,1.21l1.9-6.03c-2.92-1.35-5.75-2.03-8.5-2.03-3.47,0-6.3,1.09-8.5,3.27-2.2,2.18-3.3,5.36-3.3,9.55v8.12c0,3.17,.56,5.64,1.68,7.39,1.12,1.76,2.93,3.06,5.42,3.9Zm23.79-24.55c.46-.3,1.08-.56,1.84-.79,.76-.23,1.54-.35,2.35-.35,1.52,0,2.78,.49,3.78,1.46,.99,.97,1.49,2.6,1.49,4.89v19.48h6.98V22.46c0-2.33-.48-4.25-1.43-5.77-.95-1.52-2.27-2.67-3.97-3.43-1.73-.8-3.7-1.21-5.9-1.21-1.95,0-3.66,.28-5.14,.82V0h-6.98V44.41h6.98V19.73Zm22.59,13.96v-5.27c0-4.19,1.46-7,4.38-8.44,1.4-.68,2.98-1.02,4.76-1.02,1.56,0,3.11,.21,4.63,.63,1.52,.42,2.75,.89,3.68,1.4,0-1.56-.64-2.63-1.9-3.2-1.27-.57-2.9-.86-4.89-.86l.57-4.82c4.06,0,7.05,.65,8.98,1.93,1.92,1.29,3.11,2.82,3.55,4.6s.67,4.06,.67,6.85v18.91c-4.57,.46-7.87,.7-9.9,.7-4.44,0-7.97-.82-10.6-2.47-2.62-1.65-3.93-4.63-3.93-8.95Zm7.04-.89c0,3.85,2.26,5.77,6.79,5.77,1.31,0,2.52-.11,3.62-.32v-9.83c-.76-.55-1.83-1.07-3.2-1.55-1.38-.49-2.63-.73-3.77-.73-1.02,0-1.84,.25-2.48,.76-.63,.51-.95,1.31-.95,2.41v3.49Zm49.23-11.8l7.3,23.41h5.33l7.42-23.48v23.48h6.98V0h-6.98l-10.09,29.38L299.49,0h-6.98V44.41h6.98V21Zm41.24,23.41h6.98V7.04h9.39V0h-25.51V7.04h9.14V44.41Zm35.21,0h-13.9V0h12.94c3.51,0,6.43,.97,8.75,2.92,2.33,1.95,3.49,4.72,3.49,8.31,0,1.69-.28,3.3-.82,4.82-.55,1.52-1.67,2.85-3.36,4l-.06,.13v.06c1.86,.85,3.42,2.2,4.66,4.06,1.25,1.86,1.87,4.23,1.87,7.11,0,2.2-.44,4.28-1.33,6.25-.89,1.97-2.35,3.58-4.38,4.85-2.03,1.27-4.65,1.9-7.87,1.9Zm-6.92-26.2h3.05c2.41,0,4.19-.44,5.33-1.33,1.14-.89,1.71-2.41,1.71-4.57,0-1.99-.53-3.37-1.59-4.16-1.06-.78-2.66-1.17-4.82-1.17h-3.68v11.23Zm3.87,19.8c1.95,0,3.52-.16,4.73-.48,1.21-.32,2.16-.96,2.85-1.93,.7-.97,1.05-2.41,1.05-4.31,0-2.41-.74-4.07-2.22-4.98-1.48-.91-3.43-1.36-5.84-1.36h-4.44v13.07h3.87ZM89.49,366.32c0,.48-.1,.91-.29,1.29-.19,.19-.91,.67-2.15,1.43-1.24,.76-2.77,1.67-4.58,2.72-1.81,1.05-3.82,2.17-6.01,3.36-2.2,1.19-4.36,2.31-6.51,3.36-2.15,1.05-4.13,1.91-5.94,2.58-1.81,.67-3.24,1-4.29,1-1.24,0-2.31-.5-3.22-1.5-.91-1-1.69-2.34-2.36-4.01-.67-1.67-1.24-3.6-1.72-5.8-.48-2.19-.91-4.48-1.29-6.87-1.72,1.43-3.91,3.13-6.58,5.08-2.67,1.96-5.58,3.79-8.73,5.51-3.15,1.72-6.37,3.17-9.66,4.36-3.29,1.19-6.46,1.79-9.52,1.79-2.58,0-4.82-.41-6.73-1.22-1.91-.81-3.51-1.88-4.79-3.22-1.29-1.34-2.24-2.88-2.86-4.65-.62-1.76-.93-3.6-.93-5.51,0-3.05,.93-5.56,2.79-7.51,1.86-1.95,4.75-3.98,8.66-6.08,1.81-.95,4.34-2.22,7.58-3.79,3.24-1.57,6.56-3.17,9.95-4.79,3.38-1.62,6.53-3.17,9.44-4.65,2.91-1.48,5.03-2.65,6.37-3.51-.57-2.96-1.24-5.6-2-7.94-.76-2.34-1.72-4.29-2.86-5.87-1.15-1.57-2.53-2.77-4.15-3.58-1.62-.81-3.63-1.22-6.01-1.22-2.1,0-4.03,.38-5.8,1.14-1.77,.76-3.29,1.67-4.58,2.72-1.29,1.05-2.29,2.1-3.01,3.15-.72,1.05-1.12,1.86-1.22,2.43-.1,.76-.53,1.14-1.29,1.14-1.34,0-2.58-.48-3.72-1.43-1.14-.95-1.72-2.1-1.72-3.43,0-.76,.09-1.34,.29-1.72,2.19-1.24,4.87-2.58,8.01-4.01,3.15-1.43,6.42-2.77,9.8-4.01,3.39-1.24,6.75-2.26,10.09-3.08,3.34-.81,6.34-1.22,9.01-1.22,4.01,0,7.08,.57,9.23,1.72s3.74,2.77,4.79,4.87c1.05,2.1,1.69,4.56,1.93,7.37,.24,2.82,.45,5.85,.64,9.09,.29,4.87,.67,9.57,1.14,14.1,.48,4.53,1.19,8.54,2.15,12.02,.95,3.48,2.17,6.3,3.65,8.44,1.48,2.15,3.31,3.22,5.51,3.22,1.05,0,2.19-.19,3.44-.57,1.24-.38,2.43-.83,3.58-1.36,1.15-.52,2.17-1.05,3.08-1.57,.9-.52,1.5-.88,1.79-1.07,.86,0,1.38,.43,1.57,1.29Zm-39.21-8.44c-.29-1.62-.57-3.38-.86-5.29-.29-1.91-.57-3.72-.86-5.44-.29-1.72-.55-3.2-.79-4.44-.24-1.24-.41-2.05-.5-2.43-1.53,.57-3.24,1.24-5.15,2-1.91,.76-3.82,1.6-5.72,2.5-1.91,.91-3.72,1.81-5.44,2.72-1.72,.91-3.15,1.74-4.29,2.5-2.2,1.43-3.86,2.86-5.01,4.29-1.14,1.43-1.72,3.15-1.72,5.15,0,2.77,.81,5.2,2.43,7.3,1.62,2.1,4.15,3.15,7.58,3.15,1.81,0,3.7-.33,5.65-1,1.95-.67,3.77-1.43,5.44-2.29,1.67-.86,3.12-1.72,4.36-2.58,1.24-.86,2.1-1.53,2.58-2,.76-.76,1.36-1.41,1.79-1.93,.43-.52,.59-1.26,.5-2.22Zm158.48-24.47c2.43,3.05,3.65,6.87,3.65,11.45,0,3.63-.74,7.08-2.22,10.37-1.48,3.29-3.46,6.35-5.94,9.16-2.48,2.81-5.32,5.39-8.51,7.73-3.2,2.34-6.54,4.32-10.02,5.94-3.48,1.62-7.01,2.88-10.59,3.79-3.58,.91-6.89,1.36-9.95,1.36-1.81,0-4.08-.17-6.8-.5-2.72-.34-5.51-.79-8.37-1.36-2.86-.57-5.65-1.22-8.37-1.93-2.72-.72-4.99-1.45-6.8-2.22-2.2,1.24-4.96,2.53-8.3,3.86-3.34,1.34-6.82,2-10.45,2-2.2,0-3.77-.19-4.72-.57-.96-.38-1.43-1.14-1.43-2.29,0-.38,.07-.81,.21-1.29,.14-.48,.31-.88,.5-1.22,.19-.33,.43-.57,.72-.72,.29-.14,.57-.02,.86,.36,.57,.76,1.43,1.19,2.58,1.29,1.14,.1,2.38,.14,3.72,.14,2-.09,3.81-.79,5.44-2.08,1.62-1.29,2.81-3.03,3.58-5.22,.38-1.34,.76-3.43,1.14-6.3,.38-2.86,.69-6.3,.93-10.3,.24-4.01,.43-8.47,.57-13.38,.14-4.91,.21-10.09,.21-15.53,0-12.4-.33-22.06-1-28.98-.67-6.92-1.53-10.9-2.58-11.95-.76-.57-1.72-1.02-2.86-1.36-1.14-.33-2.31-.55-3.51-.64-1.19-.09-2.36-.14-3.51-.14s-2.05,.05-2.72,.14c-.67,.1-1.19-.09-1.57-.57-.38-.48-.57-.95-.57-1.43,0-1.72,.62-2.58,1.86-2.58,.67,0,1.86,.07,3.58,.21,1.72,.14,3.7,.29,5.94,.43,2.24,.14,4.6,.26,7.08,.36,2.48,.1,4.72,.14,6.73,.14,2.48,0,4.79-.38,6.94-1.14,2.15-.76,4.36-1.62,6.65-2.58,2.29-.95,4.79-1.81,7.51-2.58,2.72-.76,5.89-1.15,9.52-1.15,4.48,0,8.68,.38,12.59,1.15,3.91,.76,7.3,1.93,10.16,3.51,2.86,1.57,5.13,3.6,6.8,6.08,1.67,2.48,2.5,5.39,2.5,8.73,0,3.82-.81,7.28-2.43,10.38-1.62,3.1-3.65,5.84-6.08,8.23-2.43,2.39-5.01,4.41-7.73,6.08-2.72,1.67-5.18,2.93-7.37,3.79,3.53,.29,7.39,.88,11.59,1.79,4.2,.91,8.11,2.29,11.73,4.15,3.62,1.86,6.65,4.32,9.09,7.37Zm-61.6-14.74c.09,.29,.62,.5,1.57,.64,.95,.14,2.08,.26,3.36,.36,1.29,.1,2.65,.17,4.08,.22,1.43,.05,2.72,.07,3.86,.07,1.81,0,3.39-.07,4.72-.22,1.34-.14,2.5-.38,3.51-.72,1-.33,1.93-.74,2.79-1.22,.86-.48,1.72-1.1,2.58-1.86,1.62-1.24,3.12-3.24,4.51-6.01,1.38-2.77,2.07-6.58,2.07-11.45,0-3.43-.48-6.46-1.43-9.09-.95-2.62-2.2-4.82-3.72-6.58-1.53-1.76-3.27-3.08-5.22-3.93-1.96-.86-3.98-1.29-6.08-1.29-1.05,0-2.34,.14-3.86,.43-1.53,.29-3,.74-4.44,1.36-1.43,.62-2.74,1.48-3.94,2.58-1.19,1.1-1.98,2.41-2.36,3.94-.19,1.24-.38,2.96-.57,5.15-.19,2.2-.38,4.75-.57,7.66-.19,2.91-.36,6.06-.5,9.44-.14,3.39-.26,6.89-.36,10.52Zm43.22,30.77c0-4.48-.72-8.3-2.15-11.45-1.43-3.15-3.46-5.7-6.08-7.66-2.62-1.95-5.79-3.36-9.52-4.22-3.72-.86-7.87-1.29-12.45-1.29-2.67,0-5.2,.02-7.58,.07-2.39,.05-4.15,.12-5.3,.22-.1,1.05-.14,2.15-.14,3.29v19.6c.09,4.96,.24,8.54,.43,10.73,.19,2.2,.38,3.86,.57,5.01,.29,1.62,.98,3.22,2.07,4.79,1.1,1.57,2.53,3.03,4.29,4.36,1.76,1.34,3.81,2.41,6.15,3.22,2.34,.81,4.94,1.22,7.8,1.22,3.05,0,5.91-.52,8.59-1.57,2.67-1.05,4.98-2.69,6.94-4.94,1.95-2.24,3.51-5.13,4.65-8.66,1.14-3.53,1.72-7.77,1.72-12.74Zm115.19,18.17c-.19,.19-.91,.67-2.15,1.43-1.24,.76-2.77,1.67-4.58,2.72-1.81,1.05-3.82,2.17-6.01,3.36-2.2,1.19-4.36,2.31-6.51,3.36-2.15,1.05-4.13,1.91-5.94,2.58-1.81,.67-3.24,1-4.29,1-1.24,0-2.31-.5-3.22-1.5-.91-1-1.69-2.34-2.36-4.01-.67-1.67-1.24-3.6-1.72-5.8-.48-2.19-.91-4.48-1.29-6.87-1.72,1.43-3.91,3.13-6.58,5.08-2.67,1.96-5.58,3.79-8.73,5.51-3.15,1.72-6.37,3.17-9.66,4.36-3.29,1.19-6.46,1.79-9.52,1.79-2.58,0-4.82-.41-6.73-1.22-1.91-.81-3.51-1.88-4.79-3.22-1.29-1.34-2.24-2.88-2.86-4.65-.62-1.76-.93-3.6-.93-5.51,0-3.05,.93-5.56,2.79-7.51,1.86-1.95,4.75-3.98,8.66-6.08,1.81-.95,4.34-2.22,7.58-3.79,3.24-1.57,6.56-3.17,9.95-4.79,3.38-1.62,6.53-3.17,9.44-4.65,2.91-1.48,5.03-2.65,6.37-3.51-.57-2.96-1.24-5.6-2-7.94-.76-2.34-1.72-4.29-2.86-5.87-1.15-1.57-2.53-2.77-4.15-3.58-1.62-.81-3.63-1.22-6.01-1.22-2.1,0-4.03,.38-5.8,1.14-1.77,.76-3.29,1.67-4.58,2.72-1.29,1.05-2.29,2.1-3.01,3.15-.72,1.05-1.12,1.86-1.22,2.43-.1,.76-.53,1.14-1.29,1.14-1.34,0-2.58-.48-3.72-1.43-1.14-.95-1.72-2.1-1.72-3.43,0-.76,.09-1.34,.29-1.72,2.19-1.24,4.87-2.58,8.01-4.01,3.15-1.43,6.42-2.77,9.8-4.01,3.39-1.24,6.75-2.26,10.09-3.08,3.34-.81,6.34-1.22,9.01-1.22,4.01,0,7.08,.57,9.23,1.72s3.74,2.77,4.79,4.87c1.05,2.1,1.69,4.56,1.93,7.37,.24,2.82,.45,5.85,.64,9.09,.29,4.87,.67,9.57,1.14,14.1,.48,4.53,1.19,8.54,2.15,12.02,.95,3.48,2.17,6.3,3.65,8.44,1.48,2.15,3.31,3.22,5.51,3.22,1.05,0,2.19-.19,3.44-.57,1.24-.38,2.43-.83,3.58-1.36,1.15-.52,2.17-1.05,3.08-1.57,.9-.52,1.5-.88,1.79-1.07,.86,0,1.38,.43,1.57,1.29,0,.48-.1,.91-.29,1.29Zm-38.92-9.73c-.29-1.62-.57-3.38-.86-5.29-.29-1.91-.57-3.72-.86-5.44-.29-1.72-.55-3.2-.79-4.44-.24-1.24-.41-2.05-.5-2.43-1.53,.57-3.24,1.24-5.15,2-1.91,.76-3.82,1.6-5.72,2.5-1.91,.91-3.72,1.81-5.44,2.72-1.72,.91-3.15,1.74-4.29,2.5-2.2,1.43-3.86,2.86-5.01,4.29s-1.72,3.15-1.72,5.15c0,2.77,.81,5.2,2.43,7.3,1.62,2.1,4.15,3.15,7.58,3.15,1.81,0,3.7-.33,5.65-1,1.95-.67,3.77-1.43,5.44-2.29,1.67-.86,3.12-1.72,4.36-2.58,1.24-.86,2.1-1.53,2.58-2,.76-.76,1.36-1.41,1.79-1.93,.43-.52,.59-1.26,.5-2.22Zm98.02-38.49v-.14c0-1.05-.38-1.57-1.14-1.57-.38,.19-.86,.43-1.43,.72-.57,.29-1.48,.43-2.72,.43-1.43,0-2.81-.48-4.15-1.43-1.34-.95-2.63-2.03-3.86-3.22-1.24-1.19-2.41-2.26-3.51-3.22-1.1-.95-2.22-1.43-3.36-1.43-3.05,0-6.3,1.74-9.73,5.22-3.43,3.48-7.3,8.37-11.59,14.67,0-1.43,.02-2.77,.07-4.01,.05-1.24,.07-2.43,.07-3.58,0-1.53-.1-3.08-.29-4.65-.19-1.57-.5-2.98-.93-4.22-.43-1.24-1.07-2.27-1.93-3.08-.86-.81-1.91-1.22-3.15-1.22-1.05,0-2.67,.48-4.87,1.43-2.2,.95-4.46,2.03-6.8,3.22-2.34,1.19-4.6,2.43-6.8,3.72-2.2,1.29-3.82,2.27-4.87,2.93-.57,.29-.86,.72-.86,1.29s.29,.86,.86,.86c.38-.09,.76-.14,1.14-.14h1.29c2.29,0,4.17,.5,5.65,1.5,1.48,1,2.65,2.65,3.51,4.94,.86,2.29,1.45,5.29,1.79,9.01,.33,3.72,.5,8.25,.5,13.59,0,2.39-.07,4.79-.22,7.23-.14,2.43-.33,4.79-.57,7.08-.24,2.29-.48,4.41-.72,6.37-.24,1.96-.45,3.65-.64,5.08-.19,1.05-.41,1.77-.64,2.15-.24,.38-.36,.81-.36,1.29s.5,.95,1.5,1.43c1,.48,2.26,.72,3.79,.72,1.34,0,2.93-.34,4.79-1,1.86-.67,3.46-1.29,4.79-1.86,1.43-.67,3.24-1.5,5.44-2.5,2.19-1,4.34-1.93,6.44-2.79,.09,0,.29-.12,.57-.36,.29-.24,.43-.45,.43-.64,0-.29-.07-.67-.21-1.14-.14-.48-.36-.67-.64-.57-1.43,.38-2.77,.57-4.01,.57-1.14,0-2.12-.19-2.93-.57-.81-.38-1.46-1.12-1.93-2.22-.48-1.1-.84-2.58-1.07-4.44-.24-1.86-.36-4.27-.36-7.23,0-3.53,.26-7.2,.79-11.02,.52-3.81,1.34-7.34,2.43-10.59,1.1-3.24,2.53-5.91,4.29-8.01,1.76-2.1,3.94-3.15,6.51-3.15,.95,0,1.86,.31,2.72,.93,.86,.62,1.74,1.29,2.65,2,.9,.72,1.88,1.38,2.93,2,1.05,.62,2.24,.93,3.58,.93,1.53,0,3.1-.43,4.72-1.29,1.62-.86,3.22-1.88,4.79-3.08,1.57-1.19,3.08-2.43,4.51-3.72,1.43-1.29,2.67-2.36,3.72-3.22Zm59.24,42.5c-.1,0-.17,.05-.22,.14-.05,.1-.12,.14-.22,.14-2.1,1.81-4.77,3.41-8.01,4.79-3.24,1.38-7.58,2.08-13.02,2.08-4.01,0-7.73-.64-11.16-1.93-3.44-1.29-6.37-3.15-8.8-5.58-2.43-2.43-4.34-5.44-5.72-9.02-1.38-3.58-2.08-7.61-2.08-12.09,0-7.35,1.29-13.24,3.86-17.67,2.58-4.44,5.91-6.65,10.02-6.65,2.38,0,4.58,.38,6.58,1.14,2,.76,3.74,1.7,5.22,2.79,1.48,1.1,2.62,2.22,3.44,3.36,.81,1.14,1.22,2.1,1.22,2.86,0,.48,.07,.95,.22,1.43,.14,.48,.55,.57,1.22,.29,1.05-.57,2.26-1.45,3.65-2.65,1.38-1.19,2.69-2.43,3.94-3.72,1.24-1.29,2.31-2.53,3.22-3.72,.91-1.19,1.45-2.08,1.65-2.65,0-.48-.45-1.05-1.36-1.72-.91-.67-2.2-1.31-3.86-1.93-1.67-.62-3.67-1.14-6.01-1.57-2.34-.43-4.99-.64-7.94-.64-3.63,0-7.82,.67-12.59,2-4.77,1.34-9.28,3.56-13.52,6.65-4.25,3.1-7.82,7.23-10.73,12.38-2.91,5.15-4.36,11.5-4.36,19.03,0,9.92,2.74,17.74,8.23,23.47,5.48,5.72,13.14,8.59,22.97,8.59,3.44,0,6.92-.67,10.45-2,3.53-1.34,6.92-2.93,10.16-4.79,3.24-1.86,6.13-3.74,8.66-5.65,2.53-1.91,4.51-3.44,5.94-4.58,.19-.19,.29-.48,.29-.86,0-.48-.1-.88-.29-1.22-.19-.33-.53-.5-1-.5Zm17.81-79.42c-1.1-.95-1.88-1.48-2.36-1.57-.29,.1-1.12,.55-2.5,1.36-1.38,.81-2.82,1.77-4.29,2.86-1.48,1.1-2.84,2.15-4.08,3.15-1.24,1-1.86,1.74-1.86,2.22,0,.38,.45,1.12,1.36,2.22,.91,1.1,1.93,2.22,3.08,3.36,1.14,1.14,2.26,2.17,3.36,3.08,1.1,.91,1.79,1.36,2.08,1.36,.57,0,1.55-.38,2.93-1.14,1.38-.76,2.81-1.65,4.29-2.65,1.48-1,2.79-1.98,3.94-2.93,1.14-.95,1.72-1.67,1.72-2.15,0-.38-.43-1.14-1.29-2.29-.86-1.14-1.86-2.34-3-3.58-1.14-1.24-2.27-2.34-3.36-3.29Zm178.37,85.72c.09,.38,.12,.72,.07,1-.05,.29-.12,.48-.22,.57-.76,.48-2.41,1.38-4.94,2.72-2.53,1.34-5.34,2.7-8.44,4.08-3.1,1.38-6.18,2.63-9.23,3.72-3.05,1.1-5.49,1.65-7.3,1.65-2.2,0-3.7-.53-4.51-1.57-.81-1.05-1.22-2.15-1.22-3.29,0-.76,.12-1.72,.36-2.86,.24-1.15,.55-3.01,.93-5.58,.38-2.77,.74-6.01,1.07-9.73,.33-3.72,.5-7.73,.5-12.02,0-8.39-1.55-14.76-4.65-19.1-3.1-4.34-6.99-6.51-11.66-6.51-2.96,0-5.58,.57-7.87,1.72-2.29,1.14-4.25,2.7-5.87,4.65-1.62,1.96-2.91,4.2-3.86,6.73-.95,2.53-1.57,5.22-1.86,8.09-.1,.86-.19,1.62-.29,2.29-.1,.67-.17,1.43-.22,2.29-.05,.86-.1,1.93-.14,3.22-.05,1.29-.07,2.98-.07,5.08,0,3.43,.12,6.25,.36,8.44,.24,2.2,.59,3.94,1.07,5.22,.48,1.29,1.07,2.17,1.79,2.65,.72,.48,1.6,.72,2.65,.72,.67,0,1.38-.09,2.15-.29,.19,0,.36,.26,.5,.79,.14,.53,.12,.88-.07,1.07-.57,.48-1.69,1.17-3.36,2.07-1.67,.91-3.55,1.79-5.65,2.65-2.1,.86-4.27,1.62-6.51,2.29-2.24,.67-4.13,1-5.65,1-1.34,0-2.39-.17-3.15-.5-.76-.33-1.14-.74-1.14-1.22s.05-.76,.14-.86,.24-.33,.43-.72c.19-.48,.33-1.07,.43-1.79,.09-.72,.24-1.55,.43-2.5,.19-1.34,.38-3.03,.57-5.08,.19-2.05,.38-4.29,.57-6.73,.19-2.43,.36-4.96,.5-7.58,.14-2.62,.22-5.17,.22-7.66,0-1.05-.02-2.36-.07-3.93-.05-1.57-.12-3.6-.22-6.08-.1-2.77-.41-5.13-.93-7.08-.53-1.95-1.19-3.53-2-4.72-.81-1.19-1.72-2.08-2.72-2.65-.71-.41-1.41-.66-2.1-.78-.09,.07-.17,.14-.26,.21-1.53,.95-3.72,2.15-6.58,3.58-2.86,1.43-6.03,2.93-9.52,4.51-3.48,1.57-7.08,3.15-10.8,4.72-3.72,1.57-7.23,3.08-10.52,4.51-3.29,1.43-6.15,2.7-8.59,3.79-2.43,1.1-4.08,1.88-4.94,2.36,0,3.24,.64,6.27,1.93,9.09,1.29,2.81,3.08,5.27,5.37,7.37,2.29,2.1,5.03,3.75,8.23,4.94,3.2,1.19,6.7,1.79,10.52,1.79,3.44,0,6.53-.36,9.3-1.07,2.77-.72,5.1-1.52,7.01-2.43,1.91-.91,3.41-1.72,4.51-2.43,1.1-.72,1.69-1.07,1.79-1.07,.38,0,.76,.17,1.14,.5,.38,.34,.57,.69,.57,1.07-1.05,1.14-2.67,2.72-4.87,4.72-2.2,2-4.84,4.01-7.94,6.01-3.1,2-6.56,3.72-10.37,5.15-3.82,1.43-7.87,2.15-12.16,2.15-3.91,0-7.73-.6-11.45-1.79-3.72-1.19-7.06-3.01-10.02-5.44-1.89-1.55-3.53-3.38-4.93-5.48-.06,.2-.13,.41-.22,.61-.19,.43-.43,.74-.72,.93-.95,.48-2.62,1.34-5.01,2.58-2.39,1.24-5.2,2.53-8.44,3.86-3.05,1.34-6.04,2.46-8.94,3.36-2.91,.9-5.32,1.36-7.23,1.36-2.2,0-3.91-.67-5.15-2-1.24-1.34-1.86-3-1.86-5.01,0-.67,.02-1.24,.07-1.72,.05-.48,.12-1.1,.21-1.86,.09-.95,.26-2.69,.5-5.22,.24-2.53,.48-5.37,.72-8.51,.24-3.15,.45-6.32,.64-9.52,.19-3.2,.29-5.94,.29-8.23v-5.01c0-2.48-.14-4.67-.43-6.58-.29-1.91-.76-3.38-1.43-4.44-.48-.67-1.07-1.22-1.79-1.65-.72-.43-1.6-.64-2.65-.64-.57,0-1.14,.12-1.72,.36-.57,.24-1,.36-1.29,.36-.19,0-.5-.29-.93-.86-.43-.57-.41-1,.07-1.29,.67-.48,2.05-1.24,4.15-2.29,2.1-1.05,4.39-2.19,6.87-3.44,2.67-1.33,5.25-2.5,7.73-3.51,2.48-1,4.24-1.5,5.29-1.5s1.76,.31,2.15,.93c.38,.62,.57,1.31,.57,2.08v.57c0,.96-.14,2.48-.43,4.58-.29,2.1-.6,4.67-.93,7.73-.34,3.05-.64,6.58-.93,10.59s-.43,8.35-.43,13.02v6.87c0,2,.05,3.94,.14,5.8,.09,1.86,.43,3.46,1,4.79,.57,1.34,1.43,2.41,2.58,3.22,1.14,.81,2.77,1.22,4.87,1.22,1.05,0,2.24-.12,3.58-.36,1.34-.24,2.6-.55,3.79-.93,1.19-.38,2.24-.76,3.15-1.15,.55-.23,.95-.42,1.24-.58-.44-.75-.85-1.53-1.24-2.35-1.77-3.77-2.65-8.27-2.65-13.52,0-4.29,.29-7.99,.86-11.09,.57-3.1,1.33-5.82,2.29-8.16,.95-2.34,2.03-4.34,3.22-6.01,1.19-1.67,2.41-3.17,3.65-4.51,1.52-1.72,3.38-3.34,5.58-4.87,2.19-1.52,4.55-2.91,7.08-4.15,2.53-1.24,5.2-2.22,8.01-2.93,2.81-.72,5.65-1.07,8.51-1.07,5.15,0,9.18,.86,12.09,2.58,2.91,1.72,4.36,4.1,4.36,7.15,0,1.91-.57,3.67-1.72,5.3,.95-.29,2.17-.76,3.65-1.43,1.48-.67,2.98-1.36,4.51-2.08,1.52-.72,2.88-1.36,4.08-1.93,.44-.21,.81-.4,1.14-.57,.72-.45,1.5-.92,2.37-1.43,2.1-1.24,4.24-2.38,6.44-3.44,2.19-1.05,4.27-1.95,6.22-2.72,1.95-.76,3.46-1.14,4.51-1.14,2.77,0,4.15,1.57,4.15,4.72,0,.48-.05,1.34-.14,2.58-.1,1.24-.17,2.5-.22,3.79-.05,1.29-.12,2.5-.21,3.65-.1,1.14-.14,1.91-.14,2.29,2-1.91,4.15-3.86,6.44-5.87,2.29-2,4.77-3.84,7.44-5.51,2.67-1.67,5.48-3.03,8.44-4.08,2.96-1.05,6.01-1.57,9.16-1.57,5.72,0,10.42,1.65,14.1,4.94,3.67,3.29,5.51,8.51,5.51,15.67,0,1.91-.12,4.15-.36,6.73-.24,2.58-.5,5.25-.79,8.01-.29,2.77-.55,5.49-.79,8.16-.24,2.67-.36,5.06-.36,7.16,0,7.63,2.48,11.45,7.44,11.45,.95,0,2.03-.17,3.22-.5,1.19-.33,2.34-.72,3.43-1.14,1.1-.43,2.08-.86,2.93-1.29s1.43-.79,1.72-1.07c.09-.09,.21-.02,.36,.22,.14,.24,.26,.55,.36,.93Zm-119.2-42.64c0-1.14-.22-2.34-.64-3.58-.43-1.24-1.07-2.36-1.93-3.36-.86-1-1.91-1.81-3.15-2.43-1.24-.62-2.63-.93-4.15-.93-1.34,0-2.77,.45-4.29,1.36-1.53,.91-2.96,2.39-4.29,4.44-1.34,2.05-2.46,4.77-3.36,8.16-.91,3.39-1.36,7.51-1.36,12.38,1.62-.57,3.46-1.26,5.51-2.08,2.05-.81,4.05-1.69,6.01-2.65,1.95-.95,3.74-1.86,5.37-2.72,1.62-.86,2.86-1.62,3.72-2.29,1.72-1.24,2.58-3.34,2.58-6.3Zm249.99-8.3c0,1.24-.24,2.27-.72,3.08-.48,.81-1.05,1.45-1.72,1.93-1.53,.95-3.72,2.15-6.58,3.58-2.86,1.43-6.03,2.93-9.52,4.51-3.48,1.57-7.08,3.15-10.8,4.72-3.72,1.57-7.23,3.08-10.52,4.51-3.29,1.43-6.15,2.7-8.59,3.79-2.43,1.1-4.08,1.88-4.94,2.36,0,3.24,.64,6.27,1.93,9.09,1.29,2.81,3.08,5.27,5.37,7.37,2.29,2.1,5.03,3.75,8.23,4.94,3.2,1.19,6.7,1.79,10.52,1.79,3.44,0,6.53-.36,9.3-1.07,2.77-.72,5.1-1.52,7.01-2.43,1.91-.91,3.41-1.72,4.51-2.43,1.1-.72,1.69-1.07,1.79-1.07,.38,0,.76,.17,1.14,.5,.38,.34,.57,.69,.57,1.07-1.05,1.14-2.67,2.72-4.87,4.72-2.2,2-4.84,4.01-7.94,6.01-3.1,2-6.56,3.72-10.37,5.15-3.82,1.43-7.87,2.15-12.16,2.15-3.91,0-7.73-.6-11.45-1.79-3.72-1.19-7.06-3.01-10.02-5.44-2.96-2.43-5.32-5.53-7.08-9.3-.08-.16-.14-.33-.21-.5-1.43,1.14-3.41,2.67-5.94,4.58-2.53,1.91-5.42,3.79-8.66,5.65-3.24,1.86-6.63,3.46-10.16,4.79-3.53,1.34-7.01,2-10.45,2-9.83,0-17.48-2.86-22.97-8.59-5.49-5.72-8.23-13.55-8.23-23.47,0-7.54,1.45-13.88,4.36-19.03,2.91-5.15,6.49-9.28,10.73-12.38,4.24-3.1,8.75-5.32,13.52-6.65,4.77-1.34,8.97-2,12.59-2,2.96,0,5.6,.21,7.94,.64,2.34,.43,4.34,.95,6.01,1.57,1.67,.62,2.96,1.27,3.86,1.93,.91,.67,1.36,1.24,1.36,1.72-.19,.57-.74,1.46-1.65,2.65-.91,1.19-1.98,2.43-3.22,3.72-1.24,1.29-2.55,2.53-3.94,3.72-1.38,1.19-2.6,2.08-3.65,2.65-.67,.29-1.07,.19-1.22-.29-.14-.48-.22-.95-.22-1.43,0-.76-.41-1.72-1.22-2.86-.81-1.14-1.96-2.26-3.44-3.36-1.48-1.1-3.22-2.03-5.22-2.79-2-.76-4.2-1.14-6.58-1.14-4.1,0-7.44,2.22-10.02,6.65-2.58,4.44-3.86,10.33-3.86,17.67,0,4.48,.69,8.51,2.08,12.09,1.38,3.58,3.29,6.58,5.72,9.02,2.43,2.43,5.37,4.29,8.8,5.58,3.43,1.29,7.15,1.93,11.16,1.93,5.44,0,9.78-.69,13.02-2.08,3.24-1.38,5.91-2.98,8.01-4.79,.09,0,.17-.05,.22-.14,.05-.09,.12-.14,.22-.14h.02c-.97-3.07-1.46-6.56-1.46-10.45,0-4.29,.29-7.99,.86-11.09,.57-3.1,1.33-5.82,2.29-8.16,.95-2.34,2.03-4.34,3.22-6.01,1.19-1.67,2.41-3.17,3.65-4.51,1.52-1.72,3.38-3.34,5.58-4.87,2.19-1.52,4.55-2.91,7.08-4.15,2.53-1.24,5.2-2.22,8.01-2.93,2.81-.72,5.65-1.07,8.51-1.07,5.15,0,9.18,.86,12.09,2.58,2.91,1.72,4.36,4.1,4.36,7.15,0,1.91-.57,3.67-1.72,5.3,.95-.29,2.17-.76,3.65-1.43,1.48-.67,2.98-1.36,4.51-2.08,1.52-.72,2.88-1.36,4.08-1.93,1.19-.57,1.98-1,2.36-1.29,.19-.19,.41-.26,.64-.22,.24,.05,.36,.22,.36,.5Zm-30.19,8.3c0-1.14-.22-2.34-.64-3.58-.43-1.24-1.07-2.36-1.93-3.36-.86-1-1.91-1.81-3.15-2.43-1.24-.62-2.63-.93-4.15-.93-1.34,0-2.77,.45-4.29,1.36-1.53,.91-2.96,2.39-4.29,4.44-1.34,2.05-2.46,4.77-3.36,8.16-.91,3.39-1.36,7.51-1.36,12.38,1.62-.57,3.46-1.26,5.51-2.08,2.05-.81,4.05-1.69,6.01-2.65,1.95-.95,3.74-1.86,5.37-2.72,1.62-.86,2.86-1.62,3.72-2.29,1.72-1.24,2.58-3.34,2.58-6.3ZM111.37,249.99c-1.8,.16-3.02,.24-3.67,.24-.49,0-.9-.33-1.22-.98-.33-.65-.49-1.39-.49-2.2s.12-1.51,.37-2.08c.24-.57,.69-.86,1.35-.86,1.47-.16,3.43-.28,5.87-.37,2.45-.08,3.67-.69,3.67-1.84,0-.98-.41-3.92-1.22-8.81-.82-4.9-1.84-10.77-3.06-17.62-1.22-6.85-2.53-14.15-3.92-21.91-1.39-7.75-2.73-14.97-4.04-21.66-2.94-.49-6.65-.89-11.14-1.22-4.49-.32-9.18-.49-14.07-.49-5.71,0-11.14,.25-16.28,.73-5.14,.49-9.18,1.39-12.12,2.69-.82,3.59-1.71,7.39-2.69,11.38-.98,4-1.92,8.04-2.81,12.12-.9,4.08-1.67,8.12-2.33,12.12-.65,4-.98,7.71-.98,11.14,0,6.69,1.43,11.5,4.28,14.44,2.85,2.94,6.4,4.41,10.65,4.41s6.89-.12,7.96-.37c1.06-.24,2-.37,2.81-.37,1.3,0,1.96,.33,1.96,.98,0,.33-.37,.86-1.1,1.59s-1.68,1.51-2.81,2.33c-1.47,1.14-3.39,2.57-5.75,4.28-2.37,1.71-5.43,2.57-9.18,2.57-.49,0-1.76-.08-3.79-.24-2.04-.16-4.53-.37-7.47-.61-2.94-.24-6.04-.45-9.3-.61-3.27-.16-6.36-.24-9.3-.24-4.08,0-7.39,.08-9.91,.24-2.53,.16-4.53,.33-6,.49-1.47,.16-2.49,.33-3.06,.49-.57,.16-1.02,.25-1.35,.25s-.61-.29-.86-.86c-.24-.57-.37-1.19-.37-1.84,0-.98,.41-1.55,1.22-1.71,1.63-.65,4-1.87,7.1-3.67,3.26-1.96,6.16-5.26,8.69-9.91,2.53-4.65,5.42-10.97,8.69-18.97,2.28-5.38,4.81-12.73,7.59-22.03,2.77-9.3,5.55-19.5,8.32-30.59,2.77-11.09,5.38-22.72,7.83-34.88,2.45-12.15,4.49-23.86,6.12-35.12l21.54-11.5c-2.61,0-6.41-.08-11.38-.24-4.98-.16-10.24-.41-15.79-.73-5.55-.32-10.98-.73-16.28-1.22-5.3-.49-9.59-1.06-12.85-1.71-.65-.32-1.27-1.18-1.84-2.57-.57-1.38-.86-2.73-.86-4.04,0-1.47,.65-2.61,1.96-3.43,6.52,1.8,13.62,3.22,21.29,4.28,7.67,1.06,15.01,1.92,22.03,2.57,7.01,.65,13.34,1.06,18.97,1.22,5.63,.16,9.75,.24,12.36,.24,6.36,0,12.89-.16,19.58-.49,6.69-.32,12.89-.73,18.6-1.22,5.71-.49,10.48-.98,14.32-1.47,3.83-.49,6.08-.98,6.73-1.47,.33,0,.82,.33,1.47,.98,.65,.65,.98,1.39,.98,2.2,0,1.8-.82,3.14-2.45,4.04-1.63,.9-3.92,1.55-6.85,1.96-2.94,.41-6.53,.7-10.77,.86-4.24,.16-8.98,.41-14.2,.73-.82,.16-1.22,1.06-1.22,2.69,0,3.76,.61,9.95,1.84,18.6,1.22,8.65,2.77,18.44,4.65,29.37,1.87,10.93,4,22.44,6.36,34.51,2.36,12.08,4.73,23.46,7.1,34.14,2.36,10.69,4.57,20.07,6.61,28.15,2.04,8.08,3.79,13.58,5.26,16.52,.81,.33,1.51,.53,2.08,.61,.57,.08,1.59,.12,3.06,.12,2.12,0,3.95-.08,5.51-.24,.75-.08,1.41-.14,1.99-.18,.98-1.63,2.4-3.98,4.25-7.04,2.12-3.51,4.28-7.1,6.49-10.77,2.2-3.67,4.24-7.01,6.12-10.04,1.87-3.02,3.22-5.02,4.04-6,.81-.82,1.79-.94,2.94-.37,1.14,.57,1.47,1.27,.98,2.08-.33,.33-.57,.73-.73,1.22-.16,.49-.24,1.31-.24,2.45,0,1.47,1.26,3.3,3.79,5.51,2.53,2.2,5.75,4.33,9.67,6.36,3.92,2.04,8.24,3.79,12.97,5.26,4.73,1.47,9.38,2.2,13.95,2.2,5.38,0,9.67-1.55,12.85-4.65,3.18-3.1,4.77-7.18,4.77-12.24,0-5.71-1.8-9.95-5.38-12.73-3.59-2.77-8.04-4.9-13.34-6.36-5.3-1.47-11.1-2.65-17.38-3.55-6.28-.9-12.08-2.24-17.38-4.04-5.3-1.79-9.75-4.41-13.34-7.83-3.59-3.43-5.38-8.4-5.38-14.93,0-5.06,1.75-10.2,5.26-15.42,3.51-5.22,8.16-9.87,13.95-13.95,5.79-4.08,12.44-7.42,19.95-10.04,7.5-2.61,15.34-3.92,23.5-3.92,2.45,0,5.3,.25,8.57,.73,3.26,.49,6.49,1.1,9.67,1.84,3.18,.73,6.12,1.47,8.81,2.2,2.69,.73,4.69,1.35,6,1.84,.32,0,.24,.65-.25,1.96-.49,1.47-1.71,3.71-3.67,6.73-1.96,3.02-4.12,6-6.49,8.93-2.37,2.94-4.57,5.55-6.61,7.83-2.04,2.29-3.47,3.43-4.28,3.43h-1.47c-.82,0-1.39-.16-1.71-.49,.16-.82,.24-1.87,.24-3.18,0-5.71-2.57-10.2-7.71-13.46-5.14-3.26-12.6-4.9-22.4-4.9-4.73,0-8.61,1.39-11.63,4.16-3.02,2.78-4.53,6.12-4.53,10.04,0,6.36,1.79,11.1,5.38,14.2,3.59,3.1,8.08,5.43,13.46,6.98,5.38,1.55,11.18,2.73,17.38,3.55,6.2,.82,11.99,2.08,17.38,3.79,5.38,1.71,9.87,4.28,13.46,7.71,3.59,3.43,5.38,8.57,5.38,15.42,0,3.1-.65,6.12-1.96,9.06-1.31,2.94-3.02,5.71-5.14,8.32-2.12,2.61-4.49,5.02-7.1,7.22-2.61,2.2-5.22,4.12-7.83,5.75-2.45,1.63-5.22,3.3-8.32,5.02-3.1,1.71-6.45,3.3-10.04,4.77-3.59,1.47-7.26,2.65-11.01,3.55-3.76,.89-7.51,1.35-11.26,1.35-1.8,0-4.65-.37-8.57-1.1-3.92-.73-7.87-1.59-11.87-2.57-4-.98-7.55-1.92-10.65-2.81-3.1-.89-4.73-1.51-4.9-1.84-1.31,.82-2.53,2.16-3.67,4.04-.64,1.05-1.14,1.94-1.52,2.71,.03,.23,.05,.44,.05,.59,0,1.14-.57,1.71-1.71,1.71h-.05c-.1,.04-.2,.08-.32,.12-.73,.24-1.27,.37-1.59,.37-.86,0-1.47-.26-1.82-.77-1.44-.15-3.36-.26-5.76-.33-2.61-.08-6-.21-10.16-.37-4.16-.16-9.42-.25-15.79-.25-2.12,0-4.45,.08-6.98,.25-2.53,.16-4.94,.32-7.22,.49-2.29,.16-4.33,.32-6.12,.49Zm-9.3-94.97c-.82-4.08-1.76-9.14-2.81-15.18-1.06-6.03-2.16-12.2-3.3-18.48-1.14-6.28-2.24-12.2-3.3-17.75-1.06-5.55-1.92-9.79-2.57-12.73-.98-4.41-1.84-7.18-2.57-8.32-.73-1.14-1.51-1.71-2.33-1.71-1.63,0-3.35,1.35-5.14,4.04-1.8,2.69-3.71,6.28-5.75,10.77-2.04,4.49-4.04,9.63-6,15.42-1.96,5.79-3.88,11.75-5.75,17.87-1.88,6.12-3.59,12.2-5.14,18.23-1.55,6.04-2.81,11.5-3.79,16.4,2.61-.65,5.91-1.35,9.91-2.08,4-.73,8.24-1.51,12.73-2.33,4.49-.81,8.97-1.59,13.46-2.33,4.49-.73,8.6-1.35,12.36-1.84Zm189.07,65.96c-3.02-6.44-4.53-14.15-4.53-23.13,0-7.34,.49-13.66,1.47-18.97,.98-5.3,2.28-9.95,3.92-13.95,1.63-4,3.47-7.42,5.51-10.28,2.04-2.85,4.12-5.42,6.24-7.71,2.61-2.94,5.79-5.71,9.55-8.32,3.75-2.61,7.79-4.98,12.11-7.1,4.32-2.12,8.89-3.79,13.71-5.02,4.81-1.22,9.67-1.84,14.56-1.84,8.81,0,15.7,1.47,20.68,4.41,4.97,2.94,7.46,7.02,7.46,12.24,0,3.27-.98,6.28-2.94,9.06,1.63-.49,3.71-1.3,6.24-2.45,2.53-1.14,5.1-2.33,7.71-3.55,2.61-1.22,4.93-2.33,6.98-3.3,2.04-.98,3.38-1.71,4.04-2.2,.32-.32,.69-.45,1.1-.37,.41,.08,.61,.37,.61,.86,0,2.12-.41,3.88-1.22,5.26-.82,1.39-1.8,2.49-2.94,3.31-2.61,1.63-6.36,3.67-11.26,6.12-4.9,2.45-10.32,5.02-16.28,7.71-5.96,2.69-12.12,5.38-18.48,8.08s-12.36,5.26-17.99,7.71c-5.63,2.45-10.53,4.61-14.69,6.49-4.16,1.88-6.98,3.22-8.44,4.04,0,5.55,1.1,10.73,3.3,15.54,2.2,4.81,5.26,9.02,9.18,12.6,3.92,3.59,8.6,6.41,14.07,8.44,5.47,2.04,11.46,3.06,17.99,3.06,5.87,0,11.18-.61,15.91-1.84,4.73-1.22,8.73-2.61,11.99-4.16,3.26-1.55,5.83-2.94,7.71-4.16,1.87-1.22,2.9-1.84,3.06-1.84,.65,0,1.3,.29,1.96,.86,.65,.57,.98,1.19,.98,1.84-1.8,1.96-4.57,4.65-8.32,8.08-3.76,3.43-8.28,6.85-13.58,10.28-5.3,3.43-11.22,6.36-17.75,8.81-6.53,2.45-13.46,3.67-20.8,3.67-6.69,0-13.22-1.02-19.58-3.06-6.36-2.04-12.08-5.14-17.13-9.3-5.06-4.16-9.1-9.46-12.12-15.91Zm23.13-40.02c2.77-.98,5.91-2.16,9.42-3.55,3.51-1.38,6.93-2.9,10.28-4.53,3.34-1.63,6.4-3.18,9.18-4.65,2.77-1.47,4.89-2.77,6.36-3.92,2.94-2.12,4.41-5.71,4.41-10.77,0-1.96-.37-4-1.1-6.12-.73-2.12-1.84-4.04-3.3-5.75-1.47-1.71-3.27-3.1-5.38-4.16-2.12-1.06-4.49-1.59-7.1-1.59-2.29,0-4.73,.78-7.34,2.33-2.61,1.55-5.06,4.08-7.34,7.59-2.29,3.51-4.2,8.16-5.75,13.95-1.55,5.79-2.33,12.85-2.33,21.17Zm85.91,15.17c0-10.61,1.84-20.23,5.51-28.88,3.67-8.65,9.06-15.99,16.15-22.03,7.1-6.03,15.74-10.68,25.94-13.95,10.2-3.26,21.91-4.9,35.12-4.9h6.61c2.12,0,4.08,.08,5.87,.25v-7.96c0-3.83-.04-7.79-.12-11.87-.08-4.08-.16-7.83-.24-11.26-.08-3.43-.12-5.55-.12-6.36-.65-6.52-1.76-11.09-3.3-13.71-1.55-2.61-4.69-3.92-9.42-3.92-.65,0-1.02-.73-1.1-2.2-.08-1.47,.45-2.61,1.59-3.43,1.3-.81,2.77-1.43,4.4-1.84,1.63-.41,4.08-.61,7.34-.61,6.2,0,11.38-.04,15.54-.12,4.16-.08,7.59-.24,10.28-.49,2.69-.24,4.85-.57,6.49-.98,1.63-.41,3.02-.86,4.16-1.35,.81-.16,1.51,.04,2.08,.61,.57,.57,.98,1.31,1.22,2.2,.25,.9,.28,1.76,.12,2.57-.16,.82-.65,1.31-1.47,1.47-1.8,.33-3.14,.7-4.04,1.1-.9,.41-1.76,1.19-2.57,2.33-.82,1.14-1.55,4.16-2.2,9.06-.65,4.9-1.31,10.93-1.96,18.11-.65,7.18-1.22,15.14-1.71,23.86-.49,8.73-.9,17.5-1.22,26.31-.33,8.81-.61,17.38-.86,25.7-.24,8.32-.37,15.58-.37,21.78,0,11.91,1.3,20.68,3.92,26.31,2.61,5.63,6.61,8.44,11.99,8.44,1.96,0,4.12-.33,6.49-.98,2.36-.65,4.57-1.43,6.61-2.33,2.04-.89,3.92-1.79,5.63-2.69,1.71-.89,2.98-1.67,3.79-2.33,.31-.25,.61-.34,.89-.28,.39-4.22,.79-8.94,1.19-14.16,.41-5.38,.77-10.81,1.1-16.28,.32-5.46,.49-10.16,.49-14.07v-8.57c0-4.24-.24-7.99-.73-11.26-.49-3.26-1.31-5.79-2.45-7.59-.82-1.14-1.84-2.08-3.06-2.82-1.22-.73-2.73-1.1-4.53-1.1-.98,0-1.96,.21-2.94,.61-.98,.41-1.71,.61-2.2,.61-.33,0-.86-.49-1.59-1.47-.73-.98-.7-1.71,.12-2.2,1.14-.81,3.51-2.12,7.1-3.92,3.59-1.79,7.5-3.75,11.75-5.87,4.57-2.28,8.97-4.28,13.22-6,4.24-1.71,7.26-2.57,9.06-2.57s3.02,.53,3.67,1.59c.65,1.06,.98,2.24,.98,3.55v.98c0,1.63-.24,4.25-.73,7.83-.49,3.59-1.02,8-1.59,13.22-.57,5.22-1.1,11.26-1.59,18.11-.49,6.85-.73,14.28-.73,22.27v11.75c0,3.43,.08,6.73,.24,9.91,.16,3.18,.73,5.92,1.71,8.2,.98,2.29,2.45,4.12,4.4,5.51,1.96,1.39,4.73,2.08,8.32,2.08,1.79,0,3.83-.2,6.12-.61,2.28-.41,4.44-.94,6.49-1.59,2.04-.65,3.83-1.3,5.38-1.96,1.08-.45,1.86-.83,2.35-1.13-1.39-2.56-2.59-5.28-3.57-8.17-2.2-6.52-3.3-13.46-3.3-20.8,0-8.65,1.3-16.31,3.92-23.01,2.61-6.69,5.83-12.52,9.67-17.5,3.83-4.98,7.95-9.14,12.36-12.48,4.41-3.34,8.4-6,11.99-7.95,1.63-.98,3.71-2.04,6.24-3.18,2.53-1.14,5.3-2.2,8.32-3.18,3.02-.98,6.28-1.84,9.79-2.57,3.51-.73,7.14-1.1,10.89-1.1,7.01,0,13.83,.9,20.44,2.69,6.61,1.8,12.44,4.61,17.5,8.44,5.06,3.84,9.14,8.77,12.24,14.81,3.1,6.04,4.65,13.3,4.65,21.78,0,6.85-1.27,13.3-3.79,19.34-2.53,6.04-5.51,11.42-8.93,16.15-3.43,4.73-6.82,8.77-10.16,12.12l-7.22,7.22c-1.8,1.47-4.24,3.43-7.34,5.87-3.1,2.45-6.69,4.89-10.77,7.34-4.08,2.45-8.57,4.53-13.46,6.24-4.9,1.71-10.04,2.57-15.42,2.57-8.16,0-15.42-1.43-21.78-4.28-6.36-2.85-11.71-6.69-16.03-11.5-1.8-2-3.4-4.15-4.83-6.44-.11,.43-.24,.87-.44,1.3-.33,.73-.73,1.27-1.22,1.59-1.63,.82-4.49,2.29-8.57,4.41-4.08,2.12-8.89,4.33-14.44,6.61-5.22,2.29-10.32,4.2-15.3,5.75-4.98,1.55-9.1,2.33-12.36,2.33-3.76,0-6.69-1.14-8.81-3.43-2.12-2.28-3.18-5.14-3.18-8.57,0-1.14,.04-2.12,.12-2.94,.08-.81,.2-1.87,.37-3.18,.09-.91,.22-2.25,.39-4-1.89,1.06-4.43,2.44-7.61,4.12-4.16,2.2-8.77,4.53-13.83,6.98-6.2,3.1-12.48,5.87-18.85,8.32-6.36,2.45-11.5,3.67-15.42,3.67-2.94,0-4.94-.49-6-1.47-1.06-.98-1.59-2.53-1.59-4.65v-3.3c0-1.55,.04-3.18,.12-4.9,.08-1.71,.12-3.34,.12-4.9v-3.55c-1.47,1.47-3.84,3.43-7.1,5.87-3.27,2.45-7.1,4.86-11.5,7.22-4.41,2.37-9.18,4.4-14.32,6.12-5.14,1.71-10.32,2.57-15.54,2.57s-10.77-1.22-16.15-3.67c-5.38-2.45-10.24-6-14.56-10.65-4.33-4.65-7.79-10.24-10.4-16.77-2.61-6.52-3.92-13.87-3.92-22.03Zm240.11-13.46c0,7.67,1.18,14.53,3.55,20.56,2.36,6.04,5.51,11.14,9.42,15.3,3.92,4.16,8.36,7.34,13.34,9.55,4.98,2.2,10.16,3.31,15.54,3.31,9.3,0,16.44-3.51,21.42-10.52,4.98-7.01,7.47-17.78,7.47-32.31,0-7.34-1.02-14.15-3.06-20.44-2.04-6.28-4.9-11.79-8.57-16.52-3.67-4.73-7.95-8.44-12.85-11.14-4.9-2.69-10.2-4.04-15.91-4.04-4.08,0-7.95,1.06-11.63,3.18-3.67,2.12-6.9,5.18-9.67,9.18-2.78,4-4.98,8.85-6.61,14.56-1.63,5.71-2.45,12.16-2.45,19.34Zm-212.21-5.14c0,7.67,1.06,14.65,3.18,20.93,2.12,6.28,5.06,11.71,8.81,16.28,3.75,4.57,8.24,8.12,13.46,10.65,5.22,2.53,10.93,3.79,17.13,3.79,2.45,0,4.73-.37,6.85-1.1,2.12-.73,4.04-1.63,5.75-2.69,1.71-1.06,3.22-2.16,4.53-3.3,1.3-1.14,2.2-2.12,2.69-2.94,1.3-1.79,2.28-3.87,2.94-6.24,.65-2.36,1.14-5.59,1.47-9.67,.32-3.43,.49-7.63,.49-12.6v-13.09c0-3.75-.04-7.75-.12-11.99-.08-4.24-.21-7.18-.37-8.81-.33-2.77-1.47-5.38-3.43-7.83-1.96-2.45-4.49-4.57-7.59-6.36-3.1-1.79-6.73-3.22-10.89-4.28-4.16-1.06-8.53-1.59-13.09-1.59s-8.57,.73-12.48,2.2-7.3,3.84-10.16,7.1c-2.86,3.27-5.1,7.46-6.73,12.6-1.63,5.14-2.45,11.47-2.45,18.97Zm131.68-74.41c1.96,1.96,3.87,3.71,5.75,5.26,1.87,1.55,3.06,2.33,3.55,2.33,.98,0,2.65-.65,5.02-1.96,2.36-1.3,4.81-2.81,7.34-4.53,2.53-1.71,4.77-3.38,6.73-5.02,1.96-1.63,2.94-2.85,2.94-3.67,0-.65-.73-1.96-2.2-3.92s-3.18-4-5.14-6.12c-1.96-2.12-3.88-4-5.75-5.63-1.88-1.63-3.22-2.53-4.04-2.69-.49,.16-1.92,.94-4.28,2.33-2.37,1.39-4.81,3.02-7.34,4.9-2.53,1.88-4.86,3.67-6.98,5.38-2.12,1.71-3.18,2.98-3.18,3.79,0,.65,.77,1.92,2.33,3.79,1.55,1.88,3.3,3.79,5.26,5.75Z"/></g></g></svg>