<?xml version="1.0" encoding="utf-8"?>
<!-- Generator: Adobe Illustrator 26.2.1, SVG Export Plug-In . SVG Version: 6.00 Build 0)  -->
<svg version="1.1" id="Capa_1" xmlns="http://www.w3.org/2000/svg" xmlns:xlink="http://www.w3.org/1999/xlink" x="0px" y="0px"
	 viewBox="0 0 364.3 168" style="enable-background:new 0 0 364.3 168;" xml:space="preserve">
<style type="text/css">
	.st0{fill:#FFFFFF;}
	.st1{fill:#BB8D0C;}
</style>
<g>
	<g>
		<g>
			<path class="st0" d="M0,106.1v-16h5.1L7.6,95c0.9,1.6,1.8,3.7,2.5,5.6h0.1c-0.2-2.1-0.3-4.3-0.3-6.7v-3.8h3.9v16H9.3l-2.7-5.3
				c-0.9-1.7-1.9-3.8-2.7-5.8H3.8c0.1,2.2,0.2,4.6,0.2,7.2v3.9H0z"/>
			<path class="st0" d="M28.4,100.1c0,4.3-3,6.2-6.3,6.2c-3.5,0-6.2-2.2-6.2-6c0-3.7,2.4-6.2,6.4-6.2C26,94.1,28.4,96.6,28.4,100.1z
				 M20.3,100.2c0,1.8,0.6,3.1,1.9,3.1c1.2,0,1.8-1.2,1.8-3.1c0-1.6-0.5-3.1-1.8-3.1C20.8,97.1,20.3,98.7,20.3,100.2z"/>
			<path class="st0" d="M47.3,105.7c-0.6,0.3-2.1,0.7-4,0.7c-6,0-8.6-3.7-8.6-8c0-5.7,4.1-8.5,8.9-8.5c1.8,0,3.3,0.4,4,0.7l-0.8,3.4
				c-0.7-0.3-1.7-0.6-3-0.6c-2.4,0-4.6,1.4-4.6,4.7c0,2.9,1.7,4.7,4.7,4.7c1,0,2.2-0.2,2.9-0.5L47.3,105.7z"/>
			<path class="st0" d="M60.9,100.1c0,4.3-3,6.2-6.3,6.2c-3.5,0-6.2-2.2-6.2-6c0-3.7,2.4-6.2,6.4-6.2
				C58.5,94.1,60.9,96.6,60.9,100.1z M52.8,100.2c0,1.8,0.6,3.1,1.9,3.1c1.2,0,1.8-1.2,1.8-3.1c0-1.6-0.5-3.1-1.8-3.1
				C53.3,97.1,52.8,98.7,52.8,100.2z"/>
			<path class="st0" d="M63,98.4c0-1.6,0-2.9-0.1-4h3.6l0.2,1.5h0.1c0.4-0.6,1.4-1.7,3.5-1.7c1.5,0,2.7,0.7,3.2,1.9h0
				c0.5-0.6,1-1.1,1.6-1.4c0.6-0.3,1.3-0.5,2.1-0.5c2.5,0,4,1.8,4,5.1v6.9h-4.2v-6.2c0-1.4-0.4-2.3-1.4-2.3c-0.7,0-1.1,0.4-1.3,1
				c-0.1,0.2-0.1,0.6-0.1,0.9v6.7h-4.2v-6.3c0-1.3-0.4-2.2-1.4-2.2c-0.8,0-1.1,0.6-1.3,1c-0.1,0.3-0.1,0.6-0.1,0.9v6.7H63V98.4z"/>
			<path class="st0" d="M83.7,98.4c0-1.6,0-2.9-0.1-4h3.7l0.2,1.5h0c0.9-1.2,2.2-1.8,3.8-1.8c2.4,0,4.8,2.2,4.8,6
				c0,4.3-2.8,6.2-5.3,6.2c-1.3,0-2.4-0.5-2.8-1.1h0v5.6h-4.3V98.4z M88,101c0,0.3,0,0.5,0.1,0.7c0.2,0.8,0.8,1.4,1.7,1.4
				c1.3,0,2.1-1.1,2.1-2.8c0-1.7-0.7-2.8-2-2.8c-0.9,0-1.6,0.7-1.7,1.5c0,0.2,0,0.4,0,0.5V101z"/>
			<path class="st0" d="M101.8,101.7c0.1,0.9,1.5,1.4,3,1.4c1.1,0,2.1-0.1,3.2-0.5l0.5,2.9c-1.4,0.5-2.9,0.7-4.4,0.7
				c-4.1,0-6.4-2.3-6.4-6c0-2.7,1.8-6.2,6.1-6.2c3.8,0,5.4,2.8,5.4,6c0,0.7-0.1,1.3-0.2,1.6H101.8z M105.2,98.8
				c0-0.7-0.3-1.9-1.7-1.9c-1.3,0-1.7,1.2-1.8,1.9H105.2z"/>
			<path class="st0" d="M115.8,91.1v3.3h2.4v3.1h-2.4v3.3c0,1.4,0.3,2,1.4,2c0.5,0,0.7,0,1-0.1v3.3c-0.5,0.2-1.4,0.3-2.5,0.3
				c-1.3,0-2.3-0.5-2.9-1.1c-0.7-0.7-1.1-1.9-1.1-3.6v-4.1h-1.4v-3.1h1.4v-2.2L115.8,91.1z"/>
			<path class="st0" d="M124.5,91.2c0,1.1-0.9,2-2.2,2c-1.3,0-2.2-0.9-2.2-2c0-1.2,0.9-2,2.2-2S124.5,90,124.5,91.2z M120.1,106.1
				V94.4h4.3v11.7H120.1z"/>
			<path class="st0" d="M131.8,91.1v3.3h2.4v3.1h-2.4v3.3c0,1.4,0.3,2,1.4,2c0.5,0,0.7,0,1-0.1v3.3c-0.5,0.2-1.4,0.3-2.5,0.3
				c-1.3,0-2.3-0.5-2.9-1.1c-0.7-0.7-1.1-1.9-1.1-3.6v-4.1h-1.4v-3.1h1.4v-2.2L131.8,91.1z"/>
			<path class="st0" d="M140.5,91.2c0,1.1-0.9,2-2.2,2c-1.3,0-2.2-0.9-2.2-2c0-1.2,0.9-2,2.2-2S140.5,90,140.5,91.2z M136.2,106.1
				V94.4h4.3v11.7H136.2z"/>
			<path class="st0" d="M146.7,94.4l1.3,5c0.2,1,0.4,1.9,0.5,2.8h0.1c0.1-1,0.3-1.8,0.5-2.8l1.2-5h4.5l-4.3,11.7h-4.3L142,94.4
				H146.7z"/>
			<path class="st0" d="M166.4,103.2c0,1.2,0.1,2.3,0.2,2.9h-3.8l-0.2-1h-0.1c-0.8,0.9-2,1.3-3.2,1.3c-2.4,0-3.9-1.7-3.9-3.7
				c0-3.1,2.8-4.5,6.8-4.5V98c0-0.5-0.4-1-1.9-1c-1.2,0-2.5,0.4-3.3,0.9l-0.7-2.7c0.7-0.4,2.4-1.1,4.8-1.1c4,0,5.4,2.2,5.4,5.2
				V103.2z M162.3,100.7c-1.8,0-2.7,0.5-2.7,1.5c0,0.7,0.5,1.1,1.2,1.1c0.6,0,1.3-0.4,1.5-1.1c0-0.2,0-0.4,0-0.6V100.7z"/>
		</g>
		<g>
			<g>
				<path class="st1" d="M5.9,159.9l16.6-24.3c1.6-2.3,2.5-4.5,2.5-6.5c0-1.6-0.5-2.9-1.6-3.9c-1.1-1-2.4-1.4-4.1-1.4
					c-1.3,0-2.5,0.5-3.5,1.4c-1,0.9-1.6,2-1.7,3.2l-7-3.8c0.9-2.5,2.5-4.5,4.8-6.2c2.3-1.7,5-2.5,8-2.5c2.5,0,4.7,0.5,6.7,1.6
					c2,1.1,3.5,2.6,4.6,4.5c1.1,1.9,1.6,4,1.6,6.3c0,3.3-1.1,6.5-3.2,9.8l-14.4,21.7H33v7.3H5.9V159.9z"/>
				<path class="st1" d="M64.3,164.5c-3,2.3-6.5,3.4-10.7,3.4c-2.6,0-5.1-0.5-7.4-1.4c-2.3-0.9-4.2-2.5-5.7-4.6
					c-1.5-2.1-2.2-4.8-2.2-8.2v-23.3c0-5,1.4-8.7,4.1-11.3c2.7-2.6,6.5-3.8,11.2-3.8s8.5,1.3,11.1,4c2.6,2.7,3.9,6.4,3.9,11.1v23.2
					C68.8,158.7,67.3,162.3,64.3,164.5z M60.3,128.2c-0.3-1.3-1-2.3-2.1-3.1c-1.1-0.7-2.6-1.1-4.6-1.1s-3.6,0.4-4.6,1.1
					c-1.1,0.7-1.8,1.7-2.1,3c-0.3,1.3-0.5,3-0.5,5v19.3c0,2.3,0.6,4.1,1.8,5.5c1.2,1.3,3,2,5.5,2c2.3,0,4-0.7,5.3-2.1
					c1.3-1.4,1.9-3.2,1.9-5.5v-19.1C60.8,131.2,60.6,129.5,60.3,128.2z"/>
				<path class="st1" d="M87.1,148.8l-1,1v17.3h-7.9v-50.6h7.9v23l10.8-10l5.9,5.6l-9.5,8c0.3,0.5,0.8,1.3,1.5,2.5
					c5.2,8.6,9.5,15.7,13.1,21.5h-10L87.1,148.8z"/>
				<path class="st1" d="M150.5,145.2c0-2.6-0.4-4.5-1-5.6c-0.7-1.2-1.8-1.7-3.4-1.7c-1.1,0-2.6,0.3-4.5,1l-1.2,0.5
					c0.1,0.3,0.2,0.6,0.2,1c0,0.4,0.1,0.7,0.1,1.1v25.7h-7.9v-21.7c0-2.4-0.6-4.3-1.7-5.6c-1.1-1.3-2.6-2-4.5-2
					c-1.7,0-3.4,0.5-5.3,1.6v27.7h-7.9V131h7l0.9,0.5c1.6-0.7,3.4-1.1,5.4-1.1c1.6,0,3.2,0.3,4.8,0.8c1.5,0.6,2.9,1.4,4,2.6
					c0.7-0.4,1.7-0.9,3-1.6c2.8-1.3,5.6-2,8.2-2c3.4,0,6.2,1,8.4,3.1c2.2,2.1,3.3,5,3.3,8.7v25h-7.9V145.2z"/>
			</g>
		</g>
	</g>
	<g>
		<g>
			<path class="st0" d="M234.4,105.7c-0.6,0.3-2.1,0.7-4,0.7c-6,0-8.6-3.7-8.6-8c0-5.7,4.1-8.5,8.9-8.5c1.8,0,3.3,0.4,4,0.7
				l-0.8,3.4c-0.7-0.3-1.7-0.6-3-0.6c-2.4,0-4.6,1.4-4.6,4.7c0,2.9,1.7,4.7,4.7,4.7c1,0,2.2-0.2,2.9-0.5L234.4,105.7z"/>
			<path class="st0" d="M248,100.1c0,4.3-3,6.2-6.3,6.2c-3.5,0-6.2-2.2-6.2-6c0-3.7,2.4-6.2,6.4-6.2C245.6,94.1,248,96.6,248,100.1z
				 M239.9,100.2c0,1.8,0.6,3.1,1.9,3.1c1.2,0,1.8-1.2,1.8-3.1c0-1.6-0.5-3.1-1.8-3.1C240.4,97.1,239.9,98.7,239.9,100.2z"/>
			<path class="st0" d="M250.1,98.4c0-1.6,0-2.9-0.1-4h3.6l0.2,1.5h0.1c0.4-0.6,1.4-1.7,3.5-1.7c1.5,0,2.7,0.7,3.2,1.9h0
				c0.5-0.6,1-1.1,1.6-1.4c0.6-0.3,1.3-0.5,2.1-0.5c2.5,0,4,1.8,4,5.1v6.9H264v-6.2c0-1.4-0.4-2.3-1.4-2.3c-0.7,0-1.1,0.4-1.3,1
				c-0.1,0.2-0.1,0.6-0.1,0.9v6.7H257v-6.3c0-1.3-0.4-2.2-1.4-2.2c-0.8,0-1.1,0.6-1.3,1c-0.1,0.3-0.1,0.6-0.1,0.9v6.7h-4.2V98.4z"/>
			<path class="st0" d="M270.8,98.4c0-1.6,0-2.9-0.1-4h3.7l0.2,1.5h0c0.9-1.2,2.2-1.8,3.8-1.8c2.4,0,4.8,2.2,4.8,6
				c0,4.3-2.8,6.2-5.3,6.2c-1.3,0-2.4-0.5-2.8-1.1h0v5.6h-4.3V98.4z M275,101c0,0.3,0,0.5,0.1,0.7c0.2,0.8,0.8,1.4,1.7,1.4
				c1.3,0,2.1-1.1,2.1-2.8c0-1.7-0.7-2.8-2-2.8c-0.9,0-1.6,0.7-1.7,1.5c0,0.2,0,0.4,0,0.5V101z"/>
			<path class="st0" d="M288.8,101.7c0.1,0.9,1.5,1.4,3,1.4c1.1,0,2.1-0.1,3.2-0.5l0.5,2.9c-1.4,0.5-2.9,0.7-4.4,0.7
				c-4.1,0-6.4-2.3-6.4-6c0-2.7,1.8-6.2,6.1-6.2c3.8,0,5.4,2.8,5.4,6c0,0.7-0.1,1.3-0.2,1.6H288.8z M292.3,98.8
				c0-0.7-0.3-1.9-1.7-1.9c-1.3,0-1.7,1.2-1.8,1.9H292.3z"/>
			<path class="st0" d="M302.8,91.1v3.3h2.4v3.1h-2.4v3.3c0,1.4,0.3,2,1.4,2c0.5,0,0.7,0,1-0.1v3.3c-0.5,0.2-1.4,0.3-2.5,0.3
				c-1.3,0-2.3-0.5-2.9-1.1c-0.7-0.7-1.1-1.9-1.1-3.6v-4.1h-1.4v-3.1h1.4v-2.2L302.8,91.1z"/>
			<path class="st0" d="M311.6,91.2c0,1.1-0.9,2-2.2,2c-1.3,0-2.2-0.9-2.2-2c0-1.2,0.9-2,2.2-2S311.6,90,311.6,91.2z M307.2,106.1
				V94.4h4.3v11.7H307.2z"/>
			<path class="st0" d="M318.9,91.1v3.3h2.4v3.1h-2.4v3.3c0,1.4,0.3,2,1.4,2c0.5,0,0.7,0,1-0.1v3.3c-0.5,0.2-1.4,0.3-2.5,0.3
				c-1.3,0-2.3-0.5-2.9-1.1c-0.7-0.7-1.1-1.9-1.1-3.6v-4.1h-1.4v-3.1h1.4v-2.2L318.9,91.1z"/>
			<path class="st0" d="M327.6,91.2c0,1.1-0.9,2-2.2,2c-1.3,0-2.2-0.9-2.2-2c0-1.2,0.9-2,2.2-2S327.6,90,327.6,91.2z M323.3,106.1
				V94.4h4.3v11.7H323.3z"/>
			<path class="st0" d="M333.7,94.4l1.3,5c0.2,1,0.4,1.9,0.5,2.8h0.1c0.1-1,0.3-1.8,0.5-2.8l1.2-5h4.5l-4.3,11.7h-4.3l-4.2-11.7
				H333.7z"/>
			<path class="st0" d="M353.5,103.2c0,1.2,0.1,2.3,0.2,2.9h-3.8l-0.2-1h-0.1c-0.8,0.9-2,1.3-3.2,1.3c-2.4,0-3.9-1.7-3.9-3.7
				c0-3.1,2.8-4.5,6.8-4.5V98c0-0.5-0.4-1-1.9-1c-1.2,0-2.5,0.4-3.3,0.9l-0.7-2.7c0.7-0.4,2.4-1.1,4.8-1.1c4,0,5.4,2.2,5.4,5.2
				V103.2z M349.3,100.7c-1.8,0-2.7,0.5-2.7,1.5c0,0.7,0.5,1.1,1.2,1.1c0.6,0,1.3-0.4,1.5-1.1c0-0.2,0-0.4,0-0.6V100.7z"/>
		</g>
		<g>
			<g>
				<path class="st1" d="M219.1,159c1.1,0.7,2.6,1.1,4.4,1.1c2.6,0,4.5-0.7,5.7-2.2c1.2-1.4,1.8-3.2,1.8-5.3c0-2.4-0.9-4.3-2.8-5.7
					c-1.9-1.4-4.4-2.1-7.6-2.1h-8l3.1-28.3h19.2v8H223l-1.4,12.7h1.8c2.8,0,5.4,0.7,7.7,2.1c2.4,1.4,4.2,3.2,5.6,5.6
					c1.4,2.3,2.1,4.9,2.1,7.7c0,2.8-0.7,5.4-2.1,7.7c-1.4,2.4-3.2,4.2-5.6,5.6c-2.4,1.4-4.9,2.1-7.7,2.1c-2.6,0-5-0.6-7.3-1.8
					c-2.3-1.2-4.1-2.9-5.5-5l4.9-5.7C216.8,157.1,218,158.3,219.1,159z"/>
				<path class="st1" d="M270.2,164.5c-3,2.3-6.5,3.4-10.7,3.4c-2.6,0-5.1-0.5-7.4-1.4c-2.3-0.9-4.2-2.5-5.7-4.6
					c-1.5-2.1-2.2-4.8-2.2-8.2v-23.3c0-5,1.4-8.7,4.1-11.3c2.7-2.6,6.5-3.8,11.2-3.8s8.5,1.3,11.1,4c2.6,2.7,3.9,6.4,3.9,11.1v23.2
					C274.6,158.7,273.1,162.3,270.2,164.5z M266.1,128.2c-0.3-1.3-1-2.3-2.1-3.1c-1.1-0.7-2.6-1.1-4.6-1.1s-3.6,0.4-4.6,1.1
					c-1.1,0.7-1.8,1.7-2.1,3c-0.3,1.3-0.5,3-0.5,5v19.3c0,2.3,0.6,4.1,1.8,5.5c1.2,1.3,3,2,5.5,2c2.3,0,4-0.7,5.3-2.1
					c1.3-1.4,1.9-3.2,1.9-5.5v-19.1C266.7,131.2,266.5,129.5,266.1,128.2z"/>
				<path class="st1" d="M292.9,148.8l-1,1v17.3H284v-50.6h7.9v23l10.8-10l5.9,5.6l-9.5,8c0.3,0.5,0.8,1.3,1.5,2.5
					c5.2,8.6,9.5,15.7,13.1,21.5h-10L292.9,148.8z"/>
				<path class="st1" d="M356.4,145.2c0-2.6-0.4-4.5-1-5.6c-0.7-1.2-1.8-1.7-3.4-1.7c-1.1,0-2.6,0.3-4.5,1l-1.2,0.5
					c0.1,0.3,0.2,0.6,0.2,1c0,0.4,0.1,0.7,0.1,1.1v25.7h-7.9v-21.7c0-2.4-0.6-4.3-1.7-5.6c-1.1-1.3-2.6-2-4.5-2
					c-1.7,0-3.4,0.5-5.3,1.6v27.7h-7.9V131h7l0.9,0.5c1.6-0.7,3.4-1.1,5.4-1.1c1.6,0,3.2,0.3,4.8,0.8c1.5,0.6,2.9,1.4,4,2.6
					c0.7-0.4,1.7-0.9,3-1.6c2.8-1.3,5.6-2,8.2-2c3.4,0,6.2,1,8.4,3.1c2.2,2.1,3.3,5,3.3,8.7v25h-7.9V145.2z"/>
			</g>
		</g>
	</g>
</g>
<g>
	<path class="st1" d="M87.8,14.3c-0.9,0.4-2.2,0.7-3.8,0.9c-1.6,0.2-2.7,0.3-3.2,0.4l-2.7-8.1c0,0.1,0.6-0.1,1.8-0.5
		c1.2-0.4,2.5-1,3.9-1.9c1.4-0.9,2.7-2.1,4-3.7h9.3v59.4h-9.4L87.8,14.3z"/>
	<path class="st1" d="M133.9,57.6c-3.5,2.7-7.7,4-12.5,4c-3.1,0-5.9-0.6-8.7-1.7c-2.7-1.1-4.9-2.9-6.7-5.4c-1.7-2.5-2.6-5.7-2.6-9.6
		V17.7c0-5.8,1.6-10.2,4.8-13.2c3.2-3,7.6-4.5,13.2-4.5c5.6,0,9.9,1.6,13,4.8c3.1,3.2,4.6,7.5,4.6,13.1V45
		C139.1,50.8,137.4,55,133.9,57.6z M129.2,15c-0.4-1.5-1.2-2.7-2.5-3.6c-1.2-0.9-3.1-1.3-5.4-1.3c-2.4,0-4.2,0.4-5.4,1.3
		c-1.2,0.8-2.1,2-2.5,3.5c-0.4,1.5-0.6,3.5-0.6,5.9v22.7c0,2.7,0.7,4.9,2.1,6.4c1.4,1.6,3.5,2.3,6.4,2.3c2.7,0,4.7-0.8,6.2-2.5
		c1.5-1.6,2.2-3.8,2.2-6.4V20.9C129.8,18.5,129.6,16.5,129.2,15z"/>
	<path class="st1" d="M153.9,50.1c-0.9,0.9-2.1,1.4-3.4,1.4c-1.2,0-2.3-0.5-3.3-1.4c-0.9-0.9-1.4-2-1.4-3.3c0-1.3,0.5-2.4,1.4-3.4
		c0.9-0.9,2-1.4,3.3-1.4c1.3,0,2.4,0.5,3.4,1.4c0.9,0.9,1.4,2.1,1.4,3.4C155.3,48,154.8,49.1,153.9,50.1z M147.4,33.1
		c-0.9-0.9-1.4-2-1.4-3.2c0-1.2,0.5-2.3,1.4-3.2c0.9-0.9,2-1.4,3.2-1.4c1.2,0,2.3,0.5,3.2,1.4c0.9,0.9,1.4,2,1.4,3.2
		c0,1.2-0.5,2.3-1.4,3.2c-0.9,0.9-2,1.4-3.2,1.4C149.4,34.4,148.3,34,147.4,33.1z"/>
	<path class="st1" d="M192,57.6c-3.5,2.7-7.7,4-12.5,4c-3.1,0-5.9-0.6-8.7-1.7c-2.7-1.1-4.9-2.9-6.7-5.4c-1.7-2.5-2.6-5.7-2.6-9.6
		V17.7c0-5.8,1.6-10.2,4.8-13.2c3.2-3,7.6-4.5,13.2-4.5s9.9,1.6,13,4.8c3.1,3.2,4.6,7.5,4.6,13.1V45C197.3,50.8,195.5,55,192,57.6z
		 M187.3,15c-0.4-1.5-1.2-2.7-2.5-3.6c-1.2-0.9-3.1-1.3-5.4-1.3c-2.4,0-4.2,0.4-5.4,1.3c-1.2,0.8-2.1,2-2.5,3.5
		c-0.4,1.5-0.6,3.5-0.6,5.9v22.7c0,2.7,0.7,4.9,2.1,6.4c1.4,1.6,3.5,2.3,6.4,2.3c2.7,0,4.7-0.8,6.2-2.5c1.5-1.6,2.2-3.8,2.2-6.4
		V20.9C187.9,18.5,187.7,16.5,187.3,15z"/>
	<path class="st1" d="M238.6,57.6c-3.5,2.7-7.7,4-12.5,4c-3.1,0-5.9-0.6-8.7-1.7c-2.7-1.1-4.9-2.9-6.7-5.4c-1.7-2.5-2.6-5.7-2.6-9.6
		V17.7c0-5.8,1.6-10.2,4.8-13.2c3.2-3,7.6-4.5,13.2-4.5c5.6,0,9.9,1.6,13,4.8c3.1,3.2,4.6,7.5,4.6,13.1V45
		C243.8,50.8,242.1,55,238.6,57.6z M233.9,15c-0.4-1.5-1.2-2.7-2.5-3.6c-1.2-0.9-3.1-1.3-5.4-1.3c-2.4,0-4.2,0.4-5.4,1.3
		c-1.2,0.8-2.1,2-2.5,3.5c-0.4,1.5-0.6,3.5-0.6,5.9v22.7c0,2.7,0.7,4.9,2.1,6.4c1.4,1.6,3.5,2.3,6.4,2.3c2.7,0,4.7-0.8,6.2-2.5
		c1.5-1.6,2.2-3.8,2.2-6.4V20.9C234.5,18.5,234.3,16.5,233.9,15z"/>
	<path class="st1" d="M276.8,34.7c0-3.1-0.7-5.2-2-6.5c-1.3-1.3-3-2-5-2c-1.1,0-2.1,0.2-3.1,0.5c-1,0.3-1.8,0.7-2.5,1.1v33h-9.3V1.4
		h9.3v17.2c2-0.7,4.3-1.1,6.9-1.1c2.9,0,5.6,0.5,7.9,1.6c2.3,1,4,2.5,5.3,4.6c1.3,2,1.9,4.6,1.9,7.7v29.4h-9.3V34.7z"/>
</g>
</svg>
